<?xml version="1.0" encoding="utf-8" standalone="no"?>
<!DOCTYPE svg PUBLIC "-//W3C//DTD SVG 1.1//EN"
  "http://www.w3.org/Graphics/SVG/1.1/DTD/svg11.dtd">
<svg xmlns:xlink="http://www.w3.org/1999/xlink" width="349.2pt" height="236.16pt" viewBox="0 0 349.2 236.16" xmlns="http://www.w3.org/2000/svg" version="1.1">
 <metadata>
  <rdf:RDF xmlns:dc="http://purl.org/dc/elements/1.1/" xmlns:cc="http://creativecommons.org/ns#" xmlns:rdf="http://www.w3.org/1999/02/22-rdf-syntax-ns#">
   <cc:Work>
    <dc:type rdf:resource="http://purl.org/dc/dcmitype/StillImage"/>
    <dc:date>2023-08-13T23:04:32.554946</dc:date>
    <dc:format>image/svg+xml</dc:format>
    <dc:creator>
     <cc:Agent>
      <dc:title>Matplotlib v3.6.2, https://matplotlib.org/</dc:title>
     </cc:Agent>
    </dc:creator>
   </cc:Work>
  </rdf:RDF>
 </metadata>
 <defs>
  <style type="text/css">*{stroke-linejoin: round; stroke-linecap: butt}</style>
 </defs>
 <g id="figure_1">
  <g id="patch_1">
   <path d="M 0 236.16 
L 349.2 236.16 
L 349.2 0 
L 0 0 
L 0 236.16 
z
" style="fill: none"/>
  </g>
  <g id="axes_1">
   <g id="PolyCollection_1">
    <defs>
     <path id="m0bbd566756" d="M 22.418182 -17.28 
L 22.418182 -17.323008 
L 23.028129 -17.331758 
L 23.638076 -17.341971 
L 24.248023 -17.353838 
L 24.85797 -17.367568 
L 25.467918 -17.383386 
L 26.077865 -17.401538 
L 26.687812 -17.422289 
L 27.297759 -17.445923 
L 27.907706 -17.472747 
L 28.517653 -17.503086 
L 29.127601 -17.53729 
L 29.737548 -17.575728 
L 30.347495 -17.618793 
L 30.957442 -17.666901 
L 31.567389 -17.720489 
L 32.177336 -17.780018 
L 32.787284 -17.845969 
L 33.397231 -17.918848 
L 34.007178 -17.999183 
L 34.617125 -18.087521 
L 35.227072 -18.184435 
L 35.837019 -18.290514 
L 36.446967 -18.406371 
L 37.056914 -18.532635 
L 37.666861 -18.669956 
L 38.276808 -18.819001 
L 38.886755 -18.980454 
L 39.496702 -19.155014 
L 40.10665 -19.343395 
L 40.716597 -19.546324 
L 41.326544 -19.764538 
L 41.936491 -19.998789 
L 42.546438 -20.249833 
L 43.156385 -20.518436 
L 43.766333 -20.80537 
L 44.37628 -21.111411 
L 44.986227 -21.437335 
L 45.596174 -21.783922 
L 46.206121 -22.15195 
L 46.816069 -22.542194 
L 47.426016 -22.955424 
L 48.035963 -23.392403 
L 48.64591 -23.853887 
L 49.255857 -24.340622 
L 49.865804 -24.853339 
L 50.475752 -25.392757 
L 51.085699 -25.959581 
L 51.695646 -26.554495 
L 52.305593 -27.178165 
L 52.91554 -27.831235 
L 53.525487 -28.514327 
L 54.135435 -29.228037 
L 54.745382 -29.972936 
L 55.355329 -30.749566 
L 55.965276 -31.558439 
L 56.575223 -32.400036 
L 57.18517 -33.274806 
L 57.795118 -34.183162 
L 58.405065 -35.125486 
L 59.015012 -36.102118 
L 59.624959 -37.113363 
L 60.234906 -38.159488 
L 60.844853 -39.240717 
L 61.454801 -40.357238 
L 62.064748 -41.509191 
L 62.674695 -42.696679 
L 63.284642 -43.91976 
L 63.894589 -45.178447 
L 64.504536 -46.47271 
L 65.114484 -47.802475 
L 65.724431 -49.167621 
L 66.334378 -50.567985 
L 66.944325 -52.003356 
L 67.554272 -53.473478 
L 68.164219 -54.978052 
L 68.774167 -56.51673 
L 69.384114 -58.089123 
L 69.994061 -59.694795 
L 70.604008 -61.333267 
L 71.213955 -63.004015 
L 71.823902 -64.706473 
L 72.43385 -66.440032 
L 73.043797 -68.20404 
L 73.653744 -69.997807 
L 74.263691 -71.8206 
L 74.873638 -73.671647 
L 75.483585 -75.55014 
L 76.093533 -77.45523 
L 76.70348 -79.386036 
L 77.313427 -81.341639 
L 77.923374 -83.321087 
L 78.533321 -85.323397 
L 79.143268 -87.347554 
L 79.753216 -89.392511 
L 80.363163 -91.457196 
L 80.97311 -93.540509 
L 81.583057 -95.641323 
L 82.193004 -97.758489 
L 82.802951 -99.890835 
L 83.412899 -102.037167 
L 84.022846 -104.196274 
L 84.632793 -106.366925 
L 85.24274 -108.547874 
L 85.852687 -110.737861 
L 86.462634 -112.935611 
L 87.072582 -115.13984 
L 87.682529 -117.349253 
L 88.292476 -119.562548 
L 88.902423 -121.778416 
L 89.51237 -123.995543 
L 90.122317 -126.212613 
L 90.732265 -128.428306 
L 91.342212 -130.641304 
L 91.952159 -132.85029 
L 92.562106 -135.05395 
L 93.172053 -137.250975 
L 93.782 -139.440059 
L 94.391948 -141.619909 
L 95.001895 -143.789235 
L 95.611842 -145.946762 
L 96.221789 -148.091224 
L 96.831736 -150.221368 
L 97.441683 -152.335956 
L 98.051631 -154.433766 
L 98.661578 -156.513591 
L 99.271525 -158.574243 
L 99.881472 -160.614554 
L 100.491419 -162.633373 
L 101.101366 -164.629574 
L 101.711314 -166.60205 
L 102.321261 -168.549718 
L 102.931208 -170.471519 
L 103.541155 -172.36642 
L 104.151102 -174.233413 
L 104.761049 -176.071515 
L 105.370997 -177.879773 
L 105.980944 -179.657258 
L 106.590891 -181.403074 
L 107.200838 -183.11635 
L 107.810785 -184.796248 
L 108.420732 -186.441958 
L 109.03068 -188.0527 
L 109.640627 -189.627728 
L 110.250574 -191.166325 
L 110.860521 -192.667805 
L 111.470468 -194.131517 
L 112.080415 -195.556838 
L 112.690363 -196.943182 
L 113.30031 -198.289991 
L 113.910257 -199.596743 
L 114.520204 -200.862946 
L 115.130151 -202.088143 
L 115.740098 -203.271909 
L 116.350046 -204.41385 
L 116.959993 -205.513607 
L 117.56994 -206.570852 
L 118.179887 -207.585288 
L 118.789834 -208.556653 
L 119.399781 -209.484714 
L 120.009729 -210.369272 
L 120.619676 -211.210158 
L 121.229623 -212.007233 
L 121.83957 -212.76039 
L 122.449517 -213.469552 
L 123.059464 -214.134672 
L 123.669412 -214.755731 
L 124.279359 -215.332742 
L 124.889306 -215.865742 
L 125.499253 -216.354801 
L 126.1092 -216.800012 
L 126.719147 -217.201499 
L 127.329095 -217.559408 
L 127.939042 -217.873916 
L 128.548989 -218.14522 
L 129.158936 -218.373546 
L 129.768883 -218.559142 
L 130.37883 -218.70228 
L 130.988778 -218.803254 
L 131.598725 -218.862381 
L 132.208672 -218.88 
L 132.818619 -218.85647 
L 133.428566 -218.792171 
L 134.038513 -218.687501 
L 134.648461 -218.54288 
L 135.258408 -218.358742 
L 135.868355 -218.135543 
L 136.478302 -217.873753 
L 137.088249 -217.573858 
L 137.698196 -217.236362 
L 138.308144 -216.861781 
L 138.918091 -216.450646 
L 139.528038 -216.003504 
L 140.137985 -215.520911 
L 140.747932 -215.003437 
L 141.357879 -214.451663 
L 141.967827 -213.866182 
L 142.577774 -213.247596 
L 143.187721 -212.596516 
L 143.797668 -211.913562 
L 144.407615 -211.199363 
L 145.017562 -210.454556 
L 145.62751 -209.679784 
L 146.237457 -208.875695 
L 146.847404 -208.042946 
L 147.457351 -207.182196 
L 148.067298 -206.29411 
L 148.677245 -205.379357 
L 149.287193 -204.438608 
L 149.89714 -203.47254 
L 150.507087 -202.481829 
L 151.117034 -201.467155 
L 151.726981 -200.429196 
L 152.336928 -199.368635 
L 152.946876 -198.286152 
L 153.556823 -197.182429 
L 154.16677 -196.058145 
L 154.776717 -194.91398 
L 155.386664 -193.750611 
L 155.996611 -192.568712 
L 156.606559 -191.368958 
L 157.216506 -190.152017 
L 157.826453 -188.918556 
L 158.4364 -187.669238 
L 159.046347 -186.404722 
L 159.656294 -185.125662 
L 160.266242 -183.832707 
L 160.876189 -182.526503 
L 161.486136 -181.207689 
L 162.096083 -179.876896 
L 162.70603 -178.534754 
L 163.315977 -177.181883 
L 163.925925 -175.818898 
L 164.535872 -174.446406 
L 165.145819 -173.065008 
L 165.755766 -171.675297 
L 166.365713 -170.277859 
L 166.97566 -168.873272 
L 167.585608 -167.462107 
L 168.195555 -166.044925 
L 168.805502 -164.622281 
L 169.415449 -163.19472 
L 170.025396 -161.762778 
L 170.635343 -160.326984 
L 171.245291 -158.887857 
L 171.855238 -157.445907 
L 172.465185 -156.001636 
L 173.075132 -154.555535 
L 173.685079 -153.108088 
L 174.295026 -151.659767 
L 174.904974 -150.211038 
L 175.514921 -148.762354 
L 176.124868 -147.314161 
L 176.734815 -145.866893 
L 177.344762 -144.420978 
L 177.954709 -142.976832 
L 178.564657 -141.53486 
L 179.174604 -140.09546 
L 179.784551 -138.65902 
L 180.394498 -137.225917 
L 181.004445 -135.796519 
L 181.614392 -134.371185 
L 182.22434 -132.950264 
L 182.834287 -131.534095 
L 183.444234 -130.123007 
L 184.054181 -128.717322 
L 184.664128 -127.31735 
L 185.274075 -125.923393 
L 185.884023 -124.535743 
L 186.49397 -123.154683 
L 187.103917 -121.780486 
L 187.713864 -120.413419 
L 188.323811 -119.053736 
L 188.933758 -117.701684 
L 189.543706 -116.357501 
L 190.153653 -115.021417 
L 190.7636 -113.693652 
L 191.373547 -112.374418 
L 191.983494 -111.063919 
L 192.593441 -109.762349 
L 193.203389 -108.469896 
L 193.813336 -107.186738 
L 194.423283 -105.913047 
L 195.03323 -104.648985 
L 195.643177 -103.394707 
L 196.253124 -102.150361 
L 196.863072 -100.916087 
L 197.473019 -99.692017 
L 198.082966 -98.478275 
L 198.692913 -97.274981 
L 199.30286 -96.082245 
L 199.912807 -94.900171 
L 200.522755 -93.728856 
L 201.132702 -92.568391 
L 201.742649 -91.418859 
L 202.352596 -90.280339 
L 202.962543 -89.152901 
L 203.57249 -88.03661 
L 204.182438 -86.931527 
L 204.792385 -85.837703 
L 205.402332 -84.755187 
L 206.012279 -83.68402 
L 206.622226 -82.624239 
L 207.232173 -81.575875 
L 207.842121 -80.538953 
L 208.452068 -79.513494 
L 209.062015 -78.499514 
L 209.671962 -77.497024 
L 210.281909 -76.50603 
L 210.891856 -75.526534 
L 211.501804 -74.558532 
L 212.111751 -73.602017 
L 212.721698 -72.656978 
L 213.331645 -71.7234 
L 213.941592 -70.801263 
L 214.551539 -69.890543 
L 215.161487 -68.991213 
L 215.771434 -68.103244 
L 216.381381 -67.226599 
L 216.991328 -66.361243 
L 217.601275 -65.507134 
L 218.211222 -64.664228 
L 218.82117 -63.832477 
L 219.431117 -63.011833 
L 220.041064 -62.202242 
L 220.651011 -61.403649 
L 221.260958 -60.615996 
L 221.870905 -59.839221 
L 222.480853 -59.073262 
L 223.0908 -58.318053 
L 223.700747 -57.573528 
L 224.310694 -56.839615 
L 224.920641 -56.116244 
L 225.530588 -55.40334 
L 226.140536 -54.700828 
L 226.750483 -54.008631 
L 227.36043 -53.32667 
L 227.970377 -52.654864 
L 228.580324 -51.993132 
L 229.190271 -51.341389 
L 229.800219 -50.699551 
L 230.410166 -50.067533 
L 231.020113 -49.445246 
L 231.63006 -48.832603 
L 232.240007 -48.229513 
L 232.849954 -47.635888 
L 233.459902 -47.051635 
L 234.069849 -46.476663 
L 234.679796 -45.910878 
L 235.289743 -45.354188 
L 235.89969 -44.806499 
L 236.509637 -44.267714 
L 237.119585 -43.737741 
L 237.729532 -43.216482 
L 238.339479 -42.703842 
L 238.949426 -42.199725 
L 239.559373 -41.704034 
L 240.16932 -41.216671 
L 240.779268 -40.737541 
L 241.389215 -40.266546 
L 241.999162 -39.803589 
L 242.609109 -39.348572 
L 243.219056 -38.901399 
L 243.829003 -38.461971 
L 244.438951 -38.030193 
L 245.048898 -37.605966 
L 245.658845 -37.189195 
L 246.268792 -36.779782 
L 246.878739 -36.377632 
L 247.488686 -35.982648 
L 248.098634 -35.594734 
L 248.708581 -35.213796 
L 249.318528 -34.839737 
L 249.928475 -34.472464 
L 250.538422 -34.111882 
L 251.148369 -33.757898 
L 251.758317 -33.410418 
L 252.368264 -33.069349 
L 252.978211 -32.734601 
L 253.588158 -32.40608 
L 254.198105 -32.083695 
L 254.808052 -31.767358 
L 255.418 -31.456977 
L 256.027947 -31.152463 
L 256.637894 -30.853728 
L 257.247841 -30.560685 
L 257.857788 -30.273246 
L 258.467735 -29.991324 
L 259.077683 -29.714835 
L 259.68763 -29.443693 
L 260.297577 -29.177813 
L 260.907524 -28.917114 
L 261.517471 -28.661511 
L 262.127418 -28.410923 
L 262.737366 -28.165269 
L 263.347313 -27.924469 
L 263.95726 -27.688443 
L 264.567207 -27.457113 
L 265.177154 -27.2304 
L 265.787101 -27.008229 
L 266.397049 -26.790522 
L 267.006996 -26.577205 
L 267.616943 -26.368203 
L 268.22689 -26.163442 
L 268.836837 -25.96285 
L 269.446784 -25.766355 
L 270.056732 -25.573886 
L 270.666679 -25.385372 
L 271.276626 -25.200744 
L 271.886573 -25.019935 
L 272.49652 -24.842876 
L 273.106467 -24.6695 
L 273.716415 -24.499742 
L 274.326362 -24.333537 
L 274.936309 -24.170821 
L 275.546256 -24.011529 
L 276.156203 -23.855601 
L 276.76615 -23.702974 
L 277.376098 -23.553588 
L 277.986045 -23.407382 
L 278.595992 -23.264298 
L 279.205939 -23.124278 
L 279.815886 -22.987264 
L 280.425833 -22.853199 
L 281.035781 -22.722028 
L 281.645728 -22.593697 
L 282.255675 -22.46815 
L 282.865622 -22.345335 
L 283.475569 -22.225199 
L 284.085516 -22.10769 
L 284.695464 -21.992759 
L 285.305411 -21.880354 
L 285.915358 -21.770426 
L 286.525305 -21.662928 
L 287.135252 -21.55781 
L 287.745199 -21.455027 
L 288.355147 -21.354531 
L 288.965094 -21.256278 
L 289.575041 -21.160223 
L 290.184988 -21.066321 
L 290.794935 -20.974529 
L 291.404882 -20.884806 
L 292.01483 -20.797108 
L 292.624777 -20.711396 
L 293.234724 -20.627628 
L 293.844671 -20.545764 
L 294.454618 -20.465766 
L 295.064565 -20.387595 
L 295.674513 -20.311214 
L 296.28446 -20.236585 
L 296.894407 -20.163672 
L 297.504354 -20.09244 
L 298.114301 -20.022852 
L 298.724248 -19.954875 
L 299.334196 -19.888475 
L 299.944143 -19.823618 
L 300.55409 -19.760272 
L 301.164037 -19.698404 
L 301.773984 -19.637983 
L 302.383931 -19.578979 
L 302.993879 -19.52136 
L 303.603826 -19.465098 
L 304.213773 -19.410162 
L 304.82372 -19.356525 
L 305.433667 -19.304157 
L 306.043615 -19.253032 
L 306.653562 -19.203123 
L 307.263509 -19.154402 
L 307.873456 -19.106844 
L 308.483403 -19.060423 
L 309.09335 -19.015114 
L 309.703298 -18.970893 
L 310.313245 -18.927735 
L 310.923192 -18.885617 
L 311.533139 -18.844516 
L 312.143086 -18.804409 
L 312.753033 -18.765273 
L 313.362981 -18.727088 
L 313.972928 -18.689831 
L 314.582875 -18.653481 
L 315.192822 -18.618019 
L 315.802769 -18.583424 
L 316.412716 -18.549676 
L 317.022664 -18.516757 
L 317.632611 -18.484646 
L 318.242558 -18.453326 
L 318.852505 -18.422779 
L 319.462452 -18.392986 
L 320.072399 -18.363931 
L 320.682347 -18.335596 
L 321.292294 -18.307965 
L 321.902241 -18.281021 
L 322.512188 -18.254749 
L 323.122135 -18.229132 
L 323.732082 -18.204156 
L 324.34203 -18.179805 
L 324.951977 -18.156065 
L 325.561924 -18.132921 
L 326.171871 -18.11036 
L 326.781818 -18.088367 
L 326.781818 -17.28 
L 326.781818 -17.28 
L 326.171871 -17.28 
L 325.561924 -17.28 
L 324.951977 -17.28 
L 324.34203 -17.28 
L 323.732082 -17.28 
L 323.122135 -17.28 
L 322.512188 -17.28 
L 321.902241 -17.28 
L 321.292294 -17.28 
L 320.682347 -17.28 
L 320.072399 -17.28 
L 319.462452 -17.28 
L 318.852505 -17.28 
L 318.242558 -17.28 
L 317.632611 -17.28 
L 317.022664 -17.28 
L 316.412716 -17.28 
L 315.802769 -17.28 
L 315.192822 -17.28 
L 314.582875 -17.28 
L 313.972928 -17.28 
L 313.362981 -17.28 
L 312.753033 -17.28 
L 312.143086 -17.28 
L 311.533139 -17.28 
L 310.923192 -17.28 
L 310.313245 -17.28 
L 309.703298 -17.28 
L 309.09335 -17.28 
L 308.483403 -17.28 
L 307.873456 -17.28 
L 307.263509 -17.28 
L 306.653562 -17.28 
L 306.043615 -17.28 
L 305.433667 -17.28 
L 304.82372 -17.28 
L 304.213773 -17.28 
L 303.603826 -17.28 
L 302.993879 -17.28 
L 302.383931 -17.28 
L 301.773984 -17.28 
L 301.164037 -17.28 
L 300.55409 -17.28 
L 299.944143 -17.28 
L 299.334196 -17.28 
L 298.724248 -17.28 
L 298.114301 -17.28 
L 297.504354 -17.28 
L 296.894407 -17.28 
L 296.28446 -17.28 
L 295.674513 -17.28 
L 295.064565 -17.28 
L 294.454618 -17.28 
L 293.844671 -17.28 
L 293.234724 -17.28 
L 292.624777 -17.28 
L 292.01483 -17.28 
L 291.404882 -17.28 
L 290.794935 -17.28 
L 290.184988 -17.28 
L 289.575041 -17.28 
L 288.965094 -17.28 
L 288.355147 -17.28 
L 287.745199 -17.28 
L 287.135252 -17.28 
L 286.525305 -17.28 
L 285.915358 -17.28 
L 285.305411 -17.28 
L 284.695464 -17.28 
L 284.085516 -17.28 
L 283.475569 -17.28 
L 282.865622 -17.28 
L 282.255675 -17.28 
L 281.645728 -17.28 
L 281.035781 -17.28 
L 280.425833 -17.28 
L 279.815886 -17.28 
L 279.205939 -17.28 
L 278.595992 -17.28 
L 277.986045 -17.28 
L 277.376098 -17.28 
L 276.76615 -17.28 
L 276.156203 -17.28 
L 275.546256 -17.28 
L 274.936309 -17.28 
L 274.326362 -17.28 
L 273.716415 -17.28 
L 273.106467 -17.28 
L 272.49652 -17.28 
L 271.886573 -17.28 
L 271.276626 -17.28 
L 270.666679 -17.28 
L 270.056732 -17.28 
L 269.446784 -17.28 
L 268.836837 -17.28 
L 268.22689 -17.28 
L 267.616943 -17.28 
L 267.006996 -17.28 
L 266.397049 -17.28 
L 265.787101 -17.28 
L 265.177154 -17.28 
L 264.567207 -17.28 
L 263.95726 -17.28 
L 263.347313 -17.28 
L 262.737366 -17.28 
L 262.127418 -17.28 
L 261.517471 -17.28 
L 260.907524 -17.28 
L 260.297577 -17.28 
L 259.68763 -17.28 
L 259.077683 -17.28 
L 258.467735 -17.28 
L 257.857788 -17.28 
L 257.247841 -17.28 
L 256.637894 -17.28 
L 256.027947 -17.28 
L 255.418 -17.28 
L 254.808052 -17.28 
L 254.198105 -17.28 
L 253.588158 -17.28 
L 252.978211 -17.28 
L 252.368264 -17.28 
L 251.758317 -17.28 
L 251.148369 -17.28 
L 250.538422 -17.28 
L 249.928475 -17.28 
L 249.318528 -17.28 
L 248.708581 -17.28 
L 248.098634 -17.28 
L 247.488686 -17.28 
L 246.878739 -17.28 
L 246.268792 -17.28 
L 245.658845 -17.28 
L 245.048898 -17.28 
L 244.438951 -17.28 
L 243.829003 -17.28 
L 243.219056 -17.28 
L 242.609109 -17.28 
L 241.999162 -17.28 
L 241.389215 -17.28 
L 240.779268 -17.28 
L 240.16932 -17.28 
L 239.559373 -17.28 
L 238.949426 -17.28 
L 238.339479 -17.28 
L 237.729532 -17.28 
L 237.119585 -17.28 
L 236.509637 -17.28 
L 235.89969 -17.28 
L 235.289743 -17.28 
L 234.679796 -17.28 
L 234.069849 -17.28 
L 233.459902 -17.28 
L 232.849954 -17.28 
L 232.240007 -17.28 
L 231.63006 -17.28 
L 231.020113 -17.28 
L 230.410166 -17.28 
L 229.800219 -17.28 
L 229.190271 -17.28 
L 228.580324 -17.28 
L 227.970377 -17.28 
L 227.36043 -17.28 
L 226.750483 -17.28 
L 226.140536 -17.28 
L 225.530588 -17.28 
L 224.920641 -17.28 
L 224.310694 -17.28 
L 223.700747 -17.28 
L 223.0908 -17.28 
L 222.480853 -17.28 
L 221.870905 -17.28 
L 221.260958 -17.28 
L 220.651011 -17.28 
L 220.041064 -17.28 
L 219.431117 -17.28 
L 218.82117 -17.28 
L 218.211222 -17.28 
L 217.601275 -17.28 
L 216.991328 -17.28 
L 216.381381 -17.28 
L 215.771434 -17.28 
L 215.161487 -17.28 
L 214.551539 -17.28 
L 213.941592 -17.28 
L 213.331645 -17.28 
L 212.721698 -17.28 
L 212.111751 -17.28 
L 211.501804 -17.28 
L 210.891856 -17.28 
L 210.281909 -17.28 
L 209.671962 -17.28 
L 209.062015 -17.28 
L 208.452068 -17.28 
L 207.842121 -17.28 
L 207.232173 -17.28 
L 206.622226 -17.28 
L 206.012279 -17.28 
L 205.402332 -17.28 
L 204.792385 -17.28 
L 204.182438 -17.28 
L 203.57249 -17.28 
L 202.962543 -17.28 
L 202.352596 -17.28 
L 201.742649 -17.28 
L 201.132702 -17.28 
L 200.522755 -17.28 
L 199.912807 -17.28 
L 199.30286 -17.28 
L 198.692913 -17.28 
L 198.082966 -17.28 
L 197.473019 -17.28 
L 196.863072 -17.28 
L 196.253124 -17.28 
L 195.643177 -17.28 
L 195.03323 -17.28 
L 194.423283 -17.28 
L 193.813336 -17.28 
L 193.203389 -17.28 
L 192.593441 -17.28 
L 191.983494 -17.28 
L 191.373547 -17.28 
L 190.7636 -17.28 
L 190.153653 -17.28 
L 189.543706 -17.28 
L 188.933758 -17.28 
L 188.323811 -17.28 
L 187.713864 -17.28 
L 187.103917 -17.28 
L 186.49397 -17.28 
L 185.884023 -17.28 
L 185.274075 -17.28 
L 184.664128 -17.28 
L 184.054181 -17.28 
L 183.444234 -17.28 
L 182.834287 -17.28 
L 182.22434 -17.28 
L 181.614392 -17.28 
L 181.004445 -17.28 
L 180.394498 -17.28 
L 179.784551 -17.28 
L 179.174604 -17.28 
L 178.564657 -17.28 
L 177.954709 -17.28 
L 177.344762 -17.28 
L 176.734815 -17.28 
L 176.124868 -17.28 
L 175.514921 -17.28 
L 174.904974 -17.28 
L 174.295026 -17.28 
L 173.685079 -17.28 
L 173.075132 -17.28 
L 172.465185 -17.28 
L 171.855238 -17.28 
L 171.245291 -17.28 
L 170.635343 -17.28 
L 170.025396 -17.28 
L 169.415449 -17.28 
L 168.805502 -17.28 
L 168.195555 -17.28 
L 167.585608 -17.28 
L 166.97566 -17.28 
L 166.365713 -17.28 
L 165.755766 -17.28 
L 165.145819 -17.28 
L 164.535872 -17.28 
L 163.925925 -17.28 
L 163.315977 -17.28 
L 162.70603 -17.28 
L 162.096083 -17.28 
L 161.486136 -17.28 
L 160.876189 -17.28 
L 160.266242 -17.28 
L 159.656294 -17.28 
L 159.046347 -17.28 
L 158.4364 -17.28 
L 157.826453 -17.28 
L 157.216506 -17.28 
L 156.606559 -17.28 
L 155.996611 -17.28 
L 155.386664 -17.28 
L 154.776717 -17.28 
L 154.16677 -17.28 
L 153.556823 -17.28 
L 152.946876 -17.28 
L 152.336928 -17.28 
L 151.726981 -17.28 
L 151.117034 -17.28 
L 150.507087 -17.28 
L 149.89714 -17.28 
L 149.287193 -17.28 
L 148.677245 -17.28 
L 148.067298 -17.28 
L 147.457351 -17.28 
L 146.847404 -17.28 
L 146.237457 -17.28 
L 145.62751 -17.28 
L 145.017562 -17.28 
L 144.407615 -17.28 
L 143.797668 -17.28 
L 143.187721 -17.28 
L 142.577774 -17.28 
L 141.967827 -17.28 
L 141.357879 -17.28 
L 140.747932 -17.28 
L 140.137985 -17.28 
L 139.528038 -17.28 
L 138.918091 -17.28 
L 138.308144 -17.28 
L 137.698196 -17.28 
L 137.088249 -17.28 
L 136.478302 -17.28 
L 135.868355 -17.28 
L 135.258408 -17.28 
L 134.648461 -17.28 
L 134.038513 -17.28 
L 133.428566 -17.28 
L 132.818619 -17.28 
L 132.208672 -17.28 
L 131.598725 -17.28 
L 130.988778 -17.28 
L 130.37883 -17.28 
L 129.768883 -17.28 
L 129.158936 -17.28 
L 128.548989 -17.28 
L 127.939042 -17.28 
L 127.329095 -17.28 
L 126.719147 -17.28 
L 126.1092 -17.28 
L 125.499253 -17.28 
L 124.889306 -17.28 
L 124.279359 -17.28 
L 123.669412 -17.28 
L 123.059464 -17.28 
L 122.449517 -17.28 
L 121.83957 -17.28 
L 121.229623 -17.28 
L 120.619676 -17.28 
L 120.009729 -17.28 
L 119.399781 -17.28 
L 118.789834 -17.28 
L 118.179887 -17.28 
L 117.56994 -17.28 
L 116.959993 -17.28 
L 116.350046 -17.28 
L 115.740098 -17.28 
L 115.130151 -17.28 
L 114.520204 -17.28 
L 113.910257 -17.28 
L 113.30031 -17.28 
L 112.690363 -17.28 
L 112.080415 -17.28 
L 111.470468 -17.28 
L 110.860521 -17.28 
L 110.250574 -17.28 
L 109.640627 -17.28 
L 109.03068 -17.28 
L 108.420732 -17.28 
L 107.810785 -17.28 
L 107.200838 -17.28 
L 106.590891 -17.28 
L 105.980944 -17.28 
L 105.370997 -17.28 
L 104.761049 -17.28 
L 104.151102 -17.28 
L 103.541155 -17.28 
L 102.931208 -17.28 
L 102.321261 -17.28 
L 101.711314 -17.28 
L 101.101366 -17.28 
L 100.491419 -17.28 
L 99.881472 -17.28 
L 99.271525 -17.28 
L 98.661578 -17.28 
L 98.051631 -17.28 
L 97.441683 -17.28 
L 96.831736 -17.28 
L 96.221789 -17.28 
L 95.611842 -17.28 
L 95.001895 -17.28 
L 94.391948 -17.28 
L 93.782 -17.28 
L 93.172053 -17.28 
L 92.562106 -17.28 
L 91.952159 -17.28 
L 91.342212 -17.28 
L 90.732265 -17.28 
L 90.122317 -17.28 
L 89.51237 -17.28 
L 88.902423 -17.28 
L 88.292476 -17.28 
L 87.682529 -17.28 
L 87.072582 -17.28 
L 86.462634 -17.28 
L 85.852687 -17.28 
L 85.24274 -17.28 
L 84.632793 -17.28 
L 84.022846 -17.28 
L 83.412899 -17.28 
L 82.802951 -17.28 
L 82.193004 -17.28 
L 81.583057 -17.28 
L 80.97311 -17.28 
L 80.363163 -17.28 
L 79.753216 -17.28 
L 79.143268 -17.28 
L 78.533321 -17.28 
L 77.923374 -17.28 
L 77.313427 -17.28 
L 76.70348 -17.28 
L 76.093533 -17.28 
L 75.483585 -17.28 
L 74.873638 -17.28 
L 74.263691 -17.28 
L 73.653744 -17.28 
L 73.043797 -17.28 
L 72.43385 -17.28 
L 71.823902 -17.28 
L 71.213955 -17.28 
L 70.604008 -17.28 
L 69.994061 -17.28 
L 69.384114 -17.28 
L 68.774167 -17.28 
L 68.164219 -17.28 
L 67.554272 -17.28 
L 66.944325 -17.28 
L 66.334378 -17.28 
L 65.724431 -17.28 
L 65.114484 -17.28 
L 64.504536 -17.28 
L 63.894589 -17.28 
L 63.284642 -17.28 
L 62.674695 -17.28 
L 62.064748 -17.28 
L 61.454801 -17.28 
L 60.844853 -17.28 
L 60.234906 -17.28 
L 59.624959 -17.28 
L 59.015012 -17.28 
L 58.405065 -17.28 
L 57.795118 -17.28 
L 57.18517 -17.28 
L 56.575223 -17.28 
L 55.965276 -17.28 
L 55.355329 -17.28 
L 54.745382 -17.28 
L 54.135435 -17.28 
L 53.525487 -17.28 
L 52.91554 -17.28 
L 52.305593 -17.28 
L 51.695646 -17.28 
L 51.085699 -17.28 
L 50.475752 -17.28 
L 49.865804 -17.28 
L 49.255857 -17.28 
L 48.64591 -17.28 
L 48.035963 -17.28 
L 47.426016 -17.28 
L 46.816069 -17.28 
L 46.206121 -17.28 
L 45.596174 -17.28 
L 44.986227 -17.28 
L 44.37628 -17.28 
L 43.766333 -17.28 
L 43.156385 -17.28 
L 42.546438 -17.28 
L 41.936491 -17.28 
L 41.326544 -17.28 
L 40.716597 -17.28 
L 40.10665 -17.28 
L 39.496702 -17.28 
L 38.886755 -17.28 
L 38.276808 -17.28 
L 37.666861 -17.28 
L 37.056914 -17.28 
L 36.446967 -17.28 
L 35.837019 -17.28 
L 35.227072 -17.28 
L 34.617125 -17.28 
L 34.007178 -17.28 
L 33.397231 -17.28 
L 32.787284 -17.28 
L 32.177336 -17.28 
L 31.567389 -17.28 
L 30.957442 -17.28 
L 30.347495 -17.28 
L 29.737548 -17.28 
L 29.127601 -17.28 
L 28.517653 -17.28 
L 27.907706 -17.28 
L 27.297759 -17.28 
L 26.687812 -17.28 
L 26.077865 -17.28 
L 25.467918 -17.28 
L 24.85797 -17.28 
L 24.248023 -17.28 
L 23.638076 -17.28 
L 23.028129 -17.28 
L 22.418182 -17.28 
z
" style="stroke: #90ee90"/>
    </defs>
    <g clip-path="url(#pe4c1b258ad)">
     <use xlink:href="#m0bbd566756" x="0" y="236.16" style="fill: #90ee90; stroke: #90ee90"/>
    </g>
   </g>
   <g id="line2d_1">
    <path d="M 22.418182 218.836992 
L 28.517653 218.656914 
L 32.787284 218.314031 
L 35.837019 217.869486 
L 38.886755 217.179546 
L 41.326544 216.395462 
L 43.766333 215.35463 
L 46.206121 214.00805 
L 48.035963 212.767597 
L 49.865804 211.306661 
L 51.695646 209.605505 
L 53.525487 207.645673 
L 55.355329 205.410434 
L 57.18517 202.885194 
L 59.015012 200.057882 
L 61.454801 195.802762 
L 63.894589 190.981553 
L 66.334378 185.592015 
L 68.774167 179.64327 
L 71.213955 173.155985 
L 74.263691 164.3394 
L 77.313427 154.818361 
L 80.97311 142.619491 
L 85.852687 125.422139 
L 98.661578 79.646409 
L 102.321261 67.610282 
L 105.370997 58.280227 
L 108.420732 49.718042 
L 110.860521 43.492195 
L 113.30031 37.870009 
L 115.740098 32.888091 
L 117.56994 29.589148 
L 119.399781 26.675286 
L 121.229623 24.152767 
L 123.059464 22.025328 
L 124.889306 20.294258 
L 126.719147 18.958501 
L 127.939042 18.286084 
L 129.158936 17.786454 
L 130.37883 17.45772 
L 131.598725 17.297619 
L 132.818619 17.30353 
L 134.038513 17.472499 
L 135.258408 17.801258 
L 137.088249 18.586142 
L 138.918091 19.709354 
L 140.747932 21.156563 
L 142.577774 22.912404 
L 144.407615 24.960637 
L 146.237457 27.284305 
L 148.677245 30.780643 
L 151.117034 34.692845 
L 154.16677 40.101855 
L 157.216506 46.007983 
L 160.876189 53.633497 
L 165.145819 63.094992 
L 170.635343 75.833016 
L 186.49397 113.005317 
L 191.373547 123.785582 
L 196.253124 134.009639 
L 200.522755 142.431144 
L 204.792385 150.322297 
L 208.452068 156.646506 
L 212.111751 162.557983 
L 215.771434 168.056756 
L 219.431117 173.148167 
L 223.0908 177.841947 
L 226.750483 182.151369 
L 230.410166 186.092467 
L 234.069849 189.683337 
L 237.729532 192.943518 
L 241.389215 195.893454 
L 245.048898 198.554034 
L 248.708581 200.946204 
L 252.368264 203.090651 
L 256.027947 205.007537 
L 260.297577 206.982187 
L 264.567207 208.702887 
L 268.836837 210.19715 
L 273.716415 211.660258 
L 278.595992 212.895702 
L 284.085516 214.05231 
L 290.184988 215.093679 
L 296.894407 215.996328 
L 304.213773 216.749838 
L 312.753033 217.394727 
L 322.512188 217.905251 
L 326.781818 218.071633 
L 326.781818 218.071633 
" clip-path="url(#pe4c1b258ad)" style="fill: none; stroke: #000000; stroke-width: 5; stroke-linecap: square"/>
   </g>
  </g>
 </g>
 <defs>
  <clipPath id="pe4c1b258ad">
   <rect x="7.2" y="7.2" width="334.8" height="221.76"/>
  </clipPath>
 </defs>
</svg>
