<?xml version="1.0" encoding="utf-8" standalone="no"?>
<!DOCTYPE svg PUBLIC "-//W3C//DTD SVG 1.1//EN"
  "http://www.w3.org/Graphics/SVG/1.1/DTD/svg11.dtd">
<svg xmlns:xlink="http://www.w3.org/1999/xlink" width="349.2pt" height="236.16pt" viewBox="0 0 349.2 236.16" xmlns="http://www.w3.org/2000/svg" version="1.1">
 <metadata>
  <rdf:RDF xmlns:dc="http://purl.org/dc/elements/1.1/" xmlns:cc="http://creativecommons.org/ns#" xmlns:rdf="http://www.w3.org/1999/02/22-rdf-syntax-ns#">
   <cc:Work>
    <dc:type rdf:resource="http://purl.org/dc/dcmitype/StillImage"/>
    <dc:date>2023-08-13T23:04:32.569248</dc:date>
    <dc:format>image/svg+xml</dc:format>
    <dc:creator>
     <cc:Agent>
      <dc:title>Matplotlib v3.6.2, https://matplotlib.org/</dc:title>
     </cc:Agent>
    </dc:creator>
   </cc:Work>
  </rdf:RDF>
 </metadata>
 <defs>
  <style type="text/css">*{stroke-linejoin: round; stroke-linecap: butt}</style>
 </defs>
 <g id="figure_1">
  <g id="patch_1">
   <path d="M 0 236.16 
L 349.2 236.16 
L 349.2 0 
L 0 0 
L 0 236.16 
z
" style="fill: none"/>
  </g>
  <g id="axes_1">
   <g id="PolyCollection_1">
    <defs>
     <path id="md6f9f859af" d="M 22.418182 -17.28 
L 22.418182 -17.292463 
L 23.028129 -17.294725 
L 23.638076 -17.297339 
L 24.248023 -17.300349 
L 24.85797 -17.303806 
L 25.467918 -17.307763 
L 26.077865 -17.312282 
L 26.687812 -17.317427 
L 27.297759 -17.32327 
L 27.907706 -17.329887 
L 28.517653 -17.337362 
L 29.127601 -17.345786 
L 29.737548 -17.355257 
L 30.347495 -17.365879 
L 30.957442 -17.377767 
L 31.567389 -17.39104 
L 32.177336 -17.40583 
L 32.787284 -17.422273 
L 33.397231 -17.440519 
L 34.007178 -17.460724 
L 34.617125 -17.483054 
L 35.227072 -17.507687 
L 35.837019 -17.53481 
L 36.446967 -17.56462 
L 37.056914 -17.597325 
L 37.666861 -17.633144 
L 38.276808 -17.672308 
L 38.886755 -17.715058 
L 39.496702 -17.761646 
L 40.10665 -17.812338 
L 40.716597 -17.867409 
L 41.326544 -17.927147 
L 41.936491 -17.991851 
L 42.546438 -18.061832 
L 43.156385 -18.137412 
L 43.766333 -18.218926 
L 44.37628 -18.30672 
L 44.986227 -18.401149 
L 45.596174 -18.502583 
L 46.206121 -18.6114 
L 46.816069 -18.727991 
L 47.426016 -18.852755 
L 48.035963 -18.986102 
L 48.64591 -19.128454 
L 49.255857 -19.28024 
L 49.865804 -19.441898 
L 50.475752 -19.613876 
L 51.085699 -19.796629 
L 51.695646 -19.990619 
L 52.305593 -20.196317 
L 52.91554 -20.4142 
L 53.525487 -20.644749 
L 54.135435 -20.888451 
L 54.745382 -21.145799 
L 55.355329 -21.417289 
L 55.965276 -21.703419 
L 56.575223 -22.00469 
L 57.18517 -22.321606 
L 57.795118 -22.654669 
L 58.405065 -23.004384 
L 59.015012 -23.371253 
L 59.624959 -23.755778 
L 60.234906 -24.158456 
L 60.844853 -24.579783 
L 61.454801 -25.02025 
L 62.064748 -25.480341 
L 62.674695 -25.960537 
L 63.284642 -26.46131 
L 63.894589 -26.983124 
L 64.504536 -27.526435 
L 65.114484 -28.091688 
L 65.724431 -28.679319 
L 66.334378 -29.289752 
L 66.944325 -29.923397 
L 67.554272 -30.580652 
L 68.164219 -31.261901 
L 68.774167 -31.967513 
L 69.384114 -32.697839 
L 69.994061 -33.453217 
L 70.604008 -34.233964 
L 71.213955 -35.04038 
L 71.823902 -35.872746 
L 72.43385 -36.731323 
L 73.043797 -37.616352 
L 73.653744 -38.528052 
L 74.263691 -39.46662 
L 74.873638 -40.432231 
L 75.483585 -41.425037 
L 76.093533 -42.445166 
L 76.70348 -43.492721 
L 77.313427 -44.567783 
L 77.923374 -45.670404 
L 78.533321 -46.800614 
L 79.143268 -47.958415 
L 79.753216 -49.143783 
L 80.363163 -50.356668 
L 80.97311 -51.596993 
L 81.583057 -52.864652 
L 82.193004 -54.159516 
L 82.802951 -55.481424 
L 83.412899 -56.83019 
L 84.022846 -58.205601 
L 84.632793 -59.607414 
L 85.24274 -61.035361 
L 85.852687 -62.489145 
L 86.462634 -63.968442 
L 87.072582 -65.472901 
L 87.682529 -67.002143 
L 88.292476 -68.555764 
L 88.902423 -70.133333 
L 89.51237 -71.73439 
L 90.122317 -73.358453 
L 90.732265 -75.005013 
L 91.342212 -76.673535 
L 91.952159 -78.36346 
L 92.562106 -80.074205 
L 93.172053 -81.805164 
L 93.782 -83.555706 
L 94.391948 -85.32518 
L 95.001895 -87.112911 
L 95.611842 -88.918204 
L 96.221789 -90.740343 
L 96.831736 -92.578592 
L 97.441683 -94.432195 
L 98.051631 -96.30038 
L 98.661578 -98.182356 
L 99.271525 -100.077313 
L 99.881472 -101.984429 
L 100.491419 -103.902865 
L 101.101366 -105.831765 
L 101.711314 -107.770264 
L 102.321261 -109.717481 
L 102.931208 -111.672526 
L 103.541155 -113.634494 
L 104.151102 -115.602474 
L 104.761049 -117.575545 
L 105.370997 -119.552776 
L 105.980944 -121.533231 
L 106.590891 -123.515966 
L 107.200838 -125.500032 
L 107.810785 -127.484478 
L 108.420732 -129.468345 
L 109.03068 -131.450675 
L 109.640627 -133.430507 
L 110.250574 -135.406879 
L 110.860521 -137.37883 
L 111.470468 -139.345399 
L 112.080415 -141.305628 
L 112.690363 -143.258561 
L 113.30031 -145.203247 
L 113.910257 -147.138738 
L 114.520204 -149.064092 
L 115.130151 -150.978374 
L 115.740098 -152.880655 
L 116.350046 -154.770016 
L 116.959993 -156.645544 
L 117.56994 -158.506336 
L 118.179887 -160.351502 
L 118.789834 -162.18016 
L 119.399781 -163.99144 
L 120.009729 -165.784487 
L 120.619676 -167.558457 
L 121.229623 -169.312518 
L 121.83957 -171.045857 
L 122.449517 -172.757673 
L 123.059464 -174.44718 
L 123.669412 -176.11361 
L 124.279359 -177.756212 
L 124.889306 -179.37425 
L 125.499253 -180.967007 
L 126.1092 -182.533786 
L 126.719147 -184.073905 
L 127.329095 -185.586705 
L 127.939042 -187.071542 
L 128.548989 -188.527797 
L 129.158936 -189.954868 
L 129.768883 -191.352173 
L 130.37883 -192.719154 
L 130.988778 -194.05527 
L 131.598725 -195.360005 
L 132.208672 -196.632863 
L 132.818619 -197.873369 
L 133.428566 -199.081072 
L 134.038513 -200.255542 
L 134.648461 -201.396369 
L 135.258408 -202.50317 
L 135.868355 -203.575581 
L 136.478302 -204.613262 
L 137.088249 -205.615894 
L 137.698196 -206.583182 
L 138.308144 -207.514852 
L 138.918091 -208.410655 
L 139.528038 -209.270361 
L 140.137985 -210.093766 
L 140.747932 -210.880686 
L 141.357879 -211.630959 
L 141.967827 -212.344445 
L 142.577774 -213.021028 
L 143.187721 -213.66061 
L 143.797668 -214.263119 
L 144.407615 -214.8285 
L 145.017562 -215.356722 
L 145.62751 -215.847774 
L 146.237457 -216.301664 
L 146.847404 -216.718423 
L 147.457351 -217.0981 
L 148.067298 -217.440764 
L 148.677245 -217.746505 
L 149.287193 -218.015431 
L 149.89714 -218.247667 
L 150.507087 -218.44336 
L 151.117034 -218.602673 
L 151.726981 -218.725787 
L 152.336928 -218.8129 
L 152.946876 -218.864227 
L 153.556823 -218.88 
L 154.16677 -218.860468 
L 154.776717 -218.805894 
L 155.386664 -218.716557 
L 155.996611 -218.592752 
L 156.606559 -218.434787 
L 157.216506 -218.242985 
L 157.826453 -218.017683 
L 158.4364 -217.75923 
L 159.046347 -217.467989 
L 159.656294 -217.144334 
L 160.266242 -216.788653 
L 160.876189 -216.401343 
L 161.486136 -215.982814 
L 162.096083 -215.533486 
L 162.70603 -215.053788 
L 163.315977 -214.544161 
L 163.925925 -214.005052 
L 164.535872 -213.436921 
L 165.145819 -212.840233 
L 165.755766 -212.215461 
L 166.365713 -211.563088 
L 166.97566 -210.883602 
L 167.585608 -210.177497 
L 168.195555 -209.445276 
L 168.805502 -208.687445 
L 169.415449 -207.904516 
L 170.025396 -207.097007 
L 170.635343 -206.26544 
L 171.245291 -205.410339 
L 171.855238 -204.532236 
L 172.465185 -203.631662 
L 173.075132 -202.709153 
L 173.685079 -201.765247 
L 174.295026 -200.800485 
L 174.904974 -199.815409 
L 175.514921 -198.810562 
L 176.124868 -197.786489 
L 176.734815 -196.743734 
L 177.344762 -195.682844 
L 177.954709 -194.604364 
L 178.564657 -193.508838 
L 179.174604 -192.396812 
L 179.784551 -191.268828 
L 180.394498 -190.125429 
L 181.004445 -188.967156 
L 181.614392 -187.794547 
L 182.22434 -186.608138 
L 182.834287 -185.408464 
L 183.444234 -184.196056 
L 184.054181 -182.971442 
L 184.664128 -181.735147 
L 185.274075 -180.487693 
L 185.884023 -179.229598 
L 186.49397 -177.961375 
L 187.103917 -176.683534 
L 187.713864 -175.396582 
L 188.323811 -174.101017 
L 188.933758 -172.797337 
L 189.543706 -171.486031 
L 190.153653 -170.167587 
L 190.7636 -168.842484 
L 191.373547 -167.511197 
L 191.983494 -166.174195 
L 192.593441 -164.831943 
L 193.203389 -163.484897 
L 193.813336 -162.133508 
L 194.423283 -160.778223 
L 195.03323 -159.419479 
L 195.643177 -158.057709 
L 196.253124 -156.693339 
L 196.863072 -155.326788 
L 197.473019 -153.958468 
L 198.082966 -152.588786 
L 198.692913 -151.218139 
L 199.30286 -149.846919 
L 199.912807 -148.475511 
L 200.522755 -147.104292 
L 201.132702 -145.733632 
L 201.742649 -144.363896 
L 202.352596 -142.995438 
L 202.962543 -141.628606 
L 203.57249 -140.263744 
L 204.182438 -138.901183 
L 204.792385 -137.541251 
L 205.402332 -136.184267 
L 206.012279 -134.830543 
L 206.622226 -133.480383 
L 207.232173 -132.134084 
L 207.842121 -130.791936 
L 208.452068 -129.454222 
L 209.062015 -128.121216 
L 209.671962 -126.793185 
L 210.281909 -125.470391 
L 210.891856 -124.153087 
L 211.501804 -122.841518 
L 212.111751 -121.535923 
L 212.721698 -120.236534 
L 213.331645 -118.943575 
L 213.941592 -117.657264 
L 214.551539 -116.37781 
L 215.161487 -115.105418 
L 215.771434 -113.840284 
L 216.381381 -112.582598 
L 216.991328 -111.332542 
L 217.601275 -110.090293 
L 218.211222 -108.856021 
L 218.82117 -107.629888 
L 219.431117 -106.412052 
L 220.041064 -105.202662 
L 220.651011 -104.001862 
L 221.260958 -102.809789 
L 221.870905 -101.626576 
L 222.480853 -100.452347 
L 223.0908 -99.287222 
L 223.700747 -98.131313 
L 224.310694 -96.984729 
L 224.920641 -95.847571 
L 225.530588 -94.719935 
L 226.140536 -93.601912 
L 226.750483 -92.493586 
L 227.36043 -91.395038 
L 227.970377 -90.306341 
L 228.580324 -89.227566 
L 229.190271 -88.158775 
L 229.800219 -87.100028 
L 230.410166 -86.051379 
L 231.020113 -85.012877 
L 231.63006 -83.984568 
L 232.240007 -82.966489 
L 232.849954 -81.958678 
L 233.459902 -80.961165 
L 234.069849 -79.973977 
L 234.679796 -78.997136 
L 235.289743 -78.03066 
L 235.89969 -77.074563 
L 236.509637 -76.128856 
L 237.119585 -75.193545 
L 237.729532 -74.268633 
L 238.339479 -73.354118 
L 238.949426 -72.449996 
L 239.559373 -71.556259 
L 240.16932 -70.672895 
L 240.779268 -69.799889 
L 241.389215 -68.937223 
L 241.999162 -68.084876 
L 242.609109 -67.242825 
L 243.219056 -66.41104 
L 243.829003 -65.589494 
L 244.438951 -64.778152 
L 245.048898 -63.97698 
L 245.658845 -63.18594 
L 246.268792 -62.40499 
L 246.878739 -61.634089 
L 247.488686 -60.87319 
L 248.098634 -60.122246 
L 248.708581 -59.381207 
L 249.318528 -58.650022 
L 249.928475 -57.928637 
L 250.538422 -57.216996 
L 251.148369 -56.515041 
L 251.758317 -55.822712 
L 252.368264 -55.139949 
L 252.978211 -54.466689 
L 253.588158 -53.802868 
L 254.198105 -53.148418 
L 254.808052 -52.503274 
L 255.418 -51.867366 
L 256.027947 -51.240624 
L 256.637894 -50.622977 
L 257.247841 -50.014353 
L 257.857788 -49.414678 
L 258.467735 -48.823878 
L 259.077683 -48.241876 
L 259.68763 -47.668597 
L 260.297577 -47.103963 
L 260.907524 -46.547896 
L 261.517471 -46.000316 
L 262.127418 -45.461145 
L 262.737366 -44.930301 
L 263.347313 -44.407704 
L 263.95726 -43.893273 
L 264.567207 -43.386925 
L 265.177154 -42.888579 
L 265.787101 -42.39815 
L 266.397049 -41.915557 
L 267.006996 -41.440715 
L 267.616943 -40.973541 
L 268.22689 -40.51395 
L 268.836837 -40.061859 
L 269.446784 -39.617184 
L 270.056732 -39.179838 
L 270.666679 -38.749739 
L 271.276626 -38.326802 
L 271.886573 -37.910942 
L 272.49652 -37.502074 
L 273.106467 -37.100114 
L 273.716415 -36.704977 
L 274.326362 -36.31658 
L 274.936309 -35.934839 
L 275.546256 -35.559668 
L 276.156203 -35.190986 
L 276.76615 -34.828707 
L 277.376098 -34.47275 
L 277.986045 -34.123031 
L 278.595992 -33.779468 
L 279.205939 -33.441978 
L 279.815886 -33.11048 
L 280.425833 -32.784892 
L 281.035781 -32.465134 
L 281.645728 -32.151124 
L 282.255675 -31.842783 
L 282.865622 -31.54003 
L 283.475569 -31.242788 
L 284.085516 -30.950976 
L 284.695464 -30.664518 
L 285.305411 -30.383334 
L 285.915358 -30.107349 
L 286.525305 -29.836486 
L 287.135252 -29.570668 
L 287.745199 -29.309821 
L 288.355147 -29.053869 
L 288.965094 -28.802739 
L 289.575041 -28.556358 
L 290.184988 -28.314652 
L 290.794935 -28.077548 
L 291.404882 -27.844977 
L 292.01483 -27.616866 
L 292.624777 -27.393145 
L 293.234724 -27.173745 
L 293.844671 -26.958598 
L 294.454618 -26.747634 
L 295.064565 -26.540786 
L 295.674513 -26.337988 
L 296.28446 -26.139174 
L 296.894407 -25.944278 
L 297.504354 -25.753235 
L 298.114301 -25.565981 
L 298.724248 -25.382454 
L 299.334196 -25.202591 
L 299.944143 -25.026329 
L 300.55409 -24.853609 
L 301.164037 -24.684368 
L 301.773984 -24.518549 
L 302.383931 -24.356092 
L 302.993879 -24.196939 
L 303.603826 -24.041031 
L 304.213773 -23.888314 
L 304.82372 -23.73873 
L 305.433667 -23.592225 
L 306.043615 -23.448743 
L 306.653562 -23.308231 
L 307.263509 -23.170636 
L 307.873456 -23.035905 
L 308.483403 -22.903987 
L 309.09335 -22.774831 
L 309.703298 -22.648386 
L 310.313245 -22.524603 
L 310.923192 -22.403432 
L 311.533139 -22.284826 
L 312.143086 -22.168737 
L 312.753033 -22.055119 
L 313.362981 -21.943925 
L 313.972928 -21.835109 
L 314.582875 -21.728628 
L 315.192822 -21.624436 
L 315.802769 -21.52249 
L 316.412716 -21.422748 
L 317.022664 -21.325167 
L 317.632611 -21.229707 
L 318.242558 -21.136325 
L 318.852505 -21.044982 
L 319.462452 -20.955638 
L 320.072399 -20.868254 
L 320.682347 -20.782793 
L 321.292294 -20.699215 
L 321.902241 -20.617485 
L 322.512188 -20.537565 
L 323.122135 -20.45942 
L 323.732082 -20.383014 
L 324.34203 -20.308313 
L 324.951977 -20.235282 
L 325.561924 -20.163887 
L 326.171871 -20.094097 
L 326.781818 -20.025878 
L 326.781818 -17.28 
L 326.781818 -17.28 
L 326.171871 -17.28 
L 325.561924 -17.28 
L 324.951977 -17.28 
L 324.34203 -17.28 
L 323.732082 -17.28 
L 323.122135 -17.28 
L 322.512188 -17.28 
L 321.902241 -17.28 
L 321.292294 -17.28 
L 320.682347 -17.28 
L 320.072399 -17.28 
L 319.462452 -17.28 
L 318.852505 -17.28 
L 318.242558 -17.28 
L 317.632611 -17.28 
L 317.022664 -17.28 
L 316.412716 -17.28 
L 315.802769 -17.28 
L 315.192822 -17.28 
L 314.582875 -17.28 
L 313.972928 -17.28 
L 313.362981 -17.28 
L 312.753033 -17.28 
L 312.143086 -17.28 
L 311.533139 -17.28 
L 310.923192 -17.28 
L 310.313245 -17.28 
L 309.703298 -17.28 
L 309.09335 -17.28 
L 308.483403 -17.28 
L 307.873456 -17.28 
L 307.263509 -17.28 
L 306.653562 -17.28 
L 306.043615 -17.28 
L 305.433667 -17.28 
L 304.82372 -17.28 
L 304.213773 -17.28 
L 303.603826 -17.28 
L 302.993879 -17.28 
L 302.383931 -17.28 
L 301.773984 -17.28 
L 301.164037 -17.28 
L 300.55409 -17.28 
L 299.944143 -17.28 
L 299.334196 -17.28 
L 298.724248 -17.28 
L 298.114301 -17.28 
L 297.504354 -17.28 
L 296.894407 -17.28 
L 296.28446 -17.28 
L 295.674513 -17.28 
L 295.064565 -17.28 
L 294.454618 -17.28 
L 293.844671 -17.28 
L 293.234724 -17.28 
L 292.624777 -17.28 
L 292.01483 -17.28 
L 291.404882 -17.28 
L 290.794935 -17.28 
L 290.184988 -17.28 
L 289.575041 -17.28 
L 288.965094 -17.28 
L 288.355147 -17.28 
L 287.745199 -17.28 
L 287.135252 -17.28 
L 286.525305 -17.28 
L 285.915358 -17.28 
L 285.305411 -17.28 
L 284.695464 -17.28 
L 284.085516 -17.28 
L 283.475569 -17.28 
L 282.865622 -17.28 
L 282.255675 -17.28 
L 281.645728 -17.28 
L 281.035781 -17.28 
L 280.425833 -17.28 
L 279.815886 -17.28 
L 279.205939 -17.28 
L 278.595992 -17.28 
L 277.986045 -17.28 
L 277.376098 -17.28 
L 276.76615 -17.28 
L 276.156203 -17.28 
L 275.546256 -17.28 
L 274.936309 -17.28 
L 274.326362 -17.28 
L 273.716415 -17.28 
L 273.106467 -17.28 
L 272.49652 -17.28 
L 271.886573 -17.28 
L 271.276626 -17.28 
L 270.666679 -17.28 
L 270.056732 -17.28 
L 269.446784 -17.28 
L 268.836837 -17.28 
L 268.22689 -17.28 
L 267.616943 -17.28 
L 267.006996 -17.28 
L 266.397049 -17.28 
L 265.787101 -17.28 
L 265.177154 -17.28 
L 264.567207 -17.28 
L 263.95726 -17.28 
L 263.347313 -17.28 
L 262.737366 -17.28 
L 262.127418 -17.28 
L 261.517471 -17.28 
L 260.907524 -17.28 
L 260.297577 -17.28 
L 259.68763 -17.28 
L 259.077683 -17.28 
L 258.467735 -17.28 
L 257.857788 -17.28 
L 257.247841 -17.28 
L 256.637894 -17.28 
L 256.027947 -17.28 
L 255.418 -17.28 
L 254.808052 -17.28 
L 254.198105 -17.28 
L 253.588158 -17.28 
L 252.978211 -17.28 
L 252.368264 -17.28 
L 251.758317 -17.28 
L 251.148369 -17.28 
L 250.538422 -17.28 
L 249.928475 -17.28 
L 249.318528 -17.28 
L 248.708581 -17.28 
L 248.098634 -17.28 
L 247.488686 -17.28 
L 246.878739 -17.28 
L 246.268792 -17.28 
L 245.658845 -17.28 
L 245.048898 -17.28 
L 244.438951 -17.28 
L 243.829003 -17.28 
L 243.219056 -17.28 
L 242.609109 -17.28 
L 241.999162 -17.28 
L 241.389215 -17.28 
L 240.779268 -17.28 
L 240.16932 -17.28 
L 239.559373 -17.28 
L 238.949426 -17.28 
L 238.339479 -17.28 
L 237.729532 -17.28 
L 237.119585 -17.28 
L 236.509637 -17.28 
L 235.89969 -17.28 
L 235.289743 -17.28 
L 234.679796 -17.28 
L 234.069849 -17.28 
L 233.459902 -17.28 
L 232.849954 -17.28 
L 232.240007 -17.28 
L 231.63006 -17.28 
L 231.020113 -17.28 
L 230.410166 -17.28 
L 229.800219 -17.28 
L 229.190271 -17.28 
L 228.580324 -17.28 
L 227.970377 -17.28 
L 227.36043 -17.28 
L 226.750483 -17.28 
L 226.140536 -17.28 
L 225.530588 -17.28 
L 224.920641 -17.28 
L 224.310694 -17.28 
L 223.700747 -17.28 
L 223.0908 -17.28 
L 222.480853 -17.28 
L 221.870905 -17.28 
L 221.260958 -17.28 
L 220.651011 -17.28 
L 220.041064 -17.28 
L 219.431117 -17.28 
L 218.82117 -17.28 
L 218.211222 -17.28 
L 217.601275 -17.28 
L 216.991328 -17.28 
L 216.381381 -17.28 
L 215.771434 -17.28 
L 215.161487 -17.28 
L 214.551539 -17.28 
L 213.941592 -17.28 
L 213.331645 -17.28 
L 212.721698 -17.28 
L 212.111751 -17.28 
L 211.501804 -17.28 
L 210.891856 -17.28 
L 210.281909 -17.28 
L 209.671962 -17.28 
L 209.062015 -17.28 
L 208.452068 -17.28 
L 207.842121 -17.28 
L 207.232173 -17.28 
L 206.622226 -17.28 
L 206.012279 -17.28 
L 205.402332 -17.28 
L 204.792385 -17.28 
L 204.182438 -17.28 
L 203.57249 -17.28 
L 202.962543 -17.28 
L 202.352596 -17.28 
L 201.742649 -17.28 
L 201.132702 -17.28 
L 200.522755 -17.28 
L 199.912807 -17.28 
L 199.30286 -17.28 
L 198.692913 -17.28 
L 198.082966 -17.28 
L 197.473019 -17.28 
L 196.863072 -17.28 
L 196.253124 -17.28 
L 195.643177 -17.28 
L 195.03323 -17.28 
L 194.423283 -17.28 
L 193.813336 -17.28 
L 193.203389 -17.28 
L 192.593441 -17.28 
L 191.983494 -17.28 
L 191.373547 -17.28 
L 190.7636 -17.28 
L 190.153653 -17.28 
L 189.543706 -17.28 
L 188.933758 -17.28 
L 188.323811 -17.28 
L 187.713864 -17.28 
L 187.103917 -17.28 
L 186.49397 -17.28 
L 185.884023 -17.28 
L 185.274075 -17.28 
L 184.664128 -17.28 
L 184.054181 -17.28 
L 183.444234 -17.28 
L 182.834287 -17.28 
L 182.22434 -17.28 
L 181.614392 -17.28 
L 181.004445 -17.28 
L 180.394498 -17.28 
L 179.784551 -17.28 
L 179.174604 -17.28 
L 178.564657 -17.28 
L 177.954709 -17.28 
L 177.344762 -17.28 
L 176.734815 -17.28 
L 176.124868 -17.28 
L 175.514921 -17.28 
L 174.904974 -17.28 
L 174.295026 -17.28 
L 173.685079 -17.28 
L 173.075132 -17.28 
L 172.465185 -17.28 
L 171.855238 -17.28 
L 171.245291 -17.28 
L 170.635343 -17.28 
L 170.025396 -17.28 
L 169.415449 -17.28 
L 168.805502 -17.28 
L 168.195555 -17.28 
L 167.585608 -17.28 
L 166.97566 -17.28 
L 166.365713 -17.28 
L 165.755766 -17.28 
L 165.145819 -17.28 
L 164.535872 -17.28 
L 163.925925 -17.28 
L 163.315977 -17.28 
L 162.70603 -17.28 
L 162.096083 -17.28 
L 161.486136 -17.28 
L 160.876189 -17.28 
L 160.266242 -17.28 
L 159.656294 -17.28 
L 159.046347 -17.28 
L 158.4364 -17.28 
L 157.826453 -17.28 
L 157.216506 -17.28 
L 156.606559 -17.28 
L 155.996611 -17.28 
L 155.386664 -17.28 
L 154.776717 -17.28 
L 154.16677 -17.28 
L 153.556823 -17.28 
L 152.946876 -17.28 
L 152.336928 -17.28 
L 151.726981 -17.28 
L 151.117034 -17.28 
L 150.507087 -17.28 
L 149.89714 -17.28 
L 149.287193 -17.28 
L 148.677245 -17.28 
L 148.067298 -17.28 
L 147.457351 -17.28 
L 146.847404 -17.28 
L 146.237457 -17.28 
L 145.62751 -17.28 
L 145.017562 -17.28 
L 144.407615 -17.28 
L 143.797668 -17.28 
L 143.187721 -17.28 
L 142.577774 -17.28 
L 141.967827 -17.28 
L 141.357879 -17.28 
L 140.747932 -17.28 
L 140.137985 -17.28 
L 139.528038 -17.28 
L 138.918091 -17.28 
L 138.308144 -17.28 
L 137.698196 -17.28 
L 137.088249 -17.28 
L 136.478302 -17.28 
L 135.868355 -17.28 
L 135.258408 -17.28 
L 134.648461 -17.28 
L 134.038513 -17.28 
L 133.428566 -17.28 
L 132.818619 -17.28 
L 132.208672 -17.28 
L 131.598725 -17.28 
L 130.988778 -17.28 
L 130.37883 -17.28 
L 129.768883 -17.28 
L 129.158936 -17.28 
L 128.548989 -17.28 
L 127.939042 -17.28 
L 127.329095 -17.28 
L 126.719147 -17.28 
L 126.1092 -17.28 
L 125.499253 -17.28 
L 124.889306 -17.28 
L 124.279359 -17.28 
L 123.669412 -17.28 
L 123.059464 -17.28 
L 122.449517 -17.28 
L 121.83957 -17.28 
L 121.229623 -17.28 
L 120.619676 -17.28 
L 120.009729 -17.28 
L 119.399781 -17.28 
L 118.789834 -17.28 
L 118.179887 -17.28 
L 117.56994 -17.28 
L 116.959993 -17.28 
L 116.350046 -17.28 
L 115.740098 -17.28 
L 115.130151 -17.28 
L 114.520204 -17.28 
L 113.910257 -17.28 
L 113.30031 -17.28 
L 112.690363 -17.28 
L 112.080415 -17.28 
L 111.470468 -17.28 
L 110.860521 -17.28 
L 110.250574 -17.28 
L 109.640627 -17.28 
L 109.03068 -17.28 
L 108.420732 -17.28 
L 107.810785 -17.28 
L 107.200838 -17.28 
L 106.590891 -17.28 
L 105.980944 -17.28 
L 105.370997 -17.28 
L 104.761049 -17.28 
L 104.151102 -17.28 
L 103.541155 -17.28 
L 102.931208 -17.28 
L 102.321261 -17.28 
L 101.711314 -17.28 
L 101.101366 -17.28 
L 100.491419 -17.28 
L 99.881472 -17.28 
L 99.271525 -17.28 
L 98.661578 -17.28 
L 98.051631 -17.28 
L 97.441683 -17.28 
L 96.831736 -17.28 
L 96.221789 -17.28 
L 95.611842 -17.28 
L 95.001895 -17.28 
L 94.391948 -17.28 
L 93.782 -17.28 
L 93.172053 -17.28 
L 92.562106 -17.28 
L 91.952159 -17.28 
L 91.342212 -17.28 
L 90.732265 -17.28 
L 90.122317 -17.28 
L 89.51237 -17.28 
L 88.902423 -17.28 
L 88.292476 -17.28 
L 87.682529 -17.28 
L 87.072582 -17.28 
L 86.462634 -17.28 
L 85.852687 -17.28 
L 85.24274 -17.28 
L 84.632793 -17.28 
L 84.022846 -17.28 
L 83.412899 -17.28 
L 82.802951 -17.28 
L 82.193004 -17.28 
L 81.583057 -17.28 
L 80.97311 -17.28 
L 80.363163 -17.28 
L 79.753216 -17.28 
L 79.143268 -17.28 
L 78.533321 -17.28 
L 77.923374 -17.28 
L 77.313427 -17.28 
L 76.70348 -17.28 
L 76.093533 -17.28 
L 75.483585 -17.28 
L 74.873638 -17.28 
L 74.263691 -17.28 
L 73.653744 -17.28 
L 73.043797 -17.28 
L 72.43385 -17.28 
L 71.823902 -17.28 
L 71.213955 -17.28 
L 70.604008 -17.28 
L 69.994061 -17.28 
L 69.384114 -17.28 
L 68.774167 -17.28 
L 68.164219 -17.28 
L 67.554272 -17.28 
L 66.944325 -17.28 
L 66.334378 -17.28 
L 65.724431 -17.28 
L 65.114484 -17.28 
L 64.504536 -17.28 
L 63.894589 -17.28 
L 63.284642 -17.28 
L 62.674695 -17.28 
L 62.064748 -17.28 
L 61.454801 -17.28 
L 60.844853 -17.28 
L 60.234906 -17.28 
L 59.624959 -17.28 
L 59.015012 -17.28 
L 58.405065 -17.28 
L 57.795118 -17.28 
L 57.18517 -17.28 
L 56.575223 -17.28 
L 55.965276 -17.28 
L 55.355329 -17.28 
L 54.745382 -17.28 
L 54.135435 -17.28 
L 53.525487 -17.28 
L 52.91554 -17.28 
L 52.305593 -17.28 
L 51.695646 -17.28 
L 51.085699 -17.28 
L 50.475752 -17.28 
L 49.865804 -17.28 
L 49.255857 -17.28 
L 48.64591 -17.28 
L 48.035963 -17.28 
L 47.426016 -17.28 
L 46.816069 -17.28 
L 46.206121 -17.28 
L 45.596174 -17.28 
L 44.986227 -17.28 
L 44.37628 -17.28 
L 43.766333 -17.28 
L 43.156385 -17.28 
L 42.546438 -17.28 
L 41.936491 -17.28 
L 41.326544 -17.28 
L 40.716597 -17.28 
L 40.10665 -17.28 
L 39.496702 -17.28 
L 38.886755 -17.28 
L 38.276808 -17.28 
L 37.666861 -17.28 
L 37.056914 -17.28 
L 36.446967 -17.28 
L 35.837019 -17.28 
L 35.227072 -17.28 
L 34.617125 -17.28 
L 34.007178 -17.28 
L 33.397231 -17.28 
L 32.787284 -17.28 
L 32.177336 -17.28 
L 31.567389 -17.28 
L 30.957442 -17.28 
L 30.347495 -17.28 
L 29.737548 -17.28 
L 29.127601 -17.28 
L 28.517653 -17.28 
L 27.907706 -17.28 
L 27.297759 -17.28 
L 26.687812 -17.28 
L 26.077865 -17.28 
L 25.467918 -17.28 
L 24.85797 -17.28 
L 24.248023 -17.28 
L 23.638076 -17.28 
L 23.028129 -17.28 
L 22.418182 -17.28 
z
" style="stroke: #90ee90"/>
    </defs>
    <g clip-path="url(#p6d3aa07923)">
     <use xlink:href="#md6f9f859af" x="0" y="236.16" style="fill: #90ee90; stroke: #90ee90"/>
    </g>
   </g>
   <g id="line2d_1">
    <path d="M 22.418182 218.867537 
L 33.397231 218.719481 
L 38.886755 218.444942 
L 43.156385 218.022588 
L 46.816069 217.432009 
L 49.865804 216.718102 
L 52.91554 215.7458 
L 55.355329 214.742711 
L 57.795118 213.505331 
L 60.234906 212.001544 
L 62.674695 210.199463 
L 65.114484 208.068312 
L 67.554272 205.579348 
L 69.994061 202.706783 
L 72.43385 199.428677 
L 74.873638 195.727769 
L 77.313427 191.592217 
L 79.753216 187.016217 
L 82.193004 182.000484 
L 84.632793 176.552586 
L 87.682529 169.157857 
L 90.732265 161.154987 
L 94.391948 150.83482 
L 98.661578 137.977644 
L 103.541155 122.525506 
L 116.959993 79.514456 
L 120.619676 68.601543 
L 124.279359 58.403788 
L 127.329095 50.573295 
L 130.37883 43.440846 
L 132.818619 38.286631 
L 135.258408 33.65683 
L 137.698196 29.576818 
L 139.528038 26.889639 
L 141.357879 24.529041 
L 143.187721 22.49939 
L 145.017562 20.803278 
L 146.847404 19.441577 
L 148.677245 18.413495 
L 150.507087 17.71664 
L 152.336928 17.3471 
L 154.16677 17.299532 
L 155.996611 17.567248 
L 157.826453 18.142317 
L 159.656294 19.015666 
L 161.486136 20.177186 
L 163.315977 21.615839 
L 165.145819 23.319767 
L 166.97566 25.276398 
L 169.415449 28.255484 
L 171.855238 31.627764 
L 174.295026 35.359515 
L 177.344762 40.477156 
L 180.394498 46.034571 
L 184.054181 53.188558 
L 188.323811 62.058983 
L 193.813336 74.026492 
L 213.941592 118.502736 
L 218.82117 128.530112 
L 223.700747 138.028687 
L 227.970377 145.853659 
L 232.240007 153.193511 
L 235.89969 159.085437 
L 239.559373 164.603741 
L 243.219056 169.74896 
L 246.878739 174.525911 
L 250.538422 178.943004 
L 254.198105 183.011582 
L 257.857788 186.745322 
L 261.517471 190.159684 
L 265.177154 193.271421 
L 268.836837 196.098141 
L 272.49652 198.657926 
L 276.156203 200.969014 
L 279.815886 203.04952 
L 284.085516 205.209024 
L 288.355147 207.106131 
L 292.624777 208.766855 
L 297.504354 210.406765 
L 302.383931 211.803908 
L 307.873456 213.124095 
L 313.362981 214.216075 
L 319.462452 215.204362 
L 326.171871 216.065903 
L 326.781818 216.134122 
L 326.781818 216.134122 
" clip-path="url(#p6d3aa07923)" style="fill: none; stroke: #000000; stroke-width: 5; stroke-linecap: square"/>
   </g>
  </g>
 </g>
 <defs>
  <clipPath id="p6d3aa07923">
   <rect x="7.2" y="7.2" width="334.8" height="221.76"/>
  </clipPath>
 </defs>
</svg>
