<?xml version="1.0" encoding="utf-8" standalone="no"?>
<!DOCTYPE svg PUBLIC "-//W3C//DTD SVG 1.1//EN"
  "http://www.w3.org/Graphics/SVG/1.1/DTD/svg11.dtd">
<svg xmlns:xlink="http://www.w3.org/1999/xlink" width="349.2pt" height="236.16pt" viewBox="0 0 349.2 236.16" xmlns="http://www.w3.org/2000/svg" version="1.1">
 <metadata>
  <rdf:RDF xmlns:dc="http://purl.org/dc/elements/1.1/" xmlns:cc="http://creativecommons.org/ns#" xmlns:rdf="http://www.w3.org/1999/02/22-rdf-syntax-ns#">
   <cc:Work>
    <dc:type rdf:resource="http://purl.org/dc/dcmitype/StillImage"/>
    <dc:date>2023-08-13T23:04:32.591416</dc:date>
    <dc:format>image/svg+xml</dc:format>
    <dc:creator>
     <cc:Agent>
      <dc:title>Matplotlib v3.6.2, https://matplotlib.org/</dc:title>
     </cc:Agent>
    </dc:creator>
   </cc:Work>
  </rdf:RDF>
 </metadata>
 <defs>
  <style type="text/css">*{stroke-linejoin: round; stroke-linecap: butt}</style>
 </defs>
 <g id="figure_1">
  <g id="patch_1">
   <path d="M 0 236.16 
L 349.2 236.16 
L 349.2 0 
L 0 0 
L 0 236.16 
z
" style="fill: none"/>
  </g>
  <g id="axes_1">
   <g id="PolyCollection_1">
    <defs>
     <path id="m343cdf3dfd" d="M 22.418182 -17.28 
L 22.418182 -17.280583 
L 23.028129 -17.280685 
L 23.638076 -17.280803 
L 24.248023 -17.280939 
L 24.85797 -17.281096 
L 25.467918 -17.281277 
L 26.077865 -17.281484 
L 26.687812 -17.281722 
L 27.297759 -17.281993 
L 27.907706 -17.282302 
L 28.517653 -17.282654 
L 29.127601 -17.283055 
L 29.737548 -17.283508 
L 30.347495 -17.284023 
L 30.957442 -17.284604 
L 31.567389 -17.285259 
L 32.177336 -17.285998 
L 32.787284 -17.286829 
L 33.397231 -17.287762 
L 34.007178 -17.288808 
L 34.617125 -17.289978 
L 35.227072 -17.291286 
L 35.837019 -17.292747 
L 36.446967 -17.294373 
L 37.056914 -17.296184 
L 37.666861 -17.298195 
L 38.276808 -17.300426 
L 38.886755 -17.302899 
L 39.496702 -17.305635 
L 40.10665 -17.308658 
L 40.716597 -17.311994 
L 41.326544 -17.31567 
L 41.936491 -17.319717 
L 42.546438 -17.324166 
L 43.156385 -17.329051 
L 43.766333 -17.334408 
L 44.37628 -17.340275 
L 44.986227 -17.346694 
L 45.596174 -17.353709 
L 46.206121 -17.361365 
L 46.816069 -17.369713 
L 47.426016 -17.378804 
L 48.035963 -17.388695 
L 48.64591 -17.399442 
L 49.255857 -17.41111 
L 49.865804 -17.423762 
L 50.475752 -17.437468 
L 51.085699 -17.452301 
L 51.695646 -17.468336 
L 52.305593 -17.485655 
L 52.91554 -17.504343 
L 53.525487 -17.524486 
L 54.135435 -17.546179 
L 54.745382 -17.569519 
L 55.355329 -17.594607 
L 55.965276 -17.62155 
L 56.575223 -17.650459 
L 57.18517 -17.68145 
L 57.795118 -17.714643 
L 58.405065 -17.750165 
L 59.015012 -17.788145 
L 59.624959 -17.828721 
L 60.234906 -17.872033 
L 60.844853 -17.918227 
L 61.454801 -17.967455 
L 62.064748 -18.019875 
L 62.674695 -18.075649 
L 63.284642 -18.134945 
L 63.894589 -18.197936 
L 64.504536 -18.264802 
L 65.114484 -18.335727 
L 65.724431 -18.410901 
L 66.334378 -18.490521 
L 66.944325 -18.574786 
L 67.554272 -18.663904 
L 68.164219 -18.758087 
L 68.774167 -18.857552 
L 69.384114 -18.962522 
L 69.994061 -19.073226 
L 70.604008 -19.189896 
L 71.213955 -19.312772 
L 71.823902 -19.442096 
L 72.43385 -19.578117 
L 73.043797 -19.721088 
L 73.653744 -19.871267 
L 74.263691 -20.028916 
L 74.873638 -20.194302 
L 75.483585 -20.367696 
L 76.093533 -20.549371 
L 76.70348 -20.739608 
L 77.313427 -20.938687 
L 77.923374 -21.146895 
L 78.533321 -21.364519 
L 79.143268 -21.591852 
L 79.753216 -21.829188 
L 80.363163 -22.076823 
L 80.97311 -22.335055 
L 81.583057 -22.604185 
L 82.193004 -22.884515 
L 82.802951 -23.176348 
L 83.412899 -23.479988 
L 84.022846 -23.79574 
L 84.632793 -24.123909 
L 85.24274 -24.464798 
L 85.852687 -24.818714 
L 86.462634 -25.185959 
L 87.072582 -25.566836 
L 87.682529 -25.961646 
L 88.292476 -26.370687 
L 88.902423 -26.794256 
L 89.51237 -27.232648 
L 90.122317 -27.686154 
L 90.732265 -28.15506 
L 91.342212 -28.639652 
L 91.952159 -29.140207 
L 92.562106 -29.657002 
L 93.172053 -30.190306 
L 93.782 -30.740382 
L 94.391948 -31.307491 
L 95.001895 -31.891883 
L 95.611842 -32.493805 
L 96.221789 -33.113495 
L 96.831736 -33.751184 
L 97.441683 -34.407095 
L 98.051631 -35.081443 
L 98.661578 -35.774435 
L 99.271525 -36.486267 
L 99.881472 -37.217127 
L 100.491419 -37.967193 
L 101.101366 -38.736634 
L 101.711314 -39.525607 
L 102.321261 -40.334257 
L 102.931208 -41.162721 
L 103.541155 -42.011123 
L 104.151102 -42.879573 
L 104.761049 -43.768172 
L 105.370997 -44.677008 
L 105.980944 -45.606154 
L 106.590891 -46.555672 
L 107.200838 -47.525611 
L 107.810785 -48.516005 
L 108.420732 -49.526874 
L 109.03068 -50.558226 
L 109.640627 -51.610053 
L 110.250574 -52.682332 
L 110.860521 -53.775029 
L 111.470468 -54.88809 
L 112.080415 -56.02145 
L 112.690363 -57.175028 
L 113.30031 -58.348726 
L 113.910257 -59.542433 
L 114.520204 -60.756021 
L 115.130151 -61.989347 
L 115.740098 -63.242253 
L 116.350046 -64.514566 
L 116.959993 -65.806095 
L 117.56994 -67.116635 
L 118.179887 -68.445965 
L 118.789834 -69.793849 
L 119.399781 -71.160035 
L 120.009729 -72.544256 
L 120.619676 -73.946229 
L 121.229623 -75.365656 
L 121.83957 -76.802223 
L 122.449517 -78.255603 
L 123.059464 -79.725452 
L 123.669412 -81.211412 
L 124.279359 -82.713111 
L 124.889306 -84.230163 
L 125.499253 -85.762165 
L 126.1092 -87.308705 
L 126.719147 -88.869352 
L 127.329095 -90.443665 
L 127.939042 -92.03119 
L 128.548989 -93.631458 
L 129.158936 -95.243988 
L 129.768883 -96.868289 
L 130.37883 -98.503856 
L 130.988778 -100.150172 
L 131.598725 -101.806711 
L 132.208672 -103.472934 
L 132.818619 -105.148293 
L 133.428566 -106.832228 
L 134.038513 -108.524172 
L 134.648461 -110.223548 
L 135.258408 -111.929767 
L 135.868355 -113.642236 
L 136.478302 -115.360352 
L 137.088249 -117.083504 
L 137.698196 -118.811074 
L 138.308144 -120.542439 
L 138.918091 -122.276967 
L 139.528038 -124.014023 
L 140.137985 -125.752966 
L 140.747932 -127.493149 
L 141.357879 -129.233922 
L 141.967827 -130.97463 
L 142.577774 -132.714616 
L 143.187721 -134.45322 
L 143.797668 -136.189779 
L 144.407615 -137.923628 
L 145.017562 -139.654101 
L 145.62751 -141.380532 
L 146.237457 -143.102254 
L 146.847404 -144.818598 
L 147.457351 -146.5289 
L 148.067298 -148.232494 
L 148.677245 -149.928715 
L 149.287193 -151.616903 
L 149.89714 -153.296398 
L 150.507087 -154.966545 
L 151.117034 -156.62669 
L 151.726981 -158.276184 
L 152.336928 -159.914385 
L 152.946876 -161.540652 
L 153.556823 -163.154351 
L 154.16677 -164.754855 
L 154.776717 -166.34154 
L 155.386664 -167.913791 
L 155.996611 -169.471 
L 156.606559 -171.012567 
L 157.216506 -172.537896 
L 157.826453 -174.046404 
L 158.4364 -175.537515 
L 159.046347 -177.010659 
L 159.656294 -178.465281 
L 160.266242 -179.90083 
L 160.876189 -181.316768 
L 161.486136 -182.712569 
L 162.096083 -184.087713 
L 162.70603 -185.441694 
L 163.315977 -186.774018 
L 163.925925 -188.084201 
L 164.535872 -189.37177 
L 165.145819 -190.636266 
L 165.755766 -191.877242 
L 166.365713 -193.094263 
L 166.97566 -194.286906 
L 167.585608 -195.454763 
L 168.195555 -196.597437 
L 168.805502 -197.714546 
L 169.415449 -198.805722 
L 170.025396 -199.870608 
L 170.635343 -200.908864 
L 171.245291 -201.920162 
L 171.855238 -202.904189 
L 172.465185 -203.860646 
L 173.075132 -204.789247 
L 173.685079 -205.689724 
L 174.295026 -206.561819 
L 174.904974 -207.405293 
L 175.514921 -208.219917 
L 176.124868 -209.005481 
L 176.734815 -209.761786 
L 177.344762 -210.488651 
L 177.954709 -211.185906 
L 178.564657 -211.8534 
L 179.174604 -212.490993 
L 179.784551 -213.098561 
L 180.394498 -213.675995 
L 181.004445 -214.2232 
L 181.614392 -214.740095 
L 182.22434 -215.226615 
L 182.834287 -215.682707 
L 183.444234 -216.108334 
L 184.054181 -216.503473 
L 184.664128 -216.868113 
L 185.274075 -217.20226 
L 185.884023 -217.505932 
L 186.49397 -217.77916 
L 187.103917 -218.021989 
L 187.713864 -218.234478 
L 188.323811 -218.416699 
L 188.933758 -218.568735 
L 189.543706 -218.690685 
L 190.153653 -218.782658 
L 190.7636 -218.844777 
L 191.373547 -218.877175 
L 191.983494 -218.88 
L 192.593441 -218.853409 
L 193.203389 -218.797573 
L 193.813336 -218.712672 
L 194.423283 -218.598899 
L 195.03323 -218.456457 
L 195.643177 -218.285559 
L 196.253124 -218.086429 
L 196.863072 -217.859302 
L 197.473019 -217.604422 
L 198.082966 -217.322042 
L 198.692913 -217.012426 
L 199.30286 -216.675846 
L 199.912807 -216.312583 
L 200.522755 -215.922926 
L 201.132702 -215.507174 
L 201.742649 -215.065632 
L 202.352596 -214.598615 
L 202.962543 -214.106443 
L 203.57249 -213.589446 
L 204.182438 -213.047958 
L 204.792385 -212.482322 
L 205.402332 -211.892887 
L 206.012279 -211.280006 
L 206.622226 -210.644042 
L 207.232173 -209.985359 
L 207.842121 -209.30433 
L 208.452068 -208.601331 
L 209.062015 -207.876743 
L 209.671962 -207.130952 
L 210.281909 -206.364349 
L 210.891856 -205.577326 
L 211.501804 -204.770281 
L 212.111751 -203.943616 
L 212.721698 -203.097735 
L 213.331645 -202.233045 
L 213.941592 -201.349956 
L 214.551539 -200.448879 
L 215.161487 -199.53023 
L 215.771434 -198.594424 
L 216.381381 -197.641878 
L 216.991328 -196.673013 
L 217.601275 -195.688248 
L 218.211222 -194.688005 
L 218.82117 -193.672706 
L 219.431117 -192.642772 
L 220.041064 -191.598628 
L 220.651011 -190.540694 
L 221.260958 -189.469394 
L 221.870905 -188.385149 
L 222.480853 -187.288381 
L 223.0908 -186.17951 
L 223.700747 -185.058956 
L 224.310694 -183.927137 
L 224.920641 -182.784469 
L 225.530588 -181.631368 
L 226.140536 -180.468247 
L 226.750483 -179.295517 
L 227.36043 -178.113587 
L 227.970377 -176.922865 
L 228.580324 -175.723754 
L 229.190271 -174.516656 
L 229.800219 -173.30197 
L 230.410166 -172.080092 
L 231.020113 -170.851414 
L 231.63006 -169.616326 
L 232.240007 -168.375215 
L 232.849954 -167.128462 
L 233.459902 -165.876447 
L 234.069849 -164.619544 
L 234.679796 -163.358125 
L 235.289743 -162.092558 
L 235.89969 -160.823204 
L 236.509637 -159.550424 
L 237.119585 -158.274572 
L 237.729532 -156.995998 
L 238.339479 -155.715047 
L 238.949426 -154.432061 
L 239.559373 -153.147376 
L 240.16932 -151.861324 
L 240.779268 -150.574231 
L 241.389215 -149.28642 
L 241.999162 -147.998207 
L 242.609109 -146.709904 
L 243.219056 -145.421819 
L 243.829003 -144.134252 
L 244.438951 -142.847502 
L 245.048898 -141.561858 
L 245.658845 -140.277607 
L 246.268792 -138.995031 
L 246.878739 -137.714404 
L 247.488686 -136.435997 
L 248.098634 -135.160074 
L 248.708581 -133.886896 
L 249.318528 -132.616715 
L 249.928475 -131.349781 
L 250.538422 -130.086338 
L 251.148369 -128.826621 
L 251.758317 -127.570865 
L 252.368264 -126.319296 
L 252.978211 -125.072135 
L 253.588158 -123.829598 
L 254.198105 -122.591896 
L 254.808052 -121.359235 
L 255.418 -120.131813 
L 256.027947 -118.909826 
L 256.637894 -117.693462 
L 257.247841 -116.482905 
L 257.857788 -115.278334 
L 258.467735 -114.079922 
L 259.077683 -112.887836 
L 259.68763 -111.70224 
L 260.297577 -110.52329 
L 260.907524 -109.35114 
L 261.517471 -108.185936 
L 262.127418 -107.027821 
L 262.737366 -105.876932 
L 263.347313 -104.7334 
L 263.95726 -103.597354 
L 264.567207 -102.468916 
L 265.177154 -101.348202 
L 265.787101 -100.235326 
L 266.397049 -99.130397 
L 267.006996 -98.033516 
L 267.616943 -96.944783 
L 268.22689 -95.864292 
L 268.836837 -94.792133 
L 269.446784 -93.72839 
L 270.056732 -92.673145 
L 270.666679 -91.626474 
L 271.276626 -90.588448 
L 271.886573 -89.559137 
L 272.49652 -88.538603 
L 273.106467 -87.526906 
L 273.716415 -86.524103 
L 274.326362 -85.530244 
L 274.936309 -84.545378 
L 275.546256 -83.569549 
L 276.156203 -82.602796 
L 276.76615 -81.645157 
L 277.376098 -80.696664 
L 277.986045 -79.757347 
L 278.595992 -78.827231 
L 279.205939 -77.906339 
L 279.815886 -76.99469 
L 280.425833 -76.0923 
L 281.035781 -75.199182 
L 281.645728 -74.315344 
L 282.255675 -73.440794 
L 282.865622 -72.575534 
L 283.475569 -71.719564 
L 284.085516 -70.872884 
L 284.695464 -70.035486 
L 285.305411 -69.207363 
L 285.915358 -68.388505 
L 286.525305 -67.578898 
L 287.135252 -66.778525 
L 287.745199 -65.987369 
L 288.355147 -65.205409 
L 288.965094 -64.432622 
L 289.575041 -63.668982 
L 290.184988 -62.914462 
L 290.794935 -62.169032 
L 291.404882 -61.432659 
L 292.01483 -60.705311 
L 292.624777 -59.98695 
L 293.234724 -59.27754 
L 293.844671 -58.57704 
L 294.454618 -57.88541 
L 295.064565 -57.202605 
L 295.674513 -56.528582 
L 296.28446 -55.863293 
L 296.894407 -55.20669 
L 297.504354 -54.558725 
L 298.114301 -53.919346 
L 298.724248 -53.288501 
L 299.334196 -52.666136 
L 299.944143 -52.052195 
L 300.55409 -51.446624 
L 301.164037 -50.849364 
L 301.773984 -50.260358 
L 302.383931 -49.679545 
L 302.993879 -49.106864 
L 303.603826 -48.542256 
L 304.213773 -47.985656 
L 304.82372 -47.437001 
L 305.433667 -46.896228 
L 306.043615 -46.363271 
L 306.653562 -45.838065 
L 307.263509 -45.320543 
L 307.873456 -44.810638 
L 308.483403 -44.308282 
L 309.09335 -43.813407 
L 309.703298 -43.325945 
L 310.313245 -42.845826 
L 310.923192 -42.37298 
L 311.533139 -41.907337 
L 312.143086 -41.448826 
L 312.753033 -40.997377 
L 313.362981 -40.552919 
L 313.972928 -40.11538 
L 314.582875 -39.684687 
L 315.192822 -39.260771 
L 315.802769 -38.843557 
L 316.412716 -38.432974 
L 317.022664 -38.028951 
L 317.632611 -37.631413 
L 318.242558 -37.240289 
L 318.852505 -36.855507 
L 319.462452 -36.476993 
L 320.072399 -36.104676 
L 320.682347 -35.738482 
L 321.292294 -35.37834 
L 321.902241 -35.024178 
L 322.512188 -34.675923 
L 323.122135 -34.333503 
L 323.732082 -33.996847 
L 324.34203 -33.665882 
L 324.951977 -33.340538 
L 325.561924 -33.020744 
L 326.171871 -32.706429 
L 326.781818 -32.397521 
L 326.781818 -17.28 
L 326.781818 -17.28 
L 326.171871 -17.28 
L 325.561924 -17.28 
L 324.951977 -17.28 
L 324.34203 -17.28 
L 323.732082 -17.28 
L 323.122135 -17.28 
L 322.512188 -17.28 
L 321.902241 -17.28 
L 321.292294 -17.28 
L 320.682347 -17.28 
L 320.072399 -17.28 
L 319.462452 -17.28 
L 318.852505 -17.28 
L 318.242558 -17.28 
L 317.632611 -17.28 
L 317.022664 -17.28 
L 316.412716 -17.28 
L 315.802769 -17.28 
L 315.192822 -17.28 
L 314.582875 -17.28 
L 313.972928 -17.28 
L 313.362981 -17.28 
L 312.753033 -17.28 
L 312.143086 -17.28 
L 311.533139 -17.28 
L 310.923192 -17.28 
L 310.313245 -17.28 
L 309.703298 -17.28 
L 309.09335 -17.28 
L 308.483403 -17.28 
L 307.873456 -17.28 
L 307.263509 -17.28 
L 306.653562 -17.28 
L 306.043615 -17.28 
L 305.433667 -17.28 
L 304.82372 -17.28 
L 304.213773 -17.28 
L 303.603826 -17.28 
L 302.993879 -17.28 
L 302.383931 -17.28 
L 301.773984 -17.28 
L 301.164037 -17.28 
L 300.55409 -17.28 
L 299.944143 -17.28 
L 299.334196 -17.28 
L 298.724248 -17.28 
L 298.114301 -17.28 
L 297.504354 -17.28 
L 296.894407 -17.28 
L 296.28446 -17.28 
L 295.674513 -17.28 
L 295.064565 -17.28 
L 294.454618 -17.28 
L 293.844671 -17.28 
L 293.234724 -17.28 
L 292.624777 -17.28 
L 292.01483 -17.28 
L 291.404882 -17.28 
L 290.794935 -17.28 
L 290.184988 -17.28 
L 289.575041 -17.28 
L 288.965094 -17.28 
L 288.355147 -17.28 
L 287.745199 -17.28 
L 287.135252 -17.28 
L 286.525305 -17.28 
L 285.915358 -17.28 
L 285.305411 -17.28 
L 284.695464 -17.28 
L 284.085516 -17.28 
L 283.475569 -17.28 
L 282.865622 -17.28 
L 282.255675 -17.28 
L 281.645728 -17.28 
L 281.035781 -17.28 
L 280.425833 -17.28 
L 279.815886 -17.28 
L 279.205939 -17.28 
L 278.595992 -17.28 
L 277.986045 -17.28 
L 277.376098 -17.28 
L 276.76615 -17.28 
L 276.156203 -17.28 
L 275.546256 -17.28 
L 274.936309 -17.28 
L 274.326362 -17.28 
L 273.716415 -17.28 
L 273.106467 -17.28 
L 272.49652 -17.28 
L 271.886573 -17.28 
L 271.276626 -17.28 
L 270.666679 -17.28 
L 270.056732 -17.28 
L 269.446784 -17.28 
L 268.836837 -17.28 
L 268.22689 -17.28 
L 267.616943 -17.28 
L 267.006996 -17.28 
L 266.397049 -17.28 
L 265.787101 -17.28 
L 265.177154 -17.28 
L 264.567207 -17.28 
L 263.95726 -17.28 
L 263.347313 -17.28 
L 262.737366 -17.28 
L 262.127418 -17.28 
L 261.517471 -17.28 
L 260.907524 -17.28 
L 260.297577 -17.28 
L 259.68763 -17.28 
L 259.077683 -17.28 
L 258.467735 -17.28 
L 257.857788 -17.28 
L 257.247841 -17.28 
L 256.637894 -17.28 
L 256.027947 -17.28 
L 255.418 -17.28 
L 254.808052 -17.28 
L 254.198105 -17.28 
L 253.588158 -17.28 
L 252.978211 -17.28 
L 252.368264 -17.28 
L 251.758317 -17.28 
L 251.148369 -17.28 
L 250.538422 -17.28 
L 249.928475 -17.28 
L 249.318528 -17.28 
L 248.708581 -17.28 
L 248.098634 -17.28 
L 247.488686 -17.28 
L 246.878739 -17.28 
L 246.268792 -17.28 
L 245.658845 -17.28 
L 245.048898 -17.28 
L 244.438951 -17.28 
L 243.829003 -17.28 
L 243.219056 -17.28 
L 242.609109 -17.28 
L 241.999162 -17.28 
L 241.389215 -17.28 
L 240.779268 -17.28 
L 240.16932 -17.28 
L 239.559373 -17.28 
L 238.949426 -17.28 
L 238.339479 -17.28 
L 237.729532 -17.28 
L 237.119585 -17.28 
L 236.509637 -17.28 
L 235.89969 -17.28 
L 235.289743 -17.28 
L 234.679796 -17.28 
L 234.069849 -17.28 
L 233.459902 -17.28 
L 232.849954 -17.28 
L 232.240007 -17.28 
L 231.63006 -17.28 
L 231.020113 -17.28 
L 230.410166 -17.28 
L 229.800219 -17.28 
L 229.190271 -17.28 
L 228.580324 -17.28 
L 227.970377 -17.28 
L 227.36043 -17.28 
L 226.750483 -17.28 
L 226.140536 -17.28 
L 225.530588 -17.28 
L 224.920641 -17.28 
L 224.310694 -17.28 
L 223.700747 -17.28 
L 223.0908 -17.28 
L 222.480853 -17.28 
L 221.870905 -17.28 
L 221.260958 -17.28 
L 220.651011 -17.28 
L 220.041064 -17.28 
L 219.431117 -17.28 
L 218.82117 -17.28 
L 218.211222 -17.28 
L 217.601275 -17.28 
L 216.991328 -17.28 
L 216.381381 -17.28 
L 215.771434 -17.28 
L 215.161487 -17.28 
L 214.551539 -17.28 
L 213.941592 -17.28 
L 213.331645 -17.28 
L 212.721698 -17.28 
L 212.111751 -17.28 
L 211.501804 -17.28 
L 210.891856 -17.28 
L 210.281909 -17.28 
L 209.671962 -17.28 
L 209.062015 -17.28 
L 208.452068 -17.28 
L 207.842121 -17.28 
L 207.232173 -17.28 
L 206.622226 -17.28 
L 206.012279 -17.28 
L 205.402332 -17.28 
L 204.792385 -17.28 
L 204.182438 -17.28 
L 203.57249 -17.28 
L 202.962543 -17.28 
L 202.352596 -17.28 
L 201.742649 -17.28 
L 201.132702 -17.28 
L 200.522755 -17.28 
L 199.912807 -17.28 
L 199.30286 -17.28 
L 198.692913 -17.28 
L 198.082966 -17.28 
L 197.473019 -17.28 
L 196.863072 -17.28 
L 196.253124 -17.28 
L 195.643177 -17.28 
L 195.03323 -17.28 
L 194.423283 -17.28 
L 193.813336 -17.28 
L 193.203389 -17.28 
L 192.593441 -17.28 
L 191.983494 -17.28 
L 191.373547 -17.28 
L 190.7636 -17.28 
L 190.153653 -17.28 
L 189.543706 -17.28 
L 188.933758 -17.28 
L 188.323811 -17.28 
L 187.713864 -17.28 
L 187.103917 -17.28 
L 186.49397 -17.28 
L 185.884023 -17.28 
L 185.274075 -17.28 
L 184.664128 -17.28 
L 184.054181 -17.28 
L 183.444234 -17.28 
L 182.834287 -17.28 
L 182.22434 -17.28 
L 181.614392 -17.28 
L 181.004445 -17.28 
L 180.394498 -17.28 
L 179.784551 -17.28 
L 179.174604 -17.28 
L 178.564657 -17.28 
L 177.954709 -17.28 
L 177.344762 -17.28 
L 176.734815 -17.28 
L 176.124868 -17.28 
L 175.514921 -17.28 
L 174.904974 -17.28 
L 174.295026 -17.28 
L 173.685079 -17.28 
L 173.075132 -17.28 
L 172.465185 -17.28 
L 171.855238 -17.28 
L 171.245291 -17.28 
L 170.635343 -17.28 
L 170.025396 -17.28 
L 169.415449 -17.28 
L 168.805502 -17.28 
L 168.195555 -17.28 
L 167.585608 -17.28 
L 166.97566 -17.28 
L 166.365713 -17.28 
L 165.755766 -17.28 
L 165.145819 -17.28 
L 164.535872 -17.28 
L 163.925925 -17.28 
L 163.315977 -17.28 
L 162.70603 -17.28 
L 162.096083 -17.28 
L 161.486136 -17.28 
L 160.876189 -17.28 
L 160.266242 -17.28 
L 159.656294 -17.28 
L 159.046347 -17.28 
L 158.4364 -17.28 
L 157.826453 -17.28 
L 157.216506 -17.28 
L 156.606559 -17.28 
L 155.996611 -17.28 
L 155.386664 -17.28 
L 154.776717 -17.28 
L 154.16677 -17.28 
L 153.556823 -17.28 
L 152.946876 -17.28 
L 152.336928 -17.28 
L 151.726981 -17.28 
L 151.117034 -17.28 
L 150.507087 -17.28 
L 149.89714 -17.28 
L 149.287193 -17.28 
L 148.677245 -17.28 
L 148.067298 -17.28 
L 147.457351 -17.28 
L 146.847404 -17.28 
L 146.237457 -17.28 
L 145.62751 -17.28 
L 145.017562 -17.28 
L 144.407615 -17.28 
L 143.797668 -17.28 
L 143.187721 -17.28 
L 142.577774 -17.28 
L 141.967827 -17.28 
L 141.357879 -17.28 
L 140.747932 -17.28 
L 140.137985 -17.28 
L 139.528038 -17.28 
L 138.918091 -17.28 
L 138.308144 -17.28 
L 137.698196 -17.28 
L 137.088249 -17.28 
L 136.478302 -17.28 
L 135.868355 -17.28 
L 135.258408 -17.28 
L 134.648461 -17.28 
L 134.038513 -17.28 
L 133.428566 -17.28 
L 132.818619 -17.28 
L 132.208672 -17.28 
L 131.598725 -17.28 
L 130.988778 -17.28 
L 130.37883 -17.28 
L 129.768883 -17.28 
L 129.158936 -17.28 
L 128.548989 -17.28 
L 127.939042 -17.28 
L 127.329095 -17.28 
L 126.719147 -17.28 
L 126.1092 -17.28 
L 125.499253 -17.28 
L 124.889306 -17.28 
L 124.279359 -17.28 
L 123.669412 -17.28 
L 123.059464 -17.28 
L 122.449517 -17.28 
L 121.83957 -17.28 
L 121.229623 -17.28 
L 120.619676 -17.28 
L 120.009729 -17.28 
L 119.399781 -17.28 
L 118.789834 -17.28 
L 118.179887 -17.28 
L 117.56994 -17.28 
L 116.959993 -17.28 
L 116.350046 -17.28 
L 115.740098 -17.28 
L 115.130151 -17.28 
L 114.520204 -17.28 
L 113.910257 -17.28 
L 113.30031 -17.28 
L 112.690363 -17.28 
L 112.080415 -17.28 
L 111.470468 -17.28 
L 110.860521 -17.28 
L 110.250574 -17.28 
L 109.640627 -17.28 
L 109.03068 -17.28 
L 108.420732 -17.28 
L 107.810785 -17.28 
L 107.200838 -17.28 
L 106.590891 -17.28 
L 105.980944 -17.28 
L 105.370997 -17.28 
L 104.761049 -17.28 
L 104.151102 -17.28 
L 103.541155 -17.28 
L 102.931208 -17.28 
L 102.321261 -17.28 
L 101.711314 -17.28 
L 101.101366 -17.28 
L 100.491419 -17.28 
L 99.881472 -17.28 
L 99.271525 -17.28 
L 98.661578 -17.28 
L 98.051631 -17.28 
L 97.441683 -17.28 
L 96.831736 -17.28 
L 96.221789 -17.28 
L 95.611842 -17.28 
L 95.001895 -17.28 
L 94.391948 -17.28 
L 93.782 -17.28 
L 93.172053 -17.28 
L 92.562106 -17.28 
L 91.952159 -17.28 
L 91.342212 -17.28 
L 90.732265 -17.28 
L 90.122317 -17.28 
L 89.51237 -17.28 
L 88.902423 -17.28 
L 88.292476 -17.28 
L 87.682529 -17.28 
L 87.072582 -17.28 
L 86.462634 -17.28 
L 85.852687 -17.28 
L 85.24274 -17.28 
L 84.632793 -17.28 
L 84.022846 -17.28 
L 83.412899 -17.28 
L 82.802951 -17.28 
L 82.193004 -17.28 
L 81.583057 -17.28 
L 80.97311 -17.28 
L 80.363163 -17.28 
L 79.753216 -17.28 
L 79.143268 -17.28 
L 78.533321 -17.28 
L 77.923374 -17.28 
L 77.313427 -17.28 
L 76.70348 -17.28 
L 76.093533 -17.28 
L 75.483585 -17.28 
L 74.873638 -17.28 
L 74.263691 -17.28 
L 73.653744 -17.28 
L 73.043797 -17.28 
L 72.43385 -17.28 
L 71.823902 -17.28 
L 71.213955 -17.28 
L 70.604008 -17.28 
L 69.994061 -17.28 
L 69.384114 -17.28 
L 68.774167 -17.28 
L 68.164219 -17.28 
L 67.554272 -17.28 
L 66.944325 -17.28 
L 66.334378 -17.28 
L 65.724431 -17.28 
L 65.114484 -17.28 
L 64.504536 -17.28 
L 63.894589 -17.28 
L 63.284642 -17.28 
L 62.674695 -17.28 
L 62.064748 -17.28 
L 61.454801 -17.28 
L 60.844853 -17.28 
L 60.234906 -17.28 
L 59.624959 -17.28 
L 59.015012 -17.28 
L 58.405065 -17.28 
L 57.795118 -17.28 
L 57.18517 -17.28 
L 56.575223 -17.28 
L 55.965276 -17.28 
L 55.355329 -17.28 
L 54.745382 -17.28 
L 54.135435 -17.28 
L 53.525487 -17.28 
L 52.91554 -17.28 
L 52.305593 -17.28 
L 51.695646 -17.28 
L 51.085699 -17.28 
L 50.475752 -17.28 
L 49.865804 -17.28 
L 49.255857 -17.28 
L 48.64591 -17.28 
L 48.035963 -17.28 
L 47.426016 -17.28 
L 46.816069 -17.28 
L 46.206121 -17.28 
L 45.596174 -17.28 
L 44.986227 -17.28 
L 44.37628 -17.28 
L 43.766333 -17.28 
L 43.156385 -17.28 
L 42.546438 -17.28 
L 41.936491 -17.28 
L 41.326544 -17.28 
L 40.716597 -17.28 
L 40.10665 -17.28 
L 39.496702 -17.28 
L 38.886755 -17.28 
L 38.276808 -17.28 
L 37.666861 -17.28 
L 37.056914 -17.28 
L 36.446967 -17.28 
L 35.837019 -17.28 
L 35.227072 -17.28 
L 34.617125 -17.28 
L 34.007178 -17.28 
L 33.397231 -17.28 
L 32.787284 -17.28 
L 32.177336 -17.28 
L 31.567389 -17.28 
L 30.957442 -17.28 
L 30.347495 -17.28 
L 29.737548 -17.28 
L 29.127601 -17.28 
L 28.517653 -17.28 
L 27.907706 -17.28 
L 27.297759 -17.28 
L 26.687812 -17.28 
L 26.077865 -17.28 
L 25.467918 -17.28 
L 24.85797 -17.28 
L 24.248023 -17.28 
L 23.638076 -17.28 
L 23.028129 -17.28 
L 22.418182 -17.28 
z
" style="stroke: #90ee90"/>
    </defs>
    <g clip-path="url(#pfc9a3e5c7a)">
     <use xlink:href="#m343cdf3dfd" x="0" y="236.16" style="fill: #90ee90; stroke: #90ee90"/>
    </g>
   </g>
   <g id="line2d_1">
    <path d="M 22.418182 218.879417 
L 48.035963 218.771305 
L 55.965276 218.53845 
L 62.064748 218.140125 
L 66.944325 217.585214 
L 70.604008 216.970104 
L 74.263691 216.131084 
L 77.313427 215.221313 
L 80.363163 214.083177 
L 83.412899 212.680012 
L 85.852687 211.341286 
L 88.292476 209.789313 
L 90.732265 208.00494 
L 93.172053 205.969694 
L 95.611842 203.666195 
L 98.051631 201.078557 
L 100.491419 198.192807 
L 102.931208 194.997279 
L 105.370997 191.482992 
L 107.810785 187.643995 
L 110.860521 182.384971 
L 113.910257 176.617567 
L 116.959993 170.353905 
L 120.009729 163.615744 
L 123.669412 154.948588 
L 127.329095 145.716335 
L 131.598725 134.353289 
L 137.088249 119.076496 
L 151.726981 77.883816 
L 155.996611 66.689 
L 159.656294 57.694719 
L 162.70603 50.718306 
L 165.755766 44.282758 
L 168.805502 38.445454 
L 171.245291 34.239838 
L 173.685079 30.470276 
L 176.124868 27.154519 
L 177.954709 24.974094 
L 179.784551 23.061439 
L 181.614392 21.419905 
L 183.444234 20.051666 
L 185.274075 18.95774 
L 187.103917 18.138011 
L 188.933758 17.591265 
L 190.7636 17.315223 
L 192.593441 17.306591 
L 194.423283 17.561101 
L 196.253124 18.073571 
L 198.082966 18.837958 
L 199.912807 19.847417 
L 201.742649 21.094368 
L 203.57249 22.570554 
L 206.012279 24.879994 
L 208.452068 27.558669 
L 210.891856 30.582674 
L 213.331645 33.926955 
L 216.381381 38.518122 
L 219.431117 43.517228 
L 223.0908 49.98049 
L 227.36043 58.046413 
L 232.240007 67.784785 
L 238.949426 81.727939 
L 253.588158 112.330402 
L 259.68763 124.45776 
L 264.567207 133.691084 
L 269.446784 142.43161 
L 273.716415 149.635897 
L 277.986045 156.402653 
L 282.255675 162.719206 
L 285.915358 167.771495 
L 289.575041 172.491018 
L 293.234724 176.88246 
L 296.894407 180.95331 
L 300.55409 184.713376 
L 304.213773 188.174344 
L 307.873456 191.349362 
L 311.533139 194.252663 
L 315.192822 196.899229 
L 318.852505 199.304493 
L 323.122135 201.826497 
L 326.781818 203.762479 
L 326.781818 203.762479 
" clip-path="url(#pfc9a3e5c7a)" style="fill: none; stroke: #000000; stroke-width: 5; stroke-linecap: square"/>
   </g>
  </g>
 </g>
 <defs>
  <clipPath id="pfc9a3e5c7a">
   <rect x="7.2" y="7.2" width="334.8" height="221.76"/>
  </clipPath>
 </defs>
</svg>
