<?xml version="1.0" encoding="utf-8" standalone="no"?>
<!DOCTYPE svg PUBLIC "-//W3C//DTD SVG 1.1//EN"
  "http://www.w3.org/Graphics/SVG/1.1/DTD/svg11.dtd">
<svg xmlns:xlink="http://www.w3.org/1999/xlink" width="349.2pt" height="236.16pt" viewBox="0 0 349.2 236.16" xmlns="http://www.w3.org/2000/svg" version="1.1">
 <metadata>
  <rdf:RDF xmlns:dc="http://purl.org/dc/elements/1.1/" xmlns:cc="http://creativecommons.org/ns#" xmlns:rdf="http://www.w3.org/1999/02/22-rdf-syntax-ns#">
   <cc:Work>
    <dc:type rdf:resource="http://purl.org/dc/dcmitype/StillImage"/>
    <dc:date>2023-08-13T23:04:38.473677</dc:date>
    <dc:format>image/svg+xml</dc:format>
    <dc:creator>
     <cc:Agent>
      <dc:title>Matplotlib v3.6.2, https://matplotlib.org/</dc:title>
     </cc:Agent>
    </dc:creator>
   </cc:Work>
  </rdf:RDF>
 </metadata>
 <defs>
  <style type="text/css">*{stroke-linejoin: round; stroke-linecap: butt}</style>
 </defs>
 <g id="figure_1">
  <g id="patch_1">
   <path d="M 0 236.16 
L 349.2 236.16 
L 349.2 0 
L 0 0 
L 0 236.16 
z
" style="fill: none"/>
  </g>
  <g id="axes_1">
   <g id="PolyCollection_1">
    <defs>
     <path id="m2fe4180d9b" d="M 22.418182 -17.28 
L 22.418182 -17.37275 
L 23.028129 -17.384192 
L 23.638076 -17.396841 
L 24.248023 -17.410804 
L 24.85797 -17.42619 
L 25.467918 -17.443118 
L 26.077865 -17.461713 
L 26.687812 -17.48211 
L 27.297759 -17.50445 
L 27.907706 -17.52888 
L 28.517653 -17.555559 
L 29.127601 -17.584653 
L 29.737548 -17.616335 
L 30.347495 -17.650791 
L 30.957442 -17.688211 
L 31.567389 -17.728799 
L 32.177336 -17.772764 
L 32.787284 -17.820329 
L 33.397231 -17.871722 
L 34.007178 -17.927186 
L 34.617125 -17.986969 
L 35.227072 -18.051331 
L 35.837019 -18.120543 
L 36.446967 -18.194885 
L 37.056914 -18.274646 
L 37.666861 -18.360127 
L 38.276808 -18.451637 
L 38.886755 -18.549496 
L 39.496702 -18.654034 
L 40.10665 -18.765589 
L 40.716597 -18.884511 
L 41.326544 -19.011157 
L 41.936491 -19.145895 
L 42.546438 -19.2891 
L 43.156385 -19.441156 
L 43.766333 -19.602458 
L 44.37628 -19.773404 
L 44.986227 -19.954405 
L 45.596174 -20.145876 
L 46.206121 -20.348239 
L 46.816069 -20.561923 
L 47.426016 -20.787364 
L 48.035963 -21.025002 
L 48.64591 -21.275283 
L 49.255857 -21.538657 
L 49.865804 -21.815578 
L 50.475752 -22.106503 
L 51.085699 -22.411891 
L 51.695646 -22.732206 
L 52.305593 -23.067911 
L 52.91554 -23.419469 
L 53.525487 -23.787345 
L 54.135435 -24.172004 
L 54.745382 -24.573906 
L 55.355329 -24.993514 
L 55.965276 -25.431283 
L 56.575223 -25.887667 
L 57.18517 -26.363117 
L 57.795118 -26.858076 
L 58.405065 -27.372982 
L 59.015012 -27.908267 
L 59.624959 -28.464356 
L 60.234906 -29.041662 
L 60.844853 -29.640594 
L 61.454801 -30.261547 
L 62.064748 -30.904906 
L 62.674695 -31.571047 
L 63.284642 -32.26033 
L 63.894589 -32.973105 
L 64.504536 -33.709705 
L 65.114484 -34.470451 
L 65.724431 -35.255647 
L 66.334378 -36.065581 
L 66.944325 -36.900525 
L 67.554272 -37.760733 
L 68.164219 -38.646439 
L 68.774167 -39.557861 
L 69.384114 -40.495194 
L 69.994061 -41.458617 
L 70.604008 -42.448284 
L 71.213955 -43.46433 
L 71.823902 -44.506868 
L 72.43385 -45.575986 
L 73.043797 -46.671753 
L 73.653744 -47.794212 
L 74.263691 -48.943383 
L 74.873638 -50.119261 
L 75.483585 -51.321818 
L 76.093533 -52.550999 
L 76.70348 -53.806725 
L 77.313427 -55.088891 
L 77.923374 -56.397369 
L 78.533321 -57.732001 
L 79.143268 -59.092605 
L 79.753216 -60.478973 
L 80.363163 -61.890871 
L 80.97311 -63.328039 
L 81.583057 -64.790189 
L 82.193004 -66.277009 
L 82.802951 -67.78816 
L 83.412899 -69.323276 
L 84.022846 -70.881967 
L 84.632793 -72.463818 
L 85.24274 -74.068384 
L 85.852687 -75.695201 
L 86.462634 -77.343777 
L 87.072582 -79.013594 
L 87.682529 -80.704113 
L 88.292476 -82.414771 
L 88.902423 -84.144978 
L 89.51237 -85.894127 
L 90.122317 -87.661583 
L 90.732265 -89.446693 
L 91.342212 -91.248782 
L 91.952159 -93.067154 
L 92.562106 -94.901092 
L 93.172053 -96.749862 
L 93.782 -98.612709 
L 94.391948 -100.488861 
L 95.001895 -102.37753 
L 95.611842 -104.277909 
L 96.221789 -106.189176 
L 96.831736 -108.110496 
L 97.441683 -110.041018 
L 98.051631 -111.979877 
L 98.661578 -113.926196 
L 99.271525 -115.879089 
L 99.881472 -117.837655 
L 100.491419 -119.800985 
L 101.101366 -121.768161 
L 101.711314 -123.738256 
L 102.321261 -125.710338 
L 102.931208 -127.683465 
L 103.541155 -129.656692 
L 104.151102 -131.629069 
L 104.761049 -133.599642 
L 105.370997 -135.567455 
L 105.980944 -137.531548 
L 106.590891 -139.490962 
L 107.200838 -141.444738 
L 107.810785 -143.391917 
L 108.420732 -145.331542 
L 109.03068 -147.262658 
L 109.640627 -149.184316 
L 110.250574 -151.095568 
L 110.860521 -152.995474 
L 111.470468 -154.883098 
L 112.080415 -156.757513 
L 112.690363 -158.617797 
L 113.30031 -160.46304 
L 113.910257 -162.292338 
L 114.520204 -164.1048 
L 115.130151 -165.899544 
L 115.740098 -167.6757 
L 116.350046 -169.432411 
L 116.959993 -171.168833 
L 117.56994 -172.884135 
L 118.179887 -174.577501 
L 118.789834 -176.24813 
L 119.399781 -177.895236 
L 120.009729 -179.51805 
L 120.619676 -181.115821 
L 121.229623 -182.687812 
L 121.83957 -184.233308 
L 122.449517 -185.751609 
L 123.059464 -187.242036 
L 123.669412 -188.703929 
L 124.279359 -190.136646 
L 124.889306 -191.539569 
L 125.499253 -192.912097 
L 126.1092 -194.253651 
L 126.719147 -195.563674 
L 127.329095 -196.84163 
L 127.939042 -198.087004 
L 128.548989 -199.299305 
L 129.158936 -200.478063 
L 129.768883 -201.62283 
L 130.37883 -202.733182 
L 130.988778 -203.808717 
L 131.598725 -204.849057 
L 132.208672 -205.853846 
L 132.818619 -206.822751 
L 133.428566 -207.755463 
L 134.038513 -208.651695 
L 134.648461 -209.511185 
L 135.258408 -210.333694 
L 135.868355 -211.119003 
L 136.478302 -211.866921 
L 137.088249 -212.577277 
L 137.698196 -213.249923 
L 138.308144 -213.884735 
L 138.918091 -214.481611 
L 139.528038 -215.040471 
L 140.137985 -215.561258 
L 140.747932 -216.043937 
L 141.357879 -216.488495 
L 141.967827 -216.89494 
L 142.577774 -217.263303 
L 143.187721 -217.593634 
L 143.797668 -217.886005 
L 144.407615 -218.140509 
L 145.017562 -218.357258 
L 145.62751 -218.536385 
L 146.237457 -218.678042 
L 146.847404 -218.7824 
L 147.457351 -218.84965 
L 148.067298 -218.88 
L 148.677245 -218.873677 
L 149.287193 -218.830924 
L 149.89714 -218.752005 
L 150.507087 -218.637197 
L 151.117034 -218.486795 
L 151.726981 -218.30111 
L 152.336928 -218.080469 
L 152.946876 -217.825212 
L 153.556823 -217.535697 
L 154.16677 -217.212294 
L 154.776717 -216.855386 
L 155.386664 -216.465372 
L 155.996611 -216.042661 
L 156.606559 -215.587676 
L 157.216506 -215.100851 
L 157.826453 -214.582632 
L 158.4364 -214.033476 
L 159.046347 -213.45385 
L 159.656294 -212.84423 
L 160.266242 -212.205104 
L 160.876189 -211.536967 
L 161.486136 -210.840322 
L 162.096083 -210.115683 
L 162.70603 -209.363568 
L 163.315977 -208.584504 
L 163.925925 -207.779025 
L 164.535872 -206.94767 
L 165.145819 -206.090984 
L 165.755766 -205.209519 
L 166.365713 -204.303828 
L 166.97566 -203.374473 
L 167.585608 -202.422016 
L 168.195555 -201.447024 
L 168.805502 -200.450069 
L 169.415449 -199.431722 
L 170.025396 -198.392558 
L 170.635343 -197.333154 
L 171.245291 -196.254089 
L 171.855238 -195.155942 
L 172.465185 -194.039292 
L 173.075132 -192.90472 
L 173.685079 -191.752806 
L 174.295026 -190.584128 
L 174.904974 -189.399266 
L 175.514921 -188.198796 
L 176.124868 -186.983296 
L 176.734815 -185.753338 
L 177.344762 -184.509494 
L 177.954709 -183.252334 
L 178.564657 -181.982423 
L 179.174604 -180.700325 
L 179.784551 -179.406601 
L 180.394498 -178.101805 
L 181.004445 -176.78649 
L 181.614392 -175.461204 
L 182.22434 -174.12649 
L 182.834287 -172.782888 
L 183.444234 -171.430929 
L 184.054181 -170.071144 
L 184.664128 -168.704056 
L 185.274075 -167.330181 
L 185.884023 -165.950031 
L 186.49397 -164.564112 
L 187.103917 -163.172923 
L 187.713864 -161.776958 
L 188.323811 -160.376703 
L 188.933758 -158.972637 
L 189.543706 -157.565234 
L 190.153653 -156.15496 
L 190.7636 -154.742274 
L 191.373547 -153.327626 
L 191.983494 -151.911463 
L 192.593441 -150.49422 
L 193.203389 -149.076327 
L 193.813336 -147.658206 
L 194.423283 -146.24027 
L 195.03323 -144.822927 
L 195.643177 -143.406573 
L 196.253124 -141.9916 
L 196.863072 -140.57839 
L 197.473019 -139.167317 
L 198.082966 -137.758748 
L 198.692913 -136.35304 
L 199.30286 -134.950545 
L 199.912807 -133.551604 
L 200.522755 -132.15655 
L 201.132702 -130.76571 
L 201.742649 -129.379401 
L 202.352596 -127.997932 
L 202.962543 -126.621604 
L 203.57249 -125.250711 
L 204.182438 -123.885537 
L 204.792385 -122.526359 
L 205.402332 -121.173446 
L 206.012279 -119.827058 
L 206.622226 -118.487448 
L 207.232173 -117.154862 
L 207.842121 -115.829535 
L 208.452068 -114.511697 
L 209.062015 -113.201569 
L 209.671962 -111.899365 
L 210.281909 -110.605291 
L 210.891856 -109.319544 
L 211.501804 -108.042315 
L 212.111751 -106.773788 
L 212.721698 -105.514139 
L 213.331645 -104.263536 
L 213.941592 -103.022141 
L 214.551539 -101.790107 
L 215.161487 -100.567583 
L 215.771434 -99.354708 
L 216.381381 -98.151616 
L 216.991328 -96.958434 
L 217.601275 -95.775281 
L 218.211222 -94.602271 
L 218.82117 -93.439511 
L 219.431117 -92.287101 
L 220.041064 -91.145137 
L 220.651011 -90.013706 
L 221.260958 -88.89289 
L 221.870905 -87.782766 
L 222.480853 -86.683403 
L 223.0908 -85.594868 
L 223.700747 -84.517217 
L 224.310694 -83.450506 
L 224.920641 -82.394783 
L 225.530588 -81.350089 
L 226.140536 -80.316463 
L 226.750483 -79.293938 
L 227.36043 -78.28254 
L 227.970377 -77.282293 
L 228.580324 -76.293215 
L 229.190271 -75.31532 
L 229.800219 -74.348615 
L 230.410166 -73.393107 
L 231.020113 -72.448794 
L 231.63006 -71.515674 
L 232.240007 -70.593737 
L 232.849954 -69.682973 
L 233.459902 -68.783365 
L 234.069849 -67.894894 
L 234.679796 -67.017537 
L 235.289743 -66.151266 
L 235.89969 -65.296052 
L 236.509637 -64.451862 
L 237.119585 -63.618658 
L 237.729532 -62.796401 
L 238.339479 -61.985047 
L 238.949426 -61.184553 
L 239.559373 -60.394868 
L 240.16932 -59.615941 
L 240.779268 -58.847719 
L 241.389215 -58.090145 
L 241.999162 -57.343161 
L 242.609109 -56.606705 
L 243.219056 -55.880714 
L 243.829003 -55.165123 
L 244.438951 -54.459863 
L 245.048898 -53.764865 
L 245.658845 -53.080058 
L 246.268792 -52.405368 
L 246.878739 -51.740721 
L 247.488686 -51.08604 
L 248.098634 -50.441246 
L 248.708581 -49.80626 
L 249.318528 -49.181001 
L 249.928475 -48.565386 
L 250.538422 -47.959332 
L 251.148369 -47.362754 
L 251.758317 -46.775566 
L 252.368264 -46.197681 
L 252.978211 -45.629011 
L 253.588158 -45.069468 
L 254.198105 -44.518961 
L 254.808052 -43.9774 
L 255.418 -43.444694 
L 256.027947 -42.920752 
L 256.637894 -42.40548 
L 257.247841 -41.898787 
L 257.857788 -41.400577 
L 258.467735 -40.910759 
L 259.077683 -40.429237 
L 259.68763 -39.955918 
L 260.297577 -39.490706 
L 260.907524 -39.033507 
L 261.517471 -38.584225 
L 262.127418 -38.142765 
L 262.737366 -37.709032 
L 263.347313 -37.282931 
L 263.95726 -36.864367 
L 264.567207 -36.453244 
L 265.177154 -36.049467 
L 265.787101 -35.652941 
L 266.397049 -35.263572 
L 267.006996 -34.881264 
L 267.616943 -34.505924 
L 268.22689 -34.137458 
L 268.836837 -33.775771 
L 269.446784 -33.420771 
L 270.056732 -33.072364 
L 270.666679 -32.730458 
L 271.276626 -32.394961 
L 271.886573 -32.065781 
L 272.49652 -31.742826 
L 273.106467 -31.426007 
L 273.716415 -31.115233 
L 274.326362 -30.810414 
L 274.936309 -30.511461 
L 275.546256 -30.218287 
L 276.156203 -29.930802 
L 276.76615 -29.648921 
L 277.376098 -29.372556 
L 277.986045 -29.101622 
L 278.595992 -28.836033 
L 279.205939 -28.575706 
L 279.815886 -28.320556 
L 280.425833 -28.0705 
L 281.035781 -27.825457 
L 281.645728 -27.585344 
L 282.255675 -27.350082 
L 282.865622 -27.11959 
L 283.475569 -26.893789 
L 284.085516 -26.6726 
L 284.695464 -26.455947 
L 285.305411 -26.243752 
L 285.915358 -26.03594 
L 286.525305 -25.832435 
L 287.135252 -25.633164 
L 287.745199 -25.438053 
L 288.355147 -25.247029 
L 288.965094 -25.06002 
L 289.575041 -24.876956 
L 290.184988 -24.697768 
L 290.794935 -24.522384 
L 291.404882 -24.350738 
L 292.01483 -24.182762 
L 292.624777 -24.018389 
L 293.234724 -23.857554 
L 293.844671 -23.700191 
L 294.454618 -23.546237 
L 295.064565 -23.395628 
L 295.674513 -23.248302 
L 296.28446 -23.104198 
L 296.894407 -22.963256 
L 297.504354 -22.825414 
L 298.114301 -22.690615 
L 298.724248 -22.5588 
L 299.334196 -22.429912 
L 299.944143 -22.303895 
L 300.55409 -22.180693 
L 301.164037 -22.060251 
L 301.773984 -21.942515 
L 302.383931 -21.827433 
L 302.993879 -21.714952 
L 303.603826 -21.60502 
L 304.213773 -21.497587 
L 304.82372 -21.392603 
L 305.433667 -21.290018 
L 306.043615 -21.189786 
L 306.653562 -21.091856 
L 307.263509 -20.996185 
L 307.873456 -20.902724 
L 308.483403 -20.811428 
L 309.09335 -20.722255 
L 309.703298 -20.635158 
L 310.313245 -20.550097 
L 310.923192 -20.467027 
L 311.533139 -20.385908 
L 312.143086 -20.306698 
L 312.753033 -20.229359 
L 313.362981 -20.153849 
L 313.972928 -20.080131 
L 314.582875 -20.008165 
L 315.192822 -19.937916 
L 315.802769 -19.869345 
L 316.412716 -19.802418 
L 317.022664 -19.737098 
L 317.632611 -19.673351 
L 318.242558 -19.611142 
L 318.852505 -19.550439 
L 319.462452 -19.491207 
L 320.072399 -19.433416 
L 320.682347 -19.377032 
L 321.292294 -19.322025 
L 321.902241 -19.268365 
L 322.512188 -19.216022 
L 323.122135 -19.164966 
L 323.732082 -19.115168 
L 324.34203 -19.0666 
L 324.951977 -19.019235 
L 325.561924 -18.973045 
L 326.171871 -18.928004 
L 326.781818 -18.884086 
L 326.781818 -17.28 
L 326.781818 -17.28 
L 326.171871 -17.28 
L 325.561924 -17.28 
L 324.951977 -17.28 
L 324.34203 -17.28 
L 323.732082 -17.28 
L 323.122135 -17.28 
L 322.512188 -17.28 
L 321.902241 -17.28 
L 321.292294 -17.28 
L 320.682347 -17.28 
L 320.072399 -17.28 
L 319.462452 -17.28 
L 318.852505 -17.28 
L 318.242558 -17.28 
L 317.632611 -17.28 
L 317.022664 -17.28 
L 316.412716 -17.28 
L 315.802769 -17.28 
L 315.192822 -17.28 
L 314.582875 -17.28 
L 313.972928 -17.28 
L 313.362981 -17.28 
L 312.753033 -17.28 
L 312.143086 -17.28 
L 311.533139 -17.28 
L 310.923192 -17.28 
L 310.313245 -17.28 
L 309.703298 -17.28 
L 309.09335 -17.28 
L 308.483403 -17.28 
L 307.873456 -17.28 
L 307.263509 -17.28 
L 306.653562 -17.28 
L 306.043615 -17.28 
L 305.433667 -17.28 
L 304.82372 -17.28 
L 304.213773 -17.28 
L 303.603826 -17.28 
L 302.993879 -17.28 
L 302.383931 -17.28 
L 301.773984 -17.28 
L 301.164037 -17.28 
L 300.55409 -17.28 
L 299.944143 -17.28 
L 299.334196 -17.28 
L 298.724248 -17.28 
L 298.114301 -17.28 
L 297.504354 -17.28 
L 296.894407 -17.28 
L 296.28446 -17.28 
L 295.674513 -17.28 
L 295.064565 -17.28 
L 294.454618 -17.28 
L 293.844671 -17.28 
L 293.234724 -17.28 
L 292.624777 -17.28 
L 292.01483 -17.28 
L 291.404882 -17.28 
L 290.794935 -17.28 
L 290.184988 -17.28 
L 289.575041 -17.28 
L 288.965094 -17.28 
L 288.355147 -17.28 
L 287.745199 -17.28 
L 287.135252 -17.28 
L 286.525305 -17.28 
L 285.915358 -17.28 
L 285.305411 -17.28 
L 284.695464 -17.28 
L 284.085516 -17.28 
L 283.475569 -17.28 
L 282.865622 -17.28 
L 282.255675 -17.28 
L 281.645728 -17.28 
L 281.035781 -17.28 
L 280.425833 -17.28 
L 279.815886 -17.28 
L 279.205939 -17.28 
L 278.595992 -17.28 
L 277.986045 -17.28 
L 277.376098 -17.28 
L 276.76615 -17.28 
L 276.156203 -17.28 
L 275.546256 -17.28 
L 274.936309 -17.28 
L 274.326362 -17.28 
L 273.716415 -17.28 
L 273.106467 -17.28 
L 272.49652 -17.28 
L 271.886573 -17.28 
L 271.276626 -17.28 
L 270.666679 -17.28 
L 270.056732 -17.28 
L 269.446784 -17.28 
L 268.836837 -17.28 
L 268.22689 -17.28 
L 267.616943 -17.28 
L 267.006996 -17.28 
L 266.397049 -17.28 
L 265.787101 -17.28 
L 265.177154 -17.28 
L 264.567207 -17.28 
L 263.95726 -17.28 
L 263.347313 -17.28 
L 262.737366 -17.28 
L 262.127418 -17.28 
L 261.517471 -17.28 
L 260.907524 -17.28 
L 260.297577 -17.28 
L 259.68763 -17.28 
L 259.077683 -17.28 
L 258.467735 -17.28 
L 257.857788 -17.28 
L 257.247841 -17.28 
L 256.637894 -17.28 
L 256.027947 -17.28 
L 255.418 -17.28 
L 254.808052 -17.28 
L 254.198105 -17.28 
L 253.588158 -17.28 
L 252.978211 -17.28 
L 252.368264 -17.28 
L 251.758317 -17.28 
L 251.148369 -17.28 
L 250.538422 -17.28 
L 249.928475 -17.28 
L 249.318528 -17.28 
L 248.708581 -17.28 
L 248.098634 -17.28 
L 247.488686 -17.28 
L 246.878739 -17.28 
L 246.268792 -17.28 
L 245.658845 -17.28 
L 245.048898 -17.28 
L 244.438951 -17.28 
L 243.829003 -17.28 
L 243.219056 -17.28 
L 242.609109 -17.28 
L 241.999162 -17.28 
L 241.389215 -17.28 
L 240.779268 -17.28 
L 240.16932 -17.28 
L 239.559373 -17.28 
L 238.949426 -17.28 
L 238.339479 -17.28 
L 237.729532 -17.28 
L 237.119585 -17.28 
L 236.509637 -17.28 
L 235.89969 -17.28 
L 235.289743 -17.28 
L 234.679796 -17.28 
L 234.069849 -17.28 
L 233.459902 -17.28 
L 232.849954 -17.28 
L 232.240007 -17.28 
L 231.63006 -17.28 
L 231.020113 -17.28 
L 230.410166 -17.28 
L 229.800219 -17.28 
L 229.190271 -17.28 
L 228.580324 -17.28 
L 227.970377 -17.28 
L 227.36043 -17.28 
L 226.750483 -17.28 
L 226.140536 -17.28 
L 225.530588 -17.28 
L 224.920641 -17.28 
L 224.310694 -17.28 
L 223.700747 -17.28 
L 223.0908 -17.28 
L 222.480853 -17.28 
L 221.870905 -17.28 
L 221.260958 -17.28 
L 220.651011 -17.28 
L 220.041064 -17.28 
L 219.431117 -17.28 
L 218.82117 -17.28 
L 218.211222 -17.28 
L 217.601275 -17.28 
L 216.991328 -17.28 
L 216.381381 -17.28 
L 215.771434 -17.28 
L 215.161487 -17.28 
L 214.551539 -17.28 
L 213.941592 -17.28 
L 213.331645 -17.28 
L 212.721698 -17.28 
L 212.111751 -17.28 
L 211.501804 -17.28 
L 210.891856 -17.28 
L 210.281909 -17.28 
L 209.671962 -17.28 
L 209.062015 -17.28 
L 208.452068 -17.28 
L 207.842121 -17.28 
L 207.232173 -17.28 
L 206.622226 -17.28 
L 206.012279 -17.28 
L 205.402332 -17.28 
L 204.792385 -17.28 
L 204.182438 -17.28 
L 203.57249 -17.28 
L 202.962543 -17.28 
L 202.352596 -17.28 
L 201.742649 -17.28 
L 201.132702 -17.28 
L 200.522755 -17.28 
L 199.912807 -17.28 
L 199.30286 -17.28 
L 198.692913 -17.28 
L 198.082966 -17.28 
L 197.473019 -17.28 
L 196.863072 -17.28 
L 196.253124 -17.28 
L 195.643177 -17.28 
L 195.03323 -17.28 
L 194.423283 -17.28 
L 193.813336 -17.28 
L 193.203389 -17.28 
L 192.593441 -17.28 
L 191.983494 -17.28 
L 191.373547 -17.28 
L 190.7636 -17.28 
L 190.153653 -17.28 
L 189.543706 -17.28 
L 188.933758 -17.28 
L 188.323811 -17.28 
L 187.713864 -17.28 
L 187.103917 -17.28 
L 186.49397 -17.28 
L 185.884023 -17.28 
L 185.274075 -17.28 
L 184.664128 -17.28 
L 184.054181 -17.28 
L 183.444234 -17.28 
L 182.834287 -17.28 
L 182.22434 -17.28 
L 181.614392 -17.28 
L 181.004445 -17.28 
L 180.394498 -17.28 
L 179.784551 -17.28 
L 179.174604 -17.28 
L 178.564657 -17.28 
L 177.954709 -17.28 
L 177.344762 -17.28 
L 176.734815 -17.28 
L 176.124868 -17.28 
L 175.514921 -17.28 
L 174.904974 -17.28 
L 174.295026 -17.28 
L 173.685079 -17.28 
L 173.075132 -17.28 
L 172.465185 -17.28 
L 171.855238 -17.28 
L 171.245291 -17.28 
L 170.635343 -17.28 
L 170.025396 -17.28 
L 169.415449 -17.28 
L 168.805502 -17.28 
L 168.195555 -17.28 
L 167.585608 -17.28 
L 166.97566 -17.28 
L 166.365713 -17.28 
L 165.755766 -17.28 
L 165.145819 -17.28 
L 164.535872 -17.28 
L 163.925925 -17.28 
L 163.315977 -17.28 
L 162.70603 -17.28 
L 162.096083 -17.28 
L 161.486136 -17.28 
L 160.876189 -17.28 
L 160.266242 -17.28 
L 159.656294 -17.28 
L 159.046347 -17.28 
L 158.4364 -17.28 
L 157.826453 -17.28 
L 157.216506 -17.28 
L 156.606559 -17.28 
L 155.996611 -17.28 
L 155.386664 -17.28 
L 154.776717 -17.28 
L 154.16677 -17.28 
L 153.556823 -17.28 
L 152.946876 -17.28 
L 152.336928 -17.28 
L 151.726981 -17.28 
L 151.117034 -17.28 
L 150.507087 -17.28 
L 149.89714 -17.28 
L 149.287193 -17.28 
L 148.677245 -17.28 
L 148.067298 -17.28 
L 147.457351 -17.28 
L 146.847404 -17.28 
L 146.237457 -17.28 
L 145.62751 -17.28 
L 145.017562 -17.28 
L 144.407615 -17.28 
L 143.797668 -17.28 
L 143.187721 -17.28 
L 142.577774 -17.28 
L 141.967827 -17.28 
L 141.357879 -17.28 
L 140.747932 -17.28 
L 140.137985 -17.28 
L 139.528038 -17.28 
L 138.918091 -17.28 
L 138.308144 -17.28 
L 137.698196 -17.28 
L 137.088249 -17.28 
L 136.478302 -17.28 
L 135.868355 -17.28 
L 135.258408 -17.28 
L 134.648461 -17.28 
L 134.038513 -17.28 
L 133.428566 -17.28 
L 132.818619 -17.28 
L 132.208672 -17.28 
L 131.598725 -17.28 
L 130.988778 -17.28 
L 130.37883 -17.28 
L 129.768883 -17.28 
L 129.158936 -17.28 
L 128.548989 -17.28 
L 127.939042 -17.28 
L 127.329095 -17.28 
L 126.719147 -17.28 
L 126.1092 -17.28 
L 125.499253 -17.28 
L 124.889306 -17.28 
L 124.279359 -17.28 
L 123.669412 -17.28 
L 123.059464 -17.28 
L 122.449517 -17.28 
L 121.83957 -17.28 
L 121.229623 -17.28 
L 120.619676 -17.28 
L 120.009729 -17.28 
L 119.399781 -17.28 
L 118.789834 -17.28 
L 118.179887 -17.28 
L 117.56994 -17.28 
L 116.959993 -17.28 
L 116.350046 -17.28 
L 115.740098 -17.28 
L 115.130151 -17.28 
L 114.520204 -17.28 
L 113.910257 -17.28 
L 113.30031 -17.28 
L 112.690363 -17.28 
L 112.080415 -17.28 
L 111.470468 -17.28 
L 110.860521 -17.28 
L 110.250574 -17.28 
L 109.640627 -17.28 
L 109.03068 -17.28 
L 108.420732 -17.28 
L 107.810785 -17.28 
L 107.200838 -17.28 
L 106.590891 -17.28 
L 105.980944 -17.28 
L 105.370997 -17.28 
L 104.761049 -17.28 
L 104.151102 -17.28 
L 103.541155 -17.28 
L 102.931208 -17.28 
L 102.321261 -17.28 
L 101.711314 -17.28 
L 101.101366 -17.28 
L 100.491419 -17.28 
L 99.881472 -17.28 
L 99.271525 -17.28 
L 98.661578 -17.28 
L 98.051631 -17.28 
L 97.441683 -17.28 
L 96.831736 -17.28 
L 96.221789 -17.28 
L 95.611842 -17.28 
L 95.001895 -17.28 
L 94.391948 -17.28 
L 93.782 -17.28 
L 93.172053 -17.28 
L 92.562106 -17.28 
L 91.952159 -17.28 
L 91.342212 -17.28 
L 90.732265 -17.28 
L 90.122317 -17.28 
L 89.51237 -17.28 
L 88.902423 -17.28 
L 88.292476 -17.28 
L 87.682529 -17.28 
L 87.072582 -17.28 
L 86.462634 -17.28 
L 85.852687 -17.28 
L 85.24274 -17.28 
L 84.632793 -17.28 
L 84.022846 -17.28 
L 83.412899 -17.28 
L 82.802951 -17.28 
L 82.193004 -17.28 
L 81.583057 -17.28 
L 80.97311 -17.28 
L 80.363163 -17.28 
L 79.753216 -17.28 
L 79.143268 -17.28 
L 78.533321 -17.28 
L 77.923374 -17.28 
L 77.313427 -17.28 
L 76.70348 -17.28 
L 76.093533 -17.28 
L 75.483585 -17.28 
L 74.873638 -17.28 
L 74.263691 -17.28 
L 73.653744 -17.28 
L 73.043797 -17.28 
L 72.43385 -17.28 
L 71.823902 -17.28 
L 71.213955 -17.28 
L 70.604008 -17.28 
L 69.994061 -17.28 
L 69.384114 -17.28 
L 68.774167 -17.28 
L 68.164219 -17.28 
L 67.554272 -17.28 
L 66.944325 -17.28 
L 66.334378 -17.28 
L 65.724431 -17.28 
L 65.114484 -17.28 
L 64.504536 -17.28 
L 63.894589 -17.28 
L 63.284642 -17.28 
L 62.674695 -17.28 
L 62.064748 -17.28 
L 61.454801 -17.28 
L 60.844853 -17.28 
L 60.234906 -17.28 
L 59.624959 -17.28 
L 59.015012 -17.28 
L 58.405065 -17.28 
L 57.795118 -17.28 
L 57.18517 -17.28 
L 56.575223 -17.28 
L 55.965276 -17.28 
L 55.355329 -17.28 
L 54.745382 -17.28 
L 54.135435 -17.28 
L 53.525487 -17.28 
L 52.91554 -17.28 
L 52.305593 -17.28 
L 51.695646 -17.28 
L 51.085699 -17.28 
L 50.475752 -17.28 
L 49.865804 -17.28 
L 49.255857 -17.28 
L 48.64591 -17.28 
L 48.035963 -17.28 
L 47.426016 -17.28 
L 46.816069 -17.28 
L 46.206121 -17.28 
L 45.596174 -17.28 
L 44.986227 -17.28 
L 44.37628 -17.28 
L 43.766333 -17.28 
L 43.156385 -17.28 
L 42.546438 -17.28 
L 41.936491 -17.28 
L 41.326544 -17.28 
L 40.716597 -17.28 
L 40.10665 -17.28 
L 39.496702 -17.28 
L 38.886755 -17.28 
L 38.276808 -17.28 
L 37.666861 -17.28 
L 37.056914 -17.28 
L 36.446967 -17.28 
L 35.837019 -17.28 
L 35.227072 -17.28 
L 34.617125 -17.28 
L 34.007178 -17.28 
L 33.397231 -17.28 
L 32.787284 -17.28 
L 32.177336 -17.28 
L 31.567389 -17.28 
L 30.957442 -17.28 
L 30.347495 -17.28 
L 29.737548 -17.28 
L 29.127601 -17.28 
L 28.517653 -17.28 
L 27.907706 -17.28 
L 27.297759 -17.28 
L 26.687812 -17.28 
L 26.077865 -17.28 
L 25.467918 -17.28 
L 24.85797 -17.28 
L 24.248023 -17.28 
L 23.638076 -17.28 
L 23.028129 -17.28 
L 22.418182 -17.28 
z
" style="stroke: #ffa500"/>
    </defs>
    <g clip-path="url(#pf52eb6b482)">
     <use xlink:href="#m2fe4180d9b" x="0" y="236.16" style="fill: #ffa500; stroke: #ffa500"/>
    </g>
   </g>
   <g id="line2d_1">
    <path d="M 22.418182 218.78725 
L 29.737548 218.543665 
L 34.617125 218.173031 
L 38.276808 217.708363 
L 41.936491 217.014105 
L 44.986227 216.205595 
L 48.035963 215.134998 
L 50.475752 214.053497 
L 52.91554 212.740531 
L 55.355329 211.166486 
L 57.795118 209.301924 
L 60.234906 207.118338 
L 62.674695 204.588953 
L 65.114484 201.689549 
L 67.554272 198.399267 
L 69.994061 194.701383 
L 72.43385 190.584014 
L 74.873638 186.040739 
L 77.313427 181.071109 
L 80.363163 174.269129 
L 83.412899 166.836724 
L 86.462634 158.816223 
L 90.122317 148.498417 
L 94.391948 135.671139 
L 99.881472 118.322345 
L 112.080415 79.402487 
L 116.350046 66.727589 
L 120.009729 56.64195 
L 123.059464 48.917964 
L 125.499253 43.247903 
L 127.939042 38.072996 
L 130.37883 33.426818 
L 132.818619 29.337249 
L 134.648461 26.648815 
L 136.478302 24.293079 
L 138.308144 22.275265 
L 140.137985 20.598742 
L 141.967827 19.26506 
L 143.797668 18.273995 
L 145.62751 17.623615 
L 147.457351 17.31035 
L 149.287193 17.329076 
L 151.117034 17.673205 
L 152.946876 18.334788 
L 154.776717 19.304614 
L 156.606559 20.572324 
L 158.4364 22.126524 
L 160.266242 23.954896 
L 162.096083 26.044317 
L 164.535872 29.21233 
L 166.97566 32.785527 
L 169.415449 36.728278 
L 172.465185 42.120708 
L 175.514921 47.961204 
L 179.174604 55.459675 
L 183.444234 64.729071 
L 189.543706 78.594766 
L 205.402332 114.986554 
L 210.891856 126.840456 
L 215.771434 136.805292 
L 220.041064 145.014863 
L 224.310694 152.709494 
L 227.970377 158.877707 
L 231.63006 164.644326 
L 235.289743 170.008734 
L 238.949426 174.975447 
L 242.609109 179.553295 
L 246.268792 183.754632 
L 249.928475 187.594614 
L 253.588158 191.090532 
L 257.247841 194.261213 
L 260.907524 197.126493 
L 264.567207 199.706756 
L 268.22689 202.022542 
L 271.886573 204.094219 
L 276.156203 206.229198 
L 280.425833 208.0895 
L 284.695464 209.704053 
L 288.965094 211.09998 
L 293.844671 212.459809 
L 298.724248 213.6012 
L 304.213773 214.662413 
L 310.313245 215.609903 
L 317.022664 216.422902 
L 324.951977 217.140765 
L 326.781818 217.275914 
L 326.781818 217.275914 
" clip-path="url(#pf52eb6b482)" style="fill: none; stroke: #000000; stroke-width: 5; stroke-linecap: square"/>
   </g>
  </g>
 </g>
 <defs>
  <clipPath id="pf52eb6b482">
   <rect x="7.2" y="7.2" width="334.8" height="221.76"/>
  </clipPath>
 </defs>
</svg>
