<?xml version="1.0" encoding="utf-8" standalone="no"?>
<!DOCTYPE svg PUBLIC "-//W3C//DTD SVG 1.1//EN"
  "http://www.w3.org/Graphics/SVG/1.1/DTD/svg11.dtd">
<svg xmlns:xlink="http://www.w3.org/1999/xlink" width="349.2pt" height="236.16pt" viewBox="0 0 349.2 236.16" xmlns="http://www.w3.org/2000/svg" version="1.1">
 <metadata>
  <rdf:RDF xmlns:dc="http://purl.org/dc/elements/1.1/" xmlns:cc="http://creativecommons.org/ns#" xmlns:rdf="http://www.w3.org/1999/02/22-rdf-syntax-ns#">
   <cc:Work>
    <dc:type rdf:resource="http://purl.org/dc/dcmitype/StillImage"/>
    <dc:date>2023-08-13T23:04:38.447914</dc:date>
    <dc:format>image/svg+xml</dc:format>
    <dc:creator>
     <cc:Agent>
      <dc:title>Matplotlib v3.6.2, https://matplotlib.org/</dc:title>
     </cc:Agent>
    </dc:creator>
   </cc:Work>
  </rdf:RDF>
 </metadata>
 <defs>
  <style type="text/css">*{stroke-linejoin: round; stroke-linecap: butt}</style>
 </defs>
 <g id="figure_1">
  <g id="patch_1">
   <path d="M 0 236.16 
L 349.2 236.16 
L 349.2 0 
L 0 0 
L 0 236.16 
z
" style="fill: none"/>
  </g>
  <g id="axes_1">
   <g id="PolyCollection_1">
    <defs>
     <path id="m981f3b1677" d="M 22.418182 -17.28 
L 22.418182 -17.697862 
L 23.028129 -17.757366 
L 23.638076 -17.823634 
L 24.248023 -17.897227 
L 24.85797 -17.978733 
L 25.467918 -18.068763 
L 26.077865 -18.167957 
L 26.687812 -18.276975 
L 27.297759 -18.396506 
L 27.907706 -18.527257 
L 28.517653 -18.669959 
L 29.127601 -18.825366 
L 29.737548 -18.994248 
L 30.347495 -19.177395 
L 30.957442 -19.375613 
L 31.567389 -19.589725 
L 32.177336 -19.820565 
L 32.787284 -20.068982 
L 33.397231 -20.335833 
L 34.007178 -20.621984 
L 34.617125 -20.928305 
L 35.227072 -21.255674 
L 35.837019 -21.604969 
L 36.446967 -21.977067 
L 37.056914 -22.372845 
L 37.666861 -22.793173 
L 38.276808 -23.238917 
L 38.886755 -23.710931 
L 39.496702 -24.210062 
L 40.10665 -24.737138 
L 40.716597 -25.292975 
L 41.326544 -25.878369 
L 41.936491 -26.494098 
L 42.546438 -27.140914 
L 43.156385 -27.819547 
L 43.766333 -28.530698 
L 44.37628 -29.27504 
L 44.986227 -30.053215 
L 45.596174 -30.865832 
L 46.206121 -31.713464 
L 46.816069 -32.596647 
L 47.426016 -33.515881 
L 48.035963 -34.471621 
L 48.64591 -35.464285 
L 49.255857 -36.494245 
L 49.865804 -37.561827 
L 50.475752 -38.667314 
L 51.085699 -39.81094 
L 51.695646 -40.992889 
L 52.305593 -42.213299 
L 52.91554 -43.472254 
L 53.525487 -44.769791 
L 54.135435 -46.105892 
L 54.745382 -47.480488 
L 55.355329 -48.893457 
L 55.965276 -50.344624 
L 56.575223 -51.833763 
L 57.18517 -53.360591 
L 57.795118 -54.924774 
L 58.405065 -56.525926 
L 59.015012 -58.163606 
L 59.624959 -59.837322 
L 60.234906 -61.54653 
L 60.844853 -63.290634 
L 61.454801 -65.068989 
L 62.064748 -66.880897 
L 62.674695 -68.725615 
L 63.284642 -70.60235 
L 63.894589 -72.510261 
L 64.504536 -74.448464 
L 65.114484 -76.416029 
L 65.724431 -78.411982 
L 66.334378 -80.435309 
L 66.944325 -82.484954 
L 67.554272 -84.559824 
L 68.164219 -86.658787 
L 68.774167 -88.780676 
L 69.384114 -90.924292 
L 69.994061 -93.0884 
L 70.604008 -95.271738 
L 71.213955 -97.473015 
L 71.823902 -99.690911 
L 72.43385 -101.924085 
L 73.043797 -104.171169 
L 73.653744 -106.430778 
L 74.263691 -108.701506 
L 74.873638 -110.981929 
L 75.483585 -113.270611 
L 76.093533 -115.5661 
L 76.70348 -117.866934 
L 77.313427 -120.171644 
L 77.923374 -122.478751 
L 78.533321 -124.786771 
L 79.143268 -127.09422 
L 79.753216 -129.399609 
L 80.363163 -131.701451 
L 80.97311 -133.998263 
L 81.583057 -136.288565 
L 82.193004 -138.570883 
L 82.802951 -140.843751 
L 83.412899 -143.105713 
L 84.022846 -145.355326 
L 84.632793 -147.591157 
L 85.24274 -149.811791 
L 85.852687 -152.015828 
L 86.462634 -154.201884 
L 87.072582 -156.368597 
L 87.682529 -158.514626 
L 88.292476 -160.63865 
L 88.902423 -162.739373 
L 89.51237 -164.815524 
L 90.122317 -166.865858 
L 90.732265 -168.889155 
L 91.342212 -170.884226 
L 91.952159 -172.849911 
L 92.562106 -174.785079 
L 93.172053 -176.688632 
L 93.782 -178.559502 
L 94.391948 -180.396657 
L 95.001895 -182.199095 
L 95.611842 -183.965851 
L 96.221789 -185.695994 
L 96.831736 -187.388631 
L 97.441683 -189.042901 
L 98.051631 -190.657983 
L 98.661578 -192.233091 
L 99.271525 -193.767479 
L 99.881472 -195.260435 
L 100.491419 -196.711288 
L 101.101366 -198.119403 
L 101.711314 -199.484186 
L 102.321261 -200.805078 
L 102.931208 -202.08156 
L 103.541155 -203.313152 
L 104.151102 -204.499411 
L 104.761049 -205.639933 
L 105.370997 -206.734352 
L 105.980944 -207.782339 
L 106.590891 -208.783603 
L 107.200838 -209.737891 
L 107.810785 -210.644987 
L 108.420732 -211.504709 
L 109.03068 -212.316915 
L 109.640627 -213.081497 
L 110.250574 -213.798381 
L 110.860521 -214.46753 
L 111.470468 -215.08894 
L 112.080415 -215.662641 
L 112.690363 -216.188697 
L 113.30031 -216.667203 
L 113.910257 -217.098286 
L 114.520204 -217.482107 
L 115.130151 -217.818853 
L 115.740098 -218.108745 
L 116.350046 -218.35203 
L 116.959993 -218.548986 
L 117.56994 -218.699917 
L 118.179887 -218.805154 
L 118.789834 -218.865054 
L 119.399781 -218.88 
L 120.009729 -218.850399 
L 120.619676 -218.776683 
L 121.229623 -218.659303 
L 121.83957 -218.498738 
L 122.449517 -218.295483 
L 123.059464 -218.050055 
L 123.669412 -217.762992 
L 124.279359 -217.43485 
L 124.889306 -217.066202 
L 125.499253 -216.657638 
L 126.1092 -216.209766 
L 126.719147 -215.723208 
L 127.329095 -215.198601 
L 127.939042 -214.636595 
L 128.548989 -214.037854 
L 129.158936 -213.403053 
L 129.768883 -212.73288 
L 130.37883 -212.028033 
L 130.988778 -211.289218 
L 131.598725 -210.517152 
L 132.208672 -209.71256 
L 132.818619 -208.876173 
L 133.428566 -208.008732 
L 134.038513 -207.110979 
L 134.648461 -206.183666 
L 135.258408 -205.227547 
L 135.868355 -204.243381 
L 136.478302 -203.231929 
L 137.088249 -202.193956 
L 137.698196 -201.130228 
L 138.308144 -200.041513 
L 138.918091 -198.928578 
L 139.528038 -197.792193 
L 140.137985 -196.633124 
L 140.747932 -195.452139 
L 141.357879 -194.250001 
L 141.967827 -193.027475 
L 142.577774 -191.785319 
L 143.187721 -190.524292 
L 143.797668 -189.245144 
L 144.407615 -187.948627 
L 145.017562 -186.635483 
L 145.62751 -185.306451 
L 146.237457 -183.962267 
L 146.847404 -182.603656 
L 147.457351 -181.23134 
L 148.067298 -179.846034 
L 148.677245 -178.448446 
L 149.287193 -177.039276 
L 149.89714 -175.619215 
L 150.507087 -174.18895 
L 151.117034 -172.749155 
L 151.726981 -171.300498 
L 152.336928 -169.843638 
L 152.946876 -168.379224 
L 153.556823 -166.907897 
L 154.16677 -165.430286 
L 154.776717 -163.947014 
L 155.386664 -162.45869 
L 155.996611 -160.965915 
L 156.606559 -159.46928 
L 157.216506 -157.969365 
L 157.826453 -156.466738 
L 158.4364 -154.961958 
L 159.046347 -153.455574 
L 159.656294 -151.948121 
L 160.266242 -150.440125 
L 160.876189 -148.932102 
L 161.486136 -147.424555 
L 162.096083 -145.917975 
L 162.70603 -144.412845 
L 163.315977 -142.909633 
L 163.925925 -141.408798 
L 164.535872 -139.910787 
L 165.145819 -138.416036 
L 165.755766 -136.92497 
L 166.365713 -135.438001 
L 166.97566 -133.955531 
L 167.585608 -132.477951 
L 168.195555 -131.00564 
L 168.805502 -129.538967 
L 169.415449 -128.078288 
L 170.025396 -126.62395 
L 170.635343 -125.176288 
L 171.245291 -123.735626 
L 171.855238 -122.302278 
L 172.465185 -120.876546 
L 173.075132 -119.458723 
L 173.685079 -118.049089 
L 174.295026 -116.647917 
L 174.904974 -115.255467 
L 175.514921 -113.87199 
L 176.124868 -112.497725 
L 176.734815 -111.132905 
L 177.344762 -109.77775 
L 177.954709 -108.432471 
L 178.564657 -107.09727 
L 179.174604 -105.772338 
L 179.784551 -104.457859 
L 180.394498 -103.154007 
L 181.004445 -101.860946 
L 181.614392 -100.578832 
L 182.22434 -99.307813 
L 182.834287 -98.048027 
L 183.444234 -96.799605 
L 184.054181 -95.562668 
L 184.664128 -94.337332 
L 185.274075 -93.123701 
L 185.884023 -91.921875 
L 186.49397 -90.731944 
L 187.103917 -89.553991 
L 187.713864 -88.388093 
L 188.323811 -87.234318 
L 188.933758 -86.092729 
L 189.543706 -84.96338 
L 190.153653 -83.846321 
L 190.7636 -82.741593 
L 191.373547 -81.649232 
L 191.983494 -80.569267 
L 192.593441 -79.501724 
L 193.203389 -78.446618 
L 193.813336 -77.403962 
L 194.423283 -76.373763 
L 195.03323 -75.356022 
L 195.643177 -74.350735 
L 196.253124 -73.357893 
L 196.863072 -72.377482 
L 197.473019 -71.409482 
L 198.082966 -70.453872 
L 198.692913 -69.510622 
L 199.30286 -68.5797 
L 199.912807 -67.661071 
L 200.522755 -66.754693 
L 201.132702 -65.860522 
L 201.742649 -64.978511 
L 202.352596 -64.108608 
L 202.962543 -63.250757 
L 203.57249 -62.404899 
L 204.182438 -61.570974 
L 204.792385 -60.748915 
L 205.402332 -59.938656 
L 206.012279 -59.140125 
L 206.622226 -58.353249 
L 207.232173 -57.577951 
L 207.842121 -56.814154 
L 208.452068 -56.061776 
L 209.062015 -55.320734 
L 209.671962 -54.590943 
L 210.281909 -53.872315 
L 210.891856 -53.164761 
L 211.501804 -52.468189 
L 212.111751 -51.782507 
L 212.721698 -51.10762 
L 213.331645 -50.443432 
L 213.941592 -49.789846 
L 214.551539 -49.146762 
L 215.161487 -48.51408 
L 215.771434 -47.891699 
L 216.381381 -47.279517 
L 216.991328 -46.67743 
L 217.601275 -46.085333 
L 218.211222 -45.503123 
L 218.82117 -44.930692 
L 219.431117 -44.367934 
L 220.041064 -43.814742 
L 220.651011 -43.271009 
L 221.260958 -42.736625 
L 221.870905 -42.211483 
L 222.480853 -41.695473 
L 223.0908 -41.188486 
L 223.700747 -40.690413 
L 224.310694 -40.201144 
L 224.920641 -39.72057 
L 225.530588 -39.248581 
L 226.140536 -38.785067 
L 226.750483 -38.329918 
L 227.36043 -37.883025 
L 227.970377 -37.444279 
L 228.580324 -37.013571 
L 229.190271 -36.590792 
L 229.800219 -36.175833 
L 230.410166 -35.768586 
L 231.020113 -35.368943 
L 231.63006 -34.976798 
L 232.240007 -34.592042 
L 232.849954 -34.21457 
L 233.459902 -33.844276 
L 234.069849 -33.481055 
L 234.679796 -33.124801 
L 235.289743 -32.775412 
L 235.89969 -32.432782 
L 236.509637 -32.09681 
L 237.119585 -31.767394 
L 237.729532 -31.444432 
L 238.339479 -31.127824 
L 238.949426 -30.81747 
L 239.559373 -30.513271 
L 240.16932 -30.215129 
L 240.779268 -29.922946 
L 241.389215 -29.636627 
L 241.999162 -29.356076 
L 242.609109 -29.081197 
L 243.219056 -28.811898 
L 243.829003 -28.548085 
L 244.438951 -28.289667 
L 245.048898 -28.036551 
L 245.658845 -27.78865 
L 246.268792 -27.545872 
L 246.878739 -27.308131 
L 247.488686 -27.075338 
L 248.098634 -26.847409 
L 248.708581 -26.624257 
L 249.318528 -26.405798 
L 249.928475 -26.19195 
L 250.538422 -25.982629 
L 251.148369 -25.777756 
L 251.758317 -25.577249 
L 252.368264 -25.381029 
L 252.978211 -25.189019 
L 253.588158 -25.001141 
L 254.198105 -24.817319 
L 254.808052 -24.637478 
L 255.418 -24.461543 
L 256.027947 -24.289443 
L 256.637894 -24.121103 
L 257.247841 -23.956455 
L 257.857788 -23.795426 
L 258.467735 -23.637949 
L 259.077683 -23.483955 
L 259.68763 -23.333377 
L 260.297577 -23.18615 
L 260.907524 -23.042206 
L 261.517471 -22.901484 
L 262.127418 -22.763919 
L 262.737366 -22.629449 
L 263.347313 -22.498014 
L 263.95726 -22.369552 
L 264.567207 -22.244004 
L 265.177154 -22.121312 
L 265.787101 -22.001419 
L 266.397049 -21.884267 
L 267.006996 -21.769802 
L 267.616943 -21.657968 
L 268.22689 -21.548712 
L 268.836837 -21.441981 
L 269.446784 -21.337722 
L 270.056732 -21.235885 
L 270.666679 -21.136419 
L 271.276626 -21.039274 
L 271.886573 -20.944403 
L 272.49652 -20.851757 
L 273.106467 -20.76129 
L 273.716415 -20.672955 
L 274.326362 -20.586708 
L 274.936309 -20.502503 
L 275.546256 -20.420297 
L 276.156203 -20.340047 
L 276.76615 -20.261711 
L 277.376098 -20.185248 
L 277.986045 -20.110617 
L 278.595992 -20.037778 
L 279.205939 -19.966693 
L 279.815886 -19.897322 
L 280.425833 -19.829628 
L 281.035781 -19.763575 
L 281.645728 -19.699125 
L 282.255675 -19.636244 
L 282.865622 -19.574896 
L 283.475569 -19.515048 
L 284.085516 -19.456666 
L 284.695464 -19.399716 
L 285.305411 -19.344168 
L 285.915358 -19.289988 
L 286.525305 -19.237146 
L 287.135252 -19.185613 
L 287.745199 -19.135357 
L 288.355147 -19.08635 
L 288.965094 -19.038563 
L 289.575041 -18.991968 
L 290.184988 -18.946539 
L 290.794935 -18.902247 
L 291.404882 -18.859066 
L 292.01483 -18.816972 
L 292.624777 -18.775938 
L 293.234724 -18.735939 
L 293.844671 -18.696953 
L 294.454618 -18.658954 
L 295.064565 -18.62192 
L 295.674513 -18.585827 
L 296.28446 -18.550655 
L 296.894407 -18.51638 
L 297.504354 -18.482981 
L 298.114301 -18.450438 
L 298.724248 -18.418731 
L 299.334196 -18.387839 
L 299.944143 -18.357742 
L 300.55409 -18.328422 
L 301.164037 -18.29986 
L 301.773984 -18.272038 
L 302.383931 -18.244937 
L 302.993879 -18.218541 
L 303.603826 -18.192831 
L 304.213773 -18.167792 
L 304.82372 -18.143407 
L 305.433667 -18.11966 
L 306.043615 -18.096535 
L 306.653562 -18.074017 
L 307.263509 -18.052091 
L 307.873456 -18.030742 
L 308.483403 -18.009957 
L 309.09335 -17.989721 
L 309.703298 -17.97002 
L 310.313245 -17.950841 
L 310.923192 -17.932172 
L 311.533139 -17.913999 
L 312.143086 -17.89631 
L 312.753033 -17.879093 
L 313.362981 -17.862336 
L 313.972928 -17.846027 
L 314.582875 -17.830155 
L 315.192822 -17.814709 
L 315.802769 -17.799678 
L 316.412716 -17.785052 
L 317.022664 -17.77082 
L 317.632611 -17.756973 
L 318.242558 -17.7435 
L 318.852505 -17.730391 
L 319.462452 -17.717639 
L 320.072399 -17.705232 
L 320.682347 -17.693163 
L 321.292294 -17.681423 
L 321.902241 -17.670003 
L 322.512188 -17.658895 
L 323.122135 -17.648091 
L 323.732082 -17.637583 
L 324.34203 -17.627363 
L 324.951977 -17.617424 
L 325.561924 -17.607758 
L 326.171871 -17.598358 
L 326.781818 -17.589218 
L 326.781818 -17.28 
L 326.781818 -17.28 
L 326.171871 -17.28 
L 325.561924 -17.28 
L 324.951977 -17.28 
L 324.34203 -17.28 
L 323.732082 -17.28 
L 323.122135 -17.28 
L 322.512188 -17.28 
L 321.902241 -17.28 
L 321.292294 -17.28 
L 320.682347 -17.28 
L 320.072399 -17.28 
L 319.462452 -17.28 
L 318.852505 -17.28 
L 318.242558 -17.28 
L 317.632611 -17.28 
L 317.022664 -17.28 
L 316.412716 -17.28 
L 315.802769 -17.28 
L 315.192822 -17.28 
L 314.582875 -17.28 
L 313.972928 -17.28 
L 313.362981 -17.28 
L 312.753033 -17.28 
L 312.143086 -17.28 
L 311.533139 -17.28 
L 310.923192 -17.28 
L 310.313245 -17.28 
L 309.703298 -17.28 
L 309.09335 -17.28 
L 308.483403 -17.28 
L 307.873456 -17.28 
L 307.263509 -17.28 
L 306.653562 -17.28 
L 306.043615 -17.28 
L 305.433667 -17.28 
L 304.82372 -17.28 
L 304.213773 -17.28 
L 303.603826 -17.28 
L 302.993879 -17.28 
L 302.383931 -17.28 
L 301.773984 -17.28 
L 301.164037 -17.28 
L 300.55409 -17.28 
L 299.944143 -17.28 
L 299.334196 -17.28 
L 298.724248 -17.28 
L 298.114301 -17.28 
L 297.504354 -17.28 
L 296.894407 -17.28 
L 296.28446 -17.28 
L 295.674513 -17.28 
L 295.064565 -17.28 
L 294.454618 -17.28 
L 293.844671 -17.28 
L 293.234724 -17.28 
L 292.624777 -17.28 
L 292.01483 -17.28 
L 291.404882 -17.28 
L 290.794935 -17.28 
L 290.184988 -17.28 
L 289.575041 -17.28 
L 288.965094 -17.28 
L 288.355147 -17.28 
L 287.745199 -17.28 
L 287.135252 -17.28 
L 286.525305 -17.28 
L 285.915358 -17.28 
L 285.305411 -17.28 
L 284.695464 -17.28 
L 284.085516 -17.28 
L 283.475569 -17.28 
L 282.865622 -17.28 
L 282.255675 -17.28 
L 281.645728 -17.28 
L 281.035781 -17.28 
L 280.425833 -17.28 
L 279.815886 -17.28 
L 279.205939 -17.28 
L 278.595992 -17.28 
L 277.986045 -17.28 
L 277.376098 -17.28 
L 276.76615 -17.28 
L 276.156203 -17.28 
L 275.546256 -17.28 
L 274.936309 -17.28 
L 274.326362 -17.28 
L 273.716415 -17.28 
L 273.106467 -17.28 
L 272.49652 -17.28 
L 271.886573 -17.28 
L 271.276626 -17.28 
L 270.666679 -17.28 
L 270.056732 -17.28 
L 269.446784 -17.28 
L 268.836837 -17.28 
L 268.22689 -17.28 
L 267.616943 -17.28 
L 267.006996 -17.28 
L 266.397049 -17.28 
L 265.787101 -17.28 
L 265.177154 -17.28 
L 264.567207 -17.28 
L 263.95726 -17.28 
L 263.347313 -17.28 
L 262.737366 -17.28 
L 262.127418 -17.28 
L 261.517471 -17.28 
L 260.907524 -17.28 
L 260.297577 -17.28 
L 259.68763 -17.28 
L 259.077683 -17.28 
L 258.467735 -17.28 
L 257.857788 -17.28 
L 257.247841 -17.28 
L 256.637894 -17.28 
L 256.027947 -17.28 
L 255.418 -17.28 
L 254.808052 -17.28 
L 254.198105 -17.28 
L 253.588158 -17.28 
L 252.978211 -17.28 
L 252.368264 -17.28 
L 251.758317 -17.28 
L 251.148369 -17.28 
L 250.538422 -17.28 
L 249.928475 -17.28 
L 249.318528 -17.28 
L 248.708581 -17.28 
L 248.098634 -17.28 
L 247.488686 -17.28 
L 246.878739 -17.28 
L 246.268792 -17.28 
L 245.658845 -17.28 
L 245.048898 -17.28 
L 244.438951 -17.28 
L 243.829003 -17.28 
L 243.219056 -17.28 
L 242.609109 -17.28 
L 241.999162 -17.28 
L 241.389215 -17.28 
L 240.779268 -17.28 
L 240.16932 -17.28 
L 239.559373 -17.28 
L 238.949426 -17.28 
L 238.339479 -17.28 
L 237.729532 -17.28 
L 237.119585 -17.28 
L 236.509637 -17.28 
L 235.89969 -17.28 
L 235.289743 -17.28 
L 234.679796 -17.28 
L 234.069849 -17.28 
L 233.459902 -17.28 
L 232.849954 -17.28 
L 232.240007 -17.28 
L 231.63006 -17.28 
L 231.020113 -17.28 
L 230.410166 -17.28 
L 229.800219 -17.28 
L 229.190271 -17.28 
L 228.580324 -17.28 
L 227.970377 -17.28 
L 227.36043 -17.28 
L 226.750483 -17.28 
L 226.140536 -17.28 
L 225.530588 -17.28 
L 224.920641 -17.28 
L 224.310694 -17.28 
L 223.700747 -17.28 
L 223.0908 -17.28 
L 222.480853 -17.28 
L 221.870905 -17.28 
L 221.260958 -17.28 
L 220.651011 -17.28 
L 220.041064 -17.28 
L 219.431117 -17.28 
L 218.82117 -17.28 
L 218.211222 -17.28 
L 217.601275 -17.28 
L 216.991328 -17.28 
L 216.381381 -17.28 
L 215.771434 -17.28 
L 215.161487 -17.28 
L 214.551539 -17.28 
L 213.941592 -17.28 
L 213.331645 -17.28 
L 212.721698 -17.28 
L 212.111751 -17.28 
L 211.501804 -17.28 
L 210.891856 -17.28 
L 210.281909 -17.28 
L 209.671962 -17.28 
L 209.062015 -17.28 
L 208.452068 -17.28 
L 207.842121 -17.28 
L 207.232173 -17.28 
L 206.622226 -17.28 
L 206.012279 -17.28 
L 205.402332 -17.28 
L 204.792385 -17.28 
L 204.182438 -17.28 
L 203.57249 -17.28 
L 202.962543 -17.28 
L 202.352596 -17.28 
L 201.742649 -17.28 
L 201.132702 -17.28 
L 200.522755 -17.28 
L 199.912807 -17.28 
L 199.30286 -17.28 
L 198.692913 -17.28 
L 198.082966 -17.28 
L 197.473019 -17.28 
L 196.863072 -17.28 
L 196.253124 -17.28 
L 195.643177 -17.28 
L 195.03323 -17.28 
L 194.423283 -17.28 
L 193.813336 -17.28 
L 193.203389 -17.28 
L 192.593441 -17.28 
L 191.983494 -17.28 
L 191.373547 -17.28 
L 190.7636 -17.28 
L 190.153653 -17.28 
L 189.543706 -17.28 
L 188.933758 -17.28 
L 188.323811 -17.28 
L 187.713864 -17.28 
L 187.103917 -17.28 
L 186.49397 -17.28 
L 185.884023 -17.28 
L 185.274075 -17.28 
L 184.664128 -17.28 
L 184.054181 -17.28 
L 183.444234 -17.28 
L 182.834287 -17.28 
L 182.22434 -17.28 
L 181.614392 -17.28 
L 181.004445 -17.28 
L 180.394498 -17.28 
L 179.784551 -17.28 
L 179.174604 -17.28 
L 178.564657 -17.28 
L 177.954709 -17.28 
L 177.344762 -17.28 
L 176.734815 -17.28 
L 176.124868 -17.28 
L 175.514921 -17.28 
L 174.904974 -17.28 
L 174.295026 -17.28 
L 173.685079 -17.28 
L 173.075132 -17.28 
L 172.465185 -17.28 
L 171.855238 -17.28 
L 171.245291 -17.28 
L 170.635343 -17.28 
L 170.025396 -17.28 
L 169.415449 -17.28 
L 168.805502 -17.28 
L 168.195555 -17.28 
L 167.585608 -17.28 
L 166.97566 -17.28 
L 166.365713 -17.28 
L 165.755766 -17.28 
L 165.145819 -17.28 
L 164.535872 -17.28 
L 163.925925 -17.28 
L 163.315977 -17.28 
L 162.70603 -17.28 
L 162.096083 -17.28 
L 161.486136 -17.28 
L 160.876189 -17.28 
L 160.266242 -17.28 
L 159.656294 -17.28 
L 159.046347 -17.28 
L 158.4364 -17.28 
L 157.826453 -17.28 
L 157.216506 -17.28 
L 156.606559 -17.28 
L 155.996611 -17.28 
L 155.386664 -17.28 
L 154.776717 -17.28 
L 154.16677 -17.28 
L 153.556823 -17.28 
L 152.946876 -17.28 
L 152.336928 -17.28 
L 151.726981 -17.28 
L 151.117034 -17.28 
L 150.507087 -17.28 
L 149.89714 -17.28 
L 149.287193 -17.28 
L 148.677245 -17.28 
L 148.067298 -17.28 
L 147.457351 -17.28 
L 146.847404 -17.28 
L 146.237457 -17.28 
L 145.62751 -17.28 
L 145.017562 -17.28 
L 144.407615 -17.28 
L 143.797668 -17.28 
L 143.187721 -17.28 
L 142.577774 -17.28 
L 141.967827 -17.28 
L 141.357879 -17.28 
L 140.747932 -17.28 
L 140.137985 -17.28 
L 139.528038 -17.28 
L 138.918091 -17.28 
L 138.308144 -17.28 
L 137.698196 -17.28 
L 137.088249 -17.28 
L 136.478302 -17.28 
L 135.868355 -17.28 
L 135.258408 -17.28 
L 134.648461 -17.28 
L 134.038513 -17.28 
L 133.428566 -17.28 
L 132.818619 -17.28 
L 132.208672 -17.28 
L 131.598725 -17.28 
L 130.988778 -17.28 
L 130.37883 -17.28 
L 129.768883 -17.28 
L 129.158936 -17.28 
L 128.548989 -17.28 
L 127.939042 -17.28 
L 127.329095 -17.28 
L 126.719147 -17.28 
L 126.1092 -17.28 
L 125.499253 -17.28 
L 124.889306 -17.28 
L 124.279359 -17.28 
L 123.669412 -17.28 
L 123.059464 -17.28 
L 122.449517 -17.28 
L 121.83957 -17.28 
L 121.229623 -17.28 
L 120.619676 -17.28 
L 120.009729 -17.28 
L 119.399781 -17.28 
L 118.789834 -17.28 
L 118.179887 -17.28 
L 117.56994 -17.28 
L 116.959993 -17.28 
L 116.350046 -17.28 
L 115.740098 -17.28 
L 115.130151 -17.28 
L 114.520204 -17.28 
L 113.910257 -17.28 
L 113.30031 -17.28 
L 112.690363 -17.28 
L 112.080415 -17.28 
L 111.470468 -17.28 
L 110.860521 -17.28 
L 110.250574 -17.28 
L 109.640627 -17.28 
L 109.03068 -17.28 
L 108.420732 -17.28 
L 107.810785 -17.28 
L 107.200838 -17.28 
L 106.590891 -17.28 
L 105.980944 -17.28 
L 105.370997 -17.28 
L 104.761049 -17.28 
L 104.151102 -17.28 
L 103.541155 -17.28 
L 102.931208 -17.28 
L 102.321261 -17.28 
L 101.711314 -17.28 
L 101.101366 -17.28 
L 100.491419 -17.28 
L 99.881472 -17.28 
L 99.271525 -17.28 
L 98.661578 -17.28 
L 98.051631 -17.28 
L 97.441683 -17.28 
L 96.831736 -17.28 
L 96.221789 -17.28 
L 95.611842 -17.28 
L 95.001895 -17.28 
L 94.391948 -17.28 
L 93.782 -17.28 
L 93.172053 -17.28 
L 92.562106 -17.28 
L 91.952159 -17.28 
L 91.342212 -17.28 
L 90.732265 -17.28 
L 90.122317 -17.28 
L 89.51237 -17.28 
L 88.902423 -17.28 
L 88.292476 -17.28 
L 87.682529 -17.28 
L 87.072582 -17.28 
L 86.462634 -17.28 
L 85.852687 -17.28 
L 85.24274 -17.28 
L 84.632793 -17.28 
L 84.022846 -17.28 
L 83.412899 -17.28 
L 82.802951 -17.28 
L 82.193004 -17.28 
L 81.583057 -17.28 
L 80.97311 -17.28 
L 80.363163 -17.28 
L 79.753216 -17.28 
L 79.143268 -17.28 
L 78.533321 -17.28 
L 77.923374 -17.28 
L 77.313427 -17.28 
L 76.70348 -17.28 
L 76.093533 -17.28 
L 75.483585 -17.28 
L 74.873638 -17.28 
L 74.263691 -17.28 
L 73.653744 -17.28 
L 73.043797 -17.28 
L 72.43385 -17.28 
L 71.823902 -17.28 
L 71.213955 -17.28 
L 70.604008 -17.28 
L 69.994061 -17.28 
L 69.384114 -17.28 
L 68.774167 -17.28 
L 68.164219 -17.28 
L 67.554272 -17.28 
L 66.944325 -17.28 
L 66.334378 -17.28 
L 65.724431 -17.28 
L 65.114484 -17.28 
L 64.504536 -17.28 
L 63.894589 -17.28 
L 63.284642 -17.28 
L 62.674695 -17.28 
L 62.064748 -17.28 
L 61.454801 -17.28 
L 60.844853 -17.28 
L 60.234906 -17.28 
L 59.624959 -17.28 
L 59.015012 -17.28 
L 58.405065 -17.28 
L 57.795118 -17.28 
L 57.18517 -17.28 
L 56.575223 -17.28 
L 55.965276 -17.28 
L 55.355329 -17.28 
L 54.745382 -17.28 
L 54.135435 -17.28 
L 53.525487 -17.28 
L 52.91554 -17.28 
L 52.305593 -17.28 
L 51.695646 -17.28 
L 51.085699 -17.28 
L 50.475752 -17.28 
L 49.865804 -17.28 
L 49.255857 -17.28 
L 48.64591 -17.28 
L 48.035963 -17.28 
L 47.426016 -17.28 
L 46.816069 -17.28 
L 46.206121 -17.28 
L 45.596174 -17.28 
L 44.986227 -17.28 
L 44.37628 -17.28 
L 43.766333 -17.28 
L 43.156385 -17.28 
L 42.546438 -17.28 
L 41.936491 -17.28 
L 41.326544 -17.28 
L 40.716597 -17.28 
L 40.10665 -17.28 
L 39.496702 -17.28 
L 38.886755 -17.28 
L 38.276808 -17.28 
L 37.666861 -17.28 
L 37.056914 -17.28 
L 36.446967 -17.28 
L 35.837019 -17.28 
L 35.227072 -17.28 
L 34.617125 -17.28 
L 34.007178 -17.28 
L 33.397231 -17.28 
L 32.787284 -17.28 
L 32.177336 -17.28 
L 31.567389 -17.28 
L 30.957442 -17.28 
L 30.347495 -17.28 
L 29.737548 -17.28 
L 29.127601 -17.28 
L 28.517653 -17.28 
L 27.907706 -17.28 
L 27.297759 -17.28 
L 26.687812 -17.28 
L 26.077865 -17.28 
L 25.467918 -17.28 
L 24.85797 -17.28 
L 24.248023 -17.28 
L 23.638076 -17.28 
L 23.028129 -17.28 
L 22.418182 -17.28 
z
" style="stroke: #ffa500"/>
    </defs>
    <g clip-path="url(#p85f45f7762)">
     <use xlink:href="#m981f3b1677" x="0" y="236.16" style="fill: #ffa500; stroke: #ffa500"/>
    </g>
   </g>
   <g id="line2d_1">
    <path d="M 22.418182 218.462138 
L 25.467918 218.091237 
L 28.517653 217.490041 
L 30.957442 216.784387 
L 33.397231 215.824167 
L 35.227072 214.904326 
L 37.056914 213.787155 
L 38.886755 212.449069 
L 40.716597 210.867025 
L 42.546438 209.019086 
L 44.37628 206.88496 
L 46.206121 204.446536 
L 48.035963 201.688379 
L 49.865804 198.598173 
L 52.305593 193.946701 
L 54.745382 188.679512 
L 57.18517 182.799409 
L 59.624959 176.322678 
L 62.064748 169.279103 
L 65.114484 159.743971 
L 68.164219 149.501213 
L 71.823902 136.469089 
L 77.313427 115.988356 
L 85.24274 86.348209 
L 88.902423 73.420627 
L 91.952159 63.310089 
L 95.001895 53.960905 
L 97.441683 47.117099 
L 99.881472 40.899565 
L 102.321261 35.354922 
L 104.151102 31.660589 
L 105.980944 28.377661 
L 107.810785 25.515013 
L 109.640627 23.078503 
L 111.470468 21.07106 
L 113.30031 19.492797 
L 114.520204 18.677893 
L 115.740098 18.051255 
L 116.959993 17.611014 
L 118.179887 17.354846 
L 119.399781 17.28 
L 120.619676 17.383317 
L 121.83957 17.661262 
L 123.059464 18.109945 
L 124.889306 19.093798 
L 126.719147 20.436792 
L 128.548989 22.122146 
L 130.37883 24.131967 
L 132.208672 26.44744 
L 134.648461 29.976334 
L 137.088249 33.966044 
L 139.528038 38.367807 
L 142.577774 44.374681 
L 145.62751 50.853549 
L 149.287193 59.120724 
L 154.16677 70.729714 
L 163.925925 94.751202 
L 170.635343 110.983712 
L 175.514921 122.28801 
L 179.784551 131.702141 
L 184.054181 140.597332 
L 188.323811 148.925682 
L 191.983494 155.590733 
L 195.643177 161.809265 
L 199.30286 167.5803 
L 202.962543 172.909243 
L 206.622226 177.806751 
L 210.281909 182.287685 
L 213.941592 186.370154 
L 217.601275 190.074667 
L 221.260958 193.423375 
L 224.920641 196.43943 
L 228.580324 199.146429 
L 232.240007 201.567958 
L 235.89969 203.727218 
L 239.559373 205.646729 
L 243.829003 207.611915 
L 248.098634 209.312591 
L 252.368264 210.778971 
L 257.247841 212.203545 
L 262.127418 213.396081 
L 267.616943 214.502032 
L 273.716415 215.487045 
L 280.425833 216.330372 
L 287.745199 217.024643 
L 296.28446 217.609345 
L 306.653562 218.085983 
L 319.462452 218.442361 
L 326.781818 218.570782 
L 326.781818 218.570782 
" clip-path="url(#p85f45f7762)" style="fill: none; stroke: #000000; stroke-width: 5; stroke-linecap: square"/>
   </g>
  </g>
 </g>
 <defs>
  <clipPath id="p85f45f7762">
   <rect x="7.2" y="7.2" width="334.8" height="221.76"/>
  </clipPath>
 </defs>
</svg>
