<?xml version="1.0" encoding="utf-8" standalone="no"?>
<!DOCTYPE svg PUBLIC "-//W3C//DTD SVG 1.1//EN"
  "http://www.w3.org/Graphics/SVG/1.1/DTD/svg11.dtd">
<svg xmlns:xlink="http://www.w3.org/1999/xlink" width="349.2pt" height="236.16pt" viewBox="0 0 349.2 236.16" xmlns="http://www.w3.org/2000/svg" version="1.1">
 <metadata>
  <rdf:RDF xmlns:dc="http://purl.org/dc/elements/1.1/" xmlns:cc="http://creativecommons.org/ns#" xmlns:rdf="http://www.w3.org/1999/02/22-rdf-syntax-ns#">
   <cc:Work>
    <dc:type rdf:resource="http://purl.org/dc/dcmitype/StillImage"/>
    <dc:date>2023-08-13T23:04:38.462041</dc:date>
    <dc:format>image/svg+xml</dc:format>
    <dc:creator>
     <cc:Agent>
      <dc:title>Matplotlib v3.6.2, https://matplotlib.org/</dc:title>
     </cc:Agent>
    </dc:creator>
   </cc:Work>
  </rdf:RDF>
 </metadata>
 <defs>
  <style type="text/css">*{stroke-linejoin: round; stroke-linecap: butt}</style>
 </defs>
 <g id="figure_1">
  <g id="patch_1">
   <path d="M 0 236.16 
L 349.2 236.16 
L 349.2 0 
L 0 0 
L 0 236.16 
z
" style="fill: none"/>
  </g>
  <g id="axes_1">
   <g id="PolyCollection_1">
    <defs>
     <path id="m0641555ab2" d="M 22.418182 -17.28 
L 22.418182 -17.498042 
L 23.028129 -17.525786 
L 23.638076 -17.556466 
L 24.248023 -17.590322 
L 24.85797 -17.627612 
L 25.467918 -17.668606 
L 26.077865 -17.713588 
L 26.687812 -17.762857 
L 27.297759 -17.816724 
L 27.907706 -17.875519 
L 28.517653 -17.939582 
L 29.127601 -18.009271 
L 29.737548 -18.084956 
L 30.347495 -18.167024 
L 30.957442 -18.255874 
L 31.567389 -18.351921 
L 32.177336 -18.455595 
L 32.787284 -18.567336 
L 33.397231 -18.687602 
L 34.007178 -18.816861 
L 34.617125 -18.955596 
L 35.227072 -19.104302 
L 35.837019 -19.263484 
L 36.446967 -19.433661 
L 37.056914 -19.615362 
L 37.666861 -19.809124 
L 38.276808 -20.015497 
L 38.886755 -20.235038 
L 39.496702 -20.46831 
L 40.10665 -20.715888 
L 40.716597 -20.978349 
L 41.326544 -21.256277 
L 41.936491 -21.55026 
L 42.546438 -21.86089 
L 43.156385 -22.188762 
L 43.766333 -22.534472 
L 44.37628 -22.898615 
L 44.986227 -23.281788 
L 45.596174 -23.684584 
L 46.206121 -24.107594 
L 46.816069 -24.551404 
L 47.426016 -25.016597 
L 48.035963 -25.503746 
L 48.64591 -26.01342 
L 49.255857 -26.546176 
L 49.865804 -27.102564 
L 50.475752 -27.68312 
L 51.085699 -28.28837 
L 51.695646 -28.918823 
L 52.305593 -29.574976 
L 52.91554 -30.25731 
L 53.525487 -30.966287 
L 54.135435 -31.702352 
L 54.745382 -32.465929 
L 55.355329 -33.257424 
L 55.965276 -34.077218 
L 56.575223 -34.925673 
L 57.18517 -35.803125 
L 57.795118 -36.709885 
L 58.405065 -37.646239 
L 59.015012 -38.612447 
L 59.624959 -39.608741 
L 60.234906 -40.635324 
L 60.844853 -41.692372 
L 61.454801 -42.780028 
L 62.064748 -43.898408 
L 62.674695 -45.047595 
L 63.284642 -46.22764 
L 63.894589 -47.438563 
L 64.504536 -48.680351 
L 65.114484 -49.952956 
L 65.724431 -51.2563 
L 66.334378 -52.590268 
L 66.944325 -53.954713 
L 67.554272 -55.349451 
L 68.164219 -56.774268 
L 68.774167 -58.228911 
L 69.384114 -59.713095 
L 69.994061 -61.226501 
L 70.604008 -62.768773 
L 71.213955 -64.339523 
L 71.823902 -65.938328 
L 72.43385 -67.564732 
L 73.043797 -69.218245 
L 73.653744 -70.898343 
L 74.263691 -72.604471 
L 74.873638 -74.336041 
L 75.483585 -76.092433 
L 76.093533 -77.872996 
L 76.70348 -79.677049 
L 77.313427 -81.503882 
L 77.923374 -83.352754 
L 78.533321 -85.222897 
L 79.143268 -87.113515 
L 79.753216 -89.023785 
L 80.363163 -90.95286 
L 80.97311 -92.899865 
L 81.583057 -94.863905 
L 82.193004 -96.844059 
L 82.802951 -98.839385 
L 83.412899 -100.848921 
L 84.022846 -102.871684 
L 84.632793 -104.906674 
L 85.24274 -106.952872 
L 85.852687 -109.009242 
L 86.462634 -111.074736 
L 87.072582 -113.148288 
L 87.682529 -115.228822 
L 88.292476 -117.315249 
L 88.902423 -119.406469 
L 89.51237 -121.501375 
L 90.122317 -123.598851 
L 90.732265 -125.697773 
L 91.342212 -127.797012 
L 91.952159 -129.895436 
L 92.562106 -131.991909 
L 93.172053 -134.085292 
L 93.782 -136.174449 
L 94.391948 -138.25824 
L 95.001895 -140.335529 
L 95.611842 -142.405185 
L 96.221789 -144.466076 
L 96.831736 -146.517081 
L 97.441683 -148.557081 
L 98.051631 -150.584966 
L 98.661578 -152.599637 
L 99.271525 -154.600001 
L 99.881472 -156.584977 
L 100.491419 -158.553498 
L 101.101366 -160.504506 
L 101.711314 -162.436961 
L 102.321261 -164.349834 
L 102.931208 -166.242114 
L 103.541155 -168.112805 
L 104.151102 -169.960931 
L 104.761049 -171.785532 
L 105.370997 -173.585668 
L 105.980944 -175.360417 
L 106.590891 -177.108881 
L 107.200838 -178.830181 
L 107.810785 -180.523461 
L 108.420732 -182.187886 
L 109.03068 -183.822646 
L 109.640627 -185.426955 
L 110.250574 -187.000049 
L 110.860521 -188.541192 
L 111.470468 -190.04967 
L 112.080415 -191.524797 
L 112.690363 -192.965913 
L 113.30031 -194.372384 
L 113.910257 -195.743602 
L 114.520204 -197.078987 
L 115.130151 -198.377987 
L 115.740098 -199.640076 
L 116.350046 -200.864757 
L 116.959993 -202.05156 
L 117.56994 -203.200044 
L 118.179887 -204.309795 
L 118.789834 -205.380429 
L 119.399781 -206.411587 
L 120.009729 -207.402942 
L 120.619676 -208.354191 
L 121.229623 -209.265064 
L 121.83957 -210.135315 
L 122.449517 -210.964727 
L 123.059464 -211.753112 
L 123.669412 -212.500307 
L 124.279359 -213.206179 
L 124.889306 -213.870621 
L 125.499253 -214.493552 
L 126.1092 -215.074918 
L 126.719147 -215.614693 
L 127.329095 -216.112874 
L 127.939042 -216.569486 
L 128.548989 -216.984578 
L 129.158936 -217.358225 
L 129.768883 -217.690525 
L 130.37883 -217.9816 
L 130.988778 -218.231598 
L 131.598725 -218.440688 
L 132.208672 -218.609061 
L 132.818619 -218.736932 
L 133.428566 -218.824537 
L 134.038513 -218.872134 
L 134.648461 -218.88 
L 135.258408 -218.848434 
L 135.868355 -218.777752 
L 136.478302 -218.668293 
L 137.088249 -218.520411 
L 137.698196 -218.33448 
L 138.308144 -218.11089 
L 138.918091 -217.850048 
L 139.528038 -217.55238 
L 140.137985 -217.218323 
L 140.747932 -216.848332 
L 141.357879 -216.442876 
L 141.967827 -216.002439 
L 142.577774 -215.527516 
L 143.187721 -215.018615 
L 143.797668 -214.476259 
L 144.407615 -213.90098 
L 145.017562 -213.29332 
L 145.62751 -212.653834 
L 146.237457 -211.983085 
L 146.847404 -211.281647 
L 147.457351 -210.5501 
L 148.067298 -209.789033 
L 148.677245 -208.999045 
L 149.287193 -208.180738 
L 149.89714 -207.334723 
L 150.507087 -206.461615 
L 151.117034 -205.562037 
L 151.726981 -204.636613 
L 152.336928 -203.685975 
L 152.946876 -202.710755 
L 153.556823 -201.711592 
L 154.16677 -200.689123 
L 154.776717 -199.643993 
L 155.386664 -198.576843 
L 155.996611 -197.488319 
L 156.606559 -196.379067 
L 157.216506 -195.249731 
L 157.826453 -194.100957 
L 158.4364 -192.933392 
L 159.046347 -191.747678 
L 159.656294 -190.544457 
L 160.266242 -189.324372 
L 160.876189 -188.08806 
L 161.486136 -186.836156 
L 162.096083 -185.569295 
L 162.70603 -184.288105 
L 163.315977 -182.993212 
L 163.925925 -181.685237 
L 164.535872 -180.364799 
L 165.145819 -179.03251 
L 165.755766 -177.688978 
L 166.365713 -176.334804 
L 166.97566 -174.970587 
L 167.585608 -173.596916 
L 168.195555 -172.214378 
L 168.805502 -170.82355 
L 169.415449 -169.425005 
L 170.025396 -168.019307 
L 170.635343 -166.607016 
L 171.245291 -165.188682 
L 171.855238 -163.764848 
L 172.465185 -162.336052 
L 173.075132 -160.902821 
L 173.685079 -159.465675 
L 174.295026 -158.025128 
L 174.904974 -156.581682 
L 175.514921 -155.135834 
L 176.124868 -153.68807 
L 176.734815 -152.238871 
L 177.344762 -150.788705 
L 177.954709 -149.338034 
L 178.564657 -147.88731 
L 179.174604 -146.436977 
L 179.784551 -144.98747 
L 180.394498 -143.539213 
L 181.004445 -142.092623 
L 181.614392 -140.648107 
L 182.22434 -139.206063 
L 182.834287 -137.766879 
L 183.444234 -136.330937 
L 184.054181 -134.898605 
L 184.664128 -133.470244 
L 185.274075 -132.046208 
L 185.884023 -130.626837 
L 186.49397 -129.212466 
L 187.103917 -127.803419 
L 187.713864 -126.400011 
L 188.323811 -125.002548 
L 188.933758 -123.611326 
L 189.543706 -122.226634 
L 190.153653 -120.84875 
L 190.7636 -119.477945 
L 191.373547 -118.114479 
L 191.983494 -116.758605 
L 192.593441 -115.410565 
L 193.203389 -114.070596 
L 193.813336 -112.738923 
L 194.423283 -111.415765 
L 195.03323 -110.101329 
L 195.643177 -108.795819 
L 196.253124 -107.499426 
L 196.863072 -106.212335 
L 197.473019 -104.934723 
L 198.082966 -103.666758 
L 198.692913 -102.408603 
L 199.30286 -101.160409 
L 199.912807 -99.922323 
L 200.522755 -98.694483 
L 201.132702 -97.47702 
L 201.742649 -96.270056 
L 202.352596 -95.073709 
L 202.962543 -93.888089 
L 203.57249 -92.713296 
L 204.182438 -91.549428 
L 204.792385 -90.396573 
L 205.402332 -89.254814 
L 206.012279 -88.124227 
L 206.622226 -87.004881 
L 207.232173 -85.896841 
L 207.842121 -84.800164 
L 208.452068 -83.714901 
L 209.062015 -82.6411 
L 209.671962 -81.578799 
L 210.281909 -80.528035 
L 210.891856 -79.488836 
L 211.501804 -78.461227 
L 212.111751 -77.445226 
L 212.721698 -76.440848 
L 213.331645 -75.448102 
L 213.941592 -74.466992 
L 214.551539 -73.497518 
L 215.161487 -72.539675 
L 215.771434 -71.593454 
L 216.381381 -70.658842 
L 216.991328 -69.735821 
L 217.601275 -68.82437 
L 218.211222 -67.924463 
L 218.82117 -67.036071 
L 219.431117 -66.159161 
L 220.041064 -65.293697 
L 220.651011 -64.439638 
L 221.260958 -63.596942 
L 221.870905 -62.765563 
L 222.480853 -61.94545 
L 223.0908 -61.136552 
L 223.700747 -60.338813 
L 224.310694 -59.552174 
L 224.920641 -58.776577 
L 225.530588 -58.011956 
L 226.140536 -57.258246 
L 226.750483 -56.51538 
L 227.36043 -55.783286 
L 227.970377 -55.061893 
L 228.580324 -54.351126 
L 229.190271 -53.650908 
L 229.800219 -52.961161 
L 230.410166 -52.281805 
L 231.020113 -51.612758 
L 231.63006 -50.953936 
L 232.240007 -50.305255 
L 232.849954 -49.666628 
L 233.459902 -49.037967 
L 234.069849 -48.419184 
L 234.679796 -47.810187 
L 235.289743 -47.210887 
L 235.89969 -46.62119 
L 236.509637 -46.041003 
L 237.119585 -45.470232 
L 237.729532 -44.908782 
L 238.339479 -44.356557 
L 238.949426 -43.81346 
L 239.559373 -43.279395 
L 240.16932 -42.754264 
L 240.779268 -42.237968 
L 241.389215 -41.730409 
L 241.999162 -41.231489 
L 242.609109 -40.741107 
L 243.219056 -40.259164 
L 243.829003 -39.78556 
L 244.438951 -39.320196 
L 245.048898 -38.862971 
L 245.658845 -38.413786 
L 246.268792 -37.972539 
L 246.878739 -37.539132 
L 247.488686 -37.113464 
L 248.098634 -36.695434 
L 248.708581 -36.284945 
L 249.318528 -35.881895 
L 249.928475 -35.486185 
L 250.538422 -35.097718 
L 251.148369 -34.716393 
L 251.758317 -34.342112 
L 252.368264 -33.974779 
L 252.978211 -33.614294 
L 253.588158 -33.260561 
L 254.198105 -32.913484 
L 254.808052 -32.572966 
L 255.418 -32.238911 
L 256.027947 -31.911225 
L 256.637894 -31.589814 
L 257.247841 -31.274582 
L 257.857788 -30.965438 
L 258.467735 -30.662288 
L 259.077683 -30.365041 
L 259.68763 -30.073605 
L 260.297577 -29.78789 
L 260.907524 -29.507806 
L 261.517471 -29.233265 
L 262.127418 -28.964177 
L 262.737366 -28.700456 
L 263.347313 -28.442015 
L 263.95726 -28.188767 
L 264.567207 -27.940628 
L 265.177154 -27.697513 
L 265.787101 -27.45934 
L 266.397049 -27.226025 
L 267.006996 -26.997486 
L 267.616943 -26.773644 
L 268.22689 -26.554417 
L 268.836837 -26.339726 
L 269.446784 -26.129494 
L 270.056732 -25.923643 
L 270.666679 -25.722097 
L 271.276626 -25.524779 
L 271.886573 -25.331616 
L 272.49652 -25.142533 
L 273.106467 -24.957458 
L 273.716415 -24.776318 
L 274.326362 -24.599043 
L 274.936309 -24.425562 
L 275.546256 -24.255806 
L 276.156203 -24.089707 
L 276.76615 -23.927197 
L 277.376098 -23.768209 
L 277.986045 -23.612679 
L 278.595992 -23.460541 
L 279.205939 -23.311732 
L 279.815886 -23.166188 
L 280.425833 -23.023847 
L 281.035781 -22.884649 
L 281.645728 -22.748533 
L 282.255675 -22.615439 
L 282.865622 -22.48531 
L 283.475569 -22.358087 
L 284.085516 -22.233713 
L 284.695464 -22.112134 
L 285.305411 -21.993293 
L 285.915358 -21.877137 
L 286.525305 -21.763611 
L 287.135252 -21.652665 
L 287.745199 -21.544245 
L 288.355147 -21.438302 
L 288.965094 -21.334785 
L 289.575041 -21.233644 
L 290.184988 -21.134832 
L 290.794935 -21.038301 
L 291.404882 -20.944003 
L 292.01483 -20.851894 
L 292.624777 -20.761927 
L 293.234724 -20.674058 
L 293.844671 -20.588244 
L 294.454618 -20.504441 
L 295.064565 -20.422608 
L 295.674513 -20.342702 
L 296.28446 -20.264683 
L 296.894407 -20.188511 
L 297.504354 -20.114146 
L 298.114301 -20.04155 
L 298.724248 -19.970685 
L 299.334196 -19.901514 
L 299.944143 -19.834 
L 300.55409 -19.768107 
L 301.164037 -19.7038 
L 301.773984 -19.641044 
L 302.383931 -19.579805 
L 302.993879 -19.520051 
L 303.603826 -19.461748 
L 304.213773 -19.404864 
L 304.82372 -19.349368 
L 305.433667 -19.295229 
L 306.043615 -19.242417 
L 306.653562 -19.190902 
L 307.263509 -19.140655 
L 307.873456 -19.091647 
L 308.483403 -19.04385 
L 309.09335 -18.997238 
L 309.703298 -18.951782 
L 310.313245 -18.907457 
L 310.923192 -18.864237 
L 311.533139 -18.822097 
L 312.143086 -18.781011 
L 312.753033 -18.740956 
L 313.362981 -18.701908 
L 313.972928 -18.663843 
L 314.582875 -18.626738 
L 315.192822 -18.590572 
L 315.802769 -18.555322 
L 316.412716 -18.520967 
L 317.022664 -18.487485 
L 317.632611 -18.454857 
L 318.242558 -18.423062 
L 318.852505 -18.39208 
L 319.462452 -18.361892 
L 320.072399 -18.332479 
L 320.682347 -18.303824 
L 321.292294 -18.275906 
L 321.902241 -18.24871 
L 322.512188 -18.222217 
L 323.122135 -18.196411 
L 323.732082 -18.171275 
L 324.34203 -18.146793 
L 324.951977 -18.122949 
L 325.561924 -18.099728 
L 326.171871 -18.077113 
L 326.781818 -18.055092 
L 326.781818 -17.28 
L 326.781818 -17.28 
L 326.171871 -17.28 
L 325.561924 -17.28 
L 324.951977 -17.28 
L 324.34203 -17.28 
L 323.732082 -17.28 
L 323.122135 -17.28 
L 322.512188 -17.28 
L 321.902241 -17.28 
L 321.292294 -17.28 
L 320.682347 -17.28 
L 320.072399 -17.28 
L 319.462452 -17.28 
L 318.852505 -17.28 
L 318.242558 -17.28 
L 317.632611 -17.28 
L 317.022664 -17.28 
L 316.412716 -17.28 
L 315.802769 -17.28 
L 315.192822 -17.28 
L 314.582875 -17.28 
L 313.972928 -17.28 
L 313.362981 -17.28 
L 312.753033 -17.28 
L 312.143086 -17.28 
L 311.533139 -17.28 
L 310.923192 -17.28 
L 310.313245 -17.28 
L 309.703298 -17.28 
L 309.09335 -17.28 
L 308.483403 -17.28 
L 307.873456 -17.28 
L 307.263509 -17.28 
L 306.653562 -17.28 
L 306.043615 -17.28 
L 305.433667 -17.28 
L 304.82372 -17.28 
L 304.213773 -17.28 
L 303.603826 -17.28 
L 302.993879 -17.28 
L 302.383931 -17.28 
L 301.773984 -17.28 
L 301.164037 -17.28 
L 300.55409 -17.28 
L 299.944143 -17.28 
L 299.334196 -17.28 
L 298.724248 -17.28 
L 298.114301 -17.28 
L 297.504354 -17.28 
L 296.894407 -17.28 
L 296.28446 -17.28 
L 295.674513 -17.28 
L 295.064565 -17.28 
L 294.454618 -17.28 
L 293.844671 -17.28 
L 293.234724 -17.28 
L 292.624777 -17.28 
L 292.01483 -17.28 
L 291.404882 -17.28 
L 290.794935 -17.28 
L 290.184988 -17.28 
L 289.575041 -17.28 
L 288.965094 -17.28 
L 288.355147 -17.28 
L 287.745199 -17.28 
L 287.135252 -17.28 
L 286.525305 -17.28 
L 285.915358 -17.28 
L 285.305411 -17.28 
L 284.695464 -17.28 
L 284.085516 -17.28 
L 283.475569 -17.28 
L 282.865622 -17.28 
L 282.255675 -17.28 
L 281.645728 -17.28 
L 281.035781 -17.28 
L 280.425833 -17.28 
L 279.815886 -17.28 
L 279.205939 -17.28 
L 278.595992 -17.28 
L 277.986045 -17.28 
L 277.376098 -17.28 
L 276.76615 -17.28 
L 276.156203 -17.28 
L 275.546256 -17.28 
L 274.936309 -17.28 
L 274.326362 -17.28 
L 273.716415 -17.28 
L 273.106467 -17.28 
L 272.49652 -17.28 
L 271.886573 -17.28 
L 271.276626 -17.28 
L 270.666679 -17.28 
L 270.056732 -17.28 
L 269.446784 -17.28 
L 268.836837 -17.28 
L 268.22689 -17.28 
L 267.616943 -17.28 
L 267.006996 -17.28 
L 266.397049 -17.28 
L 265.787101 -17.28 
L 265.177154 -17.28 
L 264.567207 -17.28 
L 263.95726 -17.28 
L 263.347313 -17.28 
L 262.737366 -17.28 
L 262.127418 -17.28 
L 261.517471 -17.28 
L 260.907524 -17.28 
L 260.297577 -17.28 
L 259.68763 -17.28 
L 259.077683 -17.28 
L 258.467735 -17.28 
L 257.857788 -17.28 
L 257.247841 -17.28 
L 256.637894 -17.28 
L 256.027947 -17.28 
L 255.418 -17.28 
L 254.808052 -17.28 
L 254.198105 -17.28 
L 253.588158 -17.28 
L 252.978211 -17.28 
L 252.368264 -17.28 
L 251.758317 -17.28 
L 251.148369 -17.28 
L 250.538422 -17.28 
L 249.928475 -17.28 
L 249.318528 -17.28 
L 248.708581 -17.28 
L 248.098634 -17.28 
L 247.488686 -17.28 
L 246.878739 -17.28 
L 246.268792 -17.28 
L 245.658845 -17.28 
L 245.048898 -17.28 
L 244.438951 -17.28 
L 243.829003 -17.28 
L 243.219056 -17.28 
L 242.609109 -17.28 
L 241.999162 -17.28 
L 241.389215 -17.28 
L 240.779268 -17.28 
L 240.16932 -17.28 
L 239.559373 -17.28 
L 238.949426 -17.28 
L 238.339479 -17.28 
L 237.729532 -17.28 
L 237.119585 -17.28 
L 236.509637 -17.28 
L 235.89969 -17.28 
L 235.289743 -17.28 
L 234.679796 -17.28 
L 234.069849 -17.28 
L 233.459902 -17.28 
L 232.849954 -17.28 
L 232.240007 -17.28 
L 231.63006 -17.28 
L 231.020113 -17.28 
L 230.410166 -17.28 
L 229.800219 -17.28 
L 229.190271 -17.28 
L 228.580324 -17.28 
L 227.970377 -17.28 
L 227.36043 -17.28 
L 226.750483 -17.28 
L 226.140536 -17.28 
L 225.530588 -17.28 
L 224.920641 -17.28 
L 224.310694 -17.28 
L 223.700747 -17.28 
L 223.0908 -17.28 
L 222.480853 -17.28 
L 221.870905 -17.28 
L 221.260958 -17.28 
L 220.651011 -17.28 
L 220.041064 -17.28 
L 219.431117 -17.28 
L 218.82117 -17.28 
L 218.211222 -17.28 
L 217.601275 -17.28 
L 216.991328 -17.28 
L 216.381381 -17.28 
L 215.771434 -17.28 
L 215.161487 -17.28 
L 214.551539 -17.28 
L 213.941592 -17.28 
L 213.331645 -17.28 
L 212.721698 -17.28 
L 212.111751 -17.28 
L 211.501804 -17.28 
L 210.891856 -17.28 
L 210.281909 -17.28 
L 209.671962 -17.28 
L 209.062015 -17.28 
L 208.452068 -17.28 
L 207.842121 -17.28 
L 207.232173 -17.28 
L 206.622226 -17.28 
L 206.012279 -17.28 
L 205.402332 -17.28 
L 204.792385 -17.28 
L 204.182438 -17.28 
L 203.57249 -17.28 
L 202.962543 -17.28 
L 202.352596 -17.28 
L 201.742649 -17.28 
L 201.132702 -17.28 
L 200.522755 -17.28 
L 199.912807 -17.28 
L 199.30286 -17.28 
L 198.692913 -17.28 
L 198.082966 -17.28 
L 197.473019 -17.28 
L 196.863072 -17.28 
L 196.253124 -17.28 
L 195.643177 -17.28 
L 195.03323 -17.28 
L 194.423283 -17.28 
L 193.813336 -17.28 
L 193.203389 -17.28 
L 192.593441 -17.28 
L 191.983494 -17.28 
L 191.373547 -17.28 
L 190.7636 -17.28 
L 190.153653 -17.28 
L 189.543706 -17.28 
L 188.933758 -17.28 
L 188.323811 -17.28 
L 187.713864 -17.28 
L 187.103917 -17.28 
L 186.49397 -17.28 
L 185.884023 -17.28 
L 185.274075 -17.28 
L 184.664128 -17.28 
L 184.054181 -17.28 
L 183.444234 -17.28 
L 182.834287 -17.28 
L 182.22434 -17.28 
L 181.614392 -17.28 
L 181.004445 -17.28 
L 180.394498 -17.28 
L 179.784551 -17.28 
L 179.174604 -17.28 
L 178.564657 -17.28 
L 177.954709 -17.28 
L 177.344762 -17.28 
L 176.734815 -17.28 
L 176.124868 -17.28 
L 175.514921 -17.28 
L 174.904974 -17.28 
L 174.295026 -17.28 
L 173.685079 -17.28 
L 173.075132 -17.28 
L 172.465185 -17.28 
L 171.855238 -17.28 
L 171.245291 -17.28 
L 170.635343 -17.28 
L 170.025396 -17.28 
L 169.415449 -17.28 
L 168.805502 -17.28 
L 168.195555 -17.28 
L 167.585608 -17.28 
L 166.97566 -17.28 
L 166.365713 -17.28 
L 165.755766 -17.28 
L 165.145819 -17.28 
L 164.535872 -17.28 
L 163.925925 -17.28 
L 163.315977 -17.28 
L 162.70603 -17.28 
L 162.096083 -17.28 
L 161.486136 -17.28 
L 160.876189 -17.28 
L 160.266242 -17.28 
L 159.656294 -17.28 
L 159.046347 -17.28 
L 158.4364 -17.28 
L 157.826453 -17.28 
L 157.216506 -17.28 
L 156.606559 -17.28 
L 155.996611 -17.28 
L 155.386664 -17.28 
L 154.776717 -17.28 
L 154.16677 -17.28 
L 153.556823 -17.28 
L 152.946876 -17.28 
L 152.336928 -17.28 
L 151.726981 -17.28 
L 151.117034 -17.28 
L 150.507087 -17.28 
L 149.89714 -17.28 
L 149.287193 -17.28 
L 148.677245 -17.28 
L 148.067298 -17.28 
L 147.457351 -17.28 
L 146.847404 -17.28 
L 146.237457 -17.28 
L 145.62751 -17.28 
L 145.017562 -17.28 
L 144.407615 -17.28 
L 143.797668 -17.28 
L 143.187721 -17.28 
L 142.577774 -17.28 
L 141.967827 -17.28 
L 141.357879 -17.28 
L 140.747932 -17.28 
L 140.137985 -17.28 
L 139.528038 -17.28 
L 138.918091 -17.28 
L 138.308144 -17.28 
L 137.698196 -17.28 
L 137.088249 -17.28 
L 136.478302 -17.28 
L 135.868355 -17.28 
L 135.258408 -17.28 
L 134.648461 -17.28 
L 134.038513 -17.28 
L 133.428566 -17.28 
L 132.818619 -17.28 
L 132.208672 -17.28 
L 131.598725 -17.28 
L 130.988778 -17.28 
L 130.37883 -17.28 
L 129.768883 -17.28 
L 129.158936 -17.28 
L 128.548989 -17.28 
L 127.939042 -17.28 
L 127.329095 -17.28 
L 126.719147 -17.28 
L 126.1092 -17.28 
L 125.499253 -17.28 
L 124.889306 -17.28 
L 124.279359 -17.28 
L 123.669412 -17.28 
L 123.059464 -17.28 
L 122.449517 -17.28 
L 121.83957 -17.28 
L 121.229623 -17.28 
L 120.619676 -17.28 
L 120.009729 -17.28 
L 119.399781 -17.28 
L 118.789834 -17.28 
L 118.179887 -17.28 
L 117.56994 -17.28 
L 116.959993 -17.28 
L 116.350046 -17.28 
L 115.740098 -17.28 
L 115.130151 -17.28 
L 114.520204 -17.28 
L 113.910257 -17.28 
L 113.30031 -17.28 
L 112.690363 -17.28 
L 112.080415 -17.28 
L 111.470468 -17.28 
L 110.860521 -17.28 
L 110.250574 -17.28 
L 109.640627 -17.28 
L 109.03068 -17.28 
L 108.420732 -17.28 
L 107.810785 -17.28 
L 107.200838 -17.28 
L 106.590891 -17.28 
L 105.980944 -17.28 
L 105.370997 -17.28 
L 104.761049 -17.28 
L 104.151102 -17.28 
L 103.541155 -17.28 
L 102.931208 -17.28 
L 102.321261 -17.28 
L 101.711314 -17.28 
L 101.101366 -17.28 
L 100.491419 -17.28 
L 99.881472 -17.28 
L 99.271525 -17.28 
L 98.661578 -17.28 
L 98.051631 -17.28 
L 97.441683 -17.28 
L 96.831736 -17.28 
L 96.221789 -17.28 
L 95.611842 -17.28 
L 95.001895 -17.28 
L 94.391948 -17.28 
L 93.782 -17.28 
L 93.172053 -17.28 
L 92.562106 -17.28 
L 91.952159 -17.28 
L 91.342212 -17.28 
L 90.732265 -17.28 
L 90.122317 -17.28 
L 89.51237 -17.28 
L 88.902423 -17.28 
L 88.292476 -17.28 
L 87.682529 -17.28 
L 87.072582 -17.28 
L 86.462634 -17.28 
L 85.852687 -17.28 
L 85.24274 -17.28 
L 84.632793 -17.28 
L 84.022846 -17.28 
L 83.412899 -17.28 
L 82.802951 -17.28 
L 82.193004 -17.28 
L 81.583057 -17.28 
L 80.97311 -17.28 
L 80.363163 -17.28 
L 79.753216 -17.28 
L 79.143268 -17.28 
L 78.533321 -17.28 
L 77.923374 -17.28 
L 77.313427 -17.28 
L 76.70348 -17.28 
L 76.093533 -17.28 
L 75.483585 -17.28 
L 74.873638 -17.28 
L 74.263691 -17.28 
L 73.653744 -17.28 
L 73.043797 -17.28 
L 72.43385 -17.28 
L 71.823902 -17.28 
L 71.213955 -17.28 
L 70.604008 -17.28 
L 69.994061 -17.28 
L 69.384114 -17.28 
L 68.774167 -17.28 
L 68.164219 -17.28 
L 67.554272 -17.28 
L 66.944325 -17.28 
L 66.334378 -17.28 
L 65.724431 -17.28 
L 65.114484 -17.28 
L 64.504536 -17.28 
L 63.894589 -17.28 
L 63.284642 -17.28 
L 62.674695 -17.28 
L 62.064748 -17.28 
L 61.454801 -17.28 
L 60.844853 -17.28 
L 60.234906 -17.28 
L 59.624959 -17.28 
L 59.015012 -17.28 
L 58.405065 -17.28 
L 57.795118 -17.28 
L 57.18517 -17.28 
L 56.575223 -17.28 
L 55.965276 -17.28 
L 55.355329 -17.28 
L 54.745382 -17.28 
L 54.135435 -17.28 
L 53.525487 -17.28 
L 52.91554 -17.28 
L 52.305593 -17.28 
L 51.695646 -17.28 
L 51.085699 -17.28 
L 50.475752 -17.28 
L 49.865804 -17.28 
L 49.255857 -17.28 
L 48.64591 -17.28 
L 48.035963 -17.28 
L 47.426016 -17.28 
L 46.816069 -17.28 
L 46.206121 -17.28 
L 45.596174 -17.28 
L 44.986227 -17.28 
L 44.37628 -17.28 
L 43.766333 -17.28 
L 43.156385 -17.28 
L 42.546438 -17.28 
L 41.936491 -17.28 
L 41.326544 -17.28 
L 40.716597 -17.28 
L 40.10665 -17.28 
L 39.496702 -17.28 
L 38.886755 -17.28 
L 38.276808 -17.28 
L 37.666861 -17.28 
L 37.056914 -17.28 
L 36.446967 -17.28 
L 35.837019 -17.28 
L 35.227072 -17.28 
L 34.617125 -17.28 
L 34.007178 -17.28 
L 33.397231 -17.28 
L 32.787284 -17.28 
L 32.177336 -17.28 
L 31.567389 -17.28 
L 30.957442 -17.28 
L 30.347495 -17.28 
L 29.737548 -17.28 
L 29.127601 -17.28 
L 28.517653 -17.28 
L 27.907706 -17.28 
L 27.297759 -17.28 
L 26.687812 -17.28 
L 26.077865 -17.28 
L 25.467918 -17.28 
L 24.85797 -17.28 
L 24.248023 -17.28 
L 23.638076 -17.28 
L 23.028129 -17.28 
L 22.418182 -17.28 
z
" style="stroke: #ffa500"/>
    </defs>
    <g clip-path="url(#p7cbcf36a10)">
     <use xlink:href="#m0641555ab2" x="0" y="236.16" style="fill: #ffa500; stroke: #ffa500"/>
    </g>
   </g>
   <g id="line2d_1">
    <path d="M 22.418182 218.661958 
L 27.297759 218.343276 
L 30.957442 217.904126 
L 34.007178 217.343139 
L 37.056914 216.544638 
L 39.496702 215.69169 
L 41.936491 214.60974 
L 44.37628 213.261385 
L 46.816069 211.608596 
L 49.255857 209.613824 
L 51.695646 207.241177 
L 54.135435 204.457648 
L 56.575223 201.234327 
L 59.015012 197.547553 
L 61.454801 193.379972 
L 63.894589 188.721437 
L 66.334378 183.569732 
L 68.774167 177.931089 
L 71.823902 170.221672 
L 74.873638 161.823959 
L 77.923374 152.807246 
L 81.583057 141.296095 
L 86.462634 125.085264 
L 101.101366 75.655494 
L 104.761049 64.374468 
L 107.810785 55.636539 
L 110.860521 47.618808 
L 113.30031 41.787616 
L 115.740098 36.519924 
L 118.179887 31.850205 
L 120.009729 28.757058 
L 121.83957 26.024685 
L 123.669412 23.659693 
L 125.499253 21.666448 
L 127.329095 20.047126 
L 129.158936 18.801775 
L 130.988778 17.928402 
L 132.208672 17.550939 
L 133.428566 17.335463 
L 134.648461 17.28 
L 135.868355 17.382248 
L 137.088249 17.639589 
L 138.918091 18.309952 
L 140.747932 19.311668 
L 142.577774 20.632484 
L 144.407615 22.25902 
L 146.237457 24.176915 
L 148.067298 26.370967 
L 150.507087 29.698385 
L 152.946876 33.449245 
L 155.386664 37.583157 
L 158.4364 43.226608 
L 161.486136 49.323844 
L 165.145819 57.12749 
L 170.025396 68.140693 
L 176.734815 83.921129 
L 187.713864 109.759989 
L 193.203389 122.089404 
L 198.082966 132.493242 
L 202.352596 141.086291 
L 206.622226 149.155119 
L 210.281909 155.631965 
L 213.941592 161.693008 
L 217.601275 167.33563 
L 221.260958 172.563058 
L 224.920641 177.383423 
L 228.580324 181.808874 
L 232.240007 185.854745 
L 235.89969 189.53881 
L 239.559373 192.880605 
L 243.219056 195.900836 
L 246.878739 198.620868 
L 250.538422 201.062282 
L 254.198105 203.246516 
L 257.857788 205.194562 
L 262.127418 207.195823 
L 266.397049 208.933975 
L 270.666679 210.437903 
L 275.546256 211.904194 
L 280.425833 213.136153 
L 285.915358 214.282863 
L 292.01483 215.308106 
L 298.724248 216.189315 
L 306.043615 216.917583 
L 314.582875 217.533262 
L 324.951977 218.037051 
L 326.781818 218.104908 
L 326.781818 218.104908 
" clip-path="url(#p7cbcf36a10)" style="fill: none; stroke: #000000; stroke-width: 5; stroke-linecap: square"/>
   </g>
  </g>
 </g>
 <defs>
  <clipPath id="p7cbcf36a10">
   <rect x="7.2" y="7.2" width="334.8" height="221.76"/>
  </clipPath>
 </defs>
</svg>
