<?xml version="1.0" encoding="utf-8" standalone="no"?>
<!DOCTYPE svg PUBLIC "-//W3C//DTD SVG 1.1//EN"
  "http://www.w3.org/Graphics/SVG/1.1/DTD/svg11.dtd">
<svg xmlns:xlink="http://www.w3.org/1999/xlink" width="349.2pt" height="236.16pt" viewBox="0 0 349.2 236.16" xmlns="http://www.w3.org/2000/svg" version="1.1">
 <metadata>
  <rdf:RDF xmlns:dc="http://purl.org/dc/elements/1.1/" xmlns:cc="http://creativecommons.org/ns#" xmlns:rdf="http://www.w3.org/1999/02/22-rdf-syntax-ns#">
   <cc:Work>
    <dc:type rdf:resource="http://purl.org/dc/dcmitype/StillImage"/>
    <dc:date>2023-08-14T23:38:51.440033</dc:date>
    <dc:format>image/svg+xml</dc:format>
    <dc:creator>
     <cc:Agent>
      <dc:title>Matplotlib v3.6.2, https://matplotlib.org/</dc:title>
     </cc:Agent>
    </dc:creator>
   </cc:Work>
  </rdf:RDF>
 </metadata>
 <defs>
  <style type="text/css">*{stroke-linejoin: round; stroke-linecap: butt}</style>
 </defs>
 <g id="figure_1">
  <g id="patch_1">
   <path d="M 0 236.16 
L 349.2 236.16 
L 349.2 0 
L 0 0 
L 0 236.16 
z
" style="fill: none"/>
  </g>
  <g id="axes_1">
   <g id="PolyCollection_1">
    <defs>
     <path id="m164bb873fa" d="M 22.418182 -17.28 
L 22.418182 -17.28 
L 23.028129 -17.28 
L 23.638076 -17.28 
L 24.248023 -17.28 
L 24.85797 -17.28 
L 25.467918 -17.28 
L 26.077865 -17.28 
L 26.687812 -17.28 
L 27.297759 -17.28 
L 27.907706 -17.28 
L 28.517653 -17.28 
L 29.127601 -17.28 
L 29.737548 -17.28 
L 30.347495 -17.28 
L 30.957442 -17.28 
L 31.567389 -17.28 
L 32.177336 -17.28 
L 32.787284 -17.28 
L 33.397231 -17.28 
L 34.007178 -17.28 
L 34.617125 -17.28 
L 35.227072 -17.28 
L 35.837019 -17.28 
L 36.446967 -17.28 
L 37.056914 -17.28 
L 37.666861 -17.28 
L 38.276808 -17.28 
L 38.886755 -17.28 
L 39.496702 -17.28 
L 40.10665 -17.28 
L 40.716597 -17.28 
L 41.326544 -17.28 
L 41.936491 -17.28 
L 42.546438 -17.28 
L 43.156385 -17.28 
L 43.766333 -17.28 
L 44.37628 -17.28 
L 44.986227 -17.28 
L 45.596174 -17.28 
L 46.206121 -17.28 
L 46.816069 -17.28 
L 47.426016 -17.28 
L 48.035963 -17.28 
L 48.64591 -17.28 
L 49.255857 -17.28 
L 49.865804 -17.28 
L 50.475752 -17.28 
L 51.085699 -17.28 
L 51.695646 -17.28 
L 52.305593 -17.28 
L 52.91554 -17.28 
L 53.525487 -17.28 
L 54.135435 -17.28 
L 54.745382 -17.28 
L 55.355329 -17.28 
L 55.965276 -17.28 
L 56.575223 -17.28 
L 57.18517 -17.28 
L 57.795118 -17.28 
L 58.405065 -17.28 
L 59.015012 -17.28 
L 59.624959 -17.28 
L 60.234906 -17.28 
L 60.844853 -17.28 
L 61.454801 -17.28 
L 62.064748 -17.28 
L 62.674695 -17.28 
L 63.284642 -17.28 
L 63.894589 -17.28 
L 64.504536 -17.28 
L 65.114484 -17.28 
L 65.724431 -17.28 
L 66.334378 -17.28 
L 66.944325 -17.28 
L 67.554272 -17.28 
L 68.164219 -17.28 
L 68.774167 -17.28 
L 69.384114 -17.28 
L 69.994061 -17.28 
L 70.604008 -17.28 
L 71.213955 -17.28 
L 71.823902 -17.28 
L 72.43385 -17.28 
L 73.043797 -17.28 
L 73.653744 -17.28 
L 74.263691 -17.28 
L 74.873638 -17.28 
L 75.483585 -17.28 
L 76.093533 -17.28 
L 76.70348 -17.28 
L 77.313427 -17.28 
L 77.923374 -17.28 
L 78.533321 -17.28 
L 79.143268 -17.28 
L 79.753216 -17.28 
L 80.363163 -17.28 
L 80.97311 -17.28 
L 81.583057 -17.28 
L 82.193004 -17.28 
L 82.802951 -17.28 
L 83.412899 -17.28 
L 84.022846 -17.28 
L 84.632793 -17.28 
L 85.24274 -17.28 
L 85.852687 -17.28 
L 86.462634 -17.28 
L 87.072582 -17.28 
L 87.682529 -17.28 
L 88.292476 -17.28 
L 88.902423 -17.28 
L 89.51237 -17.28 
L 90.122317 -17.28 
L 90.732265 -17.28 
L 91.342212 -17.28 
L 91.952159 -17.28 
L 92.562106 -17.28 
L 93.172053 -17.28 
L 93.782 -17.28 
L 94.391948 -17.28 
L 95.001895 -17.28 
L 95.611842 -17.28 
L 96.221789 -17.28 
L 96.831736 -17.28 
L 97.441683 -17.28 
L 98.051631 -17.28 
L 98.661578 -17.28 
L 99.271525 -17.28 
L 99.881472 -17.28 
L 100.491419 -17.28 
L 101.101366 -17.28 
L 101.711314 -17.28 
L 102.321261 -17.28 
L 102.931208 -17.28 
L 103.541155 -17.28 
L 104.151102 -17.28 
L 104.761049 -17.28 
L 105.370997 -17.28 
L 105.980944 -17.28 
L 106.590891 -17.28 
L 107.200838 -17.28 
L 107.810785 -17.28 
L 108.420732 -17.28 
L 109.03068 -17.28 
L 109.640627 -17.28 
L 110.250574 -17.28 
L 110.860521 -17.28 
L 111.470468 -17.28 
L 112.080415 -17.28 
L 112.690363 -17.28 
L 113.30031 -17.28 
L 113.910257 -17.28 
L 114.520204 -17.28 
L 115.130151 -17.28 
L 115.740098 -17.28 
L 116.350046 -17.28 
L 116.959993 -17.28 
L 117.56994 -17.28 
L 118.179887 -17.28 
L 118.789834 -17.28 
L 119.399781 -17.28 
L 120.009729 -17.28 
L 120.619676 -17.28 
L 121.229623 -17.28 
L 121.83957 -17.28 
L 122.449517 -17.28 
L 123.059464 -17.28 
L 123.669412 -17.28 
L 124.279359 -17.28 
L 124.889306 -17.28 
L 125.499253 -17.28 
L 126.1092 -17.28 
L 126.719147 -17.28 
L 127.329095 -17.28 
L 127.939042 -17.28 
L 128.548989 -17.28 
L 129.158936 -17.28 
L 129.768883 -17.28 
L 130.37883 -17.28 
L 130.988778 -17.28 
L 131.598725 -17.28 
L 132.208672 -17.28 
L 132.818619 -17.28 
L 133.428566 -17.28 
L 134.038513 -17.28 
L 134.648461 -17.28 
L 135.258408 -17.28 
L 135.868355 -17.28 
L 136.478302 -17.28 
L 137.088249 -17.28 
L 137.698196 -17.28 
L 138.308144 -17.28 
L 138.918091 -17.28 
L 139.528038 -17.28 
L 140.137985 -17.28 
L 140.747932 -17.28 
L 141.357879 -17.28 
L 141.967827 -17.28 
L 142.577774 -17.28 
L 143.187721 -17.28 
L 143.797668 -17.28 
L 144.407615 -17.28 
L 145.017562 -17.28 
L 145.62751 -17.28 
L 146.237457 -17.28 
L 146.847404 -17.28 
L 147.457351 -17.28 
L 148.067298 -17.28 
L 148.677245 -17.28 
L 149.287193 -17.28 
L 149.89714 -17.28 
L 150.507087 -17.28 
L 151.117034 -17.28 
L 151.726981 -17.28 
L 152.336928 -17.28 
L 152.946876 -17.28 
L 153.556823 -17.28 
L 154.16677 -17.28 
L 154.776717 -17.28 
L 155.386664 -17.28 
L 155.996611 -17.28 
L 156.606559 -17.28 
L 157.216506 -17.28 
L 157.826453 -17.28 
L 158.4364 -17.28 
L 159.046347 -17.28 
L 159.656294 -17.28 
L 160.266242 -17.28 
L 160.876189 -17.28 
L 161.486136 -17.28 
L 162.096083 -17.28 
L 162.70603 -17.28 
L 163.315977 -17.28 
L 163.925925 -17.28 
L 164.535872 -17.28 
L 165.145819 -17.28 
L 165.755766 -17.28 
L 166.365713 -17.28 
L 166.97566 -17.28 
L 167.585608 -17.28 
L 168.195555 -17.28 
L 168.805502 -17.28 
L 169.415449 -17.28 
L 170.025396 -17.28 
L 170.635343 -17.28 
L 171.245291 -17.28 
L 171.855238 -17.28 
L 172.465185 -17.28 
L 173.075132 -17.28 
L 173.685079 -17.28 
L 174.295026 -17.28 
L 174.904974 -17.28 
L 175.514921 -17.28 
L 176.124868 -17.28 
L 176.734815 -17.28 
L 177.344762 -17.28 
L 177.954709 -17.28 
L 178.564657 -17.28 
L 179.174604 -17.28 
L 179.784551 -17.28 
L 180.394498 -17.28 
L 181.004445 -17.28 
L 181.614392 -17.28 
L 182.22434 -17.28 
L 182.834287 -17.28 
L 183.444234 -17.28 
L 184.054181 -17.28 
L 184.664128 -17.28 
L 185.274075 -17.28 
L 185.884023 -17.28 
L 186.49397 -17.28 
L 187.103917 -17.28 
L 187.713864 -17.28 
L 188.323811 -17.28 
L 188.933758 -17.28 
L 189.543706 -17.28 
L 190.153653 -17.28 
L 190.7636 -17.28 
L 191.373547 -17.28 
L 191.983494 -17.28 
L 192.593441 -17.28 
L 193.203389 -17.28 
L 193.813336 -17.28 
L 194.423283 -17.28 
L 195.03323 -17.28 
L 195.643177 -17.28 
L 196.253124 -17.28 
L 196.863072 -17.28 
L 197.473019 -17.28 
L 198.082966 -17.28 
L 198.692913 -17.28 
L 199.30286 -17.28 
L 199.912807 -17.28 
L 200.522755 -17.28 
L 201.132702 -17.28 
L 201.742649 -17.28 
L 202.352596 -17.28 
L 202.962543 -17.28 
L 203.57249 -17.28 
L 204.182438 -17.28 
L 204.792385 -17.28 
L 205.402332 -17.28 
L 206.012279 -17.28 
L 206.622226 -17.28 
L 207.232173 -17.28 
L 207.842121 -17.28 
L 208.452068 -17.28 
L 209.062015 -17.28 
L 209.671962 -17.28 
L 210.281909 -17.28 
L 210.891856 -17.28 
L 211.501804 -17.28 
L 212.111751 -17.28 
L 212.721698 -17.28 
L 213.331645 -17.28 
L 213.941592 -17.28 
L 214.551539 -17.28 
L 215.161487 -17.28 
L 215.771434 -17.28 
L 216.381381 -17.28 
L 216.991328 -17.28 
L 217.601275 -17.28 
L 218.211222 -17.28 
L 218.82117 -17.28 
L 219.431117 -17.28 
L 220.041064 -17.28 
L 220.651011 -17.28 
L 221.260958 -17.28 
L 221.870905 -17.28 
L 222.480853 -17.28 
L 223.0908 -17.28 
L 223.700747 -17.28 
L 224.310694 -17.28 
L 224.920641 -17.28 
L 225.530588 -17.28 
L 226.140536 -17.28 
L 226.750483 -17.28 
L 227.36043 -17.28 
L 227.970377 -17.28 
L 228.580324 -17.28 
L 229.190271 -17.28 
L 229.800219 -17.28 
L 230.410166 -17.28 
L 231.020113 -17.28 
L 231.63006 -17.28 
L 232.240007 -17.28 
L 232.849954 -17.28 
L 233.459902 -17.28 
L 234.069849 -17.28 
L 234.679796 -17.28 
L 235.289743 -17.28 
L 235.89969 -17.28 
L 236.509637 -17.28 
L 237.119585 -17.28 
L 237.729532 -17.28 
L 238.339479 -17.28 
L 238.949426 -17.28 
L 239.559373 -17.28 
L 240.16932 -17.28 
L 240.779268 -17.28 
L 241.389215 -17.28 
L 241.999162 -17.28 
L 242.609109 -17.28 
L 243.219056 -17.28 
L 243.829003 -17.28 
L 244.438951 -17.28 
L 245.048898 -17.28 
L 245.658845 -17.28 
L 246.268792 -17.28 
L 246.878739 -17.28 
L 247.488686 -17.28 
L 248.098634 -17.28 
L 248.708581 -17.28 
L 249.318528 -17.28 
L 249.928475 -17.28 
L 250.538422 -17.28 
L 251.148369 -17.28 
L 251.758317 -17.28 
L 252.368264 -17.28 
L 252.978211 -17.28 
L 253.588158 -17.280001 
L 254.198105 -17.280001 
L 254.808052 -17.280001 
L 255.418 -17.280001 
L 256.027947 -17.280001 
L 256.637894 -17.280001 
L 257.247841 -17.280002 
L 257.857788 -17.280002 
L 258.467735 -17.280002 
L 259.077683 -17.280003 
L 259.68763 -17.280003 
L 260.297577 -17.280004 
L 260.907524 -17.280005 
L 261.517471 -17.280006 
L 262.127418 -17.280007 
L 262.737366 -17.280008 
L 263.347313 -17.28001 
L 263.95726 -17.280012 
L 264.567207 -17.280014 
L 265.177154 -17.280017 
L 265.787101 -17.28002 
L 266.397049 -17.280024 
L 267.006996 -17.280028 
L 267.616943 -17.280033 
L 268.22689 -17.28004 
L 268.836837 -17.280048 
L 269.446784 -17.280057 
L 270.056732 -17.280067 
L 270.666679 -17.28008 
L 271.276626 -17.280095 
L 271.886573 -17.280114 
L 272.49652 -17.280135 
L 273.106467 -17.28016 
L 273.716415 -17.280191 
L 274.326362 -17.280226 
L 274.936309 -17.280269 
L 275.546256 -17.280319 
L 276.156203 -17.280379 
L 276.76615 -17.280449 
L 277.376098 -17.280533 
L 277.986045 -17.280632 
L 278.595992 -17.280749 
L 279.205939 -17.280887 
L 279.815886 -17.281051 
L 280.425833 -17.281245 
L 281.035781 -17.281473 
L 281.645728 -17.281743 
L 282.255675 -17.282062 
L 282.865622 -17.282439 
L 283.475569 -17.282883 
L 284.085516 -17.283407 
L 284.695464 -17.284026 
L 285.305411 -17.284755 
L 285.915358 -17.285614 
L 286.525305 -17.286627 
L 287.135252 -17.28782 
L 287.745199 -17.289226 
L 288.355147 -17.29088 
L 288.965094 -17.292827 
L 289.575041 -17.295119 
L 290.184988 -17.297814 
L 290.794935 -17.300983 
L 291.404882 -17.304709 
L 292.01483 -17.309088 
L 292.624777 -17.314233 
L 293.234724 -17.320276 
L 293.844671 -17.327372 
L 294.454618 -17.335702 
L 295.064565 -17.345478 
L 295.674513 -17.356947 
L 296.28446 -17.3704 
L 296.894407 -17.386173 
L 297.504354 -17.404663 
L 298.114301 -17.426332 
L 298.724248 -17.451718 
L 299.334196 -17.481451 
L 299.944143 -17.516265 
L 300.55409 -17.557019 
L 301.164037 -17.604711 
L 301.773984 -17.660508 
L 302.383931 -17.725768 
L 302.993879 -17.802076 
L 303.603826 -17.891278 
L 304.213773 -17.995525 
L 304.82372 -18.11732 
L 305.433667 -18.259578 
L 306.043615 -18.425694 
L 306.653562 -18.619616 
L 307.263509 -18.845938 
L 307.873456 -19.110003 
L 308.483403 -19.418023 
L 309.09335 -19.777218 
L 309.703298 -20.195982 
L 310.313245 -20.684064 
L 310.923192 -21.252789 
L 311.533139 -21.915308 
L 312.143086 -22.686889 
L 312.753033 -23.585251 
L 313.362981 -24.630954 
L 313.972928 -25.847852 
L 314.582875 -27.263606 
L 315.192822 -28.910291 
L 315.802769 -30.825083 
L 316.412716 -33.051071 
L 317.022664 -35.638171 
L 317.632611 -38.644208 
L 318.242558 -42.136139 
L 318.852505 -46.191486 
L 319.462452 -50.899975 
L 320.072399 -56.365436 
L 320.682347 -62.707987 
L 321.292294 -70.06656 
L 321.902241 -78.601801 
L 322.512188 -88.49943 
L 323.122135 -99.974092 
L 323.732082 -113.273809 
L 324.34203 -128.6851 
L 324.951977 -146.538877 
L 325.561924 -167.217233 
L 326.171871 -191.161252 
L 326.781818 -218.88 
L 326.781818 -17.28 
L 326.781818 -17.28 
L 326.171871 -17.28 
L 325.561924 -17.28 
L 324.951977 -17.28 
L 324.34203 -17.28 
L 323.732082 -17.28 
L 323.122135 -17.28 
L 322.512188 -17.28 
L 321.902241 -17.28 
L 321.292294 -17.28 
L 320.682347 -17.28 
L 320.072399 -17.28 
L 319.462452 -17.28 
L 318.852505 -17.28 
L 318.242558 -17.28 
L 317.632611 -17.28 
L 317.022664 -17.28 
L 316.412716 -17.28 
L 315.802769 -17.28 
L 315.192822 -17.28 
L 314.582875 -17.28 
L 313.972928 -17.28 
L 313.362981 -17.28 
L 312.753033 -17.28 
L 312.143086 -17.28 
L 311.533139 -17.28 
L 310.923192 -17.28 
L 310.313245 -17.28 
L 309.703298 -17.28 
L 309.09335 -17.28 
L 308.483403 -17.28 
L 307.873456 -17.28 
L 307.263509 -17.28 
L 306.653562 -17.28 
L 306.043615 -17.28 
L 305.433667 -17.28 
L 304.82372 -17.28 
L 304.213773 -17.28 
L 303.603826 -17.28 
L 302.993879 -17.28 
L 302.383931 -17.28 
L 301.773984 -17.28 
L 301.164037 -17.28 
L 300.55409 -17.28 
L 299.944143 -17.28 
L 299.334196 -17.28 
L 298.724248 -17.28 
L 298.114301 -17.28 
L 297.504354 -17.28 
L 296.894407 -17.28 
L 296.28446 -17.28 
L 295.674513 -17.28 
L 295.064565 -17.28 
L 294.454618 -17.28 
L 293.844671 -17.28 
L 293.234724 -17.28 
L 292.624777 -17.28 
L 292.01483 -17.28 
L 291.404882 -17.28 
L 290.794935 -17.28 
L 290.184988 -17.28 
L 289.575041 -17.28 
L 288.965094 -17.28 
L 288.355147 -17.28 
L 287.745199 -17.28 
L 287.135252 -17.28 
L 286.525305 -17.28 
L 285.915358 -17.28 
L 285.305411 -17.28 
L 284.695464 -17.28 
L 284.085516 -17.28 
L 283.475569 -17.28 
L 282.865622 -17.28 
L 282.255675 -17.28 
L 281.645728 -17.28 
L 281.035781 -17.28 
L 280.425833 -17.28 
L 279.815886 -17.28 
L 279.205939 -17.28 
L 278.595992 -17.28 
L 277.986045 -17.28 
L 277.376098 -17.28 
L 276.76615 -17.28 
L 276.156203 -17.28 
L 275.546256 -17.28 
L 274.936309 -17.28 
L 274.326362 -17.28 
L 273.716415 -17.28 
L 273.106467 -17.28 
L 272.49652 -17.28 
L 271.886573 -17.28 
L 271.276626 -17.28 
L 270.666679 -17.28 
L 270.056732 -17.28 
L 269.446784 -17.28 
L 268.836837 -17.28 
L 268.22689 -17.28 
L 267.616943 -17.28 
L 267.006996 -17.28 
L 266.397049 -17.28 
L 265.787101 -17.28 
L 265.177154 -17.28 
L 264.567207 -17.28 
L 263.95726 -17.28 
L 263.347313 -17.28 
L 262.737366 -17.28 
L 262.127418 -17.28 
L 261.517471 -17.28 
L 260.907524 -17.28 
L 260.297577 -17.28 
L 259.68763 -17.28 
L 259.077683 -17.28 
L 258.467735 -17.28 
L 257.857788 -17.28 
L 257.247841 -17.28 
L 256.637894 -17.28 
L 256.027947 -17.28 
L 255.418 -17.28 
L 254.808052 -17.28 
L 254.198105 -17.28 
L 253.588158 -17.28 
L 252.978211 -17.28 
L 252.368264 -17.28 
L 251.758317 -17.28 
L 251.148369 -17.28 
L 250.538422 -17.28 
L 249.928475 -17.28 
L 249.318528 -17.28 
L 248.708581 -17.28 
L 248.098634 -17.28 
L 247.488686 -17.28 
L 246.878739 -17.28 
L 246.268792 -17.28 
L 245.658845 -17.28 
L 245.048898 -17.28 
L 244.438951 -17.28 
L 243.829003 -17.28 
L 243.219056 -17.28 
L 242.609109 -17.28 
L 241.999162 -17.28 
L 241.389215 -17.28 
L 240.779268 -17.28 
L 240.16932 -17.28 
L 239.559373 -17.28 
L 238.949426 -17.28 
L 238.339479 -17.28 
L 237.729532 -17.28 
L 237.119585 -17.28 
L 236.509637 -17.28 
L 235.89969 -17.28 
L 235.289743 -17.28 
L 234.679796 -17.28 
L 234.069849 -17.28 
L 233.459902 -17.28 
L 232.849954 -17.28 
L 232.240007 -17.28 
L 231.63006 -17.28 
L 231.020113 -17.28 
L 230.410166 -17.28 
L 229.800219 -17.28 
L 229.190271 -17.28 
L 228.580324 -17.28 
L 227.970377 -17.28 
L 227.36043 -17.28 
L 226.750483 -17.28 
L 226.140536 -17.28 
L 225.530588 -17.28 
L 224.920641 -17.28 
L 224.310694 -17.28 
L 223.700747 -17.28 
L 223.0908 -17.28 
L 222.480853 -17.28 
L 221.870905 -17.28 
L 221.260958 -17.28 
L 220.651011 -17.28 
L 220.041064 -17.28 
L 219.431117 -17.28 
L 218.82117 -17.28 
L 218.211222 -17.28 
L 217.601275 -17.28 
L 216.991328 -17.28 
L 216.381381 -17.28 
L 215.771434 -17.28 
L 215.161487 -17.28 
L 214.551539 -17.28 
L 213.941592 -17.28 
L 213.331645 -17.28 
L 212.721698 -17.28 
L 212.111751 -17.28 
L 211.501804 -17.28 
L 210.891856 -17.28 
L 210.281909 -17.28 
L 209.671962 -17.28 
L 209.062015 -17.28 
L 208.452068 -17.28 
L 207.842121 -17.28 
L 207.232173 -17.28 
L 206.622226 -17.28 
L 206.012279 -17.28 
L 205.402332 -17.28 
L 204.792385 -17.28 
L 204.182438 -17.28 
L 203.57249 -17.28 
L 202.962543 -17.28 
L 202.352596 -17.28 
L 201.742649 -17.28 
L 201.132702 -17.28 
L 200.522755 -17.28 
L 199.912807 -17.28 
L 199.30286 -17.28 
L 198.692913 -17.28 
L 198.082966 -17.28 
L 197.473019 -17.28 
L 196.863072 -17.28 
L 196.253124 -17.28 
L 195.643177 -17.28 
L 195.03323 -17.28 
L 194.423283 -17.28 
L 193.813336 -17.28 
L 193.203389 -17.28 
L 192.593441 -17.28 
L 191.983494 -17.28 
L 191.373547 -17.28 
L 190.7636 -17.28 
L 190.153653 -17.28 
L 189.543706 -17.28 
L 188.933758 -17.28 
L 188.323811 -17.28 
L 187.713864 -17.28 
L 187.103917 -17.28 
L 186.49397 -17.28 
L 185.884023 -17.28 
L 185.274075 -17.28 
L 184.664128 -17.28 
L 184.054181 -17.28 
L 183.444234 -17.28 
L 182.834287 -17.28 
L 182.22434 -17.28 
L 181.614392 -17.28 
L 181.004445 -17.28 
L 180.394498 -17.28 
L 179.784551 -17.28 
L 179.174604 -17.28 
L 178.564657 -17.28 
L 177.954709 -17.28 
L 177.344762 -17.28 
L 176.734815 -17.28 
L 176.124868 -17.28 
L 175.514921 -17.28 
L 174.904974 -17.28 
L 174.295026 -17.28 
L 173.685079 -17.28 
L 173.075132 -17.28 
L 172.465185 -17.28 
L 171.855238 -17.28 
L 171.245291 -17.28 
L 170.635343 -17.28 
L 170.025396 -17.28 
L 169.415449 -17.28 
L 168.805502 -17.28 
L 168.195555 -17.28 
L 167.585608 -17.28 
L 166.97566 -17.28 
L 166.365713 -17.28 
L 165.755766 -17.28 
L 165.145819 -17.28 
L 164.535872 -17.28 
L 163.925925 -17.28 
L 163.315977 -17.28 
L 162.70603 -17.28 
L 162.096083 -17.28 
L 161.486136 -17.28 
L 160.876189 -17.28 
L 160.266242 -17.28 
L 159.656294 -17.28 
L 159.046347 -17.28 
L 158.4364 -17.28 
L 157.826453 -17.28 
L 157.216506 -17.28 
L 156.606559 -17.28 
L 155.996611 -17.28 
L 155.386664 -17.28 
L 154.776717 -17.28 
L 154.16677 -17.28 
L 153.556823 -17.28 
L 152.946876 -17.28 
L 152.336928 -17.28 
L 151.726981 -17.28 
L 151.117034 -17.28 
L 150.507087 -17.28 
L 149.89714 -17.28 
L 149.287193 -17.28 
L 148.677245 -17.28 
L 148.067298 -17.28 
L 147.457351 -17.28 
L 146.847404 -17.28 
L 146.237457 -17.28 
L 145.62751 -17.28 
L 145.017562 -17.28 
L 144.407615 -17.28 
L 143.797668 -17.28 
L 143.187721 -17.28 
L 142.577774 -17.28 
L 141.967827 -17.28 
L 141.357879 -17.28 
L 140.747932 -17.28 
L 140.137985 -17.28 
L 139.528038 -17.28 
L 138.918091 -17.28 
L 138.308144 -17.28 
L 137.698196 -17.28 
L 137.088249 -17.28 
L 136.478302 -17.28 
L 135.868355 -17.28 
L 135.258408 -17.28 
L 134.648461 -17.28 
L 134.038513 -17.28 
L 133.428566 -17.28 
L 132.818619 -17.28 
L 132.208672 -17.28 
L 131.598725 -17.28 
L 130.988778 -17.28 
L 130.37883 -17.28 
L 129.768883 -17.28 
L 129.158936 -17.28 
L 128.548989 -17.28 
L 127.939042 -17.28 
L 127.329095 -17.28 
L 126.719147 -17.28 
L 126.1092 -17.28 
L 125.499253 -17.28 
L 124.889306 -17.28 
L 124.279359 -17.28 
L 123.669412 -17.28 
L 123.059464 -17.28 
L 122.449517 -17.28 
L 121.83957 -17.28 
L 121.229623 -17.28 
L 120.619676 -17.28 
L 120.009729 -17.28 
L 119.399781 -17.28 
L 118.789834 -17.28 
L 118.179887 -17.28 
L 117.56994 -17.28 
L 116.959993 -17.28 
L 116.350046 -17.28 
L 115.740098 -17.28 
L 115.130151 -17.28 
L 114.520204 -17.28 
L 113.910257 -17.28 
L 113.30031 -17.28 
L 112.690363 -17.28 
L 112.080415 -17.28 
L 111.470468 -17.28 
L 110.860521 -17.28 
L 110.250574 -17.28 
L 109.640627 -17.28 
L 109.03068 -17.28 
L 108.420732 -17.28 
L 107.810785 -17.28 
L 107.200838 -17.28 
L 106.590891 -17.28 
L 105.980944 -17.28 
L 105.370997 -17.28 
L 104.761049 -17.28 
L 104.151102 -17.28 
L 103.541155 -17.28 
L 102.931208 -17.28 
L 102.321261 -17.28 
L 101.711314 -17.28 
L 101.101366 -17.28 
L 100.491419 -17.28 
L 99.881472 -17.28 
L 99.271525 -17.28 
L 98.661578 -17.28 
L 98.051631 -17.28 
L 97.441683 -17.28 
L 96.831736 -17.28 
L 96.221789 -17.28 
L 95.611842 -17.28 
L 95.001895 -17.28 
L 94.391948 -17.28 
L 93.782 -17.28 
L 93.172053 -17.28 
L 92.562106 -17.28 
L 91.952159 -17.28 
L 91.342212 -17.28 
L 90.732265 -17.28 
L 90.122317 -17.28 
L 89.51237 -17.28 
L 88.902423 -17.28 
L 88.292476 -17.28 
L 87.682529 -17.28 
L 87.072582 -17.28 
L 86.462634 -17.28 
L 85.852687 -17.28 
L 85.24274 -17.28 
L 84.632793 -17.28 
L 84.022846 -17.28 
L 83.412899 -17.28 
L 82.802951 -17.28 
L 82.193004 -17.28 
L 81.583057 -17.28 
L 80.97311 -17.28 
L 80.363163 -17.28 
L 79.753216 -17.28 
L 79.143268 -17.28 
L 78.533321 -17.28 
L 77.923374 -17.28 
L 77.313427 -17.28 
L 76.70348 -17.28 
L 76.093533 -17.28 
L 75.483585 -17.28 
L 74.873638 -17.28 
L 74.263691 -17.28 
L 73.653744 -17.28 
L 73.043797 -17.28 
L 72.43385 -17.28 
L 71.823902 -17.28 
L 71.213955 -17.28 
L 70.604008 -17.28 
L 69.994061 -17.28 
L 69.384114 -17.28 
L 68.774167 -17.28 
L 68.164219 -17.28 
L 67.554272 -17.28 
L 66.944325 -17.28 
L 66.334378 -17.28 
L 65.724431 -17.28 
L 65.114484 -17.28 
L 64.504536 -17.28 
L 63.894589 -17.28 
L 63.284642 -17.28 
L 62.674695 -17.28 
L 62.064748 -17.28 
L 61.454801 -17.28 
L 60.844853 -17.28 
L 60.234906 -17.28 
L 59.624959 -17.28 
L 59.015012 -17.28 
L 58.405065 -17.28 
L 57.795118 -17.28 
L 57.18517 -17.28 
L 56.575223 -17.28 
L 55.965276 -17.28 
L 55.355329 -17.28 
L 54.745382 -17.28 
L 54.135435 -17.28 
L 53.525487 -17.28 
L 52.91554 -17.28 
L 52.305593 -17.28 
L 51.695646 -17.28 
L 51.085699 -17.28 
L 50.475752 -17.28 
L 49.865804 -17.28 
L 49.255857 -17.28 
L 48.64591 -17.28 
L 48.035963 -17.28 
L 47.426016 -17.28 
L 46.816069 -17.28 
L 46.206121 -17.28 
L 45.596174 -17.28 
L 44.986227 -17.28 
L 44.37628 -17.28 
L 43.766333 -17.28 
L 43.156385 -17.28 
L 42.546438 -17.28 
L 41.936491 -17.28 
L 41.326544 -17.28 
L 40.716597 -17.28 
L 40.10665 -17.28 
L 39.496702 -17.28 
L 38.886755 -17.28 
L 38.276808 -17.28 
L 37.666861 -17.28 
L 37.056914 -17.28 
L 36.446967 -17.28 
L 35.837019 -17.28 
L 35.227072 -17.28 
L 34.617125 -17.28 
L 34.007178 -17.28 
L 33.397231 -17.28 
L 32.787284 -17.28 
L 32.177336 -17.28 
L 31.567389 -17.28 
L 30.957442 -17.28 
L 30.347495 -17.28 
L 29.737548 -17.28 
L 29.127601 -17.28 
L 28.517653 -17.28 
L 27.907706 -17.28 
L 27.297759 -17.28 
L 26.687812 -17.28 
L 26.077865 -17.28 
L 25.467918 -17.28 
L 24.85797 -17.28 
L 24.248023 -17.28 
L 23.638076 -17.28 
L 23.028129 -17.28 
L 22.418182 -17.28 
z
" style="stroke: #ffa500"/>
    </defs>
    <g clip-path="url(#p38c7d29d2e)">
     <use xlink:href="#m164bb873fa" x="0" y="236.16" style="fill: #ffa500; stroke: #ffa500"/>
    </g>
   </g>
   <g id="line2d_1">
    <path d="M 22.418182 218.88 
L 296.894407 218.773827 
L 301.164037 218.555289 
L 303.603826 218.268722 
L 305.433667 217.900422 
L 307.263509 217.314062 
L 308.483403 216.741977 
L 309.703298 215.964018 
L 310.923192 214.907211 
L 312.143086 213.473111 
L 313.362981 211.529046 
L 314.582875 208.896394 
L 315.802769 205.334917 
L 317.022664 200.521829 
L 318.242558 194.023861 
L 319.462452 185.260025 
L 320.682347 173.452013 
L 321.902241 157.558199 
L 323.122135 136.185908 
L 324.34203 107.4749 
L 325.561924 68.942767 
L 326.781818 17.28 
L 326.781818 17.28 
" clip-path="url(#p38c7d29d2e)" style="fill: none; stroke: #000000; stroke-width: 5; stroke-linecap: square"/>
   </g>
  </g>
 </g>
 <defs>
  <clipPath id="p38c7d29d2e">
   <rect x="7.2" y="7.2" width="334.8" height="221.76"/>
  </clipPath>
 </defs>
</svg>
