<?xml version="1.0" encoding="utf-8" standalone="no"?>
<!DOCTYPE svg PUBLIC "-//W3C//DTD SVG 1.1//EN"
  "http://www.w3.org/Graphics/SVG/1.1/DTD/svg11.dtd">
<svg xmlns:xlink="http://www.w3.org/1999/xlink" width="349.2pt" height="236.16pt" viewBox="0 0 349.2 236.16" xmlns="http://www.w3.org/2000/svg" version="1.1">
 <metadata>
  <rdf:RDF xmlns:dc="http://purl.org/dc/elements/1.1/" xmlns:cc="http://creativecommons.org/ns#" xmlns:rdf="http://www.w3.org/1999/02/22-rdf-syntax-ns#">
   <cc:Work>
    <dc:type rdf:resource="http://purl.org/dc/dcmitype/StillImage"/>
    <dc:date>2023-08-13T23:04:32.542724</dc:date>
    <dc:format>image/svg+xml</dc:format>
    <dc:creator>
     <cc:Agent>
      <dc:title>Matplotlib v3.6.2, https://matplotlib.org/</dc:title>
     </cc:Agent>
    </dc:creator>
   </cc:Work>
  </rdf:RDF>
 </metadata>
 <defs>
  <style type="text/css">*{stroke-linejoin: round; stroke-linecap: butt}</style>
 </defs>
 <g id="figure_1">
  <g id="patch_1">
   <path d="M 0 236.16 
L 349.2 236.16 
L 349.2 0 
L 0 0 
L 0 236.16 
z
" style="fill: none"/>
  </g>
  <g id="axes_1">
   <g id="PolyCollection_1">
    <defs>
     <path id="m3b36fe2fde" d="M 22.418182 -17.28 
L 22.418182 -17.364483 
L 23.028129 -17.388958 
L 23.638076 -17.41885 
L 24.248023 -17.454998 
L 24.85797 -17.498312 
L 25.467918 -17.549772 
L 26.077865 -17.610431 
L 26.687812 -17.681408 
L 27.297759 -17.763886 
L 27.907706 -17.859114 
L 28.517653 -17.968398 
L 29.127601 -18.093101 
L 29.737548 -18.234634 
L 30.347495 -18.394456 
L 30.957442 -18.574069 
L 31.567389 -18.775006 
L 32.177336 -18.998832 
L 32.787284 -19.247136 
L 33.397231 -19.521523 
L 34.007178 -19.823609 
L 34.617125 -20.155014 
L 35.227072 -20.517357 
L 35.837019 -20.912246 
L 36.446967 -21.341274 
L 37.056914 -21.806013 
L 37.666861 -22.308004 
L 38.276808 -22.848756 
L 38.886755 -23.429733 
L 39.496702 -24.052354 
L 40.10665 -24.717985 
L 40.716597 -25.427931 
L 41.326544 -26.183434 
L 41.936491 -26.985669 
L 42.546438 -27.835733 
L 43.156385 -28.734647 
L 43.766333 -29.683349 
L 44.37628 -30.68269 
L 44.986227 -31.733433 
L 45.596174 -32.836245 
L 46.206121 -33.9917 
L 46.816069 -35.200274 
L 47.426016 -36.46234 
L 48.035963 -37.778174 
L 48.64591 -39.147945 
L 49.255857 -40.57172 
L 49.865804 -42.049461 
L 50.475752 -43.581026 
L 51.085699 -45.166167 
L 51.695646 -46.804534 
L 52.305593 -48.495672 
L 52.91554 -50.239023 
L 53.525487 -52.033929 
L 54.135435 -53.879633 
L 54.745382 -55.775279 
L 55.355329 -57.719916 
L 55.965276 -59.712502 
L 56.575223 -61.7519 
L 57.18517 -63.836889 
L 57.795118 -65.966162 
L 58.405065 -68.13833 
L 59.015012 -70.351927 
L 59.624959 -72.605411 
L 60.234906 -74.897169 
L 60.844853 -77.225521 
L 61.454801 -79.588723 
L 62.064748 -81.984971 
L 62.674695 -84.412407 
L 63.284642 -86.869119 
L 63.894589 -89.353149 
L 64.504536 -91.862494 
L 65.114484 -94.395114 
L 65.724431 -96.948932 
L 66.334378 -99.52184 
L 66.944325 -102.111704 
L 67.554272 -104.716368 
L 68.164219 -107.333655 
L 68.774167 -109.961375 
L 69.384114 -112.597328 
L 69.994061 -115.239307 
L 70.604008 -117.885099 
L 71.213955 -120.532497 
L 71.823902 -123.179295 
L 72.43385 -125.823297 
L 73.043797 -128.462318 
L 73.653744 -131.094188 
L 74.263691 -133.716755 
L 74.873638 -136.327889 
L 75.483585 -138.925487 
L 76.093533 -141.507468 
L 76.70348 -144.071787 
L 77.313427 -146.616429 
L 77.923374 -149.139416 
L 78.533321 -151.638806 
L 79.143268 -154.112699 
L 79.753216 -156.559239 
L 80.363163 -158.976611 
L 80.97311 -161.363049 
L 81.583057 -163.716835 
L 82.193004 -166.036299 
L 82.802951 -168.319826 
L 83.412899 -170.565851 
L 84.022846 -172.772864 
L 84.632793 -174.93941 
L 85.24274 -177.064089 
L 85.852687 -179.145561 
L 86.462634 -181.182543 
L 87.072582 -183.173808 
L 87.682529 -185.11819 
L 88.292476 -187.014584 
L 88.902423 -188.861942 
L 89.51237 -190.659279 
L 90.122317 -192.405666 
L 90.732265 -194.100238 
L 91.342212 -195.74219 
L 91.952159 -197.330773 
L 92.562106 -198.865302 
L 93.172053 -200.345149 
L 93.782 -201.769746 
L 94.391948 -203.138583 
L 95.001895 -204.451206 
L 95.611842 -205.707221 
L 96.221789 -206.906289 
L 96.831736 -208.048126 
L 97.441683 -209.132503 
L 98.051631 -210.159247 
L 98.661578 -211.128235 
L 99.271525 -212.039396 
L 99.881472 -212.892713 
L 100.491419 -213.688216 
L 101.101366 -214.425983 
L 101.711314 -215.106142 
L 102.321261 -215.728865 
L 102.931208 -216.29437 
L 103.541155 -216.80292 
L 104.151102 -217.254817 
L 104.761049 -217.650409 
L 105.370997 -217.990078 
L 105.980944 -218.27425 
L 106.590891 -218.503385 
L 107.200838 -218.677981 
L 107.810785 -218.798567 
L 108.420732 -218.865708 
L 109.03068 -218.88 
L 109.640627 -218.84207 
L 110.250574 -218.752572 
L 110.860521 -218.61219 
L 111.470468 -218.421632 
L 112.080415 -218.181632 
L 112.690363 -217.892949 
L 113.30031 -217.556362 
L 113.910257 -217.172671 
L 114.520204 -216.742697 
L 115.130151 -216.267278 
L 115.740098 -215.74727 
L 116.350046 -215.183544 
L 116.959993 -214.576987 
L 117.56994 -213.928497 
L 118.179887 -213.238986 
L 118.789834 -212.509377 
L 119.399781 -211.740601 
L 120.009729 -210.933599 
L 120.619676 -210.089321 
L 121.229623 -209.20872 
L 121.83957 -208.292758 
L 122.449517 -207.3424 
L 123.059464 -206.358613 
L 123.669412 -205.34237 
L 124.279359 -204.294641 
L 124.889306 -203.216402 
L 125.499253 -202.108623 
L 126.1092 -200.972278 
L 126.719147 -199.808336 
L 127.329095 -198.617764 
L 127.939042 -197.401526 
L 128.548989 -196.16058 
L 129.158936 -194.895883 
L 129.768883 -193.608382 
L 130.37883 -192.29902 
L 130.988778 -190.968732 
L 131.598725 -189.618446 
L 132.208672 -188.249083 
L 132.818619 -186.861553 
L 133.428566 -185.456759 
L 134.038513 -184.035593 
L 134.648461 -182.598937 
L 135.258408 -181.147662 
L 135.868355 -179.682629 
L 136.478302 -178.204688 
L 137.088249 -176.714676 
L 137.698196 -175.213417 
L 138.308144 -173.701724 
L 138.918091 -172.180399 
L 139.528038 -170.650226 
L 140.137985 -169.111981 
L 140.747932 -167.566423 
L 141.357879 -166.014298 
L 141.967827 -164.45634 
L 142.577774 -162.893266 
L 143.187721 -161.32578 
L 143.797668 -159.754572 
L 144.407615 -158.180317 
L 145.017562 -156.603676 
L 145.62751 -155.025294 
L 146.237457 -153.445803 
L 146.847404 -151.865818 
L 147.457351 -150.285941 
L 148.067298 -148.706759 
L 148.677245 -147.128843 
L 149.287193 -145.552749 
L 149.89714 -143.979021 
L 150.507087 -142.408184 
L 151.117034 -140.840752 
L 151.726981 -139.277221 
L 152.336928 -137.718076 
L 152.946876 -136.163784 
L 153.556823 -134.614799 
L 154.16677 -133.071561 
L 154.776717 -131.534495 
L 155.386664 -130.004013 
L 155.996611 -128.480512 
L 156.606559 -126.964375 
L 157.216506 -125.455972 
L 157.826453 -123.95566 
L 158.4364 -122.46378 
L 159.046347 -120.980663 
L 159.656294 -119.506624 
L 160.266242 -118.041968 
L 160.876189 -116.586985 
L 161.486136 -115.141953 
L 162.096083 -113.707138 
L 162.70603 -112.282794 
L 163.315977 -110.869163 
L 163.925925 -109.466475 
L 164.535872 -108.074948 
L 165.145819 -106.694789 
L 165.755766 -105.326195 
L 166.365713 -103.969349 
L 166.97566 -102.624428 
L 167.585608 -101.291594 
L 168.195555 -99.971002 
L 168.805502 -98.662794 
L 169.415449 -97.367104 
L 170.025396 -96.084056 
L 170.635343 -94.813765 
L 171.245291 -93.556335 
L 171.855238 -92.311865 
L 172.465185 -91.08044 
L 173.075132 -89.86214 
L 173.685079 -88.657035 
L 174.295026 -87.465189 
L 174.904974 -86.286655 
L 175.514921 -85.121481 
L 176.124868 -83.969706 
L 176.734815 -82.831362 
L 177.344762 -81.706474 
L 177.954709 -80.595061 
L 178.564657 -79.497133 
L 179.174604 -78.412696 
L 179.784551 -77.341749 
L 180.394498 -76.284284 
L 181.004445 -75.240289 
L 181.614392 -74.209744 
L 182.22434 -73.192625 
L 182.834287 -72.188902 
L 183.444234 -71.19854 
L 184.054181 -70.221501 
L 184.664128 -69.257739 
L 185.274075 -68.307205 
L 185.884023 -67.369847 
L 186.49397 -66.445605 
L 187.103917 -65.534419 
L 187.713864 -64.636223 
L 188.323811 -63.750947 
L 188.933758 -62.878518 
L 189.543706 -62.018861 
L 190.153653 -61.171895 
L 190.7636 -60.337537 
L 191.373547 -59.515702 
L 191.983494 -58.706302 
L 192.593441 -57.909244 
L 193.203389 -57.124435 
L 193.813336 -56.351779 
L 194.423283 -55.591177 
L 195.03323 -54.842529 
L 195.643177 -54.105731 
L 196.253124 -53.380679 
L 196.863072 -52.667267 
L 197.473019 -51.965387 
L 198.082966 -51.274928 
L 198.692913 -50.59578 
L 199.30286 -49.92783 
L 199.912807 -49.270964 
L 200.522755 -48.625068 
L 201.132702 -47.990026 
L 201.742649 -47.365721 
L 202.352596 -46.752034 
L 202.962543 -46.148849 
L 203.57249 -45.556045 
L 204.182438 -44.973503 
L 204.792385 -44.401102 
L 205.402332 -43.838723 
L 206.012279 -43.286243 
L 206.622226 -42.743542 
L 207.232173 -42.210498 
L 207.842121 -41.68699 
L 208.452068 -41.172896 
L 209.062015 -40.668095 
L 209.671962 -40.172464 
L 210.281909 -39.685882 
L 210.891856 -39.208229 
L 211.501804 -38.739382 
L 212.111751 -38.279221 
L 212.721698 -37.827626 
L 213.331645 -37.384477 
L 213.941592 -36.949654 
L 214.551539 -36.523038 
L 215.161487 -36.104511 
L 215.771434 -35.693953 
L 216.381381 -35.291249 
L 216.991328 -34.896281 
L 217.601275 -34.508934 
L 218.211222 -34.129091 
L 218.82117 -33.756639 
L 219.431117 -33.391463 
L 220.041064 -33.033451 
L 220.651011 -32.68249 
L 221.260958 -32.338469 
L 221.870905 -32.001277 
L 222.480853 -31.670806 
L 223.0908 -31.346947 
L 223.700747 -31.029591 
L 224.310694 -30.718633 
L 224.920641 -30.413967 
L 225.530588 -30.115488 
L 226.140536 -29.823093 
L 226.750483 -29.536679 
L 227.36043 -29.256145 
L 227.970377 -28.981389 
L 228.580324 -28.712314 
L 229.190271 -28.448821 
L 229.800219 -28.190812 
L 230.410166 -27.938191 
L 231.020113 -27.690864 
L 231.63006 -27.448737 
L 232.240007 -27.211718 
L 232.849954 -26.979713 
L 233.459902 -26.752634 
L 234.069849 -26.530391 
L 234.679796 -26.312896 
L 235.289743 -26.100062 
L 235.89969 -25.891802 
L 236.509637 -25.688033 
L 237.119585 -25.488671 
L 237.729532 -25.293632 
L 238.339479 -25.102837 
L 238.949426 -24.916205 
L 239.559373 -24.733656 
L 240.16932 -24.555114 
L 240.779268 -24.3805 
L 241.389215 -24.209741 
L 241.999162 -24.04276 
L 242.609109 -23.879485 
L 243.219056 -23.719843 
L 243.829003 -23.563763 
L 244.438951 -23.411175 
L 245.048898 -23.26201 
L 245.658845 -23.1162 
L 246.268792 -22.973678 
L 246.878739 -22.834379 
L 247.488686 -22.698237 
L 248.098634 -22.565189 
L 248.708581 -22.435172 
L 249.318528 -22.308124 
L 249.928475 -22.183986 
L 250.538422 -22.062696 
L 251.148369 -21.944197 
L 251.758317 -21.828432 
L 252.368264 -21.715342 
L 252.978211 -21.604874 
L 253.588158 -21.496971 
L 254.198105 -21.39158 
L 254.808052 -21.288649 
L 255.418 -21.188126 
L 256.027947 -21.089959 
L 256.637894 -20.994099 
L 257.247841 -20.900496 
L 257.857788 -20.809102 
L 258.467735 -20.71987 
L 259.077683 -20.632753 
L 259.68763 -20.547706 
L 260.297577 -20.464683 
L 260.907524 -20.383641 
L 261.517471 -20.304537 
L 262.127418 -20.227328 
L 262.737366 -20.151972 
L 263.347313 -20.07843 
L 263.95726 -20.00666 
L 264.567207 -19.936624 
L 265.177154 -19.868283 
L 265.787101 -19.8016 
L 266.397049 -19.736537 
L 267.006996 -19.673058 
L 267.616943 -19.611128 
L 268.22689 -19.550712 
L 268.836837 -19.491775 
L 269.446784 -19.434285 
L 270.056732 -19.378208 
L 270.666679 -19.323512 
L 271.276626 -19.270166 
L 271.886573 -19.218138 
L 272.49652 -19.1674 
L 273.106467 -19.11792 
L 273.716415 -19.06967 
L 274.326362 -19.022622 
L 274.936309 -18.976748 
L 275.546256 -18.93202 
L 276.156203 -18.888412 
L 276.76615 -18.845897 
L 277.376098 -18.804451 
L 277.986045 -18.764048 
L 278.595992 -18.724663 
L 279.205939 -18.686273 
L 279.815886 -18.648854 
L 280.425833 -18.612383 
L 281.035781 -18.576837 
L 281.645728 -18.542196 
L 282.255675 -18.508436 
L 282.865622 -18.475537 
L 283.475569 -18.443479 
L 284.085516 -18.412241 
L 284.695464 -18.381804 
L 285.305411 -18.352148 
L 285.915358 -18.323254 
L 286.525305 -18.295104 
L 287.135252 -18.267681 
L 287.745199 -18.240965 
L 288.355147 -18.214941 
L 288.965094 -18.189591 
L 289.575041 -18.164899 
L 290.184988 -18.140848 
L 290.794935 -18.117424 
L 291.404882 -18.09461 
L 292.01483 -18.072391 
L 292.624777 -18.050753 
L 293.234724 -18.029682 
L 293.844671 -18.009163 
L 294.454618 -17.989183 
L 295.064565 -17.969728 
L 295.674513 -17.950785 
L 296.28446 -17.932342 
L 296.894407 -17.914386 
L 297.504354 -17.896905 
L 298.114301 -17.879886 
L 298.724248 -17.863319 
L 299.334196 -17.847191 
L 299.944143 -17.831492 
L 300.55409 -17.816211 
L 301.164037 -17.801338 
L 301.773984 -17.786861 
L 302.383931 -17.772772 
L 302.993879 -17.759059 
L 303.603826 -17.745714 
L 304.213773 -17.732727 
L 304.82372 -17.720089 
L 305.433667 -17.707791 
L 306.043615 -17.695824 
L 306.653562 -17.68418 
L 307.263509 -17.672851 
L 307.873456 -17.661827 
L 308.483403 -17.651103 
L 309.09335 -17.640668 
L 309.703298 -17.630517 
L 310.313245 -17.620642 
L 310.923192 -17.611036 
L 311.533139 -17.601691 
L 312.143086 -17.592601 
L 312.753033 -17.583759 
L 313.362981 -17.575159 
L 313.972928 -17.566795 
L 314.582875 -17.558659 
L 315.192822 -17.550747 
L 315.802769 -17.543052 
L 316.412716 -17.535568 
L 317.022664 -17.528291 
L 317.632611 -17.521214 
L 318.242558 -17.514333 
L 318.852505 -17.507641 
L 319.462452 -17.501135 
L 320.072399 -17.494808 
L 320.682347 -17.488657 
L 321.292294 -17.482677 
L 321.902241 -17.476863 
L 322.512188 -17.47121 
L 323.122135 -17.465715 
L 323.732082 -17.460373 
L 324.34203 -17.45518 
L 324.951977 -17.450132 
L 325.561924 -17.445225 
L 326.171871 -17.440456 
L 326.781818 -17.43582 
L 326.781818 -17.28 
L 326.781818 -17.28 
L 326.171871 -17.28 
L 325.561924 -17.28 
L 324.951977 -17.28 
L 324.34203 -17.28 
L 323.732082 -17.28 
L 323.122135 -17.28 
L 322.512188 -17.28 
L 321.902241 -17.28 
L 321.292294 -17.28 
L 320.682347 -17.28 
L 320.072399 -17.28 
L 319.462452 -17.28 
L 318.852505 -17.28 
L 318.242558 -17.28 
L 317.632611 -17.28 
L 317.022664 -17.28 
L 316.412716 -17.28 
L 315.802769 -17.28 
L 315.192822 -17.28 
L 314.582875 -17.28 
L 313.972928 -17.28 
L 313.362981 -17.28 
L 312.753033 -17.28 
L 312.143086 -17.28 
L 311.533139 -17.28 
L 310.923192 -17.28 
L 310.313245 -17.28 
L 309.703298 -17.28 
L 309.09335 -17.28 
L 308.483403 -17.28 
L 307.873456 -17.28 
L 307.263509 -17.28 
L 306.653562 -17.28 
L 306.043615 -17.28 
L 305.433667 -17.28 
L 304.82372 -17.28 
L 304.213773 -17.28 
L 303.603826 -17.28 
L 302.993879 -17.28 
L 302.383931 -17.28 
L 301.773984 -17.28 
L 301.164037 -17.28 
L 300.55409 -17.28 
L 299.944143 -17.28 
L 299.334196 -17.28 
L 298.724248 -17.28 
L 298.114301 -17.28 
L 297.504354 -17.28 
L 296.894407 -17.28 
L 296.28446 -17.28 
L 295.674513 -17.28 
L 295.064565 -17.28 
L 294.454618 -17.28 
L 293.844671 -17.28 
L 293.234724 -17.28 
L 292.624777 -17.28 
L 292.01483 -17.28 
L 291.404882 -17.28 
L 290.794935 -17.28 
L 290.184988 -17.28 
L 289.575041 -17.28 
L 288.965094 -17.28 
L 288.355147 -17.28 
L 287.745199 -17.28 
L 287.135252 -17.28 
L 286.525305 -17.28 
L 285.915358 -17.28 
L 285.305411 -17.28 
L 284.695464 -17.28 
L 284.085516 -17.28 
L 283.475569 -17.28 
L 282.865622 -17.28 
L 282.255675 -17.28 
L 281.645728 -17.28 
L 281.035781 -17.28 
L 280.425833 -17.28 
L 279.815886 -17.28 
L 279.205939 -17.28 
L 278.595992 -17.28 
L 277.986045 -17.28 
L 277.376098 -17.28 
L 276.76615 -17.28 
L 276.156203 -17.28 
L 275.546256 -17.28 
L 274.936309 -17.28 
L 274.326362 -17.28 
L 273.716415 -17.28 
L 273.106467 -17.28 
L 272.49652 -17.28 
L 271.886573 -17.28 
L 271.276626 -17.28 
L 270.666679 -17.28 
L 270.056732 -17.28 
L 269.446784 -17.28 
L 268.836837 -17.28 
L 268.22689 -17.28 
L 267.616943 -17.28 
L 267.006996 -17.28 
L 266.397049 -17.28 
L 265.787101 -17.28 
L 265.177154 -17.28 
L 264.567207 -17.28 
L 263.95726 -17.28 
L 263.347313 -17.28 
L 262.737366 -17.28 
L 262.127418 -17.28 
L 261.517471 -17.28 
L 260.907524 -17.28 
L 260.297577 -17.28 
L 259.68763 -17.28 
L 259.077683 -17.28 
L 258.467735 -17.28 
L 257.857788 -17.28 
L 257.247841 -17.28 
L 256.637894 -17.28 
L 256.027947 -17.28 
L 255.418 -17.28 
L 254.808052 -17.28 
L 254.198105 -17.28 
L 253.588158 -17.28 
L 252.978211 -17.28 
L 252.368264 -17.28 
L 251.758317 -17.28 
L 251.148369 -17.28 
L 250.538422 -17.28 
L 249.928475 -17.28 
L 249.318528 -17.28 
L 248.708581 -17.28 
L 248.098634 -17.28 
L 247.488686 -17.28 
L 246.878739 -17.28 
L 246.268792 -17.28 
L 245.658845 -17.28 
L 245.048898 -17.28 
L 244.438951 -17.28 
L 243.829003 -17.28 
L 243.219056 -17.28 
L 242.609109 -17.28 
L 241.999162 -17.28 
L 241.389215 -17.28 
L 240.779268 -17.28 
L 240.16932 -17.28 
L 239.559373 -17.28 
L 238.949426 -17.28 
L 238.339479 -17.28 
L 237.729532 -17.28 
L 237.119585 -17.28 
L 236.509637 -17.28 
L 235.89969 -17.28 
L 235.289743 -17.28 
L 234.679796 -17.28 
L 234.069849 -17.28 
L 233.459902 -17.28 
L 232.849954 -17.28 
L 232.240007 -17.28 
L 231.63006 -17.28 
L 231.020113 -17.28 
L 230.410166 -17.28 
L 229.800219 -17.28 
L 229.190271 -17.28 
L 228.580324 -17.28 
L 227.970377 -17.28 
L 227.36043 -17.28 
L 226.750483 -17.28 
L 226.140536 -17.28 
L 225.530588 -17.28 
L 224.920641 -17.28 
L 224.310694 -17.28 
L 223.700747 -17.28 
L 223.0908 -17.28 
L 222.480853 -17.28 
L 221.870905 -17.28 
L 221.260958 -17.28 
L 220.651011 -17.28 
L 220.041064 -17.28 
L 219.431117 -17.28 
L 218.82117 -17.28 
L 218.211222 -17.28 
L 217.601275 -17.28 
L 216.991328 -17.28 
L 216.381381 -17.28 
L 215.771434 -17.28 
L 215.161487 -17.28 
L 214.551539 -17.28 
L 213.941592 -17.28 
L 213.331645 -17.28 
L 212.721698 -17.28 
L 212.111751 -17.28 
L 211.501804 -17.28 
L 210.891856 -17.28 
L 210.281909 -17.28 
L 209.671962 -17.28 
L 209.062015 -17.28 
L 208.452068 -17.28 
L 207.842121 -17.28 
L 207.232173 -17.28 
L 206.622226 -17.28 
L 206.012279 -17.28 
L 205.402332 -17.28 
L 204.792385 -17.28 
L 204.182438 -17.28 
L 203.57249 -17.28 
L 202.962543 -17.28 
L 202.352596 -17.28 
L 201.742649 -17.28 
L 201.132702 -17.28 
L 200.522755 -17.28 
L 199.912807 -17.28 
L 199.30286 -17.28 
L 198.692913 -17.28 
L 198.082966 -17.28 
L 197.473019 -17.28 
L 196.863072 -17.28 
L 196.253124 -17.28 
L 195.643177 -17.28 
L 195.03323 -17.28 
L 194.423283 -17.28 
L 193.813336 -17.28 
L 193.203389 -17.28 
L 192.593441 -17.28 
L 191.983494 -17.28 
L 191.373547 -17.28 
L 190.7636 -17.28 
L 190.153653 -17.28 
L 189.543706 -17.28 
L 188.933758 -17.28 
L 188.323811 -17.28 
L 187.713864 -17.28 
L 187.103917 -17.28 
L 186.49397 -17.28 
L 185.884023 -17.28 
L 185.274075 -17.28 
L 184.664128 -17.28 
L 184.054181 -17.28 
L 183.444234 -17.28 
L 182.834287 -17.28 
L 182.22434 -17.28 
L 181.614392 -17.28 
L 181.004445 -17.28 
L 180.394498 -17.28 
L 179.784551 -17.28 
L 179.174604 -17.28 
L 178.564657 -17.28 
L 177.954709 -17.28 
L 177.344762 -17.28 
L 176.734815 -17.28 
L 176.124868 -17.28 
L 175.514921 -17.28 
L 174.904974 -17.28 
L 174.295026 -17.28 
L 173.685079 -17.28 
L 173.075132 -17.28 
L 172.465185 -17.28 
L 171.855238 -17.28 
L 171.245291 -17.28 
L 170.635343 -17.28 
L 170.025396 -17.28 
L 169.415449 -17.28 
L 168.805502 -17.28 
L 168.195555 -17.28 
L 167.585608 -17.28 
L 166.97566 -17.28 
L 166.365713 -17.28 
L 165.755766 -17.28 
L 165.145819 -17.28 
L 164.535872 -17.28 
L 163.925925 -17.28 
L 163.315977 -17.28 
L 162.70603 -17.28 
L 162.096083 -17.28 
L 161.486136 -17.28 
L 160.876189 -17.28 
L 160.266242 -17.28 
L 159.656294 -17.28 
L 159.046347 -17.28 
L 158.4364 -17.28 
L 157.826453 -17.28 
L 157.216506 -17.28 
L 156.606559 -17.28 
L 155.996611 -17.28 
L 155.386664 -17.28 
L 154.776717 -17.28 
L 154.16677 -17.28 
L 153.556823 -17.28 
L 152.946876 -17.28 
L 152.336928 -17.28 
L 151.726981 -17.28 
L 151.117034 -17.28 
L 150.507087 -17.28 
L 149.89714 -17.28 
L 149.287193 -17.28 
L 148.677245 -17.28 
L 148.067298 -17.28 
L 147.457351 -17.28 
L 146.847404 -17.28 
L 146.237457 -17.28 
L 145.62751 -17.28 
L 145.017562 -17.28 
L 144.407615 -17.28 
L 143.797668 -17.28 
L 143.187721 -17.28 
L 142.577774 -17.28 
L 141.967827 -17.28 
L 141.357879 -17.28 
L 140.747932 -17.28 
L 140.137985 -17.28 
L 139.528038 -17.28 
L 138.918091 -17.28 
L 138.308144 -17.28 
L 137.698196 -17.28 
L 137.088249 -17.28 
L 136.478302 -17.28 
L 135.868355 -17.28 
L 135.258408 -17.28 
L 134.648461 -17.28 
L 134.038513 -17.28 
L 133.428566 -17.28 
L 132.818619 -17.28 
L 132.208672 -17.28 
L 131.598725 -17.28 
L 130.988778 -17.28 
L 130.37883 -17.28 
L 129.768883 -17.28 
L 129.158936 -17.28 
L 128.548989 -17.28 
L 127.939042 -17.28 
L 127.329095 -17.28 
L 126.719147 -17.28 
L 126.1092 -17.28 
L 125.499253 -17.28 
L 124.889306 -17.28 
L 124.279359 -17.28 
L 123.669412 -17.28 
L 123.059464 -17.28 
L 122.449517 -17.28 
L 121.83957 -17.28 
L 121.229623 -17.28 
L 120.619676 -17.28 
L 120.009729 -17.28 
L 119.399781 -17.28 
L 118.789834 -17.28 
L 118.179887 -17.28 
L 117.56994 -17.28 
L 116.959993 -17.28 
L 116.350046 -17.28 
L 115.740098 -17.28 
L 115.130151 -17.28 
L 114.520204 -17.28 
L 113.910257 -17.28 
L 113.30031 -17.28 
L 112.690363 -17.28 
L 112.080415 -17.28 
L 111.470468 -17.28 
L 110.860521 -17.28 
L 110.250574 -17.28 
L 109.640627 -17.28 
L 109.03068 -17.28 
L 108.420732 -17.28 
L 107.810785 -17.28 
L 107.200838 -17.28 
L 106.590891 -17.28 
L 105.980944 -17.28 
L 105.370997 -17.28 
L 104.761049 -17.28 
L 104.151102 -17.28 
L 103.541155 -17.28 
L 102.931208 -17.28 
L 102.321261 -17.28 
L 101.711314 -17.28 
L 101.101366 -17.28 
L 100.491419 -17.28 
L 99.881472 -17.28 
L 99.271525 -17.28 
L 98.661578 -17.28 
L 98.051631 -17.28 
L 97.441683 -17.28 
L 96.831736 -17.28 
L 96.221789 -17.28 
L 95.611842 -17.28 
L 95.001895 -17.28 
L 94.391948 -17.28 
L 93.782 -17.28 
L 93.172053 -17.28 
L 92.562106 -17.28 
L 91.952159 -17.28 
L 91.342212 -17.28 
L 90.732265 -17.28 
L 90.122317 -17.28 
L 89.51237 -17.28 
L 88.902423 -17.28 
L 88.292476 -17.28 
L 87.682529 -17.28 
L 87.072582 -17.28 
L 86.462634 -17.28 
L 85.852687 -17.28 
L 85.24274 -17.28 
L 84.632793 -17.28 
L 84.022846 -17.28 
L 83.412899 -17.28 
L 82.802951 -17.28 
L 82.193004 -17.28 
L 81.583057 -17.28 
L 80.97311 -17.28 
L 80.363163 -17.28 
L 79.753216 -17.28 
L 79.143268 -17.28 
L 78.533321 -17.28 
L 77.923374 -17.28 
L 77.313427 -17.28 
L 76.70348 -17.28 
L 76.093533 -17.28 
L 75.483585 -17.28 
L 74.873638 -17.28 
L 74.263691 -17.28 
L 73.653744 -17.28 
L 73.043797 -17.28 
L 72.43385 -17.28 
L 71.823902 -17.28 
L 71.213955 -17.28 
L 70.604008 -17.28 
L 69.994061 -17.28 
L 69.384114 -17.28 
L 68.774167 -17.28 
L 68.164219 -17.28 
L 67.554272 -17.28 
L 66.944325 -17.28 
L 66.334378 -17.28 
L 65.724431 -17.28 
L 65.114484 -17.28 
L 64.504536 -17.28 
L 63.894589 -17.28 
L 63.284642 -17.28 
L 62.674695 -17.28 
L 62.064748 -17.28 
L 61.454801 -17.28 
L 60.844853 -17.28 
L 60.234906 -17.28 
L 59.624959 -17.28 
L 59.015012 -17.28 
L 58.405065 -17.28 
L 57.795118 -17.28 
L 57.18517 -17.28 
L 56.575223 -17.28 
L 55.965276 -17.28 
L 55.355329 -17.28 
L 54.745382 -17.28 
L 54.135435 -17.28 
L 53.525487 -17.28 
L 52.91554 -17.28 
L 52.305593 -17.28 
L 51.695646 -17.28 
L 51.085699 -17.28 
L 50.475752 -17.28 
L 49.865804 -17.28 
L 49.255857 -17.28 
L 48.64591 -17.28 
L 48.035963 -17.28 
L 47.426016 -17.28 
L 46.816069 -17.28 
L 46.206121 -17.28 
L 45.596174 -17.28 
L 44.986227 -17.28 
L 44.37628 -17.28 
L 43.766333 -17.28 
L 43.156385 -17.28 
L 42.546438 -17.28 
L 41.936491 -17.28 
L 41.326544 -17.28 
L 40.716597 -17.28 
L 40.10665 -17.28 
L 39.496702 -17.28 
L 38.886755 -17.28 
L 38.276808 -17.28 
L 37.666861 -17.28 
L 37.056914 -17.28 
L 36.446967 -17.28 
L 35.837019 -17.28 
L 35.227072 -17.28 
L 34.617125 -17.28 
L 34.007178 -17.28 
L 33.397231 -17.28 
L 32.787284 -17.28 
L 32.177336 -17.28 
L 31.567389 -17.28 
L 30.957442 -17.28 
L 30.347495 -17.28 
L 29.737548 -17.28 
L 29.127601 -17.28 
L 28.517653 -17.28 
L 27.907706 -17.28 
L 27.297759 -17.28 
L 26.687812 -17.28 
L 26.077865 -17.28 
L 25.467918 -17.28 
L 24.85797 -17.28 
L 24.248023 -17.28 
L 23.638076 -17.28 
L 23.028129 -17.28 
L 22.418182 -17.28 
z
" style="stroke: #90ee90"/>
    </defs>
    <g clip-path="url(#p5ee04544a6)">
     <use xlink:href="#m3b36fe2fde" x="0" y="236.16" style="fill: #90ee90; stroke: #90ee90"/>
    </g>
   </g>
   <g id="line2d_1">
    <path d="M 22.418182 218.795517 
L 26.077865 218.549569 
L 28.517653 218.191602 
L 30.957442 217.585931 
L 32.787284 216.912864 
L 34.617125 216.004986 
L 36.446967 214.818726 
L 38.276808 213.311244 
L 40.10665 211.442015 
L 41.936491 209.174331 
L 43.766333 206.476651 
L 45.596174 203.323755 
L 47.426016 199.69766 
L 49.255857 195.58828 
L 51.085699 190.993833 
L 53.525487 184.126071 
L 55.965276 176.447498 
L 58.405065 168.02167 
L 61.454801 156.571277 
L 65.114484 141.764886 
L 69.994061 120.920693 
L 77.313427 89.543571 
L 80.97311 74.796951 
L 84.022846 63.387136 
L 86.462634 54.977457 
L 88.902423 47.298058 
L 91.342212 40.41781 
L 93.172053 35.814851 
L 95.001895 31.708794 
L 96.831736 28.111874 
L 98.661578 25.031765 
L 100.491419 22.471784 
L 102.321261 20.431135 
L 103.541155 19.35708 
L 104.761049 18.509591 
L 105.980944 17.88575 
L 107.200838 17.482019 
L 108.420732 17.294292 
L 109.640627 17.31793 
L 110.860521 17.54781 
L 112.080415 17.978368 
L 113.30031 18.603638 
L 114.520204 19.417303 
L 116.350046 20.976456 
L 118.179887 22.921014 
L 120.009729 25.226401 
L 121.83957 27.867242 
L 124.279359 31.865359 
L 126.719147 36.351664 
L 129.158936 41.264117 
L 132.208672 47.910917 
L 135.868355 56.477371 
L 140.137985 67.048019 
L 147.457351 85.874059 
L 155.996611 107.679488 
L 160.876189 119.573015 
L 165.145819 129.465211 
L 169.415449 138.792896 
L 173.075132 146.29786 
L 176.734815 153.328638 
L 180.394498 159.875716 
L 184.054181 165.938499 
L 187.713864 171.523777 
L 191.373547 176.644298 
L 195.03323 181.317471 
L 198.692913 185.56422 
L 202.352596 189.407966 
L 206.012279 192.873757 
L 209.671962 195.987536 
L 213.331645 198.775523 
L 216.991328 201.263719 
L 220.651011 203.47751 
L 224.310694 205.441367 
L 227.970377 207.178611 
L 232.240007 208.948282 
L 236.509637 210.471967 
L 241.389215 211.950259 
L 246.268792 213.186322 
L 251.758317 214.331568 
L 257.857788 215.350898 
L 264.567207 216.223376 
L 271.886573 216.941862 
L 280.425833 217.547617 
L 290.794935 218.042576 
L 303.603826 218.414286 
L 320.682347 218.671343 
L 326.781818 218.72418 
L 326.781818 218.72418 
" clip-path="url(#p5ee04544a6)" style="fill: none; stroke: #000000; stroke-width: 5; stroke-linecap: square"/>
   </g>
  </g>
 </g>
 <defs>
  <clipPath id="p5ee04544a6">
   <rect x="7.2" y="7.2" width="334.8" height="221.76"/>
  </clipPath>
 </defs>
</svg>
