<?xml version="1.0" encoding="utf-8" standalone="no"?>
<!DOCTYPE svg PUBLIC "-//W3C//DTD SVG 1.1//EN"
  "http://www.w3.org/Graphics/SVG/1.1/DTD/svg11.dtd">
<svg xmlns:xlink="http://www.w3.org/1999/xlink" width="349.2pt" height="236.16pt" viewBox="0 0 349.2 236.16" xmlns="http://www.w3.org/2000/svg" version="1.1">
 <metadata>
  <rdf:RDF xmlns:dc="http://purl.org/dc/elements/1.1/" xmlns:cc="http://creativecommons.org/ns#" xmlns:rdf="http://www.w3.org/1999/02/22-rdf-syntax-ns#">
   <cc:Work>
    <dc:type rdf:resource="http://purl.org/dc/dcmitype/StillImage"/>
    <dc:date>2023-08-13T23:04:32.580334</dc:date>
    <dc:format>image/svg+xml</dc:format>
    <dc:creator>
     <cc:Agent>
      <dc:title>Matplotlib v3.6.2, https://matplotlib.org/</dc:title>
     </cc:Agent>
    </dc:creator>
   </cc:Work>
  </rdf:RDF>
 </metadata>
 <defs>
  <style type="text/css">*{stroke-linejoin: round; stroke-linecap: butt}</style>
 </defs>
 <g id="figure_1">
  <g id="patch_1">
   <path d="M 0 236.16 
L 349.2 236.16 
L 349.2 0 
L 0 0 
L 0 236.16 
z
" style="fill: none"/>
  </g>
  <g id="axes_1">
   <g id="PolyCollection_1">
    <defs>
     <path id="mb3704a187e" d="M 22.418182 -17.28 
L 22.418182 -17.282891 
L 23.028129 -17.283398 
L 23.638076 -17.283982 
L 24.248023 -17.284655 
L 24.85797 -17.285428 
L 25.467918 -17.286313 
L 26.077865 -17.287325 
L 26.687812 -17.288479 
L 27.297759 -17.289792 
L 27.907706 -17.291283 
L 28.517653 -17.292972 
L 29.127601 -17.294882 
L 29.737548 -17.297037 
L 30.347495 -17.299464 
L 30.957442 -17.302192 
L 31.567389 -17.305253 
L 32.177336 -17.30868 
L 32.787284 -17.312511 
L 33.397231 -17.316786 
L 34.007178 -17.321547 
L 34.617125 -17.326841 
L 35.227072 -17.332718 
L 35.837019 -17.339231 
L 36.446967 -17.346438 
L 37.056914 -17.3544 
L 37.666861 -17.363182 
L 38.276808 -17.372855 
L 38.886755 -17.383493 
L 39.496702 -17.395175 
L 40.10665 -17.407985 
L 40.716597 -17.422012 
L 41.326544 -17.437352 
L 41.936491 -17.454103 
L 42.546438 -17.472372 
L 43.156385 -17.49227 
L 43.766333 -17.513915 
L 44.37628 -17.53743 
L 44.986227 -17.562945 
L 45.596174 -17.590597 
L 46.206121 -17.620527 
L 46.816069 -17.652887 
L 47.426016 -17.687833 
L 48.035963 -17.725528 
L 48.64591 -17.766143 
L 49.255857 -17.809856 
L 49.865804 -17.856852 
L 50.475752 -17.907323 
L 51.085699 -17.961469 
L 51.695646 -18.019499 
L 52.305593 -18.081626 
L 52.91554 -18.148074 
L 53.525487 -18.219071 
L 54.135435 -18.294857 
L 54.745382 -18.375676 
L 55.355329 -18.46178 
L 55.965276 -18.553429 
L 56.575223 -18.650892 
L 57.18517 -18.754442 
L 57.795118 -18.864361 
L 58.405065 -18.980939 
L 59.015012 -19.10447 
L 59.624959 -19.235258 
L 60.234906 -19.373611 
L 60.844853 -19.519845 
L 61.454801 -19.674281 
L 62.064748 -19.837247 
L 62.674695 -20.009076 
L 63.284642 -20.190106 
L 63.894589 -20.380681 
L 64.504536 -20.581149 
L 65.114484 -20.791863 
L 65.724431 -21.01318 
L 66.334378 -21.245462 
L 66.944325 -21.489071 
L 67.554272 -21.744375 
L 68.164219 -22.011744 
L 68.774167 -22.291549 
L 69.384114 -22.584165 
L 69.994061 -22.889966 
L 70.604008 -23.209327 
L 71.213955 -23.542625 
L 71.823902 -23.890236 
L 72.43385 -24.252535 
L 73.043797 -24.629895 
L 73.653744 -25.022689 
L 74.263691 -25.431287 
L 74.873638 -25.856057 
L 75.483585 -26.297362 
L 76.093533 -26.755562 
L 76.70348 -27.231014 
L 77.313427 -27.724068 
L 77.923374 -28.235069 
L 78.533321 -28.764356 
L 79.143268 -29.312262 
L 79.753216 -29.879111 
L 80.363163 -30.465222 
L 80.97311 -31.070903 
L 81.583057 -31.696454 
L 82.193004 -32.342165 
L 82.802951 -33.008318 
L 83.412899 -33.695183 
L 84.022846 -34.403017 
L 84.632793 -35.132069 
L 85.24274 -35.882574 
L 85.852687 -36.654752 
L 86.462634 -37.448815 
L 87.072582 -38.264957 
L 87.682529 -39.10336 
L 88.292476 -39.96419 
L 88.902423 -40.8476 
L 89.51237 -41.753725 
L 90.122317 -42.682686 
L 90.732265 -43.634587 
L 91.342212 -44.609515 
L 91.952159 -45.607541 
L 92.562106 -46.628719 
L 93.172053 -47.673082 
L 93.782 -48.740649 
L 94.391948 -49.83142 
L 95.001895 -50.945374 
L 95.611842 -52.082473 
L 96.221789 -53.242662 
L 96.831736 -54.425863 
L 97.441683 -55.631981 
L 98.051631 -56.860901 
L 98.661578 -58.112489 
L 99.271525 -59.386591 
L 99.881472 -60.683032 
L 100.491419 -62.001621 
L 101.101366 -63.342142 
L 101.711314 -64.704363 
L 102.321261 -66.088032 
L 102.931208 -67.492875 
L 103.541155 -68.918601 
L 104.151102 -70.364898 
L 104.761049 -71.831434 
L 105.370997 -73.317861 
L 105.980944 -74.823807 
L 106.590891 -76.348887 
L 107.200838 -77.892691 
L 107.810785 -79.454797 
L 108.420732 -81.03476 
L 109.03068 -82.632119 
L 109.640627 -84.246396 
L 110.250574 -85.877096 
L 110.860521 -87.523705 
L 111.470468 -89.185695 
L 112.080415 -90.862522 
L 112.690363 -92.553624 
L 113.30031 -94.258425 
L 113.910257 -95.976336 
L 114.520204 -97.706751 
L 115.130151 -99.449053 
L 115.740098 -101.202608 
L 116.350046 -102.966773 
L 116.959993 -104.740891 
L 117.56994 -106.524292 
L 118.179887 -108.316298 
L 118.789834 -110.116217 
L 119.399781 -111.923351 
L 120.009729 -113.736987 
L 120.619676 -115.556409 
L 121.229623 -117.380889 
L 121.83957 -119.209692 
L 122.449517 -121.042078 
L 123.059464 -122.877297 
L 123.669412 -124.714597 
L 124.279359 -126.553218 
L 124.889306 -128.392397 
L 125.499253 -130.231367 
L 126.1092 -132.069358 
L 126.719147 -133.905595 
L 127.329095 -135.739306 
L 127.939042 -137.569713 
L 128.548989 -139.396039 
L 129.158936 -141.217507 
L 129.768883 -143.033342 
L 130.37883 -144.842768 
L 130.988778 -146.645011 
L 131.598725 -148.439302 
L 132.208672 -150.224872 
L 132.818619 -152.000958 
L 133.428566 -153.766801 
L 134.038513 -155.521644 
L 134.648461 -157.26474 
L 135.258408 -158.995345 
L 135.868355 -160.712723 
L 136.478302 -162.416143 
L 137.088249 -164.104886 
L 137.698196 -165.778237 
L 138.308144 -167.435492 
L 138.918091 -169.075955 
L 139.528038 -170.698942 
L 140.137985 -172.303776 
L 140.747932 -173.889794 
L 141.357879 -175.456343 
L 141.967827 -177.00278 
L 142.577774 -178.528476 
L 143.187721 -180.032815 
L 143.797668 -181.515191 
L 144.407615 -182.975015 
L 145.017562 -184.411708 
L 145.62751 -185.824708 
L 146.237457 -187.213465 
L 146.847404 -188.577445 
L 147.457351 -189.916129 
L 148.067298 -191.229012 
L 148.677245 -192.515606 
L 149.287193 -193.775437 
L 149.89714 -195.008049 
L 150.507087 -196.213001 
L 151.117034 -197.389868 
L 151.726981 -198.538242 
L 152.336928 -199.657733 
L 152.946876 -200.747965 
L 153.556823 -201.808582 
L 154.16677 -202.839244 
L 154.776717 -203.839627 
L 155.386664 -204.809427 
L 155.996611 -205.748355 
L 156.606559 -206.65614 
L 157.216506 -207.53253 
L 157.826453 -208.377288 
L 158.4364 -209.190197 
L 159.046347 -209.971057 
L 159.656294 -210.719684 
L 160.266242 -211.435912 
L 160.876189 -212.119593 
L 161.486136 -212.770597 
L 162.096083 -213.38881 
L 162.70603 -213.974136 
L 163.315977 -214.526496 
L 163.925925 -215.045826 
L 164.535872 -215.532082 
L 165.145819 -215.985235 
L 165.755766 -216.405272 
L 166.365713 -216.792198 
L 166.97566 -217.146032 
L 167.585608 -217.466812 
L 168.195555 -217.754589 
L 168.805502 -218.009431 
L 169.415449 -218.231422 
L 170.025396 -218.420658 
L 170.635343 -218.577253 
L 171.245291 -218.701336 
L 171.855238 -218.793048 
L 172.465185 -218.852546 
L 173.075132 -218.88 
L 173.685079 -218.875594 
L 174.295026 -218.839525 
L 174.904974 -218.772003 
L 175.514921 -218.673252 
L 176.124868 -218.543508 
L 176.734815 -218.383016 
L 177.344762 -218.192038 
L 177.954709 -217.970845 
L 178.564657 -217.719718 
L 179.174604 -217.438951 
L 179.784551 -217.128847 
L 180.394498 -216.789721 
L 181.004445 -216.421897 
L 181.614392 -216.025707 
L 182.22434 -215.601496 
L 182.834287 -215.149614 
L 183.444234 -214.670423 
L 184.054181 -214.16429 
L 184.664128 -213.631592 
L 185.274075 -213.072714 
L 185.884023 -212.488046 
L 186.49397 -211.877987 
L 187.103917 -211.242943 
L 187.713864 -210.583323 
L 188.323811 -209.899545 
L 188.933758 -209.192033 
L 189.543706 -208.461212 
L 190.153653 -207.707518 
L 190.7636 -206.931386 
L 191.373547 -206.133258 
L 191.983494 -205.313581 
L 192.593441 -204.472804 
L 193.203389 -203.611379 
L 193.813336 -202.729761 
L 194.423283 -201.82841 
L 195.03323 -200.907786 
L 195.643177 -199.968352 
L 196.253124 -199.010572 
L 196.863072 -198.034913 
L 197.473019 -197.041843 
L 198.082966 -196.03183 
L 198.692913 -195.005342 
L 199.30286 -193.96285 
L 199.912807 -192.904823 
L 200.522755 -191.831731 
L 201.132702 -190.744042 
L 201.742649 -189.642226 
L 202.352596 -188.52675 
L 202.962543 -187.39808 
L 203.57249 -186.256682 
L 204.182438 -185.103019 
L 204.792385 -183.937553 
L 205.402332 -182.760744 
L 206.012279 -181.57305 
L 206.622226 -180.374925 
L 207.232173 -179.166821 
L 207.842121 -177.949189 
L 208.452068 -176.722475 
L 209.062015 -175.487122 
L 209.671962 -174.24357 
L 210.281909 -172.992255 
L 210.891856 -171.733611 
L 211.501804 -170.468065 
L 212.111751 -169.196043 
L 212.721698 -167.917964 
L 213.331645 -166.634246 
L 213.941592 -165.345299 
L 214.551539 -164.051531 
L 215.161487 -162.753343 
L 215.771434 -161.451135 
L 216.381381 -160.145297 
L 216.991328 -158.836217 
L 217.601275 -157.524279 
L 218.211222 -156.209857 
L 218.82117 -154.893325 
L 219.431117 -153.575048 
L 220.041064 -152.255387 
L 220.651011 -150.934696 
L 221.260958 -149.613326 
L 221.870905 -148.29162 
L 222.480853 -146.969915 
L 223.0908 -145.648544 
L 223.700747 -144.327832 
L 224.310694 -143.0081 
L 224.920641 -141.689661 
L 225.530588 -140.372824 
L 226.140536 -139.05789 
L 226.750483 -137.745156 
L 227.36043 -136.434911 
L 227.970377 -135.127439 
L 228.580324 -133.823017 
L 229.190271 -132.521917 
L 229.800219 -131.224403 
L 230.410166 -129.930736 
L 231.020113 -128.641167 
L 231.63006 -127.355943 
L 232.240007 -126.075305 
L 232.849954 -124.799488 
L 233.459902 -123.528719 
L 234.069849 -122.26322 
L 234.679796 -121.003209 
L 235.289743 -119.748894 
L 235.89969 -118.50048 
L 236.509637 -117.258165 
L 237.119585 -116.022141 
L 237.729532 -114.792594 
L 238.339479 -113.569704 
L 238.949426 -112.353646 
L 239.559373 -111.144589 
L 240.16932 -109.942695 
L 240.779268 -108.748121 
L 241.389215 -107.561019 
L 241.999162 -106.381534 
L 242.609109 -105.209808 
L 243.219056 -104.045976 
L 243.829003 -102.890165 
L 244.438951 -101.742502 
L 245.048898 -100.603103 
L 245.658845 -99.472084 
L 246.268792 -98.349553 
L 246.878739 -97.235611 
L 247.488686 -96.130359 
L 248.098634 -95.033889 
L 248.708581 -93.94629 
L 249.318528 -92.867645 
L 249.928475 -91.798032 
L 250.538422 -90.737527 
L 251.148369 -89.686198 
L 251.758317 -88.64411 
L 252.368264 -87.611324 
L 252.978211 -86.587897 
L 253.588158 -85.573879 
L 254.198105 -84.569318 
L 254.808052 -83.574258 
L 255.418 -82.588738 
L 256.027947 -81.612793 
L 256.637894 -80.646455 
L 257.247841 -79.689751 
L 257.857788 -78.742706 
L 258.467735 -77.805338 
L 259.077683 -76.877665 
L 259.68763 -75.9597 
L 260.297577 -75.051452 
L 260.907524 -74.152928 
L 261.517471 -73.264129 
L 262.127418 -72.385056 
L 262.737366 -71.515706 
L 263.347313 -70.656071 
L 263.95726 -69.806142 
L 264.567207 -68.965906 
L 265.177154 -68.135349 
L 265.787101 -67.314452 
L 266.397049 -66.503195 
L 267.006996 -65.701553 
L 267.616943 -64.909502 
L 268.22689 -64.127012 
L 268.836837 -63.354053 
L 269.446784 -62.590592 
L 270.056732 -61.836594 
L 270.666679 -61.092021 
L 271.276626 -60.356833 
L 271.886573 -59.630988 
L 272.49652 -58.914444 
L 273.106467 -58.207154 
L 273.716415 -57.509072 
L 274.326362 -56.820147 
L 274.936309 -56.140329 
L 275.546256 -55.469566 
L 276.156203 -54.807804 
L 276.76615 -54.154986 
L 277.376098 -53.511056 
L 277.986045 -52.875956 
L 278.595992 -52.249625 
L 279.205939 -51.632002 
L 279.815886 -51.023026 
L 280.425833 -50.422632 
L 281.035781 -49.830756 
L 281.645728 -49.247333 
L 282.255675 -48.672296 
L 282.865622 -48.105576 
L 283.475569 -47.547107 
L 284.085516 -46.996818 
L 284.695464 -46.454639 
L 285.305411 -45.920499 
L 285.915358 -45.394327 
L 286.525305 -44.876051 
L 287.135252 -44.365598 
L 287.745199 -43.862893 
L 288.355147 -43.367864 
L 288.965094 -42.880436 
L 289.575041 -42.400534 
L 290.184988 -41.928083 
L 290.794935 -41.463008 
L 291.404882 -41.005231 
L 292.01483 -40.554678 
L 292.624777 -40.111272 
L 293.234724 -39.674935 
L 293.844671 -39.245592 
L 294.454618 -38.823166 
L 295.064565 -38.407578 
L 295.674513 -37.998753 
L 296.28446 -37.596614 
L 296.894407 -37.201082 
L 297.504354 -36.812081 
L 298.114301 -36.429533 
L 298.724248 -36.053363 
L 299.334196 -35.683492 
L 299.944143 -35.319845 
L 300.55409 -34.962344 
L 301.164037 -34.610913 
L 301.773984 -34.265477 
L 302.383931 -33.925958 
L 302.993879 -33.592281 
L 303.603826 -33.264372 
L 304.213773 -32.942154 
L 304.82372 -32.625553 
L 305.433667 -32.314495 
L 306.043615 -32.008904 
L 306.653562 -31.708709 
L 307.263509 -31.413834 
L 307.873456 -31.124208 
L 308.483403 -30.839757 
L 309.09335 -30.56041 
L 309.703298 -30.286095 
L 310.313245 -30.016741 
L 310.923192 -29.752276 
L 311.533139 -29.492632 
L 312.143086 -29.237738 
L 312.753033 -28.987524 
L 313.362981 -28.741923 
L 313.972928 -28.500866 
L 314.582875 -28.264285 
L 315.192822 -28.032115 
L 315.802769 -27.804287 
L 316.412716 -27.580736 
L 317.022664 -27.361397 
L 317.632611 -27.146206 
L 318.242558 -26.935098 
L 318.852505 -26.728009 
L 319.462452 -26.524876 
L 320.072399 -26.325638 
L 320.682347 -26.130233 
L 321.292294 -25.9386 
L 321.902241 -25.750677 
L 322.512188 -25.566406 
L 323.122135 -25.385727 
L 323.732082 -25.208582 
L 324.34203 -25.034912 
L 324.951977 -24.864661 
L 325.561924 -24.697772 
L 326.171871 -24.534189 
L 326.781818 -24.373856 
L 326.781818 -17.28 
L 326.781818 -17.28 
L 326.171871 -17.28 
L 325.561924 -17.28 
L 324.951977 -17.28 
L 324.34203 -17.28 
L 323.732082 -17.28 
L 323.122135 -17.28 
L 322.512188 -17.28 
L 321.902241 -17.28 
L 321.292294 -17.28 
L 320.682347 -17.28 
L 320.072399 -17.28 
L 319.462452 -17.28 
L 318.852505 -17.28 
L 318.242558 -17.28 
L 317.632611 -17.28 
L 317.022664 -17.28 
L 316.412716 -17.28 
L 315.802769 -17.28 
L 315.192822 -17.28 
L 314.582875 -17.28 
L 313.972928 -17.28 
L 313.362981 -17.28 
L 312.753033 -17.28 
L 312.143086 -17.28 
L 311.533139 -17.28 
L 310.923192 -17.28 
L 310.313245 -17.28 
L 309.703298 -17.28 
L 309.09335 -17.28 
L 308.483403 -17.28 
L 307.873456 -17.28 
L 307.263509 -17.28 
L 306.653562 -17.28 
L 306.043615 -17.28 
L 305.433667 -17.28 
L 304.82372 -17.28 
L 304.213773 -17.28 
L 303.603826 -17.28 
L 302.993879 -17.28 
L 302.383931 -17.28 
L 301.773984 -17.28 
L 301.164037 -17.28 
L 300.55409 -17.28 
L 299.944143 -17.28 
L 299.334196 -17.28 
L 298.724248 -17.28 
L 298.114301 -17.28 
L 297.504354 -17.28 
L 296.894407 -17.28 
L 296.28446 -17.28 
L 295.674513 -17.28 
L 295.064565 -17.28 
L 294.454618 -17.28 
L 293.844671 -17.28 
L 293.234724 -17.28 
L 292.624777 -17.28 
L 292.01483 -17.28 
L 291.404882 -17.28 
L 290.794935 -17.28 
L 290.184988 -17.28 
L 289.575041 -17.28 
L 288.965094 -17.28 
L 288.355147 -17.28 
L 287.745199 -17.28 
L 287.135252 -17.28 
L 286.525305 -17.28 
L 285.915358 -17.28 
L 285.305411 -17.28 
L 284.695464 -17.28 
L 284.085516 -17.28 
L 283.475569 -17.28 
L 282.865622 -17.28 
L 282.255675 -17.28 
L 281.645728 -17.28 
L 281.035781 -17.28 
L 280.425833 -17.28 
L 279.815886 -17.28 
L 279.205939 -17.28 
L 278.595992 -17.28 
L 277.986045 -17.28 
L 277.376098 -17.28 
L 276.76615 -17.28 
L 276.156203 -17.28 
L 275.546256 -17.28 
L 274.936309 -17.28 
L 274.326362 -17.28 
L 273.716415 -17.28 
L 273.106467 -17.28 
L 272.49652 -17.28 
L 271.886573 -17.28 
L 271.276626 -17.28 
L 270.666679 -17.28 
L 270.056732 -17.28 
L 269.446784 -17.28 
L 268.836837 -17.28 
L 268.22689 -17.28 
L 267.616943 -17.28 
L 267.006996 -17.28 
L 266.397049 -17.28 
L 265.787101 -17.28 
L 265.177154 -17.28 
L 264.567207 -17.28 
L 263.95726 -17.28 
L 263.347313 -17.28 
L 262.737366 -17.28 
L 262.127418 -17.28 
L 261.517471 -17.28 
L 260.907524 -17.28 
L 260.297577 -17.28 
L 259.68763 -17.28 
L 259.077683 -17.28 
L 258.467735 -17.28 
L 257.857788 -17.28 
L 257.247841 -17.28 
L 256.637894 -17.28 
L 256.027947 -17.28 
L 255.418 -17.28 
L 254.808052 -17.28 
L 254.198105 -17.28 
L 253.588158 -17.28 
L 252.978211 -17.28 
L 252.368264 -17.28 
L 251.758317 -17.28 
L 251.148369 -17.28 
L 250.538422 -17.28 
L 249.928475 -17.28 
L 249.318528 -17.28 
L 248.708581 -17.28 
L 248.098634 -17.28 
L 247.488686 -17.28 
L 246.878739 -17.28 
L 246.268792 -17.28 
L 245.658845 -17.28 
L 245.048898 -17.28 
L 244.438951 -17.28 
L 243.829003 -17.28 
L 243.219056 -17.28 
L 242.609109 -17.28 
L 241.999162 -17.28 
L 241.389215 -17.28 
L 240.779268 -17.28 
L 240.16932 -17.28 
L 239.559373 -17.28 
L 238.949426 -17.28 
L 238.339479 -17.28 
L 237.729532 -17.28 
L 237.119585 -17.28 
L 236.509637 -17.28 
L 235.89969 -17.28 
L 235.289743 -17.28 
L 234.679796 -17.28 
L 234.069849 -17.28 
L 233.459902 -17.28 
L 232.849954 -17.28 
L 232.240007 -17.28 
L 231.63006 -17.28 
L 231.020113 -17.28 
L 230.410166 -17.28 
L 229.800219 -17.28 
L 229.190271 -17.28 
L 228.580324 -17.28 
L 227.970377 -17.28 
L 227.36043 -17.28 
L 226.750483 -17.28 
L 226.140536 -17.28 
L 225.530588 -17.28 
L 224.920641 -17.28 
L 224.310694 -17.28 
L 223.700747 -17.28 
L 223.0908 -17.28 
L 222.480853 -17.28 
L 221.870905 -17.28 
L 221.260958 -17.28 
L 220.651011 -17.28 
L 220.041064 -17.28 
L 219.431117 -17.28 
L 218.82117 -17.28 
L 218.211222 -17.28 
L 217.601275 -17.28 
L 216.991328 -17.28 
L 216.381381 -17.28 
L 215.771434 -17.28 
L 215.161487 -17.28 
L 214.551539 -17.28 
L 213.941592 -17.28 
L 213.331645 -17.28 
L 212.721698 -17.28 
L 212.111751 -17.28 
L 211.501804 -17.28 
L 210.891856 -17.28 
L 210.281909 -17.28 
L 209.671962 -17.28 
L 209.062015 -17.28 
L 208.452068 -17.28 
L 207.842121 -17.28 
L 207.232173 -17.28 
L 206.622226 -17.28 
L 206.012279 -17.28 
L 205.402332 -17.28 
L 204.792385 -17.28 
L 204.182438 -17.28 
L 203.57249 -17.28 
L 202.962543 -17.28 
L 202.352596 -17.28 
L 201.742649 -17.28 
L 201.132702 -17.28 
L 200.522755 -17.28 
L 199.912807 -17.28 
L 199.30286 -17.28 
L 198.692913 -17.28 
L 198.082966 -17.28 
L 197.473019 -17.28 
L 196.863072 -17.28 
L 196.253124 -17.28 
L 195.643177 -17.28 
L 195.03323 -17.28 
L 194.423283 -17.28 
L 193.813336 -17.28 
L 193.203389 -17.28 
L 192.593441 -17.28 
L 191.983494 -17.28 
L 191.373547 -17.28 
L 190.7636 -17.28 
L 190.153653 -17.28 
L 189.543706 -17.28 
L 188.933758 -17.28 
L 188.323811 -17.28 
L 187.713864 -17.28 
L 187.103917 -17.28 
L 186.49397 -17.28 
L 185.884023 -17.28 
L 185.274075 -17.28 
L 184.664128 -17.28 
L 184.054181 -17.28 
L 183.444234 -17.28 
L 182.834287 -17.28 
L 182.22434 -17.28 
L 181.614392 -17.28 
L 181.004445 -17.28 
L 180.394498 -17.28 
L 179.784551 -17.28 
L 179.174604 -17.28 
L 178.564657 -17.28 
L 177.954709 -17.28 
L 177.344762 -17.28 
L 176.734815 -17.28 
L 176.124868 -17.28 
L 175.514921 -17.28 
L 174.904974 -17.28 
L 174.295026 -17.28 
L 173.685079 -17.28 
L 173.075132 -17.28 
L 172.465185 -17.28 
L 171.855238 -17.28 
L 171.245291 -17.28 
L 170.635343 -17.28 
L 170.025396 -17.28 
L 169.415449 -17.28 
L 168.805502 -17.28 
L 168.195555 -17.28 
L 167.585608 -17.28 
L 166.97566 -17.28 
L 166.365713 -17.28 
L 165.755766 -17.28 
L 165.145819 -17.28 
L 164.535872 -17.28 
L 163.925925 -17.28 
L 163.315977 -17.28 
L 162.70603 -17.28 
L 162.096083 -17.28 
L 161.486136 -17.28 
L 160.876189 -17.28 
L 160.266242 -17.28 
L 159.656294 -17.28 
L 159.046347 -17.28 
L 158.4364 -17.28 
L 157.826453 -17.28 
L 157.216506 -17.28 
L 156.606559 -17.28 
L 155.996611 -17.28 
L 155.386664 -17.28 
L 154.776717 -17.28 
L 154.16677 -17.28 
L 153.556823 -17.28 
L 152.946876 -17.28 
L 152.336928 -17.28 
L 151.726981 -17.28 
L 151.117034 -17.28 
L 150.507087 -17.28 
L 149.89714 -17.28 
L 149.287193 -17.28 
L 148.677245 -17.28 
L 148.067298 -17.28 
L 147.457351 -17.28 
L 146.847404 -17.28 
L 146.237457 -17.28 
L 145.62751 -17.28 
L 145.017562 -17.28 
L 144.407615 -17.28 
L 143.797668 -17.28 
L 143.187721 -17.28 
L 142.577774 -17.28 
L 141.967827 -17.28 
L 141.357879 -17.28 
L 140.747932 -17.28 
L 140.137985 -17.28 
L 139.528038 -17.28 
L 138.918091 -17.28 
L 138.308144 -17.28 
L 137.698196 -17.28 
L 137.088249 -17.28 
L 136.478302 -17.28 
L 135.868355 -17.28 
L 135.258408 -17.28 
L 134.648461 -17.28 
L 134.038513 -17.28 
L 133.428566 -17.28 
L 132.818619 -17.28 
L 132.208672 -17.28 
L 131.598725 -17.28 
L 130.988778 -17.28 
L 130.37883 -17.28 
L 129.768883 -17.28 
L 129.158936 -17.28 
L 128.548989 -17.28 
L 127.939042 -17.28 
L 127.329095 -17.28 
L 126.719147 -17.28 
L 126.1092 -17.28 
L 125.499253 -17.28 
L 124.889306 -17.28 
L 124.279359 -17.28 
L 123.669412 -17.28 
L 123.059464 -17.28 
L 122.449517 -17.28 
L 121.83957 -17.28 
L 121.229623 -17.28 
L 120.619676 -17.28 
L 120.009729 -17.28 
L 119.399781 -17.28 
L 118.789834 -17.28 
L 118.179887 -17.28 
L 117.56994 -17.28 
L 116.959993 -17.28 
L 116.350046 -17.28 
L 115.740098 -17.28 
L 115.130151 -17.28 
L 114.520204 -17.28 
L 113.910257 -17.28 
L 113.30031 -17.28 
L 112.690363 -17.28 
L 112.080415 -17.28 
L 111.470468 -17.28 
L 110.860521 -17.28 
L 110.250574 -17.28 
L 109.640627 -17.28 
L 109.03068 -17.28 
L 108.420732 -17.28 
L 107.810785 -17.28 
L 107.200838 -17.28 
L 106.590891 -17.28 
L 105.980944 -17.28 
L 105.370997 -17.28 
L 104.761049 -17.28 
L 104.151102 -17.28 
L 103.541155 -17.28 
L 102.931208 -17.28 
L 102.321261 -17.28 
L 101.711314 -17.28 
L 101.101366 -17.28 
L 100.491419 -17.28 
L 99.881472 -17.28 
L 99.271525 -17.28 
L 98.661578 -17.28 
L 98.051631 -17.28 
L 97.441683 -17.28 
L 96.831736 -17.28 
L 96.221789 -17.28 
L 95.611842 -17.28 
L 95.001895 -17.28 
L 94.391948 -17.28 
L 93.782 -17.28 
L 93.172053 -17.28 
L 92.562106 -17.28 
L 91.952159 -17.28 
L 91.342212 -17.28 
L 90.732265 -17.28 
L 90.122317 -17.28 
L 89.51237 -17.28 
L 88.902423 -17.28 
L 88.292476 -17.28 
L 87.682529 -17.28 
L 87.072582 -17.28 
L 86.462634 -17.28 
L 85.852687 -17.28 
L 85.24274 -17.28 
L 84.632793 -17.28 
L 84.022846 -17.28 
L 83.412899 -17.28 
L 82.802951 -17.28 
L 82.193004 -17.28 
L 81.583057 -17.28 
L 80.97311 -17.28 
L 80.363163 -17.28 
L 79.753216 -17.28 
L 79.143268 -17.28 
L 78.533321 -17.28 
L 77.923374 -17.28 
L 77.313427 -17.28 
L 76.70348 -17.28 
L 76.093533 -17.28 
L 75.483585 -17.28 
L 74.873638 -17.28 
L 74.263691 -17.28 
L 73.653744 -17.28 
L 73.043797 -17.28 
L 72.43385 -17.28 
L 71.823902 -17.28 
L 71.213955 -17.28 
L 70.604008 -17.28 
L 69.994061 -17.28 
L 69.384114 -17.28 
L 68.774167 -17.28 
L 68.164219 -17.28 
L 67.554272 -17.28 
L 66.944325 -17.28 
L 66.334378 -17.28 
L 65.724431 -17.28 
L 65.114484 -17.28 
L 64.504536 -17.28 
L 63.894589 -17.28 
L 63.284642 -17.28 
L 62.674695 -17.28 
L 62.064748 -17.28 
L 61.454801 -17.28 
L 60.844853 -17.28 
L 60.234906 -17.28 
L 59.624959 -17.28 
L 59.015012 -17.28 
L 58.405065 -17.28 
L 57.795118 -17.28 
L 57.18517 -17.28 
L 56.575223 -17.28 
L 55.965276 -17.28 
L 55.355329 -17.28 
L 54.745382 -17.28 
L 54.135435 -17.28 
L 53.525487 -17.28 
L 52.91554 -17.28 
L 52.305593 -17.28 
L 51.695646 -17.28 
L 51.085699 -17.28 
L 50.475752 -17.28 
L 49.865804 -17.28 
L 49.255857 -17.28 
L 48.64591 -17.28 
L 48.035963 -17.28 
L 47.426016 -17.28 
L 46.816069 -17.28 
L 46.206121 -17.28 
L 45.596174 -17.28 
L 44.986227 -17.28 
L 44.37628 -17.28 
L 43.766333 -17.28 
L 43.156385 -17.28 
L 42.546438 -17.28 
L 41.936491 -17.28 
L 41.326544 -17.28 
L 40.716597 -17.28 
L 40.10665 -17.28 
L 39.496702 -17.28 
L 38.886755 -17.28 
L 38.276808 -17.28 
L 37.666861 -17.28 
L 37.056914 -17.28 
L 36.446967 -17.28 
L 35.837019 -17.28 
L 35.227072 -17.28 
L 34.617125 -17.28 
L 34.007178 -17.28 
L 33.397231 -17.28 
L 32.787284 -17.28 
L 32.177336 -17.28 
L 31.567389 -17.28 
L 30.957442 -17.28 
L 30.347495 -17.28 
L 29.737548 -17.28 
L 29.127601 -17.28 
L 28.517653 -17.28 
L 27.907706 -17.28 
L 27.297759 -17.28 
L 26.687812 -17.28 
L 26.077865 -17.28 
L 25.467918 -17.28 
L 24.85797 -17.28 
L 24.248023 -17.28 
L 23.638076 -17.28 
L 23.028129 -17.28 
L 22.418182 -17.28 
z
" style="stroke: #90ee90"/>
    </defs>
    <g clip-path="url(#p2e9c885bca)">
     <use xlink:href="#mb3704a187e" x="0" y="236.16" style="fill: #90ee90; stroke: #90ee90"/>
    </g>
   </g>
   <g id="line2d_1">
    <path d="M 22.418182 218.877109 
L 40.10665 218.752015 
L 46.816069 218.507113 
L 51.695646 218.140501 
L 55.965276 217.606571 
L 59.624959 216.924742 
L 62.674695 216.150924 
L 65.724431 215.14682 
L 68.774167 213.868451 
L 71.213955 212.617375 
L 73.653744 211.137311 
L 76.093533 209.404438 
L 78.533321 207.395644 
L 80.97311 205.089097 
L 83.412899 202.464817 
L 85.852687 199.505248 
L 88.292476 196.19581 
L 90.732265 192.525413 
L 93.172053 188.486918 
L 95.611842 184.077527 
L 98.661578 178.047511 
L 101.711314 171.455637 
L 104.761049 164.328566 
L 108.420732 155.12524 
L 112.080415 145.297478 
L 116.350046 133.193227 
L 122.449517 115.117922 
L 133.428566 82.393199 
L 137.698196 70.381763 
L 141.357879 60.703657 
L 144.407615 53.184985 
L 147.457351 46.243871 
L 149.89714 41.151951 
L 152.336928 36.502267 
L 154.776717 32.320373 
L 157.216506 28.62747 
L 159.046347 26.188943 
L 160.876189 24.040407 
L 162.70603 22.185864 
L 164.535872 20.627918 
L 166.365713 19.367802 
L 168.195555 18.405411 
L 170.025396 17.739342 
L 171.855238 17.366952 
L 173.685079 17.284406 
L 175.514921 17.486748 
L 177.344762 17.967962 
L 179.174604 18.721049 
L 181.004445 19.738103 
L 182.834287 21.010386 
L 184.664128 22.528408 
L 186.49397 24.282013 
L 188.933758 26.967967 
L 191.373547 30.026742 
L 193.813336 33.430239 
L 196.863072 38.125087 
L 199.912807 43.255177 
L 203.57249 49.903318 
L 207.842121 58.210811 
L 212.721698 68.242036 
L 220.041064 83.904613 
L 232.240007 110.084695 
L 238.339479 122.590296 
L 243.219056 132.114024 
L 248.098634 141.126111 
L 252.368264 148.548676 
L 256.637894 155.513545 
L 260.907524 162.007072 
L 264.567207 167.194094 
L 268.22689 172.032988 
L 271.886573 176.529012 
L 275.546256 180.690434 
L 279.205939 184.527998 
L 282.865622 188.054424 
L 286.525305 191.283949 
L 290.184988 194.231917 
L 293.844671 196.914408 
L 297.504354 199.347919 
L 301.164037 201.549087 
L 305.433667 203.845505 
L 309.703298 205.873905 
L 313.972928 207.659134 
L 318.242558 209.224902 
L 323.122135 210.774273 
L 326.781818 211.786144 
L 326.781818 211.786144 
" clip-path="url(#p2e9c885bca)" style="fill: none; stroke: #000000; stroke-width: 5; stroke-linecap: square"/>
   </g>
  </g>
 </g>
 <defs>
  <clipPath id="p2e9c885bca">
   <rect x="7.2" y="7.2" width="334.8" height="221.76"/>
  </clipPath>
 </defs>
</svg>
