<?xml version="1.0" encoding="utf-8" standalone="no"?>
<!DOCTYPE svg PUBLIC "-//W3C//DTD SVG 1.1//EN"
  "http://www.w3.org/Graphics/SVG/1.1/DTD/svg11.dtd">
<svg xmlns:xlink="http://www.w3.org/1999/xlink" width="349.2pt" height="236.16pt" viewBox="0 0 349.2 236.16" xmlns="http://www.w3.org/2000/svg" version="1.1">
 <metadata>
  <rdf:RDF xmlns:dc="http://purl.org/dc/elements/1.1/" xmlns:cc="http://creativecommons.org/ns#" xmlns:rdf="http://www.w3.org/1999/02/22-rdf-syntax-ns#">
   <cc:Work>
    <dc:type rdf:resource="http://purl.org/dc/dcmitype/StillImage"/>
    <dc:date>2023-08-13T23:04:32.526844</dc:date>
    <dc:format>image/svg+xml</dc:format>
    <dc:creator>
     <cc:Agent>
      <dc:title>Matplotlib v3.6.2, https://matplotlib.org/</dc:title>
     </cc:Agent>
    </dc:creator>
   </cc:Work>
  </rdf:RDF>
 </metadata>
 <defs>
  <style type="text/css">*{stroke-linejoin: round; stroke-linecap: butt}</style>
 </defs>
 <g id="figure_1">
  <g id="patch_1">
   <path d="M 0 236.16 
L 349.2 236.16 
L 349.2 0 
L 0 0 
L 0 236.16 
z
" style="fill: none"/>
  </g>
  <g id="axes_1">
   <g id="PolyCollection_1">
    <defs>
     <path id="m3cc92b6572" d="M 22.418182 -17.28 
L 22.418182 -17.28 
L 23.028129 -17.280107 
L 23.638076 -17.281639 
L 24.248023 -17.287969 
L 24.85797 -17.304197 
L 25.467918 -17.336754 
L 26.077865 -17.393062 
L 26.687812 -17.481231 
L 27.297759 -17.609805 
L 27.907706 -17.787529 
L 28.517653 -18.023163 
L 29.127601 -18.325317 
L 29.737548 -18.702315 
L 30.347495 -19.162077 
L 30.957442 -19.712034 
L 31.567389 -20.359044 
L 32.177336 -21.109343 
L 32.787284 -21.968494 
L 33.397231 -22.941365 
L 34.007178 -24.032101 
L 34.617125 -25.244122 
L 35.227072 -26.580119 
L 35.837019 -28.042061 
L 36.446967 -29.63121 
L 37.056914 -31.348135 
L 37.666861 -33.192741 
L 38.276808 -35.164292 
L 38.886755 -37.261442 
L 39.496702 -39.482266 
L 40.10665 -41.824296 
L 40.716597 -44.284555 
L 41.326544 -46.859592 
L 41.936491 -49.545524 
L 42.546438 -52.338068 
L 43.156385 -55.232579 
L 43.766333 -58.224089 
L 44.37628 -61.30734 
L 44.986227 -64.476821 
L 45.596174 -67.726803 
L 46.206121 -71.051369 
L 46.816069 -74.444452 
L 47.426016 -77.899857 
L 48.035963 -81.411301 
L 48.64591 -84.972432 
L 49.255857 -88.576861 
L 49.865804 -92.218185 
L 50.475752 -95.890009 
L 51.085699 -99.585974 
L 51.695646 -103.299772 
L 52.305593 -107.025166 
L 52.91554 -110.75601 
L 53.525487 -114.486266 
L 54.135435 -118.210016 
L 54.745382 -121.921475 
L 55.355329 -125.615008 
L 55.965276 -129.285138 
L 56.575223 -132.926556 
L 57.18517 -136.534129 
L 57.795118 -140.102911 
L 58.405065 -143.628144 
L 59.015012 -147.105268 
L 59.624959 -150.529925 
L 60.234906 -153.897961 
L 60.844853 -157.205429 
L 61.454801 -160.448591 
L 62.064748 -163.623922 
L 62.674695 -166.728105 
L 63.284642 -169.758036 
L 63.894589 -172.71082 
L 64.504536 -175.58377 
L 65.114484 -178.374407 
L 65.724431 -181.080455 
L 66.334378 -183.699841 
L 66.944325 -186.230688 
L 67.554272 -188.671315 
L 68.164219 -191.02023 
L 68.774167 -193.276129 
L 69.384114 -195.437888 
L 69.994061 -197.504559 
L 70.604008 -199.475369 
L 71.213955 -201.349709 
L 71.823902 -203.127131 
L 72.43385 -204.807344 
L 73.043797 -206.390207 
L 73.653744 -207.875723 
L 74.263691 -209.264036 
L 74.873638 -210.555421 
L 75.483585 -211.75028 
L 76.093533 -212.84914 
L 76.70348 -213.85264 
L 77.313427 -214.761533 
L 77.923374 -215.576674 
L 78.533321 -216.299017 
L 79.143268 -216.929611 
L 79.753216 -217.469593 
L 80.363163 -217.920181 
L 80.97311 -218.282672 
L 81.583057 -218.558433 
L 82.193004 -218.7489 
L 82.802951 -218.855571 
L 83.412899 -218.88 
L 84.022846 -218.823794 
L 84.632793 -218.688609 
L 85.24274 -218.476142 
L 85.852687 -218.188132 
L 86.462634 -217.82635 
L 87.072582 -217.3926 
L 87.682529 -216.888712 
L 88.292476 -216.316538 
L 88.902423 -215.677953 
L 89.51237 -214.974844 
L 90.122317 -214.209113 
L 90.732265 -213.382671 
L 91.342212 -212.497434 
L 91.952159 -211.555323 
L 92.562106 -210.558258 
L 93.172053 -209.508158 
L 93.782 -208.406938 
L 94.391948 -207.256505 
L 95.001895 -206.058755 
L 95.611842 -204.815574 
L 96.221789 -203.528836 
L 96.831736 -202.200397 
L 97.441683 -200.832095 
L 98.051631 -199.425753 
L 98.661578 -197.983169 
L 99.271525 -196.506121 
L 99.881472 -194.996362 
L 100.491419 -193.455624 
L 101.101366 -191.885608 
L 101.711314 -190.287991 
L 102.321261 -188.664422 
L 102.931208 -187.01652 
L 103.541155 -185.345875 
L 104.151102 -183.654046 
L 104.761049 -181.942561 
L 105.370997 -180.212917 
L 105.980944 -178.466578 
L 106.590891 -176.704976 
L 107.200838 -174.929509 
L 107.810785 -173.141543 
L 108.420732 -171.34241 
L 109.03068 -169.533408 
L 109.640627 -167.715801 
L 110.250574 -165.890819 
L 110.860521 -164.05966 
L 111.470468 -162.223484 
L 112.080415 -160.383423 
L 112.690363 -158.540569 
L 113.30031 -156.695985 
L 113.910257 -154.850698 
L 114.520204 -153.005704 
L 115.130151 -151.161963 
L 115.740098 -149.320406 
L 116.350046 -147.481929 
L 116.959993 -145.647397 
L 117.56994 -143.817644 
L 118.179887 -141.993471 
L 118.789834 -140.175651 
L 119.399781 -138.364923 
L 120.009729 -136.562 
L 120.619676 -134.767562 
L 121.229623 -132.982263 
L 121.83957 -131.206727 
L 122.449517 -129.44155 
L 123.059464 -127.687301 
L 123.669412 -125.944523 
L 124.279359 -124.21373 
L 124.889306 -122.495414 
L 125.499253 -120.790038 
L 126.1092 -119.098042 
L 126.719147 -117.419843 
L 127.329095 -115.755832 
L 127.939042 -114.106379 
L 128.548989 -112.471831 
L 129.158936 -110.852512 
L 129.768883 -109.248726 
L 130.37883 -107.660757 
L 130.988778 -106.088866 
L 131.598725 -104.533297 
L 132.208672 -102.994274 
L 132.818619 -101.472002 
L 133.428566 -99.966669 
L 134.038513 -98.478445 
L 134.648461 -97.007483 
L 135.258408 -95.55392 
L 135.868355 -94.117876 
L 136.478302 -92.699458 
L 137.088249 -91.298757 
L 137.698196 -89.915849 
L 138.308144 -88.550796 
L 138.918091 -87.203649 
L 139.528038 -85.874443 
L 140.137985 -84.563204 
L 140.747932 -83.269943 
L 141.357879 -81.994662 
L 141.967827 -80.737351 
L 142.577774 -79.497988 
L 143.187721 -78.276544 
L 143.797668 -77.072977 
L 144.407615 -75.887239 
L 145.017562 -74.719271 
L 145.62751 -73.569005 
L 146.237457 -72.436367 
L 146.847404 -71.321274 
L 147.457351 -70.223636 
L 148.067298 -69.143355 
L 148.677245 -68.080328 
L 149.287193 -67.034445 
L 149.89714 -66.005589 
L 150.507087 -64.993639 
L 151.117034 -63.998467 
L 151.726981 -63.019943 
L 152.336928 -62.057928 
L 152.946876 -61.112282 
L 153.556823 -60.182859 
L 154.16677 -59.26951 
L 154.776717 -58.372082 
L 155.386664 -57.490418 
L 155.996611 -56.62436 
L 156.606559 -55.773744 
L 157.216506 -54.938406 
L 157.826453 -54.118178 
L 158.4364 -53.312891 
L 159.046347 -52.522372 
L 159.656294 -51.746449 
L 160.266242 -50.984946 
L 160.876189 -50.237686 
L 161.486136 -49.504492 
L 162.096083 -48.785185 
L 162.70603 -48.079584 
L 163.315977 -47.38751 
L 163.925925 -46.70878 
L 164.535872 -46.043214 
L 165.145819 -45.390629 
L 165.755766 -44.750843 
L 166.365713 -44.123675 
L 166.97566 -43.50894 
L 167.585608 -42.906459 
L 168.195555 -42.316048 
L 168.805502 -41.737527 
L 169.415449 -41.170716 
L 170.025396 -40.615433 
L 170.635343 -40.0715 
L 171.245291 -39.538737 
L 171.855238 -39.016968 
L 172.465185 -38.506015 
L 173.075132 -38.005702 
L 173.685079 -37.515855 
L 174.295026 -37.036301 
L 174.904974 -36.566867 
L 175.514921 -36.107383 
L 176.124868 -35.657678 
L 176.734815 -35.217585 
L 177.344762 -34.786936 
L 177.954709 -34.365568 
L 178.564657 -33.953315 
L 179.174604 -33.550017 
L 179.784551 -33.155512 
L 180.394498 -32.769642 
L 181.004445 -32.39225 
L 181.614392 -32.02318 
L 182.22434 -31.662279 
L 182.834287 -31.309395 
L 183.444234 -30.964378 
L 184.054181 -30.62708 
L 184.664128 -30.297354 
L 185.274075 -29.975056 
L 185.884023 -29.660043 
L 186.49397 -29.352175 
L 187.103917 -29.051312 
L 187.713864 -28.757317 
L 188.323811 -28.470056 
L 188.933758 -28.189394 
L 189.543706 -27.915201 
L 190.153653 -27.647347 
L 190.7636 -27.385704 
L 191.373547 -27.130148 
L 191.983494 -26.880553 
L 192.593441 -26.636799 
L 193.203389 -26.398765 
L 193.813336 -26.166333 
L 194.423283 -25.939387 
L 195.03323 -25.717812 
L 195.643177 -25.501496 
L 196.253124 -25.290329 
L 196.863072 -25.084201 
L 197.473019 -24.883006 
L 198.082966 -24.686638 
L 198.692913 -24.494993 
L 199.30286 -24.307971 
L 199.912807 -24.125471 
L 200.522755 -23.947395 
L 201.132702 -23.773647 
L 201.742649 -23.604132 
L 202.352596 -23.438757 
L 202.962543 -23.277431 
L 203.57249 -23.120064 
L 204.182438 -22.966569 
L 204.792385 -22.816858 
L 205.402332 -22.670848 
L 206.012279 -22.528454 
L 206.622226 -22.389597 
L 207.232173 -22.254195 
L 207.842121 -22.12217 
L 208.452068 -21.993445 
L 209.062015 -21.867945 
L 209.671962 -21.745596 
L 210.281909 -21.626325 
L 210.891856 -21.510061 
L 211.501804 -21.396735 
L 212.111751 -21.286278 
L 212.721698 -21.178624 
L 213.331645 -21.073706 
L 213.941592 -20.971461 
L 214.551539 -20.871827 
L 215.161487 -20.77474 
L 215.771434 -20.680142 
L 216.381381 -20.587972 
L 216.991328 -20.498174 
L 217.601275 -20.41069 
L 218.211222 -20.325466 
L 218.82117 -20.242446 
L 219.431117 -20.161579 
L 220.041064 -20.082811 
L 220.651011 -20.006093 
L 221.260958 -19.931374 
L 221.870905 -19.858606 
L 222.480853 -19.787742 
L 223.0908 -19.718734 
L 223.700747 -19.651538 
L 224.310694 -19.586108 
L 224.920641 -19.522402 
L 225.530588 -19.460376 
L 226.140536 -19.39999 
L 226.750483 -19.341202 
L 227.36043 -19.283973 
L 227.970377 -19.228264 
L 228.580324 -19.174036 
L 229.190271 -19.121254 
L 229.800219 -19.06988 
L 230.410166 -19.01988 
L 231.020113 -18.971218 
L 231.63006 -18.923861 
L 232.240007 -18.877775 
L 232.849954 -18.83293 
L 233.459902 -18.789292 
L 234.069849 -18.746831 
L 234.679796 -18.705518 
L 235.289743 -18.665322 
L 235.89969 -18.626216 
L 236.509637 -18.58817 
L 237.119585 -18.551159 
L 237.729532 -18.515155 
L 238.339479 -18.480132 
L 238.949426 -18.446065 
L 239.559373 -18.412929 
L 240.16932 -18.3807 
L 240.779268 -18.349355 
L 241.389215 -18.318869 
L 241.999162 -18.289221 
L 242.609109 -18.26039 
L 243.219056 -18.232352 
L 243.829003 -18.205088 
L 244.438951 -18.178578 
L 245.048898 -18.1528 
L 245.658845 -18.127737 
L 246.268792 -18.103369 
L 246.878739 -18.079678 
L 247.488686 -18.056645 
L 248.098634 -18.034254 
L 248.708581 -18.012486 
L 249.318528 -17.991327 
L 249.928475 -17.970758 
L 250.538422 -17.950765 
L 251.148369 -17.931332 
L 251.758317 -17.912444 
L 252.368264 -17.894087 
L 252.978211 -17.876245 
L 253.588158 -17.858906 
L 254.198105 -17.842055 
L 254.808052 -17.82568 
L 255.418 -17.809767 
L 256.027947 -17.794304 
L 256.637894 -17.779279 
L 257.247841 -17.764679 
L 257.857788 -17.750494 
L 258.467735 -17.736712 
L 259.077683 -17.723322 
L 259.68763 -17.710312 
L 260.297577 -17.697674 
L 260.907524 -17.685396 
L 261.517471 -17.673468 
L 262.127418 -17.661882 
L 262.737366 -17.650627 
L 263.347313 -17.639695 
L 263.95726 -17.629076 
L 264.567207 -17.618762 
L 265.177154 -17.608744 
L 265.787101 -17.599015 
L 266.397049 -17.589566 
L 267.006996 -17.580389 
L 267.616943 -17.571477 
L 268.22689 -17.562822 
L 268.836837 -17.554418 
L 269.446784 -17.546256 
L 270.056732 -17.538332 
L 270.666679 -17.530636 
L 271.276626 -17.523165 
L 271.886573 -17.51591 
L 272.49652 -17.508867 
L 273.106467 -17.502028 
L 273.716415 -17.495389 
L 274.326362 -17.488943 
L 274.936309 -17.482685 
L 275.546256 -17.47661 
L 276.156203 -17.470713 
L 276.76615 -17.464989 
L 277.376098 -17.459432 
L 277.986045 -17.454038 
L 278.595992 -17.448802 
L 279.205939 -17.44372 
L 279.815886 -17.438788 
L 280.425833 -17.434001 
L 281.035781 -17.429354 
L 281.645728 -17.424845 
L 282.255675 -17.420469 
L 282.865622 -17.416222 
L 283.475569 -17.4121 
L 284.085516 -17.4081 
L 284.695464 -17.404219 
L 285.305411 -17.400453 
L 285.915358 -17.396798 
L 286.525305 -17.393252 
L 287.135252 -17.389811 
L 287.745199 -17.386473 
L 288.355147 -17.383234 
L 288.965094 -17.380091 
L 289.575041 -17.377042 
L 290.184988 -17.374084 
L 290.794935 -17.371214 
L 291.404882 -17.368429 
L 292.01483 -17.365728 
L 292.624777 -17.363108 
L 293.234724 -17.360567 
L 293.844671 -17.358101 
L 294.454618 -17.355709 
L 295.064565 -17.353389 
L 295.674513 -17.351139 
L 296.28446 -17.348956 
L 296.894407 -17.34684 
L 297.504354 -17.344786 
L 298.114301 -17.342795 
L 298.724248 -17.340863 
L 299.334196 -17.33899 
L 299.944143 -17.337174 
L 300.55409 -17.335412 
L 301.164037 -17.333703 
L 301.773984 -17.332047 
L 302.383931 -17.33044 
L 302.993879 -17.328882 
L 303.603826 -17.327371 
L 304.213773 -17.325906 
L 304.82372 -17.324486 
L 305.433667 -17.323108 
L 306.043615 -17.321773 
L 306.653562 -17.320478 
L 307.263509 -17.319223 
L 307.873456 -17.318006 
L 308.483403 -17.316826 
L 309.09335 -17.315681 
L 309.703298 -17.314572 
L 310.313245 -17.313497 
L 310.923192 -17.312455 
L 311.533139 -17.311444 
L 312.143086 -17.310464 
L 312.753033 -17.309515 
L 313.362981 -17.308594 
L 313.972928 -17.307702 
L 314.582875 -17.306837 
L 315.192822 -17.305999 
L 315.802769 -17.305186 
L 316.412716 -17.304398 
L 317.022664 -17.303635 
L 317.632611 -17.302895 
L 318.242558 -17.302178 
L 318.852505 -17.301483 
L 319.462452 -17.300809 
L 320.072399 -17.300156 
L 320.682347 -17.299524 
L 321.292294 -17.298911 
L 321.902241 -17.298316 
L 322.512188 -17.297741 
L 323.122135 -17.297183 
L 323.732082 -17.296642 
L 324.34203 -17.296118 
L 324.951977 -17.29561 
L 325.561924 -17.295118 
L 326.171871 -17.294641 
L 326.781818 -17.29418 
L 326.781818 -17.28 
L 326.781818 -17.28 
L 326.171871 -17.28 
L 325.561924 -17.28 
L 324.951977 -17.28 
L 324.34203 -17.28 
L 323.732082 -17.28 
L 323.122135 -17.28 
L 322.512188 -17.28 
L 321.902241 -17.28 
L 321.292294 -17.28 
L 320.682347 -17.28 
L 320.072399 -17.28 
L 319.462452 -17.28 
L 318.852505 -17.28 
L 318.242558 -17.28 
L 317.632611 -17.28 
L 317.022664 -17.28 
L 316.412716 -17.28 
L 315.802769 -17.28 
L 315.192822 -17.28 
L 314.582875 -17.28 
L 313.972928 -17.28 
L 313.362981 -17.28 
L 312.753033 -17.28 
L 312.143086 -17.28 
L 311.533139 -17.28 
L 310.923192 -17.28 
L 310.313245 -17.28 
L 309.703298 -17.28 
L 309.09335 -17.28 
L 308.483403 -17.28 
L 307.873456 -17.28 
L 307.263509 -17.28 
L 306.653562 -17.28 
L 306.043615 -17.28 
L 305.433667 -17.28 
L 304.82372 -17.28 
L 304.213773 -17.28 
L 303.603826 -17.28 
L 302.993879 -17.28 
L 302.383931 -17.28 
L 301.773984 -17.28 
L 301.164037 -17.28 
L 300.55409 -17.28 
L 299.944143 -17.28 
L 299.334196 -17.28 
L 298.724248 -17.28 
L 298.114301 -17.28 
L 297.504354 -17.28 
L 296.894407 -17.28 
L 296.28446 -17.28 
L 295.674513 -17.28 
L 295.064565 -17.28 
L 294.454618 -17.28 
L 293.844671 -17.28 
L 293.234724 -17.28 
L 292.624777 -17.28 
L 292.01483 -17.28 
L 291.404882 -17.28 
L 290.794935 -17.28 
L 290.184988 -17.28 
L 289.575041 -17.28 
L 288.965094 -17.28 
L 288.355147 -17.28 
L 287.745199 -17.28 
L 287.135252 -17.28 
L 286.525305 -17.28 
L 285.915358 -17.28 
L 285.305411 -17.28 
L 284.695464 -17.28 
L 284.085516 -17.28 
L 283.475569 -17.28 
L 282.865622 -17.28 
L 282.255675 -17.28 
L 281.645728 -17.28 
L 281.035781 -17.28 
L 280.425833 -17.28 
L 279.815886 -17.28 
L 279.205939 -17.28 
L 278.595992 -17.28 
L 277.986045 -17.28 
L 277.376098 -17.28 
L 276.76615 -17.28 
L 276.156203 -17.28 
L 275.546256 -17.28 
L 274.936309 -17.28 
L 274.326362 -17.28 
L 273.716415 -17.28 
L 273.106467 -17.28 
L 272.49652 -17.28 
L 271.886573 -17.28 
L 271.276626 -17.28 
L 270.666679 -17.28 
L 270.056732 -17.28 
L 269.446784 -17.28 
L 268.836837 -17.28 
L 268.22689 -17.28 
L 267.616943 -17.28 
L 267.006996 -17.28 
L 266.397049 -17.28 
L 265.787101 -17.28 
L 265.177154 -17.28 
L 264.567207 -17.28 
L 263.95726 -17.28 
L 263.347313 -17.28 
L 262.737366 -17.28 
L 262.127418 -17.28 
L 261.517471 -17.28 
L 260.907524 -17.28 
L 260.297577 -17.28 
L 259.68763 -17.28 
L 259.077683 -17.28 
L 258.467735 -17.28 
L 257.857788 -17.28 
L 257.247841 -17.28 
L 256.637894 -17.28 
L 256.027947 -17.28 
L 255.418 -17.28 
L 254.808052 -17.28 
L 254.198105 -17.28 
L 253.588158 -17.28 
L 252.978211 -17.28 
L 252.368264 -17.28 
L 251.758317 -17.28 
L 251.148369 -17.28 
L 250.538422 -17.28 
L 249.928475 -17.28 
L 249.318528 -17.28 
L 248.708581 -17.28 
L 248.098634 -17.28 
L 247.488686 -17.28 
L 246.878739 -17.28 
L 246.268792 -17.28 
L 245.658845 -17.28 
L 245.048898 -17.28 
L 244.438951 -17.28 
L 243.829003 -17.28 
L 243.219056 -17.28 
L 242.609109 -17.28 
L 241.999162 -17.28 
L 241.389215 -17.28 
L 240.779268 -17.28 
L 240.16932 -17.28 
L 239.559373 -17.28 
L 238.949426 -17.28 
L 238.339479 -17.28 
L 237.729532 -17.28 
L 237.119585 -17.28 
L 236.509637 -17.28 
L 235.89969 -17.28 
L 235.289743 -17.28 
L 234.679796 -17.28 
L 234.069849 -17.28 
L 233.459902 -17.28 
L 232.849954 -17.28 
L 232.240007 -17.28 
L 231.63006 -17.28 
L 231.020113 -17.28 
L 230.410166 -17.28 
L 229.800219 -17.28 
L 229.190271 -17.28 
L 228.580324 -17.28 
L 227.970377 -17.28 
L 227.36043 -17.28 
L 226.750483 -17.28 
L 226.140536 -17.28 
L 225.530588 -17.28 
L 224.920641 -17.28 
L 224.310694 -17.28 
L 223.700747 -17.28 
L 223.0908 -17.28 
L 222.480853 -17.28 
L 221.870905 -17.28 
L 221.260958 -17.28 
L 220.651011 -17.28 
L 220.041064 -17.28 
L 219.431117 -17.28 
L 218.82117 -17.28 
L 218.211222 -17.28 
L 217.601275 -17.28 
L 216.991328 -17.28 
L 216.381381 -17.28 
L 215.771434 -17.28 
L 215.161487 -17.28 
L 214.551539 -17.28 
L 213.941592 -17.28 
L 213.331645 -17.28 
L 212.721698 -17.28 
L 212.111751 -17.28 
L 211.501804 -17.28 
L 210.891856 -17.28 
L 210.281909 -17.28 
L 209.671962 -17.28 
L 209.062015 -17.28 
L 208.452068 -17.28 
L 207.842121 -17.28 
L 207.232173 -17.28 
L 206.622226 -17.28 
L 206.012279 -17.28 
L 205.402332 -17.28 
L 204.792385 -17.28 
L 204.182438 -17.28 
L 203.57249 -17.28 
L 202.962543 -17.28 
L 202.352596 -17.28 
L 201.742649 -17.28 
L 201.132702 -17.28 
L 200.522755 -17.28 
L 199.912807 -17.28 
L 199.30286 -17.28 
L 198.692913 -17.28 
L 198.082966 -17.28 
L 197.473019 -17.28 
L 196.863072 -17.28 
L 196.253124 -17.28 
L 195.643177 -17.28 
L 195.03323 -17.28 
L 194.423283 -17.28 
L 193.813336 -17.28 
L 193.203389 -17.28 
L 192.593441 -17.28 
L 191.983494 -17.28 
L 191.373547 -17.28 
L 190.7636 -17.28 
L 190.153653 -17.28 
L 189.543706 -17.28 
L 188.933758 -17.28 
L 188.323811 -17.28 
L 187.713864 -17.28 
L 187.103917 -17.28 
L 186.49397 -17.28 
L 185.884023 -17.28 
L 185.274075 -17.28 
L 184.664128 -17.28 
L 184.054181 -17.28 
L 183.444234 -17.28 
L 182.834287 -17.28 
L 182.22434 -17.28 
L 181.614392 -17.28 
L 181.004445 -17.28 
L 180.394498 -17.28 
L 179.784551 -17.28 
L 179.174604 -17.28 
L 178.564657 -17.28 
L 177.954709 -17.28 
L 177.344762 -17.28 
L 176.734815 -17.28 
L 176.124868 -17.28 
L 175.514921 -17.28 
L 174.904974 -17.28 
L 174.295026 -17.28 
L 173.685079 -17.28 
L 173.075132 -17.28 
L 172.465185 -17.28 
L 171.855238 -17.28 
L 171.245291 -17.28 
L 170.635343 -17.28 
L 170.025396 -17.28 
L 169.415449 -17.28 
L 168.805502 -17.28 
L 168.195555 -17.28 
L 167.585608 -17.28 
L 166.97566 -17.28 
L 166.365713 -17.28 
L 165.755766 -17.28 
L 165.145819 -17.28 
L 164.535872 -17.28 
L 163.925925 -17.28 
L 163.315977 -17.28 
L 162.70603 -17.28 
L 162.096083 -17.28 
L 161.486136 -17.28 
L 160.876189 -17.28 
L 160.266242 -17.28 
L 159.656294 -17.28 
L 159.046347 -17.28 
L 158.4364 -17.28 
L 157.826453 -17.28 
L 157.216506 -17.28 
L 156.606559 -17.28 
L 155.996611 -17.28 
L 155.386664 -17.28 
L 154.776717 -17.28 
L 154.16677 -17.28 
L 153.556823 -17.28 
L 152.946876 -17.28 
L 152.336928 -17.28 
L 151.726981 -17.28 
L 151.117034 -17.28 
L 150.507087 -17.28 
L 149.89714 -17.28 
L 149.287193 -17.28 
L 148.677245 -17.28 
L 148.067298 -17.28 
L 147.457351 -17.28 
L 146.847404 -17.28 
L 146.237457 -17.28 
L 145.62751 -17.28 
L 145.017562 -17.28 
L 144.407615 -17.28 
L 143.797668 -17.28 
L 143.187721 -17.28 
L 142.577774 -17.28 
L 141.967827 -17.28 
L 141.357879 -17.28 
L 140.747932 -17.28 
L 140.137985 -17.28 
L 139.528038 -17.28 
L 138.918091 -17.28 
L 138.308144 -17.28 
L 137.698196 -17.28 
L 137.088249 -17.28 
L 136.478302 -17.28 
L 135.868355 -17.28 
L 135.258408 -17.28 
L 134.648461 -17.28 
L 134.038513 -17.28 
L 133.428566 -17.28 
L 132.818619 -17.28 
L 132.208672 -17.28 
L 131.598725 -17.28 
L 130.988778 -17.28 
L 130.37883 -17.28 
L 129.768883 -17.28 
L 129.158936 -17.28 
L 128.548989 -17.28 
L 127.939042 -17.28 
L 127.329095 -17.28 
L 126.719147 -17.28 
L 126.1092 -17.28 
L 125.499253 -17.28 
L 124.889306 -17.28 
L 124.279359 -17.28 
L 123.669412 -17.28 
L 123.059464 -17.28 
L 122.449517 -17.28 
L 121.83957 -17.28 
L 121.229623 -17.28 
L 120.619676 -17.28 
L 120.009729 -17.28 
L 119.399781 -17.28 
L 118.789834 -17.28 
L 118.179887 -17.28 
L 117.56994 -17.28 
L 116.959993 -17.28 
L 116.350046 -17.28 
L 115.740098 -17.28 
L 115.130151 -17.28 
L 114.520204 -17.28 
L 113.910257 -17.28 
L 113.30031 -17.28 
L 112.690363 -17.28 
L 112.080415 -17.28 
L 111.470468 -17.28 
L 110.860521 -17.28 
L 110.250574 -17.28 
L 109.640627 -17.28 
L 109.03068 -17.28 
L 108.420732 -17.28 
L 107.810785 -17.28 
L 107.200838 -17.28 
L 106.590891 -17.28 
L 105.980944 -17.28 
L 105.370997 -17.28 
L 104.761049 -17.28 
L 104.151102 -17.28 
L 103.541155 -17.28 
L 102.931208 -17.28 
L 102.321261 -17.28 
L 101.711314 -17.28 
L 101.101366 -17.28 
L 100.491419 -17.28 
L 99.881472 -17.28 
L 99.271525 -17.28 
L 98.661578 -17.28 
L 98.051631 -17.28 
L 97.441683 -17.28 
L 96.831736 -17.28 
L 96.221789 -17.28 
L 95.611842 -17.28 
L 95.001895 -17.28 
L 94.391948 -17.28 
L 93.782 -17.28 
L 93.172053 -17.28 
L 92.562106 -17.28 
L 91.952159 -17.28 
L 91.342212 -17.28 
L 90.732265 -17.28 
L 90.122317 -17.28 
L 89.51237 -17.28 
L 88.902423 -17.28 
L 88.292476 -17.28 
L 87.682529 -17.28 
L 87.072582 -17.28 
L 86.462634 -17.28 
L 85.852687 -17.28 
L 85.24274 -17.28 
L 84.632793 -17.28 
L 84.022846 -17.28 
L 83.412899 -17.28 
L 82.802951 -17.28 
L 82.193004 -17.28 
L 81.583057 -17.28 
L 80.97311 -17.28 
L 80.363163 -17.28 
L 79.753216 -17.28 
L 79.143268 -17.28 
L 78.533321 -17.28 
L 77.923374 -17.28 
L 77.313427 -17.28 
L 76.70348 -17.28 
L 76.093533 -17.28 
L 75.483585 -17.28 
L 74.873638 -17.28 
L 74.263691 -17.28 
L 73.653744 -17.28 
L 73.043797 -17.28 
L 72.43385 -17.28 
L 71.823902 -17.28 
L 71.213955 -17.28 
L 70.604008 -17.28 
L 69.994061 -17.28 
L 69.384114 -17.28 
L 68.774167 -17.28 
L 68.164219 -17.28 
L 67.554272 -17.28 
L 66.944325 -17.28 
L 66.334378 -17.28 
L 65.724431 -17.28 
L 65.114484 -17.28 
L 64.504536 -17.28 
L 63.894589 -17.28 
L 63.284642 -17.28 
L 62.674695 -17.28 
L 62.064748 -17.28 
L 61.454801 -17.28 
L 60.844853 -17.28 
L 60.234906 -17.28 
L 59.624959 -17.28 
L 59.015012 -17.28 
L 58.405065 -17.28 
L 57.795118 -17.28 
L 57.18517 -17.28 
L 56.575223 -17.28 
L 55.965276 -17.28 
L 55.355329 -17.28 
L 54.745382 -17.28 
L 54.135435 -17.28 
L 53.525487 -17.28 
L 52.91554 -17.28 
L 52.305593 -17.28 
L 51.695646 -17.28 
L 51.085699 -17.28 
L 50.475752 -17.28 
L 49.865804 -17.28 
L 49.255857 -17.28 
L 48.64591 -17.28 
L 48.035963 -17.28 
L 47.426016 -17.28 
L 46.816069 -17.28 
L 46.206121 -17.28 
L 45.596174 -17.28 
L 44.986227 -17.28 
L 44.37628 -17.28 
L 43.766333 -17.28 
L 43.156385 -17.28 
L 42.546438 -17.28 
L 41.936491 -17.28 
L 41.326544 -17.28 
L 40.716597 -17.28 
L 40.10665 -17.28 
L 39.496702 -17.28 
L 38.886755 -17.28 
L 38.276808 -17.28 
L 37.666861 -17.28 
L 37.056914 -17.28 
L 36.446967 -17.28 
L 35.837019 -17.28 
L 35.227072 -17.28 
L 34.617125 -17.28 
L 34.007178 -17.28 
L 33.397231 -17.28 
L 32.787284 -17.28 
L 32.177336 -17.28 
L 31.567389 -17.28 
L 30.957442 -17.28 
L 30.347495 -17.28 
L 29.737548 -17.28 
L 29.127601 -17.28 
L 28.517653 -17.28 
L 27.907706 -17.28 
L 27.297759 -17.28 
L 26.687812 -17.28 
L 26.077865 -17.28 
L 25.467918 -17.28 
L 24.85797 -17.28 
L 24.248023 -17.28 
L 23.638076 -17.28 
L 23.028129 -17.28 
L 22.418182 -17.28 
z
" style="stroke: #90ee90"/>
    </defs>
    <g clip-path="url(#p63b8eefa2f)">
     <use xlink:href="#m3cc92b6572" x="0" y="236.16" style="fill: #90ee90; stroke: #90ee90"/>
    </g>
   </g>
   <g id="line2d_1">
    <path d="M 22.418182 218.88 
L 25.467918 218.823246 
L 27.297759 218.550195 
L 28.517653 218.136837 
L 29.737548 217.457685 
L 30.957442 216.447966 
L 32.177336 215.050657 
L 33.397231 213.218635 
L 34.617125 210.915878 
L 35.837019 208.117939 
L 37.056914 204.811865 
L 38.276808 200.995708 
L 40.10665 194.335704 
L 41.936491 186.614476 
L 43.766333 177.935911 
L 46.206121 165.108631 
L 49.255857 147.583139 
L 60.844853 78.954571 
L 63.284642 66.401964 
L 65.724431 55.079545 
L 67.554272 47.488685 
L 69.384114 40.722112 
L 71.213955 34.810291 
L 73.043797 29.769793 
L 74.873638 25.604579 
L 76.093533 23.31086 
L 77.313427 21.398467 
L 78.533321 19.860983 
L 79.753216 18.690407 
L 80.97311 17.877328 
L 82.193004 17.4111 
L 83.412899 17.28 
L 84.632793 17.471391 
L 85.852687 17.971868 
L 87.072582 18.7674 
L 88.292476 19.843462 
L 89.51237 21.185156 
L 90.732265 22.777329 
L 92.562106 25.601742 
L 94.391948 28.903495 
L 96.221789 32.631164 
L 98.661578 38.176831 
L 101.101366 44.274392 
L 104.151102 52.505954 
L 107.810785 63.018457 
L 114.520204 83.154296 
L 121.83957 104.953273 
L 126.719147 118.740157 
L 130.988778 130.071134 
L 134.648461 139.152517 
L 138.308144 147.609204 
L 141.357879 154.165338 
L 144.407615 160.272761 
L 147.457351 165.936364 
L 150.507087 171.166361 
L 153.556823 175.977141 
L 156.606559 180.386256 
L 159.656294 184.413551 
L 162.70603 188.080416 
L 165.755766 191.409157 
L 168.805502 194.422473 
L 171.855238 197.143032 
L 174.904974 199.593133 
L 177.954709 201.794432 
L 181.614392 204.13682 
L 185.274075 206.184944 
L 188.933758 207.970606 
L 192.593441 209.523201 
L 196.863072 211.075799 
L 201.132702 212.386353 
L 206.012279 213.631546 
L 210.891856 214.649939 
L 216.381381 215.572028 
L 222.480853 216.372258 
L 229.800219 217.09012 
L 238.339479 217.679868 
L 248.098634 218.125746 
L 260.907524 218.474604 
L 278.595992 218.711198 
L 307.263509 218.840777 
L 326.781818 218.86582 
L 326.781818 218.86582 
" clip-path="url(#p63b8eefa2f)" style="fill: none; stroke: #000000; stroke-width: 5; stroke-linecap: square"/>
   </g>
  </g>
 </g>
 <defs>
  <clipPath id="p63b8eefa2f">
   <rect x="7.2" y="7.2" width="334.8" height="221.76"/>
  </clipPath>
 </defs>
</svg>
