<?xml version="1.0" encoding="utf-8" standalone="no"?>
<!DOCTYPE svg PUBLIC "-//W3C//DTD SVG 1.1//EN"
  "http://www.w3.org/Graphics/SVG/1.1/DTD/svg11.dtd">
<svg xmlns:xlink="http://www.w3.org/1999/xlink" width="349.2pt" height="236.16pt" viewBox="0 0 349.2 236.16" xmlns="http://www.w3.org/2000/svg" version="1.1">
 <metadata>
  <rdf:RDF xmlns:dc="http://purl.org/dc/elements/1.1/" xmlns:cc="http://creativecommons.org/ns#" xmlns:rdf="http://www.w3.org/1999/02/22-rdf-syntax-ns#">
   <cc:Work>
    <dc:type rdf:resource="http://purl.org/dc/dcmitype/StillImage"/>
    <dc:date>2023-08-13T23:04:38.429836</dc:date>
    <dc:format>image/svg+xml</dc:format>
    <dc:creator>
     <cc:Agent>
      <dc:title>Matplotlib v3.6.2, https://matplotlib.org/</dc:title>
     </cc:Agent>
    </dc:creator>
   </cc:Work>
  </rdf:RDF>
 </metadata>
 <defs>
  <style type="text/css">*{stroke-linejoin: round; stroke-linecap: butt}</style>
 </defs>
 <g id="figure_1">
  <g id="patch_1">
   <path d="M 0 236.16 
L 349.2 236.16 
L 349.2 0 
L 0 0 
L 0 236.16 
z
" style="fill: none"/>
  </g>
  <g id="axes_1">
   <g id="PolyCollection_1">
    <defs>
     <path id="m0e063617ba" d="M 22.418182 -17.28 
L 22.418182 -17.744054 
L 23.028129 -17.838428 
L 23.638076 -17.947194 
L 24.248023 -18.071792 
L 24.85797 -18.21372 
L 25.467918 -18.374529 
L 26.077865 -18.555812 
L 26.687812 -18.759204 
L 27.297759 -18.986372 
L 27.907706 -19.239008 
L 28.517653 -19.518824 
L 29.127601 -19.827545 
L 29.737548 -20.166898 
L 30.347495 -20.538611 
L 30.957442 -20.944398 
L 31.567389 -21.385958 
L 32.177336 -21.864965 
L 32.787284 -22.38306 
L 33.397231 -22.941846 
L 34.007178 -23.542879 
L 34.617125 -24.187662 
L 35.227072 -24.87764 
L 35.837019 -25.614193 
L 36.446967 -26.398627 
L 37.056914 -27.232174 
L 37.666861 -28.115983 
L 38.276808 -29.051116 
L 38.886755 -30.038544 
L 39.496702 -31.079142 
L 40.10665 -32.173685 
L 40.716597 -33.322848 
L 41.326544 -34.527199 
L 41.936491 -35.787198 
L 42.546438 -37.103196 
L 43.156385 -38.475431 
L 43.766333 -39.904031 
L 44.37628 -41.389008 
L 44.986227 -42.93026 
L 45.596174 -44.527572 
L 46.206121 -46.180614 
L 46.816069 -47.888945 
L 47.426016 -49.65201 
L 48.035963 -51.469143 
L 48.64591 -53.33957 
L 49.255857 -55.26241 
L 49.865804 -57.236676 
L 50.475752 -59.26128 
L 51.085699 -61.335035 
L 51.695646 -63.456655 
L 52.305593 -65.624765 
L 52.91554 -67.837896 
L 53.525487 -70.094497 
L 54.135435 -72.392932 
L 54.745382 -74.731489 
L 55.355329 -77.10838 
L 55.965276 -79.52175 
L 56.575223 -81.969677 
L 57.18517 -84.450179 
L 57.795118 -86.961215 
L 58.405065 -89.500696 
L 59.015012 -92.066483 
L 59.624959 -94.656396 
L 60.234906 -97.268217 
L 60.844853 -99.899694 
L 61.454801 -102.548546 
L 62.064748 -105.212468 
L 62.674695 -107.889137 
L 63.284642 -110.576214 
L 63.894589 -113.271347 
L 64.504536 -115.972182 
L 65.114484 -118.67636 
L 65.724431 -121.381525 
L 66.334378 -124.085327 
L 66.944325 -126.785426 
L 67.554272 -129.479496 
L 68.164219 -132.16523 
L 68.774167 -134.840341 
L 69.384114 -137.502567 
L 69.994061 -140.149676 
L 70.604008 -142.779464 
L 71.213955 -145.389765 
L 71.823902 -147.978449 
L 72.43385 -150.543425 
L 73.043797 -153.082647 
L 73.653744 -155.594113 
L 74.263691 -158.07587 
L 74.873638 -160.526012 
L 75.483585 -162.942689 
L 76.093533 -165.324102 
L 76.70348 -167.668507 
L 77.313427 -169.97422 
L 77.923374 -172.239612 
L 78.533321 -174.463118 
L 79.143268 -176.64323 
L 79.753216 -178.778504 
L 80.363163 -180.86756 
L 80.97311 -182.90908 
L 81.583057 -184.90181 
L 82.193004 -186.844563 
L 82.802951 -188.736215 
L 83.412899 -190.575708 
L 84.022846 -192.36205 
L 84.632793 -194.094315 
L 85.24274 -195.771642 
L 85.852687 -197.393235 
L 86.462634 -198.958363 
L 87.072582 -200.466359 
L 87.682529 -201.916623 
L 88.292476 -203.308616 
L 88.902423 -204.641861 
L 89.51237 -205.915946 
L 90.122317 -207.130519 
L 90.732265 -208.285287 
L 91.342212 -209.38002 
L 91.952159 -210.414543 
L 92.562106 -211.388739 
L 93.172053 -212.302551 
L 93.782 -213.155971 
L 94.391948 -213.94905 
L 95.001895 -214.681888 
L 95.611842 -215.35464 
L 96.221789 -215.967507 
L 96.831736 -216.520741 
L 97.441683 -217.01464 
L 98.051631 -217.449549 
L 98.661578 -217.825856 
L 99.271525 -218.143992 
L 99.881472 -218.404429 
L 100.491419 -218.60768 
L 101.101366 -218.754295 
L 101.711314 -218.844861 
L 102.321261 -218.88 
L 102.931208 -218.860368 
L 103.541155 -218.786654 
L 104.151102 -218.659576 
L 104.761049 -218.479881 
L 105.370997 -218.248346 
L 105.980944 -217.965771 
L 106.590891 -217.632983 
L 107.200838 -217.250831 
L 107.810785 -216.820186 
L 108.420732 -216.341938 
L 109.03068 -215.816998 
L 109.640627 -215.246294 
L 110.250574 -214.630768 
L 110.860521 -213.971379 
L 111.470468 -213.269097 
L 112.080415 -212.524907 
L 112.690363 -211.739803 
L 113.30031 -210.914788 
L 113.910257 -210.050874 
L 114.520204 -209.149081 
L 115.130151 -208.210433 
L 115.740098 -207.23596 
L 116.350046 -206.226696 
L 116.959993 -205.183677 
L 117.56994 -204.107941 
L 118.179887 -203.000525 
L 118.789834 -201.862467 
L 119.399781 -200.694804 
L 120.009729 -199.49857 
L 120.619676 -198.274796 
L 121.229623 -197.024509 
L 121.83957 -195.74873 
L 122.449517 -194.448477 
L 123.059464 -193.124758 
L 123.669412 -191.778578 
L 124.279359 -190.410931 
L 124.889306 -189.022804 
L 125.499253 -187.615174 
L 126.1092 -186.189009 
L 126.719147 -184.745267 
L 127.329095 -183.284894 
L 127.939042 -181.808826 
L 128.548989 -180.317986 
L 129.158936 -178.813286 
L 129.768883 -177.295624 
L 130.37883 -175.765887 
L 130.988778 -174.224945 
L 131.598725 -172.673658 
L 132.208672 -171.11287 
L 132.818619 -169.54341 
L 133.428566 -167.966094 
L 134.038513 -166.381722 
L 134.648461 -164.791079 
L 135.258408 -163.194935 
L 135.868355 -161.594043 
L 136.478302 -159.989143 
L 137.088249 -158.380958 
L 137.698196 -156.770193 
L 138.308144 -155.157541 
L 138.918091 -153.543675 
L 139.528038 -151.929254 
L 140.137985 -150.314921 
L 140.747932 -148.701302 
L 141.357879 -147.089006 
L 141.967827 -145.478628 
L 142.577774 -143.870745 
L 143.187721 -142.265918 
L 143.797668 -140.664693 
L 144.407615 -139.0676 
L 145.017562 -137.47515 
L 145.62751 -135.887843 
L 146.237457 -134.30616 
L 146.847404 -132.730567 
L 147.457351 -131.161514 
L 148.067298 -129.599437 
L 148.677245 -128.044757 
L 149.287193 -126.497877 
L 149.89714 -124.959189 
L 150.507087 -123.429067 
L 151.117034 -121.907872 
L 151.726981 -120.395951 
L 152.336928 -118.893636 
L 152.946876 -117.401245 
L 153.556823 -115.919082 
L 154.16677 -114.447439 
L 154.776717 -112.986594 
L 155.386664 -111.536809 
L 155.996611 -110.098338 
L 156.606559 -108.671418 
L 157.216506 -107.256276 
L 157.826453 -105.853127 
L 158.4364 -104.462171 
L 159.046347 -103.083599 
L 159.656294 -101.717591 
L 160.266242 -100.364313 
L 160.876189 -99.023921 
L 161.486136 -97.696562 
L 162.096083 -96.382371 
L 162.70603 -95.081471 
L 163.315977 -93.793978 
L 163.925925 -92.519996 
L 164.535872 -91.25962 
L 165.145819 -90.012936 
L 165.755766 -88.780021 
L 166.365713 -87.560942 
L 166.97566 -86.355758 
L 167.585608 -85.16452 
L 168.195555 -83.98727 
L 168.805502 -82.824043 
L 169.415449 -81.674865 
L 170.025396 -80.539756 
L 170.635343 -79.418728 
L 171.245291 -78.311786 
L 171.855238 -77.218928 
L 172.465185 -76.140145 
L 173.075132 -75.075422 
L 173.685079 -74.024739 
L 174.295026 -72.988069 
L 174.904974 -71.965379 
L 175.514921 -70.956631 
L 176.124868 -69.961781 
L 176.734815 -68.98078 
L 177.344762 -68.013575 
L 177.954709 -67.060107 
L 178.564657 -66.120314 
L 179.174604 -65.194128 
L 179.784551 -64.281478 
L 180.394498 -63.382287 
L 181.004445 -62.496478 
L 181.614392 -61.623965 
L 182.22434 -60.764664 
L 182.834287 -59.918485 
L 183.444234 -59.085333 
L 184.054181 -58.265114 
L 184.664128 -57.457727 
L 185.274075 -56.663073 
L 185.884023 -55.881046 
L 186.49397 -55.11154 
L 187.103917 -54.354446 
L 187.713864 -53.609654 
L 188.323811 -52.877049 
L 188.933758 -52.156518 
L 189.543706 -51.447944 
L 190.153653 -50.751209 
L 190.7636 -50.066193 
L 191.373547 -49.392774 
L 191.983494 -48.730831 
L 192.593441 -48.080241 
L 193.203389 -47.440878 
L 193.813336 -46.812618 
L 194.423283 -46.195333 
L 195.03323 -45.588897 
L 195.643177 -44.993183 
L 196.253124 -44.408062 
L 196.863072 -43.833405 
L 197.473019 -43.269083 
L 198.082966 -42.714967 
L 198.692913 -42.170927 
L 199.30286 -41.636834 
L 199.912807 -41.112558 
L 200.522755 -40.597968 
L 201.132702 -40.092936 
L 201.742649 -39.597332 
L 202.352596 -39.111025 
L 202.962543 -38.633888 
L 203.57249 -38.165792 
L 204.182438 -37.706607 
L 204.792385 -37.256207 
L 205.402332 -36.814464 
L 206.012279 -36.38125 
L 206.622226 -35.956439 
L 207.232173 -35.539907 
L 207.842121 -35.131527 
L 208.452068 -34.731176 
L 209.062015 -34.33873 
L 209.671962 -33.954067 
L 210.281909 -33.577064 
L 210.891856 -33.2076 
L 211.501804 -32.845556 
L 212.111751 -32.490812 
L 212.721698 -32.143249 
L 213.331645 -31.802752 
L 213.941592 -31.469203 
L 214.551539 -31.142488 
L 215.161487 -30.822492 
L 215.771434 -30.509102 
L 216.381381 -30.202206 
L 216.991328 -29.901693 
L 217.601275 -29.607455 
L 218.211222 -29.319381 
L 218.82117 -29.037366 
L 219.431117 -28.761302 
L 220.041064 -28.491084 
L 220.651011 -28.226609 
L 221.260958 -27.967775 
L 221.870905 -27.714478 
L 222.480853 -27.466621 
L 223.0908 -27.224103 
L 223.700747 -26.986826 
L 224.310694 -26.754695 
L 224.920641 -26.527614 
L 225.530588 -26.305489 
L 226.140536 -26.088227 
L 226.750483 -25.875737 
L 227.36043 -25.667928 
L 227.970377 -25.464712 
L 228.580324 -25.266 
L 229.190271 -25.071706 
L 229.800219 -24.881744 
L 230.410166 -24.696032 
L 231.020113 -24.514485 
L 231.63006 -24.337022 
L 232.240007 -24.163563 
L 232.849954 -23.994028 
L 233.459902 -23.82834 
L 234.069849 -23.666422 
L 234.679796 -23.508197 
L 235.289743 -23.353593 
L 235.89969 -23.202535 
L 236.509637 -23.054951 
L 237.119585 -22.910771 
L 237.729532 -22.769925 
L 238.339479 -22.632344 
L 238.949426 -22.497961 
L 239.559373 -22.36671 
L 240.16932 -22.238525 
L 240.779268 -22.113342 
L 241.389215 -21.991099 
L 241.999162 -21.871733 
L 242.609109 -21.755183 
L 243.219056 -21.641391 
L 243.829003 -21.530296 
L 244.438951 -21.421842 
L 245.048898 -21.315971 
L 245.658845 -21.212629 
L 246.268792 -21.11176 
L 246.878739 -21.013311 
L 247.488686 -20.917229 
L 248.098634 -20.823462 
L 248.708581 -20.731961 
L 249.318528 -20.642674 
L 249.928475 -20.555554 
L 250.538422 -20.470552 
L 251.148369 -20.387622 
L 251.758317 -20.306716 
L 252.368264 -20.227791 
L 252.978211 -20.150801 
L 253.588158 -20.075704 
L 254.198105 -20.002455 
L 254.808052 -19.931015 
L 255.418 -19.861341 
L 256.027947 -19.793394 
L 256.637894 -19.727134 
L 257.247841 -19.662523 
L 257.857788 -19.599522 
L 258.467735 -19.538095 
L 259.077683 -19.478205 
L 259.68763 -19.419818 
L 260.297577 -19.362897 
L 260.907524 -19.307409 
L 261.517471 -19.253321 
L 262.127418 -19.2006 
L 262.737366 -19.149213 
L 263.347313 -19.09913 
L 263.95726 -19.050319 
L 264.567207 -19.002751 
L 265.177154 -18.956396 
L 265.787101 -18.911226 
L 266.397049 -18.867212 
L 267.006996 -18.824326 
L 267.616943 -18.782542 
L 268.22689 -18.741833 
L 268.836837 -18.702173 
L 269.446784 -18.663538 
L 270.056732 -18.625902 
L 270.666679 -18.589241 
L 271.276626 -18.553531 
L 271.886573 -18.51875 
L 272.49652 -18.484874 
L 273.106467 -18.451882 
L 273.716415 -18.419753 
L 274.326362 -18.388463 
L 274.936309 -18.357995 
L 275.546256 -18.328326 
L 276.156203 -18.299437 
L 276.76615 -18.271309 
L 277.376098 -18.243923 
L 277.986045 -18.21726 
L 278.595992 -18.191304 
L 279.205939 -18.166035 
L 279.815886 -18.141437 
L 280.425833 -18.117492 
L 281.035781 -18.094186 
L 281.645728 -18.0715 
L 282.255675 -18.049421 
L 282.865622 -18.027932 
L 283.475569 -18.007019 
L 284.085516 -17.986666 
L 284.695464 -17.96686 
L 285.305411 -17.947588 
L 285.915358 -17.928834 
L 286.525305 -17.910586 
L 287.135252 -17.892831 
L 287.745199 -17.875557 
L 288.355147 -17.858751 
L 288.965094 -17.8424 
L 289.575041 -17.826494 
L 290.184988 -17.81102 
L 290.794935 -17.795969 
L 291.404882 -17.781327 
L 292.01483 -17.767086 
L 292.624777 -17.753234 
L 293.234724 -17.739762 
L 293.844671 -17.726659 
L 294.454618 -17.713916 
L 295.064565 -17.701523 
L 295.674513 -17.689471 
L 296.28446 -17.677752 
L 296.894407 -17.666356 
L 297.504354 -17.655276 
L 298.114301 -17.644502 
L 298.724248 -17.634026 
L 299.334196 -17.623841 
L 299.944143 -17.613939 
L 300.55409 -17.604313 
L 301.164037 -17.594954 
L 301.773984 -17.585857 
L 302.383931 -17.577013 
L 302.993879 -17.568417 
L 303.603826 -17.560061 
L 304.213773 -17.551939 
L 304.82372 -17.544045 
L 305.433667 -17.536373 
L 306.043615 -17.528917 
L 306.653562 -17.52167 
L 307.263509 -17.514628 
L 307.873456 -17.507784 
L 308.483403 -17.501134 
L 309.09335 -17.494671 
L 309.703298 -17.488392 
L 310.313245 -17.482291 
L 310.923192 -17.476363 
L 311.533139 -17.470603 
L 312.143086 -17.465007 
L 312.753033 -17.45957 
L 313.362981 -17.454288 
L 313.972928 -17.449157 
L 314.582875 -17.444173 
L 315.192822 -17.439331 
L 315.802769 -17.434628 
L 316.412716 -17.430059 
L 317.022664 -17.425622 
L 317.632611 -17.421311 
L 318.242558 -17.417125 
L 318.852505 -17.41306 
L 319.462452 -17.409111 
L 320.072399 -17.405276 
L 320.682347 -17.401552 
L 321.292294 -17.397936 
L 321.902241 -17.394424 
L 322.512188 -17.391014 
L 323.122135 -17.387702 
L 323.732082 -17.384487 
L 324.34203 -17.381365 
L 324.951977 -17.378334 
L 325.561924 -17.375391 
L 326.171871 -17.372534 
L 326.781818 -17.36976 
L 326.781818 -17.28 
L 326.781818 -17.28 
L 326.171871 -17.28 
L 325.561924 -17.28 
L 324.951977 -17.28 
L 324.34203 -17.28 
L 323.732082 -17.28 
L 323.122135 -17.28 
L 322.512188 -17.28 
L 321.902241 -17.28 
L 321.292294 -17.28 
L 320.682347 -17.28 
L 320.072399 -17.28 
L 319.462452 -17.28 
L 318.852505 -17.28 
L 318.242558 -17.28 
L 317.632611 -17.28 
L 317.022664 -17.28 
L 316.412716 -17.28 
L 315.802769 -17.28 
L 315.192822 -17.28 
L 314.582875 -17.28 
L 313.972928 -17.28 
L 313.362981 -17.28 
L 312.753033 -17.28 
L 312.143086 -17.28 
L 311.533139 -17.28 
L 310.923192 -17.28 
L 310.313245 -17.28 
L 309.703298 -17.28 
L 309.09335 -17.28 
L 308.483403 -17.28 
L 307.873456 -17.28 
L 307.263509 -17.28 
L 306.653562 -17.28 
L 306.043615 -17.28 
L 305.433667 -17.28 
L 304.82372 -17.28 
L 304.213773 -17.28 
L 303.603826 -17.28 
L 302.993879 -17.28 
L 302.383931 -17.28 
L 301.773984 -17.28 
L 301.164037 -17.28 
L 300.55409 -17.28 
L 299.944143 -17.28 
L 299.334196 -17.28 
L 298.724248 -17.28 
L 298.114301 -17.28 
L 297.504354 -17.28 
L 296.894407 -17.28 
L 296.28446 -17.28 
L 295.674513 -17.28 
L 295.064565 -17.28 
L 294.454618 -17.28 
L 293.844671 -17.28 
L 293.234724 -17.28 
L 292.624777 -17.28 
L 292.01483 -17.28 
L 291.404882 -17.28 
L 290.794935 -17.28 
L 290.184988 -17.28 
L 289.575041 -17.28 
L 288.965094 -17.28 
L 288.355147 -17.28 
L 287.745199 -17.28 
L 287.135252 -17.28 
L 286.525305 -17.28 
L 285.915358 -17.28 
L 285.305411 -17.28 
L 284.695464 -17.28 
L 284.085516 -17.28 
L 283.475569 -17.28 
L 282.865622 -17.28 
L 282.255675 -17.28 
L 281.645728 -17.28 
L 281.035781 -17.28 
L 280.425833 -17.28 
L 279.815886 -17.28 
L 279.205939 -17.28 
L 278.595992 -17.28 
L 277.986045 -17.28 
L 277.376098 -17.28 
L 276.76615 -17.28 
L 276.156203 -17.28 
L 275.546256 -17.28 
L 274.936309 -17.28 
L 274.326362 -17.28 
L 273.716415 -17.28 
L 273.106467 -17.28 
L 272.49652 -17.28 
L 271.886573 -17.28 
L 271.276626 -17.28 
L 270.666679 -17.28 
L 270.056732 -17.28 
L 269.446784 -17.28 
L 268.836837 -17.28 
L 268.22689 -17.28 
L 267.616943 -17.28 
L 267.006996 -17.28 
L 266.397049 -17.28 
L 265.787101 -17.28 
L 265.177154 -17.28 
L 264.567207 -17.28 
L 263.95726 -17.28 
L 263.347313 -17.28 
L 262.737366 -17.28 
L 262.127418 -17.28 
L 261.517471 -17.28 
L 260.907524 -17.28 
L 260.297577 -17.28 
L 259.68763 -17.28 
L 259.077683 -17.28 
L 258.467735 -17.28 
L 257.857788 -17.28 
L 257.247841 -17.28 
L 256.637894 -17.28 
L 256.027947 -17.28 
L 255.418 -17.28 
L 254.808052 -17.28 
L 254.198105 -17.28 
L 253.588158 -17.28 
L 252.978211 -17.28 
L 252.368264 -17.28 
L 251.758317 -17.28 
L 251.148369 -17.28 
L 250.538422 -17.28 
L 249.928475 -17.28 
L 249.318528 -17.28 
L 248.708581 -17.28 
L 248.098634 -17.28 
L 247.488686 -17.28 
L 246.878739 -17.28 
L 246.268792 -17.28 
L 245.658845 -17.28 
L 245.048898 -17.28 
L 244.438951 -17.28 
L 243.829003 -17.28 
L 243.219056 -17.28 
L 242.609109 -17.28 
L 241.999162 -17.28 
L 241.389215 -17.28 
L 240.779268 -17.28 
L 240.16932 -17.28 
L 239.559373 -17.28 
L 238.949426 -17.28 
L 238.339479 -17.28 
L 237.729532 -17.28 
L 237.119585 -17.28 
L 236.509637 -17.28 
L 235.89969 -17.28 
L 235.289743 -17.28 
L 234.679796 -17.28 
L 234.069849 -17.28 
L 233.459902 -17.28 
L 232.849954 -17.28 
L 232.240007 -17.28 
L 231.63006 -17.28 
L 231.020113 -17.28 
L 230.410166 -17.28 
L 229.800219 -17.28 
L 229.190271 -17.28 
L 228.580324 -17.28 
L 227.970377 -17.28 
L 227.36043 -17.28 
L 226.750483 -17.28 
L 226.140536 -17.28 
L 225.530588 -17.28 
L 224.920641 -17.28 
L 224.310694 -17.28 
L 223.700747 -17.28 
L 223.0908 -17.28 
L 222.480853 -17.28 
L 221.870905 -17.28 
L 221.260958 -17.28 
L 220.651011 -17.28 
L 220.041064 -17.28 
L 219.431117 -17.28 
L 218.82117 -17.28 
L 218.211222 -17.28 
L 217.601275 -17.28 
L 216.991328 -17.28 
L 216.381381 -17.28 
L 215.771434 -17.28 
L 215.161487 -17.28 
L 214.551539 -17.28 
L 213.941592 -17.28 
L 213.331645 -17.28 
L 212.721698 -17.28 
L 212.111751 -17.28 
L 211.501804 -17.28 
L 210.891856 -17.28 
L 210.281909 -17.28 
L 209.671962 -17.28 
L 209.062015 -17.28 
L 208.452068 -17.28 
L 207.842121 -17.28 
L 207.232173 -17.28 
L 206.622226 -17.28 
L 206.012279 -17.28 
L 205.402332 -17.28 
L 204.792385 -17.28 
L 204.182438 -17.28 
L 203.57249 -17.28 
L 202.962543 -17.28 
L 202.352596 -17.28 
L 201.742649 -17.28 
L 201.132702 -17.28 
L 200.522755 -17.28 
L 199.912807 -17.28 
L 199.30286 -17.28 
L 198.692913 -17.28 
L 198.082966 -17.28 
L 197.473019 -17.28 
L 196.863072 -17.28 
L 196.253124 -17.28 
L 195.643177 -17.28 
L 195.03323 -17.28 
L 194.423283 -17.28 
L 193.813336 -17.28 
L 193.203389 -17.28 
L 192.593441 -17.28 
L 191.983494 -17.28 
L 191.373547 -17.28 
L 190.7636 -17.28 
L 190.153653 -17.28 
L 189.543706 -17.28 
L 188.933758 -17.28 
L 188.323811 -17.28 
L 187.713864 -17.28 
L 187.103917 -17.28 
L 186.49397 -17.28 
L 185.884023 -17.28 
L 185.274075 -17.28 
L 184.664128 -17.28 
L 184.054181 -17.28 
L 183.444234 -17.28 
L 182.834287 -17.28 
L 182.22434 -17.28 
L 181.614392 -17.28 
L 181.004445 -17.28 
L 180.394498 -17.28 
L 179.784551 -17.28 
L 179.174604 -17.28 
L 178.564657 -17.28 
L 177.954709 -17.28 
L 177.344762 -17.28 
L 176.734815 -17.28 
L 176.124868 -17.28 
L 175.514921 -17.28 
L 174.904974 -17.28 
L 174.295026 -17.28 
L 173.685079 -17.28 
L 173.075132 -17.28 
L 172.465185 -17.28 
L 171.855238 -17.28 
L 171.245291 -17.28 
L 170.635343 -17.28 
L 170.025396 -17.28 
L 169.415449 -17.28 
L 168.805502 -17.28 
L 168.195555 -17.28 
L 167.585608 -17.28 
L 166.97566 -17.28 
L 166.365713 -17.28 
L 165.755766 -17.28 
L 165.145819 -17.28 
L 164.535872 -17.28 
L 163.925925 -17.28 
L 163.315977 -17.28 
L 162.70603 -17.28 
L 162.096083 -17.28 
L 161.486136 -17.28 
L 160.876189 -17.28 
L 160.266242 -17.28 
L 159.656294 -17.28 
L 159.046347 -17.28 
L 158.4364 -17.28 
L 157.826453 -17.28 
L 157.216506 -17.28 
L 156.606559 -17.28 
L 155.996611 -17.28 
L 155.386664 -17.28 
L 154.776717 -17.28 
L 154.16677 -17.28 
L 153.556823 -17.28 
L 152.946876 -17.28 
L 152.336928 -17.28 
L 151.726981 -17.28 
L 151.117034 -17.28 
L 150.507087 -17.28 
L 149.89714 -17.28 
L 149.287193 -17.28 
L 148.677245 -17.28 
L 148.067298 -17.28 
L 147.457351 -17.28 
L 146.847404 -17.28 
L 146.237457 -17.28 
L 145.62751 -17.28 
L 145.017562 -17.28 
L 144.407615 -17.28 
L 143.797668 -17.28 
L 143.187721 -17.28 
L 142.577774 -17.28 
L 141.967827 -17.28 
L 141.357879 -17.28 
L 140.747932 -17.28 
L 140.137985 -17.28 
L 139.528038 -17.28 
L 138.918091 -17.28 
L 138.308144 -17.28 
L 137.698196 -17.28 
L 137.088249 -17.28 
L 136.478302 -17.28 
L 135.868355 -17.28 
L 135.258408 -17.28 
L 134.648461 -17.28 
L 134.038513 -17.28 
L 133.428566 -17.28 
L 132.818619 -17.28 
L 132.208672 -17.28 
L 131.598725 -17.28 
L 130.988778 -17.28 
L 130.37883 -17.28 
L 129.768883 -17.28 
L 129.158936 -17.28 
L 128.548989 -17.28 
L 127.939042 -17.28 
L 127.329095 -17.28 
L 126.719147 -17.28 
L 126.1092 -17.28 
L 125.499253 -17.28 
L 124.889306 -17.28 
L 124.279359 -17.28 
L 123.669412 -17.28 
L 123.059464 -17.28 
L 122.449517 -17.28 
L 121.83957 -17.28 
L 121.229623 -17.28 
L 120.619676 -17.28 
L 120.009729 -17.28 
L 119.399781 -17.28 
L 118.789834 -17.28 
L 118.179887 -17.28 
L 117.56994 -17.28 
L 116.959993 -17.28 
L 116.350046 -17.28 
L 115.740098 -17.28 
L 115.130151 -17.28 
L 114.520204 -17.28 
L 113.910257 -17.28 
L 113.30031 -17.28 
L 112.690363 -17.28 
L 112.080415 -17.28 
L 111.470468 -17.28 
L 110.860521 -17.28 
L 110.250574 -17.28 
L 109.640627 -17.28 
L 109.03068 -17.28 
L 108.420732 -17.28 
L 107.810785 -17.28 
L 107.200838 -17.28 
L 106.590891 -17.28 
L 105.980944 -17.28 
L 105.370997 -17.28 
L 104.761049 -17.28 
L 104.151102 -17.28 
L 103.541155 -17.28 
L 102.931208 -17.28 
L 102.321261 -17.28 
L 101.711314 -17.28 
L 101.101366 -17.28 
L 100.491419 -17.28 
L 99.881472 -17.28 
L 99.271525 -17.28 
L 98.661578 -17.28 
L 98.051631 -17.28 
L 97.441683 -17.28 
L 96.831736 -17.28 
L 96.221789 -17.28 
L 95.611842 -17.28 
L 95.001895 -17.28 
L 94.391948 -17.28 
L 93.782 -17.28 
L 93.172053 -17.28 
L 92.562106 -17.28 
L 91.952159 -17.28 
L 91.342212 -17.28 
L 90.732265 -17.28 
L 90.122317 -17.28 
L 89.51237 -17.28 
L 88.902423 -17.28 
L 88.292476 -17.28 
L 87.682529 -17.28 
L 87.072582 -17.28 
L 86.462634 -17.28 
L 85.852687 -17.28 
L 85.24274 -17.28 
L 84.632793 -17.28 
L 84.022846 -17.28 
L 83.412899 -17.28 
L 82.802951 -17.28 
L 82.193004 -17.28 
L 81.583057 -17.28 
L 80.97311 -17.28 
L 80.363163 -17.28 
L 79.753216 -17.28 
L 79.143268 -17.28 
L 78.533321 -17.28 
L 77.923374 -17.28 
L 77.313427 -17.28 
L 76.70348 -17.28 
L 76.093533 -17.28 
L 75.483585 -17.28 
L 74.873638 -17.28 
L 74.263691 -17.28 
L 73.653744 -17.28 
L 73.043797 -17.28 
L 72.43385 -17.28 
L 71.823902 -17.28 
L 71.213955 -17.28 
L 70.604008 -17.28 
L 69.994061 -17.28 
L 69.384114 -17.28 
L 68.774167 -17.28 
L 68.164219 -17.28 
L 67.554272 -17.28 
L 66.944325 -17.28 
L 66.334378 -17.28 
L 65.724431 -17.28 
L 65.114484 -17.28 
L 64.504536 -17.28 
L 63.894589 -17.28 
L 63.284642 -17.28 
L 62.674695 -17.28 
L 62.064748 -17.28 
L 61.454801 -17.28 
L 60.844853 -17.28 
L 60.234906 -17.28 
L 59.624959 -17.28 
L 59.015012 -17.28 
L 58.405065 -17.28 
L 57.795118 -17.28 
L 57.18517 -17.28 
L 56.575223 -17.28 
L 55.965276 -17.28 
L 55.355329 -17.28 
L 54.745382 -17.28 
L 54.135435 -17.28 
L 53.525487 -17.28 
L 52.91554 -17.28 
L 52.305593 -17.28 
L 51.695646 -17.28 
L 51.085699 -17.28 
L 50.475752 -17.28 
L 49.865804 -17.28 
L 49.255857 -17.28 
L 48.64591 -17.28 
L 48.035963 -17.28 
L 47.426016 -17.28 
L 46.816069 -17.28 
L 46.206121 -17.28 
L 45.596174 -17.28 
L 44.986227 -17.28 
L 44.37628 -17.28 
L 43.766333 -17.28 
L 43.156385 -17.28 
L 42.546438 -17.28 
L 41.936491 -17.28 
L 41.326544 -17.28 
L 40.716597 -17.28 
L 40.10665 -17.28 
L 39.496702 -17.28 
L 38.886755 -17.28 
L 38.276808 -17.28 
L 37.666861 -17.28 
L 37.056914 -17.28 
L 36.446967 -17.28 
L 35.837019 -17.28 
L 35.227072 -17.28 
L 34.617125 -17.28 
L 34.007178 -17.28 
L 33.397231 -17.28 
L 32.787284 -17.28 
L 32.177336 -17.28 
L 31.567389 -17.28 
L 30.957442 -17.28 
L 30.347495 -17.28 
L 29.737548 -17.28 
L 29.127601 -17.28 
L 28.517653 -17.28 
L 27.907706 -17.28 
L 27.297759 -17.28 
L 26.687812 -17.28 
L 26.077865 -17.28 
L 25.467918 -17.28 
L 24.85797 -17.28 
L 24.248023 -17.28 
L 23.638076 -17.28 
L 23.028129 -17.28 
L 22.418182 -17.28 
z
" style="stroke: #ffa500"/>
    </defs>
    <g clip-path="url(#pef31699f53)">
     <use xlink:href="#m0e063617ba" x="0" y="236.16" style="fill: #ffa500; stroke: #ffa500"/>
    </g>
   </g>
   <g id="line2d_1">
    <path d="M 22.418182 218.415946 
L 24.85797 217.94628 
L 26.687812 217.400796 
L 28.517653 216.641176 
L 30.347495 215.621389 
L 32.177336 214.295035 
L 34.007178 212.617121 
L 35.837019 210.545807 
L 37.666861 208.044017 
L 39.496702 205.080858 
L 41.326544 201.632801 
L 43.156385 197.684569 
L 44.986227 193.22974 
L 46.816069 188.271055 
L 49.255857 180.89759 
L 51.695646 172.703345 
L 54.135435 163.767068 
L 57.18517 151.709821 
L 60.844853 136.260306 
L 68.164219 103.99477 
L 73.043797 83.077353 
L 76.093533 70.835898 
L 79.143268 59.51677 
L 81.583057 51.25819 
L 84.022846 43.79795 
L 86.462634 37.201637 
L 88.292476 32.851384 
L 90.122317 29.029481 
L 91.952159 25.745457 
L 93.782 23.004029 
L 95.611842 20.80536 
L 96.831736 19.639259 
L 98.051631 18.710451 
L 99.271525 18.016008 
L 100.491419 17.55232 
L 101.711314 17.315139 
L 102.931208 17.299632 
L 104.151102 17.500424 
L 105.370997 17.911654 
L 106.590891 18.527017 
L 107.810785 19.339814 
L 109.640627 20.913706 
L 111.470468 22.890903 
L 113.30031 25.245212 
L 115.130151 27.949567 
L 117.56994 32.052059 
L 120.009729 36.66143 
L 122.449517 41.711523 
L 125.499253 48.544826 
L 129.158936 57.346714 
L 134.038513 69.778278 
L 152.336928 117.266364 
L 156.606559 127.488582 
L 160.876189 137.136079 
L 164.535872 144.90038 
L 168.195555 152.17273 
L 171.855238 158.941072 
L 175.514921 165.203369 
L 179.174604 170.965872 
L 182.22434 175.395336 
L 185.274075 179.496927 
L 188.323811 183.282951 
L 191.373547 186.767226 
L 194.423283 189.964667 
L 197.473019 192.890917 
L 201.132702 196.067064 
L 204.792385 198.903793 
L 208.452068 201.428824 
L 212.111751 203.669188 
L 215.771434 205.650898 
L 219.431117 207.398698 
L 223.700747 209.173174 
L 227.970377 210.695288 
L 232.240007 211.996437 
L 237.119585 213.249229 
L 242.609109 214.404817 
L 248.098634 215.336538 
L 254.198105 216.157545 
L 261.517471 216.906679 
L 270.056732 217.534098 
L 279.815886 218.018563 
L 292.01483 218.392914 
L 308.483403 218.658866 
L 326.781818 218.79024 
L 326.781818 218.79024 
" clip-path="url(#pef31699f53)" style="fill: none; stroke: #000000; stroke-width: 5; stroke-linecap: square"/>
   </g>
  </g>
 </g>
 <defs>
  <clipPath id="pef31699f53">
   <rect x="7.2" y="7.2" width="334.8" height="221.76"/>
  </clipPath>
 </defs>
</svg>
